<svg id="Layer_1" data-name="Layer 1" xmlns="http://www.w3.org/2000/svg" width="365.5" height="591.29" viewBox="0 0 365.5 591.29"><defs><style>.cls-1{fill:#d1bc9f;}.cls-2{fill:#70cbf4;}.cls-3{fill:#ebe7d9;}.cls-4{fill:#2962ff;}.cls-15,.cls-5{fill:#fff9d4;}.cls-6{fill:#d40e14;}.cls-18,.cls-19,.cls-20,.cls-21,.cls-7{fill:#fff;}.cls-8{fill:#ff2;}.cls-9{fill:#092a5e;}.cls-10,.cls-14{fill:none;}.cls-11{fill:#d1b690;}.cls-12{fill:#d1a09f;}.cls-13,.cls-15{opacity:0.3;}.cls-14{stroke:#000;stroke-miterlimit:10;}.cls-16{fill:#437615;opacity:0.15;}.cls-17,.cls-18{opacity:0.1;}.cls-19{opacity:0.5;}.cls-20,.cls-22{opacity:0.6;}.cls-21{opacity:0.7;}.cls-23{opacity:0.4;}.cls-24{opacity:0.2;}.cls-25{fill:red;}.cls-26{fill:#77a300;}.cls-27{fill:#778900;}.cls-28{fill:#776700;}.cls-29{fill:#b57f00;}.cls-30{fill:#debd00;}.cls-31{fill:#b54600;opacity:0.9;}</style></defs><rect class="cls-1" x="132.48" y="308.52" width="78.58" height="125.97"/><rect class="cls-1" x="12.46" y="388.75" width="312.57" height="185.5" rx="91.77"/><rect class="cls-1" x="12.46" y="499.19" width="312.57" height="91.45"/><path class="cls-2" d="M97.84,445.16c-5.06-2.63,21.46-63.73,21.46-63.73a10.39,10.39,0,0,1,14-4.41l5.37,2.78a10.38,10.38,0,0,1,4.41,14l-28.78,32.72Z"/><path class="cls-2" d="M153.25,448.29H142.8c-4.72,0-8.59-55.27-8.59-55.27a8.16,8.16,0,0,1,.18-1.72,8.62,8.62,0,0,1,8.41-6.86h10.45a8.61,8.61,0,0,1,8.59,8.58S158,448.29,153.25,448.29Z"/><rect class="cls-2" x="130.76" y="341.3" width="81.17" height="43.14" rx="3.62"/><path class="cls-3" d="M195.69,341.3h13.07s-8.3,31.92-19.4,43.14H178.68S195.86,356,195.69,341.3Z"/><path class="cls-3" d="M170,341.3h13.07s-8.3,31.92-19.4,43.14H153S170.16,356,170,341.3Z"/><path class="cls-3" d="M132.54,384.06s-2.65,0-1.78-4.54c0,0,10.25-14.06,14.19-38.22H158s-6.48,26.75-18.17,43.14l-5.95-.31Z"/><path class="cls-3" d="M119.3,381.43s2,18.94,13.18,24.35l-6.59,7.49s-11-8.86-11.71-19.71Z"/><path class="cls-3" d="M108.81,406.84s1.07,10.21,10.64,13.75l-5.18,5.89s-9.27-6.7-8.48-11.86Z"/><path class="cls-3" d="M102.42,423.79s1.23,8.39,6.58,8.68l-3.26,3.7a7.56,7.56,0,0,1-5.41-6.19Z"/><path class="cls-3" d="M97.8,438.94s1.17,2.81,2.82,3.06l-2.78,3.16S95.92,443.39,97.8,438.94Z"/><path class="cls-3" d="M134.54,397.35s22.12-.06,27.3-4.33l-.69,8.87s-25,5.2-26,2.93Z"/><path class="cls-3" d="M134.35,394.79s6.42-6.59,26.63-6.17a9.56,9.56,0,0,0-7.65-4.18h-13s-4.29,0-6.15,3.43Z"/><path class="cls-3" d="M136,413.27s17.77,3.46,24.42-2.76l-1,9.55s-12.87,3.65-22.48,2.14Z"/><path class="cls-3" d="M137.82,429.48s20.09,2.18,20.33.57-1.18,7.59-1.18,7.59-17.23,1.28-18.26-2.23Z"/><path class="cls-4" d="M15.83,445.16s147,39.14,305.84,0c0,0,9.41-22.76,3.37,145.48H12.46S8.84,461,15.83,445.16Z"/><path class="cls-2" d="M15.83,445.16l4.51-11.54s140.43,44.86,296.82,0l4.51,11.54S185,486.89,15.83,445.16Z"/><rect class="cls-5" x="203.2" y="496.44" width="71.28" height="29.74" rx="12"/><path class="cls-2" d="M212.71,494.88H265a9.5,9.5,0,0,1,9.5,9.5v3.8a0,0,0,0,1,0,0H203.2a0,0,0,0,1,0,0v-3.8A9.5,9.5,0,0,1,212.71,494.88Z"/><ellipse class="cls-6" cx="208.96" cy="497.76" rx="1.71" ry="1.61"/><ellipse class="cls-6" cx="214.07" cy="498.16" rx="1.71" ry="1.21"/><path class="cls-6" d="M206.4,500.15s4.26,12,10.23,0C216.63,500.15,211.52,506.56,206.4,500.15Z"/><rect class="cls-6" x="207.04" y="511.49" width="14.2" height="9.58" rx="2.42"/><rect class="cls-7" x="212.03" y="511.49" width="1.92" height="9.58"/><rect class="cls-7" x="213.18" y="509.18" width="1.92" height="14.2" transform="translate(730.42 302.14) rotate(90)"/><rect class="cls-4" x="224.3" y="511.49" width="14.2" height="9.58" rx="2.42"/><rect class="cls-8" x="229.29" y="511.49" width="1.92" height="9.58"/><rect class="cls-8" x="230.44" y="509.18" width="1.92" height="14.2" transform="translate(747.68 284.88) rotate(90)"/><rect class="cls-6" x="241.57" y="511.49" width="14.2" height="9.58" rx="2.42"/><rect class="cls-7" x="246.56" y="511.49" width="1.92" height="9.58"/><rect class="cls-7" x="247.71" y="509.18" width="1.92" height="14.2" transform="translate(764.95 267.61) rotate(90)"/><rect class="cls-9" x="246.94" y="511.49" width="1.15" height="9.58"/><rect class="cls-9" x="248.09" y="509.18" width="1.15" height="14.2" transform="translate(-267.61 764.95) rotate(-90)"/><polygon class="cls-10" points="261.78 519.04 264.5 517.39 264.36 517.39 261.78 519.04"/><polygon class="cls-9" points="258.83 512.61 258.83 515.21 262.8 515.21 258.83 512.61"/><path class="cls-9" d="M271.56,511.6h-4.74v2.89Z"/><polygon class="cls-9" points="258.83 517.39 258.83 519.32 262.01 517.39 258.83 517.39"/><polygon class="cls-9" points="264.64 511.59 260.3 511.59 264.64 514.44 264.64 511.59"/><polygon class="cls-9" points="259.75 520.65 264.64 520.65 264.64 517.69 259.75 520.65"/><polygon class="cls-9" points="272.26 515.21 272.26 513.07 268.72 515.21 272.26 515.21"/><polygon class="cls-9" points="272.26 519.44 272.26 517.39 269.14 517.39 272.26 519.44"/><polygon class="cls-9" points="266.82 520.65 271.08 520.65 266.82 517.86 266.82 520.65"/><path class="cls-7" d="M259.38,520.58l0,0-.07,0-.17.1.17.28.48-.29h0A.88.88,0,0,1,259.38,520.58Z"/><path class="cls-7" d="M266.82,515.21h.47l4.93-3v0a.87.87,0,0,0-.67-.65l-4.74,2.88Zm5-3.35v0a.76.76,0,0,1,0,.21v.22l-4.17,2.53h-.8Z"/><path class="cls-7" d="M264.64,517.39h-.14L261.78,519l-2.4,1.54a.88.88,0,0,0,.33.07h0l4.89-3Z"/><polygon class="cls-7" points="272.26 513.07 272.26 512.68 268.09 515.21 268.72 515.21 272.26 513.07"/><path class="cls-7" d="M262,517.39l-3.18,1.93v.46a.85.85,0,0,0,.15.47l2.58-1.56,2-1.3Z"/><path class="cls-7" d="M264.64,515.21v-.77l-4.34-2.85h-.59a.87.87,0,0,0-.6.24l5.15,3.38Z"/><path class="cls-7" d="M267.58,517.39l4.48,2.94a.78.78,0,0,0,.1-.15l-4.25-2.79Z"/><polygon class="cls-7" points="268.66 517.39 272.26 519.75 272.26 519.44 269.14 517.39 268.66 517.39"/><path class="cls-7" d="M266.82,517.86l4.26,2.79h.3a.87.87,0,0,0,.32-.06l-4.88-3.2h0Z"/><path class="cls-7" d="M263.51,515.21l-4.62-3a.67.67,0,0,0-.06.28v.15l4,2.6Z"/><path class="cls-6" d="M264.26,515.21l-5.15-3.38a.8.8,0,0,0-.22.35l4.62,3Z"/><path class="cls-6" d="M272.26,519.75l-3.6-2.36h-.75l4.25,2.79a.91.91,0,0,0,.1-.4Z"/><path class="cls-6" d="M261.78,519l2.58-1.65h-.66l-2.14,1.3L259,520.32a.85.85,0,0,0,.26.24l0,0Z"/><path class="cls-6" d="M259.38,520.58l-.08,0,0,0,.07,0Z"/><path class="cls-6" d="M259.38,520.58l2.4-1.54-2.48,1.5Z"/><polygon class="cls-6" points="263.59 517.39 261.56 518.69 263.7 517.39 263.59 517.39"/><path class="cls-6" d="M271.9,512.32v-.22a.76.76,0,0,0,0-.21v0l-4.93,3h.8Z"/><polygon class="cls-7" points="269.14 517.39 272.26 517.39 272.26 517.03 268.58 517.03 269.14 517.39"/><polygon class="cls-7" points="262.61 517.03 258.83 517.03 258.83 517.39 262.01 517.39 262.61 517.03"/><polygon class="cls-7" points="262.8 515.21 258.83 515.21 258.83 515.58 263.35 515.58 262.8 515.21"/><polygon class="cls-7" points="268.12 515.58 272.26 515.58 272.26 515.21 268.72 515.21 268.12 515.58"/><polygon class="cls-7" points="268.12 515.58 268.72 515.21 268.09 515.21 267.49 515.58 268.12 515.58"/><polygon class="cls-7" points="266.82 515.5 267.29 515.21 266.82 515.21 266.82 515.5"/><polygon class="cls-7" points="263.78 517.34 264.3 517.03 262.61 517.03 262.01 517.39 263.59 517.39 263.66 517.34 263.78 517.34"/><polygon class="cls-7" points="263.66 517.34 263.59 517.39 263.7 517.39 263.78 517.34 263.66 517.34"/><polygon class="cls-7" points="264.5 517.39 264.64 517.39 264.64 517.3 264.5 517.39"/><polygon class="cls-7" points="264.64 515.21 264.26 515.21 264.64 515.46 264.64 515.21"/><polygon class="cls-7" points="263.51 515.21 262.8 515.21 263.35 515.58 264.06 515.58 263.51 515.21"/><polygon class="cls-7" points="268.66 517.39 269.14 517.39 268.58 517.03 267.02 517.03 267.57 517.39 267.91 517.39 268.66 517.39"/><polygon class="cls-7" points="266.82 517.39 266.82 517.39 266.82 517.39 266.82 517.39"/><polygon class="cls-7" points="266.82 517.03 266.82 517.39 266.82 517.39 267.57 517.39 267.02 517.03 266.82 517.03"/><polygon class="cls-7" points="264.64 515.58 264.64 515.46 264.26 515.21 263.51 515.21 264.06 515.58 264.64 515.58"/><polygon class="cls-7" points="264.64 517.03 264.3 517.03 263.78 517.34 264.46 517.32 264.36 517.39 264.5 517.39 264.64 517.3 264.64 517.03"/><polygon class="cls-7" points="263.78 517.34 263.7 517.39 264.36 517.39 264.46 517.32 263.78 517.34"/><polygon class="cls-7" points="266.82 515.58 267.49 515.58 268.09 515.21 267.29 515.21 266.82 515.5 266.82 515.58"/><polygon class="cls-7" points="264.64 517.69 264.64 520.65 265 520.65 265 517.47 264.64 517.69"/><polygon class="cls-7" points="266.46 517.62 266.46 520.65 266.82 520.65 266.82 517.86 266.46 517.62"/><polygon class="cls-7" points="265 514.67 265 511.59 264.64 511.59 264.64 514.44 265 514.67"/><polygon class="cls-7" points="266.82 514.48 266.82 511.59 266.46 511.59 266.46 514.7 266.82 514.48"/><polygon class="cls-7" points="264.64 517.39 264.64 517.69 265 517.47 265 517.39 264.64 517.39"/><polygon class="cls-7" points="266.82 515.21 266.82 514.48 266.46 514.7 266.46 515.21 266.82 515.21"/><polygon class="cls-7" points="265 514.67 264.64 514.44 264.64 515.21 265 515.21 265 514.67"/><polygon class="cls-7" points="266.46 517.62 266.82 517.86 266.82 517.39 266.46 517.39 266.46 517.62"/><polygon class="cls-7" points="265 517.09 264.64 517.3 264.64 517.39 265 517.39 265 517.09"/><polygon class="cls-7" points="266.46 515.58 266.69 515.58 266.82 515.5 266.82 515.21 266.46 515.21 266.46 515.58"/><polygon class="cls-7" points="266.46 517.39 266.82 517.39 266.82 517.39 266.46 517.15 266.46 517.39"/><polygon class="cls-7" points="264.81 515.58 265 515.58 265 515.21 264.64 515.21 264.64 515.46 264.81 515.58"/><polygon class="cls-7" points="266.46 517.15 266.82 517.39 266.82 517.03 266.46 517.03 266.46 517.15"/><polygon class="cls-7" points="264.64 515.46 264.64 515.58 264.81 515.58 264.64 515.46"/><polygon class="cls-7" points="264.64 517.03 264.64 517.3 265 517.09 265 517.03 264.64 517.03"/><polygon class="cls-7" points="266.82 515.58 266.82 515.5 266.69 515.58 266.82 515.58"/><polygon class="cls-6" points="265.72 515.14 266.46 514.7 266.46 511.59 265 511.59 265 514.67 265.72 515.14"/><polygon class="cls-6" points="266.11 517.39 265.13 517.39 265 517.47 265 520.65 266.46 520.65 266.46 517.62 266.11 517.39"/><polygon class="cls-6" points="265 517.47 265.13 517.39 265 517.39 265 517.47"/><polygon class="cls-6" points="266.46 515.21 266.46 514.7 265.72 515.14 265.82 515.21 266.46 515.21"/><polygon class="cls-6" points="265.6 515.21 265.72 515.14 265 514.67 265 515.21 265.6 515.21"/><polygon class="cls-6" points="266.11 517.39 266.46 517.62 266.46 517.39 266.11 517.39"/><polygon class="cls-6" points="265.82 515.21 265.72 515.14 265.6 515.21 265.82 515.21"/><polygon class="cls-6" points="265.13 517.39 266.11 517.39 265.64 517.08 265.13 517.39"/><polygon class="cls-6" points="266.46 515.58 266.46 515.21 265.82 515.21 266.38 515.58 266.46 515.58"/><polygon class="cls-6" points="265.56 517.03 265.1 517.03 265 517.09 265 517.39 265.13 517.39 265.64 517.08 265.56 517.03"/><polygon class="cls-6" points="266.46 517.15 266.27 517.03 265.73 517.03 265.64 517.08 266.11 517.39 266.46 517.39 266.46 517.15"/><polygon class="cls-6" points="265 515.21 265 515.58 265.6 515.21 265 515.21"/><polygon class="cls-6" points="265.82 515.21 265.6 515.21 265 515.58 266.38 515.58 265.82 515.21"/><polygon class="cls-6" points="265.64 517.08 265.73 517.03 265.56 517.03 265.64 517.08"/><polygon class="cls-6" points="266.46 517.15 266.46 517.03 266.27 517.03 266.46 517.15"/><polygon class="cls-6" points="265 517.09 265.1 517.03 265 517.03 265 517.09"/><polygon class="cls-6" points="264.14 516.1 263.35 515.58 258.83 515.58 258.83 517.03 262.61 517.03 264.14 516.1"/><polygon class="cls-6" points="267.21 516.13 268.58 517.03 272.26 517.03 272.26 515.58 268.12 515.58 267.21 516.13"/><polygon class="cls-6" points="264.64 516.82 264.64 516.43 264.14 516.1 262.61 517.03 264.3 517.03 264.64 516.82"/><polygon class="cls-6" points="267.21 516.13 268.12 515.58 267.49 515.58 266.91 515.93 267.21 516.13"/><polygon class="cls-6" points="264.06 515.58 263.35 515.58 264.14 516.1 264.51 515.87 264.06 515.58"/><polygon class="cls-6" points="266.82 516.37 266.82 516.89 267.02 517.03 268.58 517.03 267.21 516.13 266.82 516.37"/><polygon class="cls-6" points="266.82 515.99 266.82 516.37 267.21 516.13 266.91 515.93 266.82 515.99"/><polygon class="cls-6" points="264.64 515.96 264.51 515.87 264.14 516.1 264.64 516.43 264.64 515.96"/><polygon class="cls-6" points="264.64 515.58 264.06 515.58 264.51 515.87 264.64 515.8 264.64 515.58"/><polygon class="cls-6" points="266.82 517.03 267.02 517.03 266.82 516.89 266.82 517.03"/><polygon class="cls-6" points="264.51 515.87 264.64 515.96 264.64 515.8 264.51 515.87"/><polygon class="cls-6" points="266.91 515.93 267.49 515.58 266.82 515.58 266.82 515.87 266.91 515.93"/><polygon class="cls-6" points="264.3 517.03 264.64 517.03 264.64 516.82 264.3 517.03"/><polygon class="cls-6" points="266.91 515.93 266.82 515.87 266.82 515.99 266.91 515.93"/><polygon class="cls-6" points="266.53 515.68 266.69 515.58 266.46 515.58 266.46 515.63 266.53 515.68"/><polygon class="cls-6" points="264.64 516.43 264.64 516.82 264.95 516.63 264.64 516.43"/><polygon class="cls-6" points="266.46 516.65 266.82 516.89 266.82 516.37 266.46 516.59 266.46 516.65"/><polygon class="cls-6" points="265 515.58 264.81 515.58 264.91 515.64 265 515.58"/><polygon class="cls-6" points="265 515.7 265 515.58 264.91 515.64 265 515.7"/><polygon class="cls-6" points="266.46 515.72 266.53 515.68 266.46 515.63 266.46 515.72"/><polygon class="cls-6" points="265 516.6 265 516.2 264.64 515.96 264.64 516.43 264.95 516.63 265 516.6"/><polygon class="cls-6" points="266.46 516.21 266.46 516.59 266.82 516.37 266.82 515.99 266.46 516.21"/><polygon class="cls-6" points="266.46 516.65 266.46 517.03 266.82 517.03 266.82 516.89 266.46 516.65"/><polygon class="cls-6" points="264.91 515.64 264.81 515.58 264.64 515.58 264.64 515.8 264.91 515.64"/><polygon class="cls-6" points="265 515.7 264.91 515.64 264.64 515.8 264.64 515.96 265 516.2 265 515.7"/><polygon class="cls-6" points="265 516.66 264.95 516.63 264.64 516.82 264.64 517.03 265 517.03 265 516.66"/><polygon class="cls-6" points="266.53 515.68 266.82 515.87 266.82 515.58 266.69 515.58 266.53 515.68"/><polygon class="cls-6" points="266.46 516.21 266.82 515.99 266.82 515.87 266.53 515.68 266.46 515.72 266.46 516.21"/><polygon class="cls-6" points="264.95 516.63 265 516.66 265 516.6 264.95 516.63"/><polygon class="cls-6" points="266.46 515.63 266.46 515.58 266.38 515.58 266.46 515.63"/><polygon class="cls-6" points="265.1 517.03 265.56 517.03 265.34 516.88 265.1 517.03"/><polygon class="cls-6" points="266.4 516.62 266.46 516.65 266.46 516.59 266.4 516.62"/><polygon class="cls-6" points="265.73 517.03 266.27 517.03 266.01 516.86 265.73 517.03"/><polygon class="cls-6" points="266.4 516.62 266.46 516.59 266.46 516.21 266.1 516.42 266.4 516.62"/><polygon class="cls-6" points="265 516.2 265 516.6 265.32 516.41 265 516.2"/><polygon class="cls-6" points="265.71 516.66 265.34 516.88 265.56 517.03 265.73 517.03 266.01 516.86 265.71 516.66"/><polygon class="cls-6" points="265.72 516.17 266.46 515.72 266.46 515.63 266.38 515.58 265 515.58 265 515.7 265.72 516.17"/><polygon class="cls-6" points="266.01 516.86 266.27 517.03 266.46 517.03 266.46 516.65 266.4 516.62 266.01 516.86"/><polygon class="cls-6" points="265.71 516.66 266.01 516.86 266.4 516.62 266.1 516.42 265.71 516.66"/><polygon class="cls-6" points="265.72 516.17 265 515.7 265 516.2 265.32 516.41 265.72 516.17"/><polygon class="cls-6" points="265 516.66 265 517.03 265.1 517.03 265.34 516.88 265 516.66"/><polygon class="cls-6" points="265 516.6 265 516.66 265.34 516.88 265.71 516.66 265.32 516.41 265 516.6"/><polygon class="cls-6" points="265.72 516.17 266.1 516.42 266.46 516.21 266.46 515.72 265.72 516.17"/><polygon class="cls-6" points="265.72 516.17 265.32 516.41 265.71 516.66 266.1 516.42 265.72 516.17"/><path class="cls-5" d="M120.73,305.2v59.4s-1.25,9.43-11.38,10S30.64,409.73,4,299.89c0,0,57,49.36,74.24,24.68s-5.63-80-5.63-80Z"/><rect class="cls-1" x="65.76" y="65.09" width="225.38" height="257.29" rx="112.69"/><path class="cls-11" d="M135.23,214.09c-1.18.19,7.48-7.24,9.26-26.53l3.09-15.42.35-.36a1.26,1.26,0,0,1,1.76,0l.35.36,3.91,44s14.42,8,0,17.49a47.44,47.44,0,0,1-11.66,1.43,28.74,28.74,0,0,1-4-.36,16.1,16.1,0,0,1-6.15-2.23C136.82,235.65,119.67,227.32,135.23,214.09Z"/><path class="cls-12" d="M164.26,174.91s23.33-13,51.15,0c0,0-8.78-15.76-27.88-14.77S164.26,174.91,164.26,174.91Z"/><path class="cls-12" d="M86.76,172.73s23.32-13,51.15,0c0,0-8.78-15.76-27.88-14.77S86.76,172.73,86.76,172.73Z"/><ellipse class="cls-13" cx="146.68" cy="233.07" rx="4.2" ry="1.66" transform="translate(-45.6 35.92) rotate(-12.1)"/><ellipse class="cls-13" cx="135.07" cy="232.32" rx="1.53" ry="4.2" transform="translate(-129.52 279.28) rotate(-69.89)"/><path d="M162.21,150.9l2.8,8.92s11.63-19.59,32.05-23.46S222,132.08,222,132.08l-20.15.13a39.09,39.09,0,0,0-12.05,1.84C184,136.05,177.81,138.19,162.21,150.9Z"/><path d="M133.28,148.19l-1.71,8.49s-11.39-16.68-29.07-18S81,137.59,81,137.59l17.18-2.14a30.78,30.78,0,0,1,10.4.34C113.57,137,119,138.25,133.28,148.19Z"/><path class="cls-14" d="M205.32,170.32c4.76,1.62,10.56-2.8,13-9.87"/><path class="cls-14" d="M196.51,169.07c5.75,2,12.56-2.8,15.23-10.62"/><path class="cls-14" d="M189.32,168.41c5.63,1.91,12.24-2.58,14.78-10"/><path class="cls-14" d="M87.7,171.27c-6.62,1.27-13.47-5.46-15.3-15.05"/><path class="cls-14" d="M208.62,170.85c5,1.71,11.21-3.13,13.83-10.83"/><path class="cls-14" d="M105,168.13c-6.62,1.27-13.11-3.59-14.5-10.85"/><path class="cls-14" d="M99.79,168.87c-6.62,1.27-13.2-4.09-14.71-12"/><path class="cls-14" d="M93.86,169.61c-6.62,1.27-13.34-4.79-15-13.54"/><path class="cls-5" d="M150.26,62.68s-12,47.43-91.18,80.32c0,0-29.35,21.2-18.57,56.93,0,0-60.45-216.79,108-190.25"/><path class="cls-5" d="M131.84,79.81s72.36,45.58,139.33,39.13c0,0,23.45,132.86-7,159.4s-38.17,32-55.49,37.92c0,0-3.62,37.33.95,47.2s13,17.26,15.65,17.88,62.61,25.74,104.35-4.09,35.21-64.36,35.21-64.36-51.52,45-61.95,20.35S346,156.38,346,156.38s41.08-125.1-57.07-141.84c0,0-35.1-18.31-98.58-12.9,0,0-34.14,2.33-49.14,11.58Z"/><ellipse class="cls-15" cx="140.78" cy="223.04" rx="4.94" ry="2.16"/><ellipse class="cls-16" cx="205.68" cy="211.81" rx="25.84" ry="17.92" transform="translate(-79.86 136.72) rotate(-31.11)"/><ellipse class="cls-16" cx="92" cy="213.97" rx="16.89" ry="24.35" transform="translate(-128.58 139.2) rotate(-48.01)"/><path class="cls-17" d="M150,172.14l8.1,47.52a32.09,32.09,0,0,0-4.19-3.48Z"/><path class="cls-18" d="M140.78,211.13s.55,7.52,3.67,0c0,0,6.21-16.16,3.74-27.27,0,0-4.55,17.71-6.79,24.68C140.78,210.48,140.78,211.63,140.78,211.13Z"/><path d="M137.91,172.73s-12.43-6.34-32.59-3.79c-5.55.71-12,1.25-18.56,3.79,0,0-2.5.11-7.91-2.95l12.38-.84s10.28-1.89,13.35-2.22a58.4,58.4,0,0,1,14.08,0A63.64,63.64,0,0,1,137.91,172.73Z"/><path d="M163.08,175.61s12.65-8,33.17-4.75c5.64.88,12.21,1.56,18.88,4.75,0,0,2.55.14,8.05-3.7l-12.6-1s-10.46-2.38-13.58-2.79a47.9,47.9,0,0,0-14.33,0A56.08,56.08,0,0,0,163.08,175.61Z"/><path class="cls-19" d="M138.29,76.17s-25.6,42-66.36,55.55c0,0-31.5,9.59-32.73,31,0,0,3.09-21.14,24.09-35.33,0,0,33.41-8.63,53.44-33.94Z"/><path class="cls-20" d="M141.09,42.26s-16,45.66-96.33,79c0,0,20.09-66.85,60.07-82.17,0,0-23.64,3.19-29.81,14.3,0,0,9.26-18.51,44.46-23.45,0,0-40.76-9.25-61.75,25.91,0,0,25.61-50.77,87.07-35.78Z"/><path class="cls-19" d="M154.09,17.28S239.58-14.2,314.3,37.63c0,0-79.88-41.94-144.61-20.35,0,0,41.65-9.86,57.93,0,0,0-66.39-2.7-73.53,7.29,0,0,123.16-12.36,160.21,26.88s28.4,94.19,28.4,94.19S359.51,24.5,158.14,47.73h-7.88Z"/><path class="cls-21" d="M151.9,33.93s48.85,35.71,110.5,34.55c0,0,47.38-1.89,55.6,21,0,0-10.76-21.82-44.7-29.07,0,0-49.78,3.68-85.73-16Z"/><path class="cls-19" d="M144.49,71.57s37.29,40,127,37.58c0,0,19.77.46,16.77,26.48,0,0,8.84-30.51-7.27-35.56,0,0-81.56,2.92-132.81-43.93Z"/><path class="cls-19" d="M324.3,180.21s-53.84,86-67.74,169.15c0,0-.9,22.91,13.6,26.19S312.3,370,312.3,370,263.92,338.2,324.3,180.21Z"/><path class="cls-19" d="M109.9,297.18S140.78,390.56,50,364c0,0,44.05,3,52.28-73.47Z"/><path class="cls-22" d="M112.64,154c1.11-2.23,13.18,7.41,25.67,13.71C138.31,167.66,122.38,166,112.64,154Z"/><path class="cls-22" d="M187.35,153.69c-1.08-2.36-12.88,7.8-25.08,14.44C162.27,168.13,177.83,166.36,187.35,153.69Z"/><path class="cls-23" d="M154.54,144.05c-.69.58-2.88,14.24-2.54,22.13C152,166.18,156.64,150.52,154.54,144.05Z"/><path class="cls-23" d="M141.56,143.05c.91.46,1.37,15.61,1.45,23.63C143,166.68,139.32,150,141.56,143.05Z"/><path class="cls-24" d="M112,186.63c-.3-2.07,14.16-5.14,27.2-10.42C139.22,176.21,125.91,186.58,112,186.63Z"/><path class="cls-24" d="M159,176.79c-2.39-3.61,14.67,6.05,27.65,10.74C186.63,187.53,178.13,190.71,159,176.79Z"/><path class="cls-7" d="M167.42,258.37s-57.85-26.91-52.58,6.28a61.46,61.46,0,0,0,5.27,15.64s30.81,9,58.59-8.45C178.7,271.84,175.84,261.85,167.42,258.37Z"/><path d="M116.17,270.33l3.75,9.91s41.31-.55,58.46-7.47c0,0-2.1-2.74-3.35-3.26s-55.89-6.77-60.19-4.86Z"/><path d="M183.5,263.66s13.35,11.87,16.17,35.07C199.67,298.73,201.15,277,183.5,263.66Z"/><path d="M184.4,312.08s8.72-.63,9.22-11.87-15.24-27.44-15.24-27.44,9.57,8,12,12.07,4.85,5.05,6.3,16.19S184.4,312.08,184.4,312.08Z"/><path class="cls-25" d="M177,319.48s10.06,3.12,17.72-11.26l-11.92,4.14Z"/><path class="cls-25" d="M140.26,244.49s-7.18-12.5-24.26,9c0,0,17.41-9,24.83-4.28l30.9,10.53S152.33,235.56,140.26,244.49Z"/><path class="cls-26" d="M178.38,272.77s35.05,31.91-1.37,46.71c0,0-20.73,26-27.25,13.11,0,0-15.6,17.68-10.84,23.5,0,0,1.71-4.57,3.35-2.27s1.55,8.15-3.93,9-.38,4.69-.38,4.69,6.7-.35,1.89,3.6c0,0,5.8,1.26,2.17,4.29,0,0-9.62,16.21-18.94-5.13,0,0-3.67-8.54-4.4-1s-1.24,10.24-3.59,9.6-1.84,4.94-5.82,4.9-13.49-.56-8.09-10.55c0,0-3.59,1.28-2.86-2.09s-12.78,1.59-7.08,10.23c0,0-20.56,15.71-18.22-7.41,0,0,4.28-17.65-.66-11.28,0,0-27.21,12.91-7.77-12.61,0,0,4.45-5.12-2-2.58s-35.19,13.1-7.88-20.08c0,0,19.74-22.39-9.62,0,0,0-29.24,3.29-37.19,15.21,0,0-15.89,12.42-1.87-9.28S57.21,314,57.21,314s10.61-4.22,5.09-3.26-28.76,10.82-2.55-10.92c0,0,55.39-28.88,60.17-19.58,0,0-1,6.38,2.89-1.3s29.27-12.17,29.27-12.17S180.22,267.31,178.38,272.77Z"/><path class="cls-27" d="M83.63,261.94s-9.87-6.1-12.57,1.94,12.18,5,12.18,5,4.18-7.24,7.71-5.62a7.58,7.58,0,0,0-3.16-2A7.27,7.27,0,0,0,83.63,261.94Z"/><path class="cls-27" d="M160.13,355.13c5.87,6.29,12-.74,12-.74s6.16-11.46,6.3-20.34c0,0-7,.79-12,5.17"/><path class="cls-28" d="M126.63,271.84s-13.76-.21-14.15,6.74,7.94,5.68,7.94,5.68,11.25-4,17.07-9.48A21.53,21.53,0,0,0,126.63,271.84Z"/><path class="cls-27" d="M141.73,283s-36.19,33.16-8.38,24.62,41.76-25.28,41.76-25.28S104.78,327.87,141.73,283Z"/><path class="cls-27" d="M82.16,289.08s-25.38,28.73-3.84,20.06,25.2-19,25.2-19c3.42-1.88,4.71-1.81,5.26-1.4,2.11,1.58-3.75,10.45-4,10.82a11.94,11.94,0,0,1-1.93,2.24,12.2,12.2,0,0,1-1.78,1.35,11.58,11.58,0,0,1-3.53,1.39s-7.24,1.77-12.38,6.49c0,0-7.94,18.32,6.28,7.45,0,0,26.61-20.79,25.44-27.73,0,0-18.61,23.71-24.73,24-3,3.41-5.92,5.49-6.91,4.95s-.24-3.81,1.82-7.82A36.55,36.55,0,0,1,93.46,308a59.25,59.25,0,0,1,8.15-2.87c3.28-1.23,7.2-4.66,9.56-14.65,0,0,9.87-8.75-7.67-3.38,0,0-11.08,16.73-25.4,19,0,0-9.34,5.91-3.68-3.11s18.52-18.47,18.52-18.47Z"/><path class="cls-27" d="M129.87,321.91s-6.27,16.63,1.66,9.64,9.63-14.76,9.63-14.76S125.49,342.65,129.87,321.91Z"/><path class="cls-27" d="M118,328.64s-6.28,16.64,1.66,9.64,9.63-14.76,9.63-14.76S113.56,349.38,118,328.64Z"/><path class="cls-27" d="M78.27,336.94s-22.11,44.41,4.35,25.29S115.4,322.5,115.4,322.5,61.84,392,78.27,336.94Z"/><path class="cls-29" d="M134.37,303.48a2.42,2.42,0,0,1-1.68-.72c-.8-.64-.63-1.09-1.51-2.5-.8-1.25-1.27-1.41-1.19-2s.58-.67.86-1.56-.12-1.16.2-1.57c.49-.62,1.46-.08,2.73-.63s1.4-1.75,2.34-1.78c.49,0,.7.3,1.65,1,2,1.46,2.84,1.33,3,1.94.22,1-2,1.3-3.74,3.52S135.58,303.3,134.37,303.48Z"/><path class="cls-29" d="M66,336.62a2.45,2.45,0,0,1-1.67-.71c-.81-.65-.63-1.1-1.52-2.5s-1.26-1.41-1.19-2,.58-.67.86-1.55-.11-1.17.21-1.58c.48-.62,1.46-.07,2.72-.63s1.41-1.75,2.34-1.78c.5,0,.7.3,1.65,1,2,1.46,2.84,1.34,3,1.94.22,1-2,1.31-3.74,3.52S67.26,336.44,66,336.62Z"/><path class="cls-30" d="M81.72,308.55a2.42,2.42,0,0,1-1.67-.72c-.8-.64-.63-1.09-1.51-2.49s-1.27-1.42-1.19-2,.58-.67.86-1.56-.12-1.16.2-1.57c.49-.62,1.46-.08,2.73-.63s1.4-1.75,2.34-1.78c.49,0,.7.3,1.65,1,2,1.46,2.84,1.33,3,1.94.22,1-2,1.3-3.74,3.52S82.94,308.37,81.72,308.55Z"/><path class="cls-31" d="M158,285.93a2.42,2.42,0,0,1-1.67-.72c-.81-.64-.63-1.09-1.52-2.49s-1.26-1.42-1.19-2,.58-.67.86-1.56-.11-1.16.21-1.57c.48-.62,1.46-.08,2.72-.63s1.41-1.75,2.34-1.78c.5,0,.7.3,1.65,1,2,1.46,2.84,1.33,3,1.94.22,1-2,1.3-3.74,3.52S159.21,285.75,158,285.93Z"/><path class="cls-30" d="M99.4,355a2.37,2.37,0,0,1-1.68-.71c-.8-.64-.63-1.1-1.51-2.5-.8-1.25-1.26-1.41-1.19-2s.58-.66.86-1.55-.11-1.16.2-1.58c.49-.62,1.46-.07,2.73-.62s1.4-1.76,2.34-1.79c.5,0,.7.31,1.65,1,2,1.46,2.84,1.34,3,1.94.22,1-2,1.31-3.74,3.53S100.61,354.85,99.4,355Z"/></svg>