<svg id="Layer_1" data-name="Layer 1" xmlns="http://www.w3.org/2000/svg" width="580.68" height="559.98" viewBox="0 0 580.68 559.98"><defs><style>.cls-1{fill:#d1bc9f;}.cls-2{fill:#70cbf4;}.cls-3{fill:#ebe7d9;}.cls-4{fill:#2962ff;}.cls-18,.cls-5{fill:#fff9d4;}.cls-6{fill:#d40e14;}.cls-16,.cls-21,.cls-22,.cls-23,.cls-24,.cls-7{fill:#fff;}.cls-8{fill:#ff2;}.cls-9{fill:#092a5e;}.cls-10,.cls-17{fill:none;}.cls-11{fill:#fff9e9;}.cls-12{fill:#d1b690;}.cls-13{fill:#d1a09f;}.cls-14,.cls-18,.cls-28,.cls-30{opacity:0.3;}.cls-15{fill:#f90606;}.cls-16{stroke:#f4fcff;stroke-width:0.5px;}.cls-16,.cls-17,.cls-30{stroke-miterlimit:10;}.cls-17{stroke:#000;}.cls-19{fill:#d18d9f;}.cls-19,.cls-25,.cls-31{opacity:0.2;}.cls-20,.cls-21{opacity:0.1;}.cls-22,.cls-26,.cls-32,.cls-33{opacity:0.5;}.cls-23,.cls-27{opacity:0.6;}.cls-24{opacity:0.7;}.cls-28,.cls-29,.cls-30,.cls-31{fill:#00a7ff;}.cls-29{opacity:0.4;}.cls-30{stroke:#00a7ff;stroke-width:5px;}.cls-32{fill:#fadcfa;}.cls-34{fill:#00eaff;}.cls-35{fill:#aef9ff;}.cls-36{fill:#00d4ff;opacity:0.9;}</style></defs><rect class="cls-1" x="358.96" y="271.26" width="78.59" height="126.24"/><rect class="cls-1" x="238.92" y="351.68" width="312.64" height="185.91" rx="91.77"/><rect class="cls-1" x="238.92" y="462.36" width="312.64" height="91.66"/><path class="cls-2" d="M324.31,408.2c-5.06-2.63,21.47-63.86,21.47-63.86a10.37,10.37,0,0,1,14-4.42l5.37,2.79a10.41,10.41,0,0,1,4.41,14l-28.79,32.79Z"/><path class="cls-2" d="M379.74,411.34H369.28c-4.72,0-8.59-55.39-8.59-55.39a8.16,8.16,0,0,1,.18-1.72,8.63,8.63,0,0,1,8.41-6.88h10.46a8.62,8.62,0,0,1,8.59,8.6S384.46,411.34,379.74,411.34Z"/><rect class="cls-2" x="357.24" y="304.12" width="81.18" height="43.23" rx="3.62"/><path class="cls-3" d="M422.18,304.12h13.07s-8.29,32-19.4,43.23H405.17S422.35,318.82,422.18,304.12Z"/><path class="cls-3" d="M396.48,304.12h13.07s-8.3,32-19.41,43.23H379.46S396.65,318.82,396.48,304.12Z"/><path class="cls-3" d="M359,347s-2.65,0-1.78-4.55c0,0,10.25-14.09,14.19-38.3H384.5s-6.48,26.8-18.16,43.23l-6-.31Z"/><path class="cls-3" d="M345.78,344.34s2,19,13.18,24.4l-6.59,7.51s-11-8.88-11.71-19.76Z"/><path class="cls-3" d="M335.28,369.8s1.07,10.24,10.65,13.78l-5.19,5.91s-9.26-6.72-8.47-11.89Z"/><path class="cls-3" d="M328.9,386.79s1.23,8.41,6.58,8.7l-3.26,3.71a7.58,7.58,0,0,1-5.42-6.2Z"/><path class="cls-3" d="M324.27,402s1.17,2.82,2.82,3.07l-2.78,3.16S322.39,406.44,324.27,402Z"/><path class="cls-3" d="M361,360.29s22.13-.06,27.31-4.34l-.7,8.89s-25,5.21-26,2.94Z"/><path class="cls-3" d="M360.83,357.73s6.43-6.61,26.63-6.19a9.55,9.55,0,0,0-7.64-4.19h-13s-4.3,0-6.16,3.44Z"/><path class="cls-3" d="M362.43,376.25s17.77,3.47,24.43-2.77l-1,9.57s-12.87,3.66-22.48,2.14Z"/><path class="cls-3" d="M364.3,392.49s20.1,2.19,20.34.58-1.19,7.6-1.19,7.6-17.22,1.28-18.26-2.24Z"/><path class="cls-4" d="M242.28,408.2s147.09,39.24,305.91,0c0,0,9.41-22.8,3.37,145.81H238.92S235.29,424.09,242.28,408.2Z"/><path class="cls-2" d="M242.28,408.2l4.51-11.56s140.46,45,296.89,0l4.51,11.56S411.47,450,242.28,408.2Z"/><rect class="cls-5" x="429.7" y="459.6" width="71.3" height="29.81" rx="12"/><path class="cls-2" d="M439.2,458h52.29a9.5,9.5,0,0,1,9.5,9.5v3.83a0,0,0,0,1,0,0H429.7a0,0,0,0,1,0,0v-3.83A9.5,9.5,0,0,1,439.2,458Z"/><ellipse class="cls-6" cx="435.45" cy="460.92" rx="1.71" ry="1.61"/><ellipse class="cls-6" cx="440.57" cy="461.33" rx="1.71" ry="1.21"/><path class="cls-6" d="M432.89,463.32s4.27,12.06,10.24,0C443.13,463.32,438,469.75,432.89,463.32Z"/><rect class="cls-6" x="433.53" y="474.68" width="14.2" height="9.61" rx="2.42"/><rect class="cls-7" x="438.52" y="474.68" width="1.92" height="9.61"/><rect class="cls-7" x="439.67" y="472.39" width="1.92" height="14.2" transform="translate(920.12 38.85) rotate(90)"/><rect class="cls-4" x="450.8" y="474.68" width="14.2" height="9.61" rx="2.42"/><rect class="cls-8" x="455.79" y="474.68" width="1.92" height="9.61"/><rect class="cls-8" x="456.94" y="472.39" width="1.92" height="14.2" transform="translate(937.39 21.58) rotate(90)"/><rect class="cls-6" x="468.07" y="474.68" width="14.2" height="9.61" rx="2.42"/><rect class="cls-7" x="473.06" y="474.68" width="1.92" height="9.61"/><rect class="cls-7" x="474.21" y="472.39" width="1.92" height="14.2" transform="translate(954.66 4.31) rotate(90)"/><rect class="cls-9" x="473.44" y="474.68" width="1.15" height="9.61"/><rect class="cls-9" x="474.6" y="472.39" width="1.15" height="14.2" transform="translate(-4.31 954.66) rotate(-90)"/><polygon class="cls-10" points="488.29 482.25 491.01 480.6 490.87 480.6 488.29 482.25"/><polygon class="cls-9" points="485.34 475.81 485.34 478.42 489.3 478.42 485.34 475.81"/><path class="cls-9" d="M498.07,474.8l-.18,0h-4.56v2.9Z"/><polygon class="cls-9" points="485.34 480.6 485.34 482.53 488.52 480.6 485.34 480.6"/><polygon class="cls-9" points="491.15 474.78 486.81 474.78 491.15 477.64 491.15 474.78"/><polygon class="cls-9" points="486.25 483.87 491.15 483.87 491.15 480.89 486.25 483.87"/><polygon class="cls-9" points="498.77 478.42 498.77 476.26 495.23 478.42 498.77 478.42"/><polygon class="cls-9" points="498.77 482.65 498.77 480.6 495.65 480.6 498.77 482.65"/><polygon class="cls-9" points="493.33 483.87 497.59 483.87 493.33 481.06 493.33 483.87"/><path class="cls-7" d="M485.88,483.79l0,0-.06-.05-.17.11.17.28.47-.29h0A.81.81,0,0,1,485.88,483.79Z"/><path class="cls-7" d="M493.33,478.42h.47l4.93-3v0a.88.88,0,0,0-.67-.64l-4.74,2.88Zm5-3.36v0a.78.78,0,0,1,0,.22v.22l-4.17,2.53h-.8Z"/><path class="cls-7" d="M491.15,480.6H491l-2.72,1.65-2.41,1.54a.81.81,0,0,0,.34.08h0l4.9-3Z"/><polygon class="cls-7" points="498.77 476.26 498.77 475.88 494.6 478.42 495.23 478.42 498.77 476.26"/><path class="cls-7" d="M488.52,480.6l-3.18,1.93V483a.9.9,0,0,0,.14.48l2.59-1.57,2-1.3Z"/><path class="cls-7" d="M491.15,478.42v-.78l-4.34-2.86h-.59a.92.92,0,0,0-.6.24l5.15,3.4Z"/><path class="cls-7" d="M494.08,480.6l4.49,2.95c0-.05.07-.1.1-.16l-4.25-2.79Z"/><polygon class="cls-7" points="495.17 480.6 498.77 482.97 498.77 482.65 495.65 480.6 495.17 480.6"/><path class="cls-7" d="M493.33,481.06l4.26,2.81h.3a1.13,1.13,0,0,0,.32-.06l-4.88-3.21h0Z"/><path class="cls-7" d="M490,478.42l-4.63-3.05a.93.93,0,0,0-.05.29v.15l4,2.61Z"/><path class="cls-6" d="M490.77,478.42l-5.15-3.4a1,1,0,0,0-.23.35l4.63,3.05Z"/><path class="cls-6" d="M498.77,483l-3.6-2.37h-.75l4.25,2.79a.88.88,0,0,0,.1-.4Z"/><path class="cls-6" d="M488.29,482.25l2.58-1.65h-.66l-2.14,1.3-2.55,1.63a.75.75,0,0,0,.26.24h0Z"/><path class="cls-6" d="M485.88,483.79l-.08,0h0l.06.05Z"/><path class="cls-6" d="M485.88,483.79l2.41-1.54-2.49,1.51Z"/><polygon class="cls-6" points="490.1 480.6 488.07 481.9 490.21 480.6 490.1 480.6"/><path class="cls-6" d="M498.41,475.52v-.22a.78.78,0,0,0,0-.22v0l-4.93,3h.8Z"/><polygon class="cls-7" points="495.65 480.6 498.77 480.6 498.77 480.23 495.09 480.23 495.65 480.6"/><polygon class="cls-7" points="489.12 480.23 485.34 480.23 485.34 480.6 488.52 480.6 489.12 480.23"/><polygon class="cls-7" points="489.3 478.42 485.34 478.42 485.34 478.78 489.86 478.78 489.3 478.42"/><polygon class="cls-7" points="494.63 478.78 498.77 478.78 498.77 478.42 495.23 478.42 494.63 478.78"/><polygon class="cls-7" points="494.63 478.78 495.23 478.42 494.6 478.42 494 478.78 494.63 478.78"/><polygon class="cls-7" points="493.33 478.7 493.8 478.42 493.33 478.42 493.33 478.7"/><polygon class="cls-7" points="490.29 480.55 490.81 480.23 489.12 480.23 488.52 480.6 490.1 480.6 490.17 480.55 490.29 480.55"/><polygon class="cls-7" points="490.17 480.55 490.1 480.6 490.21 480.6 490.29 480.55 490.17 480.55"/><polygon class="cls-7" points="491.01 480.6 491.15 480.6 491.15 480.51 491.01 480.6"/><polygon class="cls-7" points="491.15 478.42 490.77 478.42 491.15 478.67 491.15 478.42"/><polygon class="cls-7" points="490.01 478.42 489.3 478.42 489.86 478.78 490.57 478.78 490.01 478.42"/><polygon class="cls-7" points="495.17 480.6 495.65 480.6 495.09 480.23 493.53 480.23 494.08 480.6 494.42 480.6 495.17 480.6"/><polygon class="cls-7" points="493.33 480.6 493.33 480.6 493.33 480.6 493.33 480.6"/><polygon class="cls-7" points="493.33 480.23 493.33 480.6 493.33 480.6 494.08 480.6 493.53 480.23 493.33 480.23"/><polygon class="cls-7" points="491.15 478.78 491.15 478.67 490.77 478.42 490.01 478.42 490.57 478.78 491.15 478.78"/><polygon class="cls-7" points="491.15 480.23 490.81 480.23 490.29 480.55 490.97 480.53 490.87 480.6 491.01 480.6 491.15 480.51 491.15 480.23"/><polygon class="cls-7" points="490.29 480.55 490.21 480.6 490.87 480.6 490.97 480.53 490.29 480.55"/><polygon class="cls-7" points="493.33 478.78 494 478.78 494.6 478.42 493.8 478.42 493.33 478.7 493.33 478.78"/><polygon class="cls-7" points="491.15 480.89 491.15 483.87 491.51 483.87 491.51 480.67 491.15 480.89"/><polygon class="cls-7" points="492.96 480.83 492.96 483.87 493.33 483.87 493.33 481.06 492.96 480.83"/><polygon class="cls-7" points="491.51 477.88 491.51 474.78 491.15 474.78 491.15 477.64 491.51 477.88"/><polygon class="cls-7" points="493.33 477.68 493.33 474.78 492.96 474.78 492.96 477.9 493.33 477.68"/><polygon class="cls-7" points="491.15 480.6 491.15 480.89 491.51 480.67 491.51 480.6 491.15 480.6"/><polygon class="cls-7" points="493.33 478.42 493.33 477.68 492.96 477.9 492.96 478.42 493.33 478.42"/><polygon class="cls-7" points="491.51 477.88 491.15 477.64 491.15 478.42 491.51 478.42 491.51 477.88"/><polygon class="cls-7" points="492.96 480.83 493.33 481.06 493.33 480.6 492.96 480.6 492.96 480.83"/><polygon class="cls-7" points="491.51 480.29 491.15 480.51 491.15 480.6 491.51 480.6 491.51 480.29"/><polygon class="cls-7" points="492.96 478.78 493.2 478.78 493.33 478.7 493.33 478.42 492.96 478.42 492.96 478.78"/><polygon class="cls-7" points="492.96 480.6 493.33 480.6 493.33 480.6 492.96 480.36 492.96 480.6"/><polygon class="cls-7" points="491.32 478.78 491.51 478.78 491.51 478.42 491.15 478.42 491.15 478.67 491.32 478.78"/><polygon class="cls-7" points="492.96 480.36 493.33 480.6 493.33 480.23 492.96 480.23 492.96 480.36"/><polygon class="cls-7" points="491.15 478.67 491.15 478.78 491.32 478.78 491.15 478.67"/><polygon class="cls-7" points="491.15 480.23 491.15 480.51 491.51 480.29 491.51 480.23 491.15 480.23"/><polygon class="cls-7" points="493.33 478.78 493.33 478.7 493.2 478.78 493.33 478.78"/><polygon class="cls-6" points="492.23 478.35 492.96 477.9 492.96 474.78 491.51 474.78 491.51 477.88 492.23 478.35"/><polygon class="cls-6" points="492.62 480.6 491.64 480.6 491.51 480.67 491.51 483.87 492.96 483.87 492.96 480.83 492.62 480.6"/><polygon class="cls-6" points="491.51 480.67 491.64 480.6 491.51 480.6 491.51 480.67"/><polygon class="cls-6" points="492.96 478.42 492.96 477.9 492.23 478.35 492.33 478.42 492.96 478.42"/><polygon class="cls-6" points="492.11 478.42 492.23 478.35 491.51 477.88 491.51 478.42 492.11 478.42"/><polygon class="cls-6" points="492.62 480.6 492.96 480.83 492.96 480.6 492.62 480.6"/><polygon class="cls-6" points="492.33 478.42 492.23 478.35 492.11 478.42 492.33 478.42"/><polygon class="cls-6" points="491.64 480.6 492.62 480.6 492.15 480.29 491.64 480.6"/><polygon class="cls-6" points="492.96 478.78 492.96 478.42 492.33 478.42 492.88 478.78 492.96 478.78"/><polygon class="cls-6" points="492.06 480.23 491.61 480.23 491.51 480.29 491.51 480.6 491.64 480.6 492.15 480.29 492.06 480.23"/><polygon class="cls-6" points="492.96 480.36 492.78 480.23 492.24 480.23 492.15 480.29 492.62 480.6 492.96 480.6 492.96 480.36"/><polygon class="cls-6" points="491.51 478.42 491.51 478.78 492.11 478.42 491.51 478.42"/><polygon class="cls-6" points="492.33 478.42 492.11 478.42 491.51 478.78 492.88 478.78 492.33 478.42"/><polygon class="cls-6" points="492.15 480.29 492.24 480.23 492.06 480.23 492.15 480.29"/><polygon class="cls-6" points="492.96 480.36 492.96 480.23 492.78 480.23 492.96 480.36"/><polygon class="cls-6" points="491.51 480.29 491.61 480.23 491.51 480.23 491.51 480.29"/><polygon class="cls-6" points="490.65 479.3 489.86 478.78 485.34 478.78 485.34 480.23 489.12 480.23 490.65 479.3"/><polygon class="cls-6" points="493.72 479.33 495.09 480.23 498.77 480.23 498.77 478.78 494.63 478.78 493.72 479.33"/><polygon class="cls-6" points="491.15 480.03 491.15 479.63 490.65 479.3 489.12 480.23 490.81 480.23 491.15 480.03"/><polygon class="cls-6" points="493.72 479.33 494.63 478.78 494 478.78 493.42 479.13 493.72 479.33"/><polygon class="cls-6" points="490.57 478.78 489.86 478.78 490.65 479.3 491.02 479.08 490.57 478.78"/><polygon class="cls-6" points="493.33 479.57 493.33 480.1 493.53 480.23 495.09 480.23 493.72 479.33 493.33 479.57"/><polygon class="cls-6" points="493.33 479.19 493.33 479.57 493.72 479.33 493.42 479.13 493.33 479.19"/><polygon class="cls-6" points="491.15 479.16 491.02 479.08 490.65 479.3 491.15 479.63 491.15 479.16"/><polygon class="cls-6" points="491.15 478.78 490.57 478.78 491.02 479.08 491.15 479 491.15 478.78"/><polygon class="cls-6" points="493.33 480.23 493.53 480.23 493.33 480.1 493.33 480.23"/><polygon class="cls-6" points="491.02 479.08 491.15 479.16 491.15 479 491.02 479.08"/><polygon class="cls-6" points="493.42 479.13 494 478.78 493.33 478.78 493.33 479.07 493.42 479.13"/><polygon class="cls-6" points="490.81 480.23 491.15 480.23 491.15 480.03 490.81 480.23"/><polygon class="cls-6" points="493.42 479.13 493.33 479.07 493.33 479.19 493.42 479.13"/><polygon class="cls-6" points="493.04 478.88 493.2 478.78 492.96 478.78 492.96 478.83 493.04 478.88"/><polygon class="cls-6" points="491.15 479.63 491.15 480.03 491.46 479.84 491.15 479.63"/><polygon class="cls-6" points="492.96 479.86 493.33 480.1 493.33 479.57 492.96 479.79 492.96 479.86"/><polygon class="cls-6" points="491.51 478.78 491.32 478.78 491.41 478.84 491.51 478.78"/><polygon class="cls-6" points="491.51 478.9 491.51 478.78 491.41 478.84 491.51 478.9"/><polygon class="cls-6" points="492.96 478.92 493.04 478.88 492.96 478.83 492.96 478.92"/><polygon class="cls-6" points="491.51 479.81 491.51 479.4 491.15 479.16 491.15 479.63 491.46 479.84 491.51 479.81"/><polygon class="cls-6" points="492.96 479.41 492.96 479.79 493.33 479.57 493.33 479.19 492.96 479.41"/><polygon class="cls-6" points="492.96 479.86 492.96 480.23 493.33 480.23 493.33 480.1 492.96 479.86"/><polygon class="cls-6" points="491.41 478.84 491.32 478.78 491.15 478.78 491.15 479 491.41 478.84"/><polygon class="cls-6" points="491.51 478.9 491.41 478.84 491.15 479 491.15 479.16 491.51 479.4 491.51 478.9"/><polygon class="cls-6" points="491.51 479.87 491.46 479.84 491.15 480.03 491.15 480.23 491.51 480.23 491.51 479.87"/><polygon class="cls-6" points="493.04 478.88 493.33 479.07 493.33 478.78 493.2 478.78 493.04 478.88"/><polygon class="cls-6" points="492.96 479.41 493.33 479.19 493.33 479.07 493.04 478.88 492.96 478.92 492.96 479.41"/><polygon class="cls-6" points="491.46 479.84 491.51 479.87 491.51 479.81 491.46 479.84"/><polygon class="cls-6" points="492.96 478.83 492.96 478.78 492.88 478.78 492.96 478.83"/><polygon class="cls-6" points="491.61 480.23 492.06 480.23 491.85 480.09 491.61 480.23"/><polygon class="cls-6" points="492.91 479.82 492.96 479.86 492.96 479.79 492.91 479.82"/><polygon class="cls-6" points="492.24 480.23 492.78 480.23 492.52 480.06 492.24 480.23"/><polygon class="cls-6" points="492.91 479.82 492.96 479.79 492.96 479.41 492.61 479.63 492.91 479.82"/><polygon class="cls-6" points="491.51 479.4 491.51 479.81 491.83 479.61 491.51 479.4"/><polygon class="cls-6" points="492.21 479.86 491.85 480.09 492.06 480.23 492.24 480.23 492.52 480.06 492.21 479.86"/><polygon class="cls-6" points="492.22 479.37 492.96 478.92 492.96 478.83 492.88 478.78 491.51 478.78 491.51 478.9 492.22 479.37"/><polygon class="cls-6" points="492.52 480.06 492.78 480.23 492.96 480.23 492.96 479.86 492.91 479.82 492.52 480.06"/><polygon class="cls-6" points="492.21 479.86 492.52 480.06 492.91 479.82 492.61 479.63 492.21 479.86"/><polygon class="cls-6" points="492.22 479.37 491.51 478.9 491.51 479.4 491.83 479.61 492.22 479.37"/><polygon class="cls-6" points="491.51 479.87 491.51 480.23 491.61 480.23 491.85 480.09 491.51 479.87"/><polygon class="cls-6" points="491.51 479.81 491.51 479.87 491.85 480.09 492.21 479.86 491.83 479.61 491.51 479.81"/><polygon class="cls-6" points="492.22 479.37 492.61 479.63 492.96 479.41 492.96 478.92 492.22 479.37"/><polygon class="cls-6" points="492.22 479.37 491.83 479.61 492.21 479.86 492.61 479.63 492.22 479.37"/><path class="cls-4" d="M146.77,418.9,224.68,554a12,12,0,0,0,16.37,4.39l21.63-12.5a12,12,0,0,0,4.39-16.39L189.16,394.4a12,12,0,0,0-16.38-4.4l-21.62,12.5A12,12,0,0,0,146.77,418.9Z"/><path class="cls-5" d="M352,284.91v55.57s-1.16,8.83-10.62,9.36S267.93,382.7,243.07,280c0,0,53.18,46.17,69.31,23.08s-5.26-74.87-5.26-74.87Z"/><rect class="cls-1" x="302.16" y="59.73" width="210.43" height="240.7" rx="103"/><ellipse class="cls-11" cx="348.3" cy="167.69" rx="23.37" ry="23.4"/><ellipse cx="348.3" cy="167.69" rx="13.48" ry="13.5"/><ellipse class="cls-7" cx="357.08" cy="158.83" rx="4.87" ry="4.88"/><path class="cls-7" d="M346.51,177.48l11.68-4.39a14,14,0,0,1-4.78,4.39C350.1,179.39,346.51,177.48,346.51,177.48Z"/><ellipse class="cls-11" cx="408.39" cy="167.53" rx="22.63" ry="22.65"/><ellipse cx="408.39" cy="167.53" rx="13.05" ry="13.07"/><ellipse class="cls-7" cx="420.07" cy="159.32" rx="4.72" ry="4.72"/><path class="cls-7" d="M408.58,177.31l11.31-4.25a13.61,13.61,0,0,1-4.63,4.25C412.06,179.16,408.58,177.31,408.58,177.31Z"/><path class="cls-12" d="M365.57,199.68c-1.1.17,7-6.77,8.65-24.82l2.88-14.43.34-.34a1.15,1.15,0,0,1,1.63,0l.34.34,3.64,41.2s13.47,7.52,0,16.36a44,44,0,0,1-10.89,1.34,27.93,27.93,0,0,1-3.76-.33,15,15,0,0,1-5.74-2.1C367.06,219.84,351.05,212.06,365.57,199.68Z"/><path class="cls-13" d="M388.93,155.84a46.06,46.06,0,0,1,39.78,0s-6.83-12.28-21.68-11.51S388.93,155.84,388.93,155.84Z"/><path class="cls-13" d="M328.65,154.14a46.06,46.06,0,0,1,39.78,0s-6.83-12.28-21.68-11.51S328.65,154.14,328.65,154.14Z"/><ellipse class="cls-14" cx="376.26" cy="217.43" rx="3.92" ry="1.56" transform="translate(-37.29 83.93) rotate(-12.13)"/><ellipse class="cls-14" cx="365.42" cy="216.73" rx="1.43" ry="3.92" transform="translate(36.05 485.09) rotate(-69.84)"/><path d="M389.78,132.4v7.28s13.19-11.86,29.25-10,19.47,2.61,19.47,2.61l-15-4.59a30.31,30.31,0,0,0-9.37-1.44C409.44,126.44,404.32,126.58,389.78,132.4Z"/><path d="M362.69,132.33v6.74s-11.24-11-24.92-9.24-16.59,2.43-16.59,2.43L334,128a23.79,23.79,0,0,1,8-1.34C345.94,126.79,350.3,126.92,362.69,132.33Z"/><path class="cls-15" d="M341.92,249.9S364,265,370.41,264.79s3.5,2.63,39.27-11.3c0,0-2.34,17.5-22.87,27.09S345.71,274.25,341.92,249.9Z"/><path class="cls-15" d="M338.77,226.09s35.27,0,33,8.46c0,0-.86-9.58,47.17-11.24,0,0-16.1,17.64-46.93,15.2S338.77,226.09,338.77,226.09Z"/><path class="cls-16" d="M339.24,227.35s5.13,7.28,32.74,8.73,46.07-11,46.07-11l-8.37,30.35s-37.22,23-67.76-2.74Z"/><path class="cls-17" d="M418.91,153c4.44,1.52,9.86-2.61,12.11-9.23"/><path class="cls-17" d="M414,151.29c4.48,1.53,9.78-2.18,11.85-8.28"/><path class="cls-17" d="M408.42,150.78c4.37,1.49,9.51-2,11.49-7.83"/><path class="cls-17" d="M329.38,153c-5.15,1-10.47-4.26-11.9-11.73"/><path class="cls-17" d="M424.3,154c4.69,1.6,10.46-2.93,12.91-10.13"/><path class="cls-17" d="M342.82,150.56c-5.15,1-10.19-2.79-11.27-8.45"/><path class="cls-17" d="M338.79,151.14c-5.15,1-10.27-3.19-11.44-9.33"/><path class="cls-17" d="M334.17,151.72c-5.15,1-10.37-3.74-11.67-10.56"/><path class="cls-5" d="M379.61,58s-11.17,44.37-85.14,75.14c0,0-27.4,19.84-17.33,53.26,0,0-56.44-202.81,100.79-178"/><path class="cls-5" d="M362.41,74.06S430,116.7,492.5,110.66c0,0,21.89,124.29-6.5,149.12s-35.64,30-51.81,35.48c0,0-3.38,34.92.88,44.15s12.18,16.16,14.62,16.73,58.45,24.09,97.42-3.82S580,292.11,580,292.11s-48.1,42.11-57.84,19,40.19-165.46,40.19-165.46S600.7,28.65,509.06,13c0,0-32.77-17.12-92.05-12.06,0,0-31.87,2.17-45.87,10.83Z"/><ellipse class="cls-18" cx="370.76" cy="208.05" rx="4.61" ry="2.02"/><ellipse class="cls-19" cx="442.48" cy="198.24" rx="14.97" ry="10.39" transform="translate(-38.64 258.32) rotate(-31.25)"/><ellipse class="cls-19" cx="315.82" cy="198.36" rx="10.38" ry="14.97" transform="translate(-43.18 299.38) rotate(-47.85)"/><path class="cls-20" d="M379.41,160.43,387,204.89a30.22,30.22,0,0,0-3.92-3.26Z"/><path class="cls-21" d="M370.76,196.91s.51,7,3.43,0c0,0,5.79-15.12,3.49-25.51,0,0-4.26,16.56-6.35,23.09A23.4,23.4,0,0,0,370.76,196.91Z"/><path d="M368.43,154.14s-9.67-4.93-25.35-2.95c-4.31.55-9.33,1-14.43,2.95,0,0-1.94.09-6.15-2.29l9.63-.66s8-1.48,10.38-1.73a45.35,45.35,0,0,1,10.95,0A49.46,49.46,0,0,1,368.43,154.14Z"/><path d="M388,156.39s9.84-6.2,25.79-3.7c4.4.68,9.51,1.21,14.69,3.7,0,0,2,.11,6.26-2.88l-9.8-.82s-8.14-1.86-10.56-2.18a37.69,37.69,0,0,0-11.15,0A43.57,43.57,0,0,0,388,156.39Z"/><path class="cls-22" d="M368.43,70.65s-23.9,39.27-62,52c0,0-29.41,9-30.56,29,0,0,2.89-19.78,22.49-33.06,0,0,31.2-8.07,49.9-31.74Z"/><path class="cls-23" d="M371.05,38.93s-15,42.71-89.94,73.88c0,0,18.76-62.54,56.08-76.87,0,0-22.07,3-27.83,13.38,0,0,8.65-17.32,41.51-21.94,0,0-38.05-8.66-57.66,24.24,0,0,23.91-47.5,81.3-33.47Z"/><path class="cls-22" d="M383.19,15.56S463-13.89,532.76,34.6c0,0-74.57-39.24-135-19,0,0,38.89-9.23,54.09,0,0,0-62-2.53-68.65,6.81,0,0,115-11.56,149.57,25.15s26.52,88.12,26.52,88.12S575,22.31,387,44h-7.36Z"/><path class="cls-24" d="M381.14,31.13s45.61,33.41,103.17,32.33c0,0,44.24-1.77,51.91,19.62,0,0-10-20.41-41.73-27.19,0,0-46.48,3.44-80-15Z"/><path class="cls-22" d="M374.22,66.34S409,103.76,492.81,101.5c0,0,18.45.44,15.65,24.78,0,0,8.26-28.55-6.78-33.27,0,0-76.15,2.73-124-41.1Z"/><path class="cls-22" d="M542.11,168s-50.28,80.45-63.25,158.24c0,0-.85,21.44,12.69,24.51s39.35-5.2,39.35-5.2S485.72,315.79,542.11,168Z"/><path class="cls-22" d="M341.92,277.41s28.84,87.36-55.91,62.53c0,0,41.13,2.79,48.81-68.74Z"/><path class="cls-1" d="M137.13,401.35l-19.3-31.55A9.53,9.53,0,0,1,121,356.74L140.19,345a9.51,9.51,0,0,1,13.05,3.14l19.3,31.55a9.53,9.53,0,0,1-3.13,13.06l-19.23,11.79A9.51,9.51,0,0,1,137.13,401.35Z"/><path class="cls-1" d="M148.69,344.76a32,32,0,0,1-11.56-16.29c-3-10.51-10.2-19.94-15.84-26.26A195.74,195.74,0,0,0,87.35,288.7l-10.29,0-7.8,2.06s-4,3.26-6,13.66c0,0-.66,2.45,2.81,4.1,0,0-2.91,4.65-2.64,8.58s2.22,5,2.22,5-5,3.2-2.64,12.83c0,0-4.63,1.34-5.71,4.78a5.19,5.19,0,0,0-1.08,6.39s-.4,5.47,9.15,1.55a5.2,5.2,0,0,0,2.93-3.58S79,349.68,80,337.91a12.53,12.53,0,0,0-3-6.31s12.58-3.36-.31-19.83l1.41-10.49,3.47.58s-.12,12.21,21.33,27.85a49.85,49.85,0,0,0,22.14,32l19.43,7.88-19.43-7.88c-17.53-10.05-22.14-32-22.14-32C81,314.57,81.6,301.86,81.6,301.86l-3.47-.58-1.41,10.49c12.69,16.89.31,19.83.31,19.83,2.62,3,4.59,9.65.32,12.59s-9.09-.09-9.09-.09c.16,1.32-1.89,2.95-1.89,2.95L77.61,350c3,10.71,41,29.4,47.48,29.18s15.59,3.37,15.59,3.37"/><path class="cls-15" d="M95.37,302.09a23.46,23.46,0,0,0-5.17-10.46s-3.16.82-4.7,6.63c0,0,2.6,6.27,6.4,9.31C91.9,307.57,95.21,304.93,95.37,302.09Z"/><path class="cls-15" d="M69.26,300s-.22-10.08-4.18-2.15a15.51,15.51,0,0,0-1.86,6.65S66.18,305.57,69.26,300Z"/><path class="cls-15" d="M77.56,322.26s-11.43-12.16-10.13,1.33c0,0,.22,1.41,4.85,6.47A17.85,17.85,0,0,0,77.56,322.26Z"/><path class="cls-15" d="M77.22,337.22,73.08,332s-1.57.31-3.29-1.87c0,0-5.54,1.47-3.82,5.22,0,0,.67,3.48,5.51,8.9C71.48,344.21,75.82,341.44,77.22,337.22Z"/><path class="cls-15" d="M60.93,341.28s.48-4.95-3.5-2c0,0-3.58,3.21-1.25,6.84C56.18,346.13,55.2,340.22,60.93,341.28Z"/><path class="cls-25" d="M109.22,312.11a33.61,33.61,0,0,1,8-8.56Z"/><polygon class="cls-14" points="101.83 306.17 107.75 300.58 102.33 306.64 101.83 306.17"/><path class="cls-26" d="M123.55,319s-13-3.37-19.63-10.43l-8.84-7.69S111.38,315.92,123.55,319Z"/><path class="cls-14" d="M125.07,361.66s-15.42-9.15-22.14-32c0,0-20.35-15.74-21.33-27.85,0,0,.56-5.23,1.69-5.42,0,0-11.37,8.33,18.54,34.32C101.83,330.76,111.11,355.49,125.07,361.66Z"/><path class="cls-14" d="M102.33,331.94s-5.11,12.93-14.88,22.66Z"/><path class="cls-25" d="M103.48,335.8a44.66,44.66,0,0,1-2.42,15.4Z"/><path class="cls-26" d="M63.22,304.46s0,10.47,14.69-1.56C77.91,302.9,64.89,315.43,63.22,304.46Z"/><path class="cls-26" d="M65.61,322.13s4.12,16.78,15,7.3C80.62,329.43,71.13,338.44,65.61,322.13Z"/><path d="M79.18,335s3.81,13.8-10.92,9.07L63,335l5.7,8.78S81.31,349.42,79.18,335Z"/><path d="M67.17,346.3s-8.28,5.16-10.8.95C56.37,347.25,57.53,352.5,67.17,346.3Z"/><g class="cls-27"><ellipse class="cls-28" cx="77.95" cy="214.04" rx="77.64" ry="5.62" transform="translate(-5.92 2.25) rotate(-1.59)"/><ellipse class="cls-29" cx="82.41" cy="374.84" rx="48.49" ry="7.73" transform="translate(-10.39 2.44) rotate(-1.59)"/><line class="cls-30" x1="79.89" y1="283.95" x2="82.2" y2="367.11"/><path class="cls-31" d="M155.56,211.88,83.36,284l-7,.19-76-68a23.93,23.93,0,0,0,10.11,2.48l9.65.71,9.33.38,8,.19,9.61.09L60.74,220l17.37-.34s22-.49,22.09-.85l15.5-.9,19.12-1.62,12-1.56S152.9,214.18,155.56,211.88Z"/></g><path class="cls-32" d="M108.38,229.9c.76.78,16.1-.46,16.1-.46s7-.62,9.14-1.12a28.43,28.43,0,0,1,5.65-.63L83.36,284l-7,.19L14.42,228.69s13.26-2.93,17-2c4,1,4,1,10.08-.24.74-.15,24.07.09,26.28,1.56s32.89,2.9,33.56,2.21"/><g class="cls-33"><ellipse class="cls-34" cx="43.01" cy="247.32" rx="3.54" ry="3.92" transform="translate(-6.77 1.27) rotate(-1.57)"/><ellipse class="cls-35" cx="44.02" cy="246.27" rx="1.63" ry="2.25" transform="translate(-6.8 1.31) rotate(-1.59)"/></g><ellipse class="cls-34" cx="61.47" cy="257.2" rx="3.54" ry="3.92" transform="translate(-7.04 1.78) rotate(-1.57)"/><ellipse class="cls-35" cx="63.07" cy="256.28" rx="1.63" ry="2.25" transform="translate(-7.07 1.84) rotate(-1.59)"/><g class="cls-33"><ellipse class="cls-34" cx="88.99" cy="228.99" rx="3.54" ry="3.92" transform="translate(-6.25 2.53) rotate(-1.57)"/><ellipse class="cls-35" cx="90.59" cy="228.07" rx="1.63" ry="2.25" transform="translate(-6.28 2.59) rotate(-1.59)"/></g><ellipse class="cls-34" cx="105.14" cy="252.65" rx="3.54" ry="3.92" transform="translate(-6.9 2.98) rotate(-1.57)"/><ellipse class="cls-35" cx="106.74" cy="251.72" rx="1.63" ry="2.25" transform="translate(-6.93 3.05) rotate(-1.59)"/><ellipse class="cls-34" cx="91.72" cy="263.78" rx="3.54" ry="3.92" transform="translate(-7.21 2.62) rotate(-1.57)"/><ellipse class="cls-35" cx="93.32" cy="262.86" rx="1.63" ry="2.25" transform="translate(-7.24 2.68) rotate(-1.59)"/><ellipse class="cls-34" cx="95.95" cy="254.28" rx="1.77" ry="1.96" transform="translate(-6.95 2.73) rotate(-1.57)"/><ellipse class="cls-35" cx="96.75" cy="253.82" rx="0.81" ry="1.13" transform="translate(-6.99 2.77) rotate(-1.59)"/><ellipse class="cls-34" cx="86.25" cy="257.88" rx="1.77" ry="1.96" transform="translate(-7.05 2.47) rotate(-1.57)"/><ellipse class="cls-35" cx="87.05" cy="257.42" rx="0.81" ry="1.13" transform="translate(-7.09 2.51) rotate(-1.59)"/><path class="cls-36" d="M79.3,276.09l58-92.71s1.91-6.76,7.5-4,35,16.56,35,16.56L177.51,200l-32.78-14.76s-3-3.64-4,1.7-58.13,91-58.13,91Z"/></svg>