<svg id="Layer_1" data-name="Layer 1" xmlns="http://www.w3.org/2000/svg" xmlns:xlink="http://www.w3.org/1999/xlink" width="262.13" height="293.03" viewBox="0 0 262.13 293.03"><defs><style>.cls-1,.cls-11,.cls-13,.cls-15,.cls-17,.cls-19,.cls-21,.cls-7,.cls-9{opacity:0.6;}.cls-2,.cls-4{opacity:0.3;}.cls-2{fill:url(#linear-gradient);}.cls-3{opacity:0.4;fill:url(#linear-gradient-2);}.cls-4{stroke:#000;stroke-miterlimit:10;stroke-width:5px;fill:url(#linear-gradient-3);}.cls-5{opacity:0.2;fill:url(#linear-gradient-4);}.cls-6{opacity:0.5;fill:url(#linear-gradient-5);}.cls-7{fill:url(#linear-gradient-6);}.cls-8{fill:url(#linear-gradient-7);}.cls-9{fill:url(#linear-gradient-8);}.cls-10{fill:url(#linear-gradient-9);}.cls-11{fill:url(#linear-gradient-10);}.cls-12{fill:url(#linear-gradient-11);}.cls-13{fill:url(#linear-gradient-12);}.cls-14{fill:url(#linear-gradient-13);}.cls-15{fill:url(#linear-gradient-14);}.cls-16{fill:url(#linear-gradient-15);}.cls-17{fill:url(#linear-gradient-16);}.cls-18{fill:url(#linear-gradient-17);}.cls-19{fill:url(#linear-gradient-18);}.cls-20{fill:url(#linear-gradient-19);}.cls-21{fill:url(#linear-gradient-20);}.cls-22{fill:url(#linear-gradient-21);}</style><linearGradient id="linear-gradient" x1="1.68" y1="10.87" x2="261.07" y2="10.87" gradientUnits="userSpaceOnUse"><stop offset="0" stop-color="#fff"/><stop offset="0" stop-color="#f7f7ff"/><stop offset="0" stop-color="#ebe7d9"/><stop offset="1" stop-color="#2962ff"/></linearGradient><linearGradient id="linear-gradient-2" x1="50.38" y1="278.65" x2="212.37" y2="278.65" xlink:href="#linear-gradient"/><linearGradient id="linear-gradient-3" x1="131.37" y1="196.54" x2="131.37" y2="196.54" xlink:href="#linear-gradient"/><linearGradient id="linear-gradient-4" x1="1.07" y1="68.96" x2="260.45" y2="68.96" xlink:href="#linear-gradient"/><linearGradient id="linear-gradient-5" x1="27.68" y1="79.81" x2="235.07" y2="79.81" xlink:href="#linear-gradient"/><linearGradient id="linear-gradient-6" x1="153.66" y1="96.57" x2="165.48" y2="96.57" xlink:href="#linear-gradient"/><linearGradient id="linear-gradient-7" x1="159.57" y1="95.4" x2="165" y2="95.4" xlink:href="#linear-gradient"/><linearGradient id="linear-gradient-8" x1="106.51" y1="84.04" x2="118.33" y2="84.04" xlink:href="#linear-gradient"/><linearGradient id="linear-gradient-9" x1="112.42" y1="82.86" x2="117.84" y2="82.86" xlink:href="#linear-gradient"/><linearGradient id="linear-gradient-10" x1="113.68" y1="59.17" x2="119.59" y2="59.17" xlink:href="#linear-gradient"/><linearGradient id="linear-gradient-11" x1="116.64" y1="58.58" x2="119.35" y2="58.58" xlink:href="#linear-gradient"/><linearGradient id="linear-gradient-12" x1="86.07" y1="62.43" x2="97.89" y2="62.43" xlink:href="#linear-gradient"/><linearGradient id="linear-gradient-13" x1="91.98" y1="61.26" x2="97.41" y2="61.26" xlink:href="#linear-gradient"/><linearGradient id="linear-gradient-14" x1="162.53" y1="70.31" x2="168.44" y2="70.31" xlink:href="#linear-gradient"/><linearGradient id="linear-gradient-15" x1="165.48" y1="69.73" x2="168.2" y2="69.73" xlink:href="#linear-gradient"/><linearGradient id="linear-gradient-16" x1="171.34" y1="67.05" x2="177.25" y2="67.05" xlink:href="#linear-gradient"/><linearGradient id="linear-gradient-17" x1="174.3" y1="66.46" x2="177.01" y2="66.46" xlink:href="#linear-gradient"/><linearGradient id="linear-gradient-18" x1="58.76" y1="41.11" x2="64.67" y2="41.11" xlink:href="#linear-gradient"/><linearGradient id="linear-gradient-19" x1="61.72" y1="40.52" x2="64.43" y2="40.52" xlink:href="#linear-gradient"/><linearGradient id="linear-gradient-20" x1="142.39" y1="35.33" x2="148.3" y2="35.33" xlink:href="#linear-gradient"/><linearGradient id="linear-gradient-21" x1="145.34" y1="34.74" x2="148.06" y2="34.74" xlink:href="#linear-gradient"/></defs><g class="cls-1"><ellipse class="cls-2" cx="131.37" cy="10.87" rx="129.69" ry="9.35"/><ellipse class="cls-3" cx="131.37" cy="278.65" rx="80.99" ry="12.86"/><line class="cls-4" x1="131.37" y1="127.3" x2="131.37" y2="265.79"/><path class="cls-5" d="M260.45,10.62,136.55,127.3H124.82L1.07,10.62a40.07,40.07,0,0,0,16.76,4.61l16.09,1.61,15.56,1.07,13.33.68,16,.61,22.9.54,29,.24s36.82.21,36.92-.39l25.94-.78,32-1.81,20-2S255.9,14.33,260.45,10.62Z"/></g><path class="cls-6" d="M27.68,33.49s8.69-1.44,10.72,0,30.55,1.12,31.13,0,40.56-2.4,44.18.16,56.93,1.93,58.08.8,7.38-2.82,6.65-2.29,4.79.25,6,1.59,26.28,0,26.28,0,11.3,1.22,14.77,0,9.56,0,9.56,0l-97.9,93.8H125.44Z"/><ellipse class="cls-7" cx="159.57" cy="96.57" rx="5.91" ry="6.53"/><ellipse class="cls-8" cx="162.29" cy="95.4" rx="2.71" ry="3.75"/><ellipse class="cls-9" cx="112.42" cy="84.04" rx="5.91" ry="6.53"/><ellipse class="cls-10" cx="115.13" cy="82.86" rx="2.71" ry="3.75"/><ellipse class="cls-11" cx="116.64" cy="59.17" rx="2.96" ry="3.26"/><ellipse class="cls-12" cx="117.99" cy="58.58" rx="1.36" ry="1.87"/><ellipse class="cls-13" cx="91.98" cy="62.43" rx="5.91" ry="6.53"/><ellipse class="cls-14" cx="94.69" cy="61.26" rx="2.71" ry="3.75"/><ellipse class="cls-15" cx="165.48" cy="70.31" rx="2.96" ry="3.26"/><ellipse class="cls-16" cx="166.84" cy="69.73" rx="1.36" ry="1.87"/><ellipse class="cls-17" cx="174.3" cy="67.05" rx="2.96" ry="3.26"/><ellipse class="cls-18" cx="175.66" cy="66.46" rx="1.36" ry="1.87"/><ellipse class="cls-19" cx="61.72" cy="41.11" rx="2.96" ry="3.26"/><ellipse class="cls-20" cx="63.08" cy="40.52" rx="1.36" ry="1.87"/><ellipse class="cls-21" cx="145.34" cy="35.33" rx="2.96" ry="3.26"/><ellipse class="cls-22" cx="146.7" cy="34.74" rx="1.36" ry="1.87"/></svg>