<svg id="Layer_1" data-name="Layer 1" xmlns="http://www.w3.org/2000/svg" width="565.41" height="555.26" viewBox="0 0 565.41 555.26"><defs><style>.cls-1{fill:#d1bc9f;}.cls-2{fill:#70cbf4;}.cls-3{fill:#ebe7d9;}.cls-4{fill:#2962ff;}.cls-18,.cls-5{fill:#fff9d4;}.cls-6{fill:#d40e14;}.cls-16,.cls-21,.cls-22,.cls-23,.cls-24,.cls-7{fill:#fff;}.cls-8{fill:#ff2;}.cls-9{fill:#092a5e;}.cls-10,.cls-17,.cls-36{fill:none;}.cls-11{fill:#fff9e9;}.cls-12{fill:#d1b690;}.cls-13{fill:#d1a09f;}.cls-14,.cls-18{opacity:0.3;}.cls-15{fill:#f90606;}.cls-16{stroke:#f4fcff;stroke-width:0.5px;}.cls-16,.cls-17,.cls-30,.cls-36{stroke-miterlimit:10;}.cls-17,.cls-30,.cls-36{stroke:#000;}.cls-19{fill:#d18d9f;}.cls-19,.cls-25{opacity:0.2;}.cls-20,.cls-21{opacity:0.1;}.cls-22,.cls-26,.cls-31{opacity:0.5;}.cls-23{opacity:0.6;}.cls-24{opacity:0.7;}.cls-27,.cls-32{opacity:0.6;}.cls-28,.cls-30{opacity:0.3;}.cls-29{opacity:0.4;}.cls-30,.cls-36{stroke-width:5px;}.cls-31{fill:#5e0047;}.cls-32{fill:#cf00f1;}.cls-33{fill:#dc90ff;}.cls-34{fill:#002b62;opacity:0.9;}.cls-35{fill:#ebfd03;}</style></defs><rect class="cls-1" x="354.49" y="270.55" width="78.63" height="126.18"/><rect class="cls-1" x="234.38" y="350.92" width="312.78" height="185.81" rx="91.77"/><rect class="cls-1" x="234.38" y="461.55" width="312.78" height="91.61"/><path class="cls-2" d="M319.82,407.42c-5.06-2.63,21.47-63.83,21.47-63.83a10.4,10.4,0,0,1,14-4.42l5.37,2.79a10.4,10.4,0,0,1,4.42,14l-28.8,32.78Z"/><path class="cls-2" d="M375.27,410.55H364.81c-4.73,0-8.6-55.35-8.6-55.35a8.26,8.26,0,0,1,.18-1.73,8.62,8.62,0,0,1,8.42-6.87h10.46a8.62,8.62,0,0,1,8.59,8.6S380,410.55,375.27,410.55Z"/><rect class="cls-2" x="352.76" y="303.39" width="81.22" height="43.21" rx="3.62"/><path class="cls-3" d="M417.73,303.39h13.08s-8.3,32-19.42,43.21H400.71S417.9,318.08,417.73,303.39Z"/><path class="cls-3" d="M392,303.39h13.07s-8.3,32-19.41,43.21H375S392.19,318.08,392,303.39Z"/><path class="cls-3" d="M354.55,346.22s-2.66,0-1.79-4.55c0,0,10.26-14.08,14.2-38.28H380s-6.48,26.79-18.18,43.21l-6-.31Z"/><path class="cls-3" d="M341.29,343.59s2,19,13.2,24.38l-6.6,7.51s-11-8.88-11.72-19.74Z"/><path class="cls-3" d="M330.79,369s1.07,10.23,10.66,13.77l-5.19,5.91S327,382,327.78,376.83Z"/><path class="cls-3" d="M324.4,386s1.23,8.4,6.59,8.69l-3.26,3.71a7.58,7.58,0,0,1-5.42-6.2Z"/><path class="cls-3" d="M319.78,401.19s1.17,2.82,2.82,3.07l-2.78,3.16S317.9,405.65,319.78,401.19Z"/><path class="cls-3" d="M356.54,359.53s22.14-.06,27.32-4.33l-.69,8.88s-25.05,5.21-26,2.94Z"/><path class="cls-3" d="M356.35,357s6.43-6.6,26.65-6.18a9.56,9.56,0,0,0-7.65-4.19h-13s-4.3,0-6.16,3.44Z"/><path class="cls-3" d="M358,375.48s17.77,3.47,24.43-2.77l-1,9.57s-12.87,3.66-22.48,2.14Z"/><path class="cls-3" d="M359.83,391.72s20.1,2.18,20.34.57-1.19,7.6-1.19,7.6-17.23,1.28-18.27-2.24Z"/><path class="cls-4" d="M237.75,407.42s147.15,39.21,306,0c0,0,9.41-22.79,3.37,145.74H234.38S230.75,423.3,237.75,407.42Z"/><path class="cls-2" d="M237.75,407.42l4.52-11.56s140.52,44.94,297,0l4.52,11.56S407,449.23,237.75,407.42Z"/><rect class="cls-5" x="425.25" y="458.79" width="71.33" height="29.79" rx="12"/><path class="cls-2" d="M434.76,457.22h52.32a9.5,9.5,0,0,1,9.5,9.5v3.82a0,0,0,0,1,0,0H425.25a0,0,0,0,1,0,0v-3.82a9.5,9.5,0,0,1,9.5-9.5Z"/><ellipse class="cls-6" cx="431.01" cy="460.11" rx="1.71" ry="1.61"/><ellipse class="cls-6" cx="436.13" cy="460.52" rx="1.71" ry="1.21"/><path class="cls-6" d="M428.45,462.51s4.27,12.06,10.24,0C438.69,462.51,433.57,468.93,428.45,462.51Z"/><rect class="cls-6" x="429.09" y="473.86" width="14.21" height="9.6" rx="2.42"/><rect class="cls-7" x="434.08" y="473.86" width="1.92" height="9.6"/><rect class="cls-7" x="435.23" y="471.56" width="1.92" height="14.21" transform="translate(914.86 42.47) rotate(90)"/><rect class="cls-4" x="446.37" y="473.86" width="14.21" height="9.6" rx="2.42"/><rect class="cls-8" x="451.36" y="473.86" width="1.92" height="9.6"/><rect class="cls-8" x="452.51" y="471.56" width="1.92" height="14.21" transform="translate(932.13 25.2) rotate(90)"/><rect class="cls-6" x="463.64" y="473.86" width="14.21" height="9.6" rx="2.42"/><rect class="cls-7" x="468.63" y="473.86" width="1.92" height="9.6"/><rect class="cls-7" x="469.79" y="471.56" width="1.92" height="14.21" transform="translate(949.41 7.92) rotate(90)"/><rect class="cls-9" x="469.02" y="473.86" width="1.15" height="9.6"/><rect class="cls-9" x="470.17" y="471.56" width="1.15" height="14.21" transform="translate(-7.92 949.41) rotate(-90)"/><polygon class="cls-10" points="483.87 481.43 486.59 479.78 486.45 479.78 483.87 481.43"/><polygon class="cls-9" points="480.92 474.99 480.92 477.6 484.88 477.6 480.92 474.99"/><path class="cls-9" d="M493.65,474l-.17,0h-4.57v2.9Z"/><polygon class="cls-9" points="480.92 479.78 480.92 481.71 484.1 479.78 480.92 479.78"/><polygon class="cls-9" points="486.73 473.96 482.39 473.96 486.73 476.82 486.73 473.96"/><polygon class="cls-9" points="481.83 483.05 486.73 483.05 486.73 480.07 481.83 483.05"/><polygon class="cls-9" points="494.36 477.6 494.36 475.45 490.81 477.6 494.36 477.6"/><polygon class="cls-9" points="494.36 481.83 494.36 479.78 491.23 479.78 494.36 481.83"/><polygon class="cls-9" points="488.91 483.05 493.17 483.05 488.91 480.24 488.91 483.05"/><path class="cls-7" d="M481.46,483l0,0-.06,0-.17.11.17.28.47-.29h0A1,1,0,0,1,481.46,483Z"/><path class="cls-7" d="M488.91,477.6h.47l4.93-3,0,0a.9.9,0,0,0-.68-.65l-4.74,2.88Zm5-3.36v0a.78.78,0,0,1,0,.22v.22l-4.17,2.53H489Z"/><path class="cls-7" d="M486.73,479.78h-.14l-2.72,1.65L481.46,483a1,1,0,0,0,.34.08h0l4.9-3Z"/><polygon class="cls-7" points="494.36 475.45 494.36 475.06 490.18 477.6 490.81 477.6 494.36 475.45"/><path class="cls-7" d="M484.1,479.78l-3.18,1.93v.46a.9.9,0,0,0,.14.48l2.59-1.58,2-1.29Z"/><path class="cls-7" d="M486.73,477.6v-.78L482.39,474h-.59a.85.85,0,0,0-.6.25l5.15,3.39Z"/><path class="cls-7" d="M489.67,479.78l4.48,3a.86.86,0,0,0,.1-.16L490,479.78Z"/><polygon class="cls-7" points="490.76 479.78 494.36 482.14 494.36 481.83 491.23 479.78 490.76 479.78"/><path class="cls-7" d="M488.91,480.24l4.26,2.81h.31a1.07,1.07,0,0,0,.31-.06l-4.88-3.21h0Z"/><path class="cls-7" d="M485.6,477.6l-4.63-3a.87.87,0,0,0-.05.28V475l4,2.61Z"/><path class="cls-6" d="M486.35,477.6l-5.15-3.39a.77.77,0,0,0-.23.35l4.63,3Z"/><path class="cls-6" d="M494.36,482.14l-3.6-2.36H490l4.25,2.79a.8.8,0,0,0,.11-.4Z"/><path class="cls-6" d="M483.87,481.43l2.58-1.65h-.66l-2.14,1.29-2.56,1.64a.88.88,0,0,0,.27.24h0Z"/><path class="cls-6" d="M481.46,483l-.08,0h0l.06,0Z"/><path class="cls-6" d="M481.46,483l2.41-1.54-2.49,1.51Z"/><polygon class="cls-6" points="485.68 479.78 483.65 481.07 485.79 479.78 485.68 479.78"/><path class="cls-6" d="M494,474.7v-.22a.78.78,0,0,0,0-.22v0l-4.93,3h.8Z"/><polygon class="cls-7" points="491.23 479.78 494.36 479.78 494.36 479.41 490.68 479.41 491.23 479.78"/><polygon class="cls-7" points="484.7 479.41 480.92 479.41 480.92 479.78 484.1 479.78 484.7 479.41"/><polygon class="cls-7" points="484.88 477.6 480.92 477.6 480.92 477.96 485.44 477.96 484.88 477.6"/><polygon class="cls-7" points="490.21 477.96 494.36 477.96 494.36 477.6 490.81 477.6 490.21 477.96"/><polygon class="cls-7" points="490.21 477.96 490.81 477.6 490.18 477.6 489.58 477.96 490.21 477.96"/><polygon class="cls-7" points="488.91 477.88 489.38 477.6 488.91 477.6 488.91 477.88"/><polygon class="cls-7" points="485.87 479.73 486.39 479.41 484.7 479.41 484.1 479.78 485.68 479.78 485.75 479.73 485.87 479.73"/><polygon class="cls-7" points="485.75 479.73 485.68 479.78 485.79 479.78 485.87 479.73 485.75 479.73"/><polygon class="cls-7" points="486.59 479.78 486.73 479.78 486.73 479.69 486.59 479.78"/><polygon class="cls-7" points="486.73 477.6 486.35 477.6 486.73 477.85 486.73 477.6"/><polygon class="cls-7" points="485.6 477.6 484.88 477.6 485.44 477.96 486.15 477.96 485.6 477.6"/><polygon class="cls-7" points="490.76 479.78 491.23 479.78 490.68 479.41 489.11 479.41 489.67 479.78 490 479.78 490.76 479.78"/><polygon class="cls-7" points="488.91 479.78 488.91 479.78 488.91 479.78 488.91 479.78"/><polygon class="cls-7" points="488.91 479.41 488.91 479.78 488.91 479.78 489.67 479.78 489.11 479.41 488.91 479.41"/><polygon class="cls-7" points="486.73 477.96 486.73 477.85 486.35 477.6 485.6 477.6 486.15 477.96 486.73 477.96"/><polygon class="cls-7" points="486.73 479.41 486.39 479.41 485.87 479.73 486.55 479.71 486.45 479.78 486.59 479.78 486.73 479.69 486.73 479.41"/><polygon class="cls-7" points="485.87 479.73 485.79 479.78 486.45 479.78 486.55 479.71 485.87 479.73"/><polygon class="cls-7" points="488.91 477.96 489.58 477.96 490.18 477.6 489.38 477.6 488.91 477.88 488.91 477.96"/><polygon class="cls-7" points="486.73 480.07 486.73 483.05 487.09 483.05 487.09 479.85 486.73 480.07"/><polygon class="cls-7" points="488.55 480 488.55 483.05 488.91 483.05 488.91 480.24 488.55 480"/><polygon class="cls-7" points="487.09 477.06 487.09 473.96 486.73 473.96 486.73 476.82 487.09 477.06"/><polygon class="cls-7" points="488.91 476.86 488.91 473.96 488.55 473.96 488.55 477.08 488.91 476.86"/><polygon class="cls-7" points="486.73 479.78 486.73 480.07 487.09 479.85 487.09 479.78 486.73 479.78"/><polygon class="cls-7" points="488.91 477.6 488.91 476.86 488.55 477.08 488.55 477.6 488.91 477.6"/><polygon class="cls-7" points="487.09 477.06 486.73 476.82 486.73 477.6 487.09 477.6 487.09 477.06"/><polygon class="cls-7" points="488.55 480 488.91 480.24 488.91 479.78 488.55 479.78 488.55 480"/><polygon class="cls-7" points="487.09 479.47 486.73 479.69 486.73 479.78 487.09 479.78 487.09 479.47"/><polygon class="cls-7" points="488.55 477.96 488.78 477.96 488.91 477.88 488.91 477.6 488.55 477.6 488.55 477.96"/><polygon class="cls-7" points="488.55 479.78 488.91 479.78 488.91 479.78 488.55 479.54 488.55 479.78"/><polygon class="cls-7" points="486.9 477.96 487.09 477.96 487.09 477.6 486.73 477.6 486.73 477.85 486.9 477.96"/><polygon class="cls-7" points="488.55 479.54 488.91 479.78 488.91 479.41 488.55 479.41 488.55 479.54"/><polygon class="cls-7" points="486.73 477.85 486.73 477.96 486.9 477.96 486.73 477.85"/><polygon class="cls-7" points="486.73 479.41 486.73 479.69 487.09 479.47 487.09 479.41 486.73 479.41"/><polygon class="cls-7" points="488.91 477.96 488.91 477.88 488.78 477.96 488.91 477.96"/><polygon class="cls-6" points="487.81 477.53 488.55 477.08 488.55 473.96 487.09 473.96 487.09 477.06 487.81 477.53"/><polygon class="cls-6" points="488.2 479.78 487.22 479.78 487.09 479.85 487.09 483.05 488.55 483.05 488.55 480 488.2 479.78"/><polygon class="cls-6" points="487.09 479.85 487.22 479.78 487.09 479.78 487.09 479.85"/><polygon class="cls-6" points="488.55 477.6 488.55 477.08 487.81 477.53 487.91 477.6 488.55 477.6"/><polygon class="cls-6" points="487.69 477.6 487.81 477.53 487.09 477.06 487.09 477.6 487.69 477.6"/><polygon class="cls-6" points="488.2 479.78 488.55 480 488.55 479.78 488.2 479.78"/><polygon class="cls-6" points="487.91 477.6 487.81 477.53 487.69 477.6 487.91 477.6"/><polygon class="cls-6" points="487.22 479.78 488.2 479.78 487.73 479.47 487.22 479.78"/><polygon class="cls-6" points="488.55 477.96 488.55 477.6 487.91 477.6 488.47 477.96 488.55 477.96"/><polygon class="cls-6" points="487.65 479.41 487.19 479.41 487.09 479.47 487.09 479.78 487.22 479.78 487.73 479.47 487.65 479.41"/><polygon class="cls-6" points="488.55 479.54 488.36 479.41 487.82 479.41 487.73 479.47 488.2 479.78 488.55 479.78 488.55 479.54"/><polygon class="cls-6" points="487.09 477.6 487.09 477.96 487.69 477.6 487.09 477.6"/><polygon class="cls-6" points="487.91 477.6 487.69 477.6 487.09 477.96 488.47 477.96 487.91 477.6"/><polygon class="cls-6" points="487.73 479.47 487.82 479.41 487.65 479.41 487.73 479.47"/><polygon class="cls-6" points="488.55 479.54 488.55 479.41 488.36 479.41 488.55 479.54"/><polygon class="cls-6" points="487.09 479.47 487.19 479.41 487.09 479.41 487.09 479.47"/><polygon class="cls-6" points="486.23 478.48 485.44 477.96 480.92 477.96 480.92 479.41 484.7 479.41 486.23 478.48"/><polygon class="cls-6" points="489.31 478.51 490.68 479.41 494.36 479.41 494.36 477.96 490.21 477.96 489.31 478.51"/><polygon class="cls-6" points="486.73 479.21 486.73 478.81 486.23 478.48 484.7 479.41 486.39 479.41 486.73 479.21"/><polygon class="cls-6" points="489.31 478.51 490.21 477.96 489.58 477.96 489 478.31 489.31 478.51"/><polygon class="cls-6" points="486.15 477.96 485.44 477.96 486.23 478.48 486.6 478.26 486.15 477.96"/><polygon class="cls-6" points="488.91 478.75 488.91 479.28 489.11 479.41 490.68 479.41 489.31 478.51 488.91 478.75"/><polygon class="cls-6" points="488.91 478.37 488.91 478.75 489.31 478.51 489 478.31 488.91 478.37"/><polygon class="cls-6" points="486.73 478.34 486.6 478.26 486.23 478.48 486.73 478.81 486.73 478.34"/><polygon class="cls-6" points="486.73 477.96 486.15 477.96 486.6 478.26 486.73 478.18 486.73 477.96"/><polygon class="cls-6" points="488.91 479.41 489.11 479.41 488.91 479.28 488.91 479.41"/><polygon class="cls-6" points="486.6 478.26 486.73 478.34 486.73 478.18 486.6 478.26"/><polygon class="cls-6" points="489 478.31 489.58 477.96 488.91 477.96 488.91 478.25 489 478.31"/><polygon class="cls-6" points="486.39 479.41 486.73 479.41 486.73 479.21 486.39 479.41"/><polygon class="cls-6" points="489 478.31 488.91 478.25 488.91 478.37 489 478.31"/><polygon class="cls-6" points="488.62 478.06 488.78 477.96 488.55 477.96 488.55 478.01 488.62 478.06"/><polygon class="cls-6" points="486.73 478.81 486.73 479.21 487.04 479.02 486.73 478.81"/><polygon class="cls-6" points="488.55 479.04 488.91 479.28 488.91 478.75 488.55 478.97 488.55 479.04"/><polygon class="cls-6" points="487.09 477.96 486.9 477.96 487 478.02 487.09 477.96"/><polygon class="cls-6" points="487.09 478.08 487.09 477.96 487 478.02 487.09 478.08"/><polygon class="cls-6" points="488.55 478.1 488.62 478.06 488.55 478.01 488.55 478.1"/><polygon class="cls-6" points="487.09 478.99 487.09 478.58 486.73 478.34 486.73 478.81 487.04 479.02 487.09 478.99"/><polygon class="cls-6" points="488.55 478.59 488.55 478.97 488.91 478.75 488.91 478.37 488.55 478.59"/><polygon class="cls-6" points="488.55 479.04 488.55 479.41 488.91 479.41 488.91 479.28 488.55 479.04"/><polygon class="cls-6" points="487 478.02 486.9 477.96 486.73 477.96 486.73 478.18 487 478.02"/><polygon class="cls-6" points="487.09 478.08 487 478.02 486.73 478.18 486.73 478.34 487.09 478.58 487.09 478.08"/><polygon class="cls-6" points="487.09 479.05 487.04 479.02 486.73 479.21 486.73 479.41 487.09 479.41 487.09 479.05"/><polygon class="cls-6" points="488.62 478.06 488.91 478.25 488.91 477.96 488.78 477.96 488.62 478.06"/><polygon class="cls-6" points="488.55 478.59 488.91 478.37 488.91 478.25 488.62 478.06 488.55 478.1 488.55 478.59"/><polygon class="cls-6" points="487.04 479.02 487.09 479.05 487.09 478.99 487.04 479.02"/><polygon class="cls-6" points="488.55 478.01 488.55 477.96 488.47 477.96 488.55 478.01"/><polygon class="cls-6" points="487.19 479.41 487.65 479.41 487.43 479.27 487.19 479.41"/><polygon class="cls-6" points="488.49 479 488.55 479.04 488.55 478.97 488.49 479"/><polygon class="cls-6" points="487.82 479.41 488.36 479.41 488.1 479.24 487.82 479.41"/><polygon class="cls-6" points="488.49 479 488.55 478.97 488.55 478.59 488.19 478.81 488.49 479"/><polygon class="cls-6" points="487.09 478.58 487.09 478.99 487.41 478.79 487.09 478.58"/><polygon class="cls-6" points="487.8 479.05 487.43 479.27 487.65 479.41 487.82 479.41 488.1 479.24 487.8 479.05"/><polygon class="cls-6" points="487.81 478.55 488.55 478.1 488.55 478.01 488.47 477.96 487.09 477.96 487.09 478.08 487.81 478.55"/><polygon class="cls-6" points="488.1 479.24 488.36 479.41 488.55 479.41 488.55 479.04 488.49 479 488.1 479.24"/><polygon class="cls-6" points="487.8 479.05 488.1 479.24 488.49 479 488.19 478.81 487.8 479.05"/><polygon class="cls-6" points="487.81 478.55 487.09 478.08 487.09 478.58 487.41 478.79 487.81 478.55"/><polygon class="cls-6" points="487.09 479.05 487.09 479.41 487.19 479.41 487.43 479.27 487.09 479.05"/><polygon class="cls-6" points="487.09 478.99 487.09 479.05 487.43 479.27 487.8 479.05 487.41 478.79 487.09 478.99"/><polygon class="cls-6" points="487.81 478.55 488.19 478.81 488.55 478.59 488.55 478.1 487.81 478.55"/><polygon class="cls-6" points="487.81 478.55 487.41 478.79 487.8 479.05 488.19 478.81 487.81 478.55"/><rect class="cls-4" x="105.42" y="444.9" width="179.9" height="48.97" rx="12" transform="translate(504.23 65.52) rotate(60.01)"/><path class="cls-5" d="M336.79,284.91v55.54s-1.16,8.82-10.62,9.35S252.65,382.65,227.78,280c0,0,53.21,46.15,69.34,23.07s-5.25-74.84-5.25-74.84Z"/><rect class="cls-1" x="286.9" y="59.84" width="210.53" height="240.58" rx="103"/><ellipse class="cls-11" cx="333.06" cy="167.75" rx="23.38" ry="23.38"/><circle cx="333.06" cy="167.75" r="13.49"/><circle class="cls-7" cx="341.84" cy="158.89" r="4.88"/><path class="cls-7" d="M331.27,177.53,343,173.14a14.06,14.06,0,0,1-4.79,4.39C334.86,179.44,331.27,177.53,331.27,177.53Z"/><ellipse class="cls-11" cx="393.18" cy="167.58" rx="22.64" ry="22.64"/><circle cx="393.18" cy="167.58" r="13.06"/><circle class="cls-7" cx="404.86" cy="159.38" r="4.72"/><path class="cls-7" d="M393.36,177.36l11.32-4.25a13.48,13.48,0,0,1-4.63,4.25C396.85,179.21,393.36,177.36,393.36,177.36Z"/><path class="cls-12" d="M350.34,199.72c-1.1.17,7-6.77,8.65-24.81l2.88-14.42.34-.34a1.15,1.15,0,0,1,1.63,0l.34.34,3.65,41.18s13.47,7.51,0,16.35a44.25,44.25,0,0,1-10.9,1.34,28.22,28.22,0,0,1-3.76-.33,15,15,0,0,1-5.74-2.1C351.82,219.87,335.81,212.09,350.34,199.72Z"/><path class="cls-13" d="M373.71,155.9a46.15,46.15,0,0,1,39.8,0s-6.83-12.27-21.7-11.5S373.71,155.9,373.71,155.9Z"/><path class="cls-13" d="M313.4,154.2a46.15,46.15,0,0,1,39.8,0s-6.83-12.27-21.69-11.5S313.4,154.2,313.4,154.2Z"/><ellipse class="cls-14" cx="361.03" cy="217.46" rx="3.92" ry="1.56" transform="translate(-37.6 80.63) rotate(-12.12)"/><ellipse class="cls-14" cx="350.19" cy="216.76" rx="1.43" ry="3.92" transform="translate(26.14 470.94) rotate(-69.87)"/><path d="M374.56,132.47v7.28s13.2-11.85,29.26-10,19.48,2.61,19.48,2.61l-15-4.59a30.33,30.33,0,0,0-9.38-1.44C394.23,126.51,389.1,126.66,374.56,132.47Z"/><path d="M347.45,132.4v6.74s-11.24-11-24.93-9.24-16.59,2.43-16.59,2.43l12.77-4.27a23.88,23.88,0,0,1,8-1.34C330.7,126.86,335.06,127,347.45,132.4Z"/><path class="cls-15" d="M326.68,249.91s22.06,15.11,28.5,14.88,3.5,2.63,39.29-11.29c0,0-2.34,17.49-22.88,27.08S330.47,274.25,326.68,249.91Z"/><path class="cls-15" d="M323.53,226.11s35.28,0,33,8.46c0,0-.86-9.58,47.19-11.24,0,0-16.1,17.64-46.94,15.2S323.53,226.11,323.53,226.11Z"/><path class="cls-16" d="M324,227.37s5.14,7.28,32.77,8.73,46.08-11,46.08-11l-8.37,30.34s-37.24,23-67.79-2.74Z"/><path class="cls-17" d="M403.7,153c4.45,1.51,9.86-2.62,12.11-9.23"/><path class="cls-17" d="M398.8,151.36c4.47,1.52,9.77-2.18,11.85-8.28"/><path class="cls-17" d="M393.2,150.84c4.38,1.49,9.53-2,11.5-7.82"/><path class="cls-17" d="M314.13,153.07c-5.15,1-10.47-4.26-11.9-11.72"/><path class="cls-17" d="M409.09,154.09c4.69,1.6,10.47-2.93,12.92-10.12"/><path class="cls-17" d="M327.58,150.62c-5.15,1-10.2-2.79-11.28-8.45"/><path class="cls-17" d="M323.54,151.2c-5.15,1-10.27-3.18-11.44-9.33"/><path class="cls-17" d="M318.93,151.78c-5.15,1-10.38-3.73-11.68-10.55"/><path class="cls-5" d="M364.38,58.14s-11.17,44.35-85.17,75.1c0,0-27.42,19.83-17.34,53.24,0,0-56.47-202.71,100.83-177.9"/><path class="cls-5" d="M347.18,74.16s67.58,42.62,130.14,36.59c0,0,21.9,124.22-6.5,149S435.16,289.74,419,295.25c0,0-3.38,34.91.88,44.13s12.19,16.15,14.62,16.72S493,380.18,532,352.28s32.9-60.18,32.9-60.18-48.13,42.09-57.87,19S547.2,145.76,547.2,145.76s38.37-117-53.31-132.63c0,0-32.78-17.12-92.08-12.06,0,0-31.89,2.17-45.9,10.82Z"/><ellipse class="cls-18" cx="355.53" cy="208.09" rx="4.61" ry="2.02"/><ellipse class="cls-19" cx="427.29" cy="198.28" rx="14.97" ry="10.38" transform="translate(-40.93 249.88) rotate(-31.18)"/><ellipse class="cls-19" cx="300.57" cy="198.4" rx="10.38" ry="14.97" transform="translate(-48.11 288.55) rotate(-47.92)"/><path class="cls-20" d="M364.18,160.49l7.56,44.43a29.29,29.29,0,0,0-3.91-3.25Z"/><path class="cls-21" d="M355.53,197s.51,7,3.43,0c0,0,5.8-15.12,3.49-25.5,0,0-4.26,16.55-6.34,23.08A23.15,23.15,0,0,0,355.53,197Z"/><path d="M353.2,154.2s-9.67-4.93-25.36-2.94c-4.31.54-9.34,1-14.44,2.94,0,0-1.94.09-6.15-2.29l9.63-.65s8-1.48,10.39-1.73a44.93,44.93,0,0,1,11,0A49.41,49.41,0,0,1,353.2,154.2Z"/><path d="M372.79,156.45s9.84-6.19,25.81-3.7c4.39.69,9.5,1.22,14.69,3.7,0,0,2,.11,6.26-2.88l-9.8-.82s-8.14-1.86-10.57-2.17a37,37,0,0,0-11.15,0A43.5,43.5,0,0,0,372.79,156.45Z"/><path class="cls-22" d="M353.2,70.75s-23.91,39.26-62,52c0,0-29.43,9-30.58,29,0,0,2.89-19.77,22.5-33,0,0,31.21-8.07,49.92-31.73Z"/><path class="cls-23" d="M355.82,39s-15,42.7-90,73.85c0,0,18.77-62.5,56.1-76.83,0,0-22.07,3-27.84,13.37,0,0,8.65-17.31,41.53-21.92,0,0-38.07-8.66-57.68,24.23,0,0,23.92-47.48,81.33-33.47Z"/><path class="cls-22" d="M368,15.69s79.86-29.43,149.65,19c0,0-74.61-39.22-135.07-19,0,0,38.9-9.23,54.1,0,0,0-62-2.53-68.68,6.81,0,0,115-11.56,149.65,25.14s26.52,88.07,26.52,88.07S559.84,22.44,371.74,44.16h-7.36Z"/><path class="cls-24" d="M365.91,31.26s45.63,33.39,103.22,32.3c0,0,44.26-1.76,51.94,19.62,0,0-10.05-20.41-41.75-27.18,0,0-46.51,3.43-80.08-15Z"/><path class="cls-22" d="M359,66.45s34.83,37.4,118.64,35.14c0,0,18.46.44,15.67,24.76,0,0,8.25-28.53-6.79-33.25,0,0-76.19,2.73-124.06-41.07Z"/><path class="cls-22" d="M527,168s-50.3,80.41-63.27,158.17c0,0-.85,21.42,12.7,24.49s39.36-5.19,39.36-5.19S470.55,315.77,527,168Z"/><path class="cls-22" d="M326.68,277.41s28.85,87.31-55.94,62.5c0,0,41.15,2.79,48.84-68.7Z"/><rect class="cls-1" x="108.88" y="347.7" width="55.97" height="41.55" rx="9.52" transform="translate(379.64 59.34) rotate(58.52)"/><path class="cls-1" d="M140.37,338.52a32,32,0,0,1-11.56-16.28c-3-10.5-10.21-19.92-15.85-26.25a196.42,196.42,0,0,0-34-13.5l-10.29.05L60.9,284.6s-4,3.25-6,13.64c0,0-.66,2.45,2.81,4.11,0,0-2.91,4.64-2.64,8.57s2.22,5,2.22,5-5,3.19-2.64,12.82c0,0-4.63,1.34-5.71,4.78a5.18,5.18,0,0,0-1.08,6.38s-.4,5.47,9.15,1.55a5.18,5.18,0,0,0,2.93-3.58s10.73,5.59,11.74-6.18a12.53,12.53,0,0,0-3-6.31s12.58-3.36-.32-19.82l1.42-10.49,3.47.59s-.12,12.2,21.34,27.83a49.8,49.8,0,0,0,22.15,31.93l19.44,7.88-19.44-7.88c-17.54-10-22.15-31.93-22.15-31.93-21.91-15.13-21.34-27.83-21.34-27.83l-3.47-.59-1.42,10.49c12.71,16.88.32,19.82.32,19.82C71.3,328.42,73.27,335,69,338s-9.1-.09-9.1-.09c.17,1.32-1.89,2.95-1.89,2.95l11.25,2.92c3,10.7,41.05,29.38,47.5,29.16s15.59,3.36,15.59,3.36"/><path class="cls-15" d="M87,295.87a23.58,23.58,0,0,0-5.17-10.45s-3.17.82-4.71,6.63c0,0,2.61,6.26,6.4,9.3C83.55,301.35,86.87,298.72,87,295.87Z"/><path class="cls-15" d="M60.91,293.75s-.23-10.08-4.19-2.15a15.6,15.6,0,0,0-1.86,6.64S57.82,299.36,60.91,293.75Z"/><path class="cls-15" d="M69.2,316s-11.43-12.15-10.13,1.34c0,0,.22,1.41,4.85,6.46A17.68,17.68,0,0,0,69.2,316Z"/><path class="cls-15" d="M68.87,331l-4.14-5.26s-1.57.31-3.3-1.87c0,0-5.54,1.48-3.81,5.22,0,0,.66,3.48,5.51,8.9C63.13,338,67.47,335.2,68.87,331Z"/><path class="cls-15" d="M52.57,335s.48-4.94-3.51-2c0,0-3.57,3.21-1.24,6.83C47.82,339.89,46.84,334,52.57,335Z"/><path class="cls-25" d="M100.88,305.89a33.41,33.41,0,0,1,8-8.55Z"/><polygon class="cls-14" points="93.49 299.95 99.41 294.37 93.99 300.43 93.49 299.95"/><path class="cls-26" d="M115.22,312.74s-13-3.37-19.64-10.43l-8.84-7.68S103,309.7,115.22,312.74Z"/><path class="cls-14" d="M116.74,355.41s-15.43-9.14-22.15-31.93c0,0-20.36-15.73-21.34-27.83,0,0,.56-5.23,1.69-5.42,0,0-11.38,8.32,18.55,34.3C93.49,324.53,102.77,349.25,116.74,355.41Z"/><path class="cls-14" d="M94,325.71s-5.1,12.92-14.88,22.65Z"/><path class="cls-25" d="M95.13,329.57A44.48,44.48,0,0,1,92.72,345Z"/><path class="cls-26" d="M54.86,298.24s0,10.47,14.7-1.56C69.56,296.68,56.53,309.21,54.86,298.24Z"/><path class="cls-26" d="M57.25,315.91s4.12,16.77,15,7.3C72.27,323.21,62.78,332.21,57.25,315.91Z"/><path d="M70.83,328.8s3.81,13.79-10.93,9.06l-5.29-9.13,5.71,8.77S73,343.18,70.83,328.8Z"/><path d="M58.81,340.07s-8.28,5.15-10.8.95C48,341,49.17,346.26,58.81,340.07Z"/><g class="cls-27"><ellipse class="cls-28" cx="72.3" cy="214.53" rx="71.75" ry="5.33"/><ellipse class="cls-29" cx="72.3" cy="367.24" rx="44.81" ry="7.34"/><line class="cls-30" x1="72.3" y1="280.92" x2="72.3" y2="359.9"/><path class="cls-25" d="M143.71,214.38,75.16,280.92H68.67L.2,214.38A21.71,21.71,0,0,0,9.48,217l8.9.92,8.61.61,7.37.39,8.88.34,12.66.31,16.06.14s20.37.12,20.43-.22l14.35-.45,17.7-1,11.08-1.16S141.2,216.5,143.71,214.38Z"/></g><path class="cls-31" d="M14.93,227.43s4.8-.83,5.93,0,16.9.63,17.22,0,22.44-1.37,24.44.09,31.5,1.1,32.14.46,4.08-1.61,3.68-1.31,2.65.14,3.33.9,14.54,0,14.54,0,6.25.7,8.17,0,5.29,0,5.29,0L75.5,281.07H69Z"/><ellipse class="cls-32" cx="87.9" cy="263.4" rx="3.27" ry="3.72"/><ellipse class="cls-33" cx="89.4" cy="262.73" rx="1.5" ry="2.14"/><path class="cls-34" d="M69.45,269.85l56-86.46s1.94-6.36,7-3.58,31.9,16.64,31.9,16.64l-2.22,3.78-29.9-14.88s-2.66-3.53-3.76,1.52-56,84.84-56,84.84Z"/><ellipse class="cls-32" cx="61.81" cy="256.25" rx="3.27" ry="3.72"/><ellipse class="cls-33" cx="63.31" cy="255.58" rx="1.5" ry="2.14"/><ellipse class="cls-32" cx="64.14" cy="242.07" rx="1.64" ry="1.86"/><ellipse class="cls-33" cx="64.9" cy="241.73" rx="0.75" ry="1.07"/><ellipse class="cls-32" cx="50.5" cy="243.93" rx="3.27" ry="3.72"/><ellipse class="cls-33" cx="52" cy="243.26" rx="1.5" ry="2.14"/><ellipse class="cls-32" cx="91.17" cy="248.43" rx="1.64" ry="1.86"/><ellipse class="cls-33" cx="91.92" cy="248.09" rx="0.75" ry="1.07"/><ellipse class="cls-32" cx="96.05" cy="246.56" rx="1.64" ry="1.86"/><ellipse class="cls-33" cx="96.8" cy="246.23" rx="0.75" ry="1.07"/><ellipse class="cls-32" cx="33.76" cy="231.77" rx="1.64" ry="1.86"/><ellipse class="cls-33" cx="34.51" cy="231.44" rx="0.75" ry="1.07"/><ellipse class="cls-32" cx="80.03" cy="228.47" rx="1.64" ry="1.86"/><ellipse class="cls-33" cx="80.78" cy="228.14" rx="0.75" ry="1.07"/><path d="M71.32,174.42,40.21,228.91s-1.16,5.25,2.88,5.43,62.25,0,62.25,0,4.82.27,3.27-5.31-31-54.61-31-54.61S75,169.09,71.32,174.42Z"/><polygon class="cls-35" points="74.58 183.19 48.6 228.66 100.38 228.66 74.58 183.19"/><path class="cls-36" d="M67.08,209.65s-3.35-3,0-7.92,11.6-5.42,15.25,1.59c0,0,1.1,5.06-1,7.41,0,0,1,3.35-1.19,4.57,0,0,.48,8-4.93,8.19,0,0-5.75,2.25-7.52-8.68A3.46,3.46,0,0,1,67.08,209.65Z"/><path d="M72.35,208.63a5.21,5.21,0,0,0-2.55.16c-1,.46-.84,1.82-.84,1.82a3.88,3.88,0,0,0,1.69,2.21,1.53,1.53,0,0,0,.83,0,3.22,3.22,0,0,0,1.66-2C73.52,209.62,73,208.7,72.35,208.63Z"/><path d="M78.64,208.19a5.17,5.17,0,0,0-2.53.5c-.94.6-.6,2-.6,2a4,4,0,0,0,2,2.06,1.59,1.59,0,0,0,.82-.11,3.29,3.29,0,0,0,1.4-2.29C79.92,209.06,79.33,208.18,78.64,208.19Z"/><path d="M73.52,211.88a3.84,3.84,0,0,0-1,3.58.69.69,0,0,0,1.19,0,.65.65,0,0,1,.64,0,.78.78,0,0,0,1.17,0s.41-3.2-.85-3.72C74.7,211.78,73.88,211.17,73.52,211.88Z"/><path d="M67.58,213.68s3.39.52,3.09,3.26l.17-.26.56.06V217H72v.27h.61v.26h.47v-.2h.51v.32H74v-.3l.7,0v-.23l.17.31h.54l.11-.24.83-.06v-.34h.77v-.3l.75,0s.68-2.8,2.71-2.89h.31s-2,1.74-1.75,2v.45a9.59,9.59,0,0,1-.48,2.49h-.31l-.42,0,0,.66h-.3l0,.48h-.44V220h-.45v.17h-.3l0,.24h-.71l0,.18h-.6v-.25h-.34v.26h-.56v-.3h-.39l0,.3h-.4l0-.21-1.05,0-.09-.2h-.33v-.23h-.25v-.25h-.39v-.29l-.43,0,0-.36h-.28v-.23h-.35v-.5s-.41-3.58-2.93-4.52Z"/><path class="cls-36" d="M67.27,215.12l-4.43-1.54s-3.21-3.8-2.57.77a.18.18,0,0,1-.09.28c-.22.1-1.78,2.3,1.14,1.71,0,0,.71-.27,1,0s5.71,2,5.71,2Z"/><path class="cls-36" d="M81.18,214.52l4.39-1.23s3.19-3,2.56.61c0,0-.14.15.08.23S90,216,87.08,215.5c0,0-.7-.22-1,0s-5.66,1.57-5.66,1.57Z"/><path class="cls-36" d="M67.77,220.56l-3.94,2.05s-4.5-.23-1.29,2.26c0,0,.2,0,.11.24s.18,2.69,1.82.31c0,0,.32-.66.66-.67s5.07-2.65,5.07-2.65Z"/><polygon points="67.81 219.89 68.49 219.46 69.05 220.64 67.81 219.89"/><path class="cls-36" d="M78.55,222.29s5.86,2.29,6.27,3.53c0,0,2.24,1.09,1.93-1.35,0,0-.15-.24.08-.29a1.27,1.27,0,0,0,.38-1.58,1.37,1.37,0,0,0-2.11-.09,25.86,25.86,0,0,1-5.18-2.18Z"/><path d="M66.86,208.9a3.44,3.44,0,0,0,.18-2.57,2.74,2.74,0,0,1,.13-2,.46.46,0,0,1,.75,0s.16.71-.18.77c0,0-.19.08-.15.18a2.31,2.31,0,0,0,.37,1.68,10,10,0,0,1-.31,2.44C67.39,209.84,66.86,208.9,66.86,208.9Z"/><path d="M81.61,209.73s-.77-1-.24-3.36a3.39,3.39,0,0,0-.18-2.66.67.67,0,0,0-1.06,0s-.21.93.26,1c0,0,.26.12.2.24a2.87,2.87,0,0,1-.51,2.2,12.41,12.41,0,0,0,.43,3.19C80.88,211,81.61,209.73,81.61,209.73Z"/></svg>