<svg id="Layer_1" data-name="Layer 1" xmlns="http://www.w3.org/2000/svg" xmlns:xlink="http://www.w3.org/1999/xlink" width="414.37" height="706.53" viewBox="0 0 414.37 706.53"><defs><style>.cls-1{fill:#ffbcd2;}.cls-2{fill:#ffe4dd;}.cls-3{fill:#fff9e9;}.cls-4{fill:red;}.cls-5{fill:#ffdde3;}.cls-6{fill:#d1a09f;}.cls-17,.cls-7,.cls-9{opacity:0.3;}.cls-8{fill:#fff1db;}.cls-11,.cls-9{fill:#ff0a3a;}.cls-10,.cls-11{opacity:0.1;}.cls-12,.cls-21{fill:#fff;}.cls-13{opacity:0.6;}.cls-14{fill:#74001f;}.cls-15{fill:#35001f;}.cls-16{fill:#ff156a;}.cls-17{fill:url(#linear-gradient);}.cls-18,.cls-19{opacity:0.4;}.cls-18{fill:url(#linear-gradient-2);}.cls-19{fill:url(#linear-gradient-3);}.cls-20{fill:#59001f;}.cls-21{opacity:0.9;}.cls-22{fill:#d40e14;}</style><linearGradient id="linear-gradient" x1="164.25" y1="-499.97" x2="188.88" y2="-499.97" gradientTransform="translate(-123.75 754.88) rotate(15.76)" gradientUnits="userSpaceOnUse"><stop offset="0" stop-color="#ff156a"/><stop offset="0.52" stop-color="#fff"/></linearGradient><linearGradient id="linear-gradient-2" x1="8048.5" y1="675.97" x2="8058.1" y2="675.97" gradientTransform="translate(7963.74 -1751.71) rotate(160.24)" xlink:href="#linear-gradient"/><linearGradient id="linear-gradient-3" x1="4393.21" y1="-3039.37" x2="4396.09" y2="-3039.37" gradientTransform="matrix(-0.14, -1.04, 1.34, -0.18, 4853.46, 4338.51)" xlink:href="#linear-gradient"/></defs><polygon class="cls-1" points="254 428.19 157.02 428.19 157.02 386.43 157.02 349.36 254 349.36 254 428.19"/><path class="cls-2" d="M398.87,705.77H15.06L3.09,507.5c0-50.37,53.33-79.31,103.88-79.31H307c50.56,0,107.72,25.21,107.72,75.57Z"/><path class="cls-1" d="M133.72,366.44s7.36,22.93,43.4,18.05a136.12,136.12,0,0,0,23.7-7.17,18.94,18.94,0,0,0,5-3.05L226,357.2l-24.79.1s-6.45,9.82-25.69,16.21C175.52,373.51,150.53,381.19,133.72,366.44Z"/><rect class="cls-1" x="74.89" y="14.75" width="273.66" height="343.18" rx="136.62"/><ellipse class="cls-3" cx="145.71" cy="180.67" rx="35.24" ry="35.1"/><ellipse class="cls-4" cx="145.71" cy="180.67" rx="20.33" ry="20.25"/><ellipse class="cls-3" cx="228.69" cy="185.28" rx="29.42" ry="29.32"/><path class="cls-5" d="M166.67,227.35c-1.43.22,7.9-11.51,10.06-34.87l4.42-23.09a10,10,0,0,1,2.61-5l1.66-1.72a2.54,2.54,0,0,1,3.86.23l.91,1.2c.59-.58.81,12,.81,12l6.09,51.25s6.22,5.64,7.95,10.37c1.34,3.68.09,8.19-7.57,13.2a95.94,95.94,0,0,1-15.89,1.4,35.1,35.1,0,0,1-4.89-.43,19.65,19.65,0,0,1-7.47-2.71C174.94,253,147.79,243.37,166.67,227.35Z"/><path class="cls-6" d="M203.39,170.16s23.59-13.1,51.73,0c0,0-8.88-15.9-28.2-14.9S203.39,170.16,203.39,170.16Z"/><path class="cls-6" d="M111.5,165.84s31.2-17.32,68.42,0c0,0-11.75-21-37.29-19.69S111.5,165.84,111.5,165.84Z"/><ellipse class="cls-7" cx="188.79" cy="248.61" rx="7.2" ry="2.84" transform="translate(-47.75 44.9) rotate(-12.05)"/><ellipse class="cls-7" cx="171.03" cy="247.45" rx="2.66" ry="7.29" transform="translate(-120.04 323.34) rotate(-69.96)"/><path class="cls-8" d="M179,149.71l-4.68,13.77c.77,4.15-11.75-8.33-37.06-21.31-21.48-11-31.69-18.43-31.69-18.43L129.17,126s10.69,3.23,17.29,5.63S161.28,134.05,179,149.71Z"/><path class="cls-9" d="M189.37,232.74c0,2-20.11,2-20.11,0s5.4-5.15,10-5.15S189.37,230.73,189.37,232.74Z"/><path class="cls-10" d="M190.5,165.12l11.67,67.76s-3.93-4.71-5.29-5.37Z"/><path class="cls-11" d="M178.31,223.79c-.1,2.07.51,3.73,1.31,3.92s2.41-1.28,3.1-3.92c0,0,6.26-41.68,3.82-55.23q-3.71,26-7.4,51.94a10.23,10.23,0,0,0-.83,3.24Z"/><path class="cls-8" d="M199,153.36l4.77,15.53c-1.14,4.64,14.28-9.16,44.77-23.3,25.88-12,38.31-20.15,38.31-20.15l-27.95,2.17s-12.75,3.45-20.65,6S220.64,136.08,199,153.36Z"/><ellipse cx="145.71" cy="181.1" rx="16.24" ry="16.18"/><ellipse class="cls-4" cx="224.84" cy="185.5" rx="17.53" ry="17.47"/><ellipse cx="224.84" cy="185.5" rx="16.24" ry="16.18"/><polygon class="cls-12" points="162.41 180.31 158.63 176.55 154.84 172.78 162.41 172.78 162.41 180.31"/><polygon class="cls-12" points="237.52 181.1 233.67 177.26 229.82 173.42 237.52 173.42 237.52 181.1"/><path class="cls-13" d="M193.93,162.38s4.65-15.67,2.55-22.13"/><path class="cls-13" d="M183.79,163.13s-3.7-16.72-1.45-23.63"/><path class="cls-6" d="M245,210.53c-4.91,4.4-37.07,10.41-39.53-6.62"/><path class="cls-6" d="M172.53,206.4c-3.48,2.83-27.82,27-53.77,1.83"/><path class="cls-14" d="M174.25,256a154.6,154.6,0,0,0-15.49,10.2c-24.95,18.48-66.86,59.74-21.16,104.25,0,0,35.24,18.52,64.24-14.93S210.23,249.59,174.25,256Z"/><path class="cls-12" d="M174.25,256s-21.62,16-18.95,24.28h36.31l1.36-2.55,1.65,3.17s15,1.57,15.5,3S204.47,256,174.25,256Z"/><path class="cls-15" d="M155.38,373.9s-15.94-52.22,15.3-75.15c0,0,9.21-8.61,14.75,7.15,0,0,1.59,2.88,5.3.69s13-12,19.27-6.25c0,0,4.11,5.34,3.26,14.4S210.48,364.41,180,371.8C180,371.8,159.41,377,155.38,373.9Z"/><path class="cls-16" d="M206.65,346.7s5.69-43.07-31.24-34.55c0,0-13.28-9.69-26.11,15.43,0,0-3,31,29.71,9.88,0,0,11.64-.58,12.86,29C191.87,366.44,207.58,347.87,206.65,346.7Z"/><ellipse class="cls-17" cx="182.02" cy="321.69" rx="12.67" ry="6.19" transform="translate(-129.34 122.52) rotate(-27.89)"/><path class="cls-18" d="M151.8,337c-2.14-4.9-1.33-10.26.78-11.21s13,16.44,10.91,17.36S153.94,341.88,151.8,337Z"/><path class="cls-19" d="M167,311c3.24-.36,6.39.28,6.71,1s-11.56,3.14-11.86,2.38S163.76,311.35,167,311Z"/><path class="cls-20" d="M171,342s15.46-7.91,16.56-11.58"/><path class="cls-20" d="M177.12,311.79a25.59,25.59,0,0,0-9.75,11.12c-3.05,7.28.43-4.94,7.14-11.31l.91.53Z"/><path class="cls-8" d="M83.57,105,88.63,6.7h71.12l2.89,17.55L168.4,6.7H343.68l3.91,128.82s-57.3-21.85-69.23-68.83c0,0-1.8-24.33-31.58-12.45l-43.4,10.83s-16,4.53-21.21,0-62.63-19.52-61.74-6.63C120.43,58.44,114.12,85.48,83.57,105Z"/><path class="cls-21" d="M120.17,12.89s5.31,65.5-32.84,78.17"/><path class="cls-21" d="M310.8,91.33S300.38,85.1,285.61.77"/><path class="cls-21" d="M199.63,66.74s-5.55-3.32-13.42-48.26"/><path class="cls-21" d="M200.78,67.51s-3.94-5.13,5.31-49.79"/><path class="cls-21" d="M199.63,64.82s-4.5-4.64-.35-50.07"/><path class="cls-21" d="M133.08,55.32s-3.57-2.14-8.63-31.06"/><path class="cls-21" d="M236.68,55.75s-3.64-5.63,9.77-51"/><path class="cls-21" d="M319,121.89S310.52,72.43,291.46,23"/><path class="cls-21" d="M321,116.2s-8.45-49.46-27.51-98.93"/><path class="cls-1" d="M74.89,705.77H15.06c0-26.34-15.38-53.9-15.38-80.24,0-27.14,5.69-53.08,5.69-80.23H74.89Z"/><path class="cls-1" d="M399.37,705.77H339.54V545.3h71.89c0,27.38,3.25,52.86,3.25,80.23C414.68,651.64,399.37,679.66,399.37,705.77Z"/><path class="cls-7" d="M228,364s15.63-4.94,26-10.06v-2.68s-18.57,5.8-28,6c0,0-22,17.67-24.06,19-.88.54-16.95,7.33-24.82,8.33-7.36.93-14.1,1.14-20.1-.33l.13,9.78S201.6,399.58,228,364Z"/><path class="cls-1" d="M134.82,427.47l142.57.61s54.1,25.89-71.88,83.54C205.51,511.62,81.5,465.93,134.82,427.47Z"/><path class="cls-12" d="M74.89,545.3s19.35-54.64,4.69-112.93c0,0,20.07-6.28,33.63-4.18,0,0-11.44,111.49,86.48,110.22,0,0,106.65,16,100.55-110.22,0,0,17.14-3.32,27.21,2.31,0,0-13.31,77.95,12.09,114.8V705.77H74.89Z"/><path d="M137.18,639.29a9.46,9.46,0,0,1,6.39,2,6.87,6.87,0,0,1,2.3,5.47,8.59,8.59,0,0,1-1.18,4.55A6.1,6.1,0,0,1,140.9,654v.08a5.17,5.17,0,0,1,2,.8,4.39,4.39,0,0,1,1.24,1.34,6.12,6.12,0,0,1,.68,1.73,17.74,17.74,0,0,1,.34,2c.05.69.09,1.4.12,2.12a18.38,18.38,0,0,0,.2,2.11,13.62,13.62,0,0,0,.46,2,4.9,4.9,0,0,0,.9,1.65h-4.24a2.4,2.4,0,0,1-.55-1.19,13.66,13.66,0,0,1-.18-1.7c0-.63-.05-1.3-.08-2a12.4,12.4,0,0,0-.24-2.11,19.25,19.25,0,0,0-.4-2,4.54,4.54,0,0,0-.76-1.63,3.66,3.66,0,0,0-1.36-1.12,5.05,5.05,0,0,0-2.24-.42h-9.3v12.17h-3.8V639.29Zm.8,12.93a5.55,5.55,0,0,0,2.1-.78,4.33,4.33,0,0,0,1.44-1.56,5.19,5.19,0,0,0,.54-2.53,5.13,5.13,0,0,0-1.2-3.52,5,5,0,0,0-3.88-1.35h-9.46v9.94h7.94A15.69,15.69,0,0,0,138,652.22Z"/><path d="M155,639.29v12.25H170V639.29h3.8v28.49H170v-13H155v13h-3.8V639.29Z"/><path d="M179.34,647.93a14.13,14.13,0,0,1,2.59-4.77,12.5,12.5,0,0,1,4.28-3.32,15.1,15.1,0,0,1,11.94,0,12.63,12.63,0,0,1,4.29,3.32,14.11,14.11,0,0,1,2.58,4.77,18.7,18.7,0,0,1,0,11.21,14.11,14.11,0,0,1-2.58,4.77,12.31,12.31,0,0,1-4.29,3.29,15.22,15.22,0,0,1-11.94,0,12.18,12.18,0,0,1-4.28-3.29,14.13,14.13,0,0,1-2.59-4.77,18.7,18.7,0,0,1,0-11.21Zm3.51,9.86a11.55,11.55,0,0,0,1.76,3.77,9.11,9.11,0,0,0,3.08,2.69,10.39,10.39,0,0,0,9,0,9.11,9.11,0,0,0,3.08-2.69,11.77,11.77,0,0,0,1.77-3.77,16.45,16.45,0,0,0,0-8.51,11.77,11.77,0,0,0-1.77-3.77,9,9,0,0,0-3.08-2.69,10.39,10.39,0,0,0-9,0,9,9,0,0,0-3.08,2.69,11.55,11.55,0,0,0-1.76,3.77,16.45,16.45,0,0,0,0,8.51Z"/><path d="M220.34,639.29q6.61,0,10.18,3.35t3.56,10.22a22.75,22.75,0,0,1-.8,6.36,11.82,11.82,0,0,1-2.48,4.67,10.74,10.74,0,0,1-4.29,2.9,17.32,17.32,0,0,1-6.17,1h-9.81V639.29Zm.32,25.3a15.12,15.12,0,0,0,1.61-.1,9.34,9.34,0,0,0,2-.48,9.06,9.06,0,0,0,2.14-1.1,7.25,7.25,0,0,0,1.91-1.95,11.06,11.06,0,0,0,1.38-3.09,16.31,16.31,0,0,0,.54-4.5,19.26,19.26,0,0,0-.5-4.57,8.9,8.9,0,0,0-1.64-3.43,7.31,7.31,0,0,0-2.95-2.15,11.6,11.6,0,0,0-4.45-.74h-6.41v22.11Z"/><path d="M238,647.93a14,14,0,0,1,2.59-4.77,12.5,12.5,0,0,1,4.28-3.32,15.1,15.1,0,0,1,11.94,0,12.63,12.63,0,0,1,4.29,3.32,14.11,14.11,0,0,1,2.58,4.77,18.7,18.7,0,0,1,0,11.21,14.11,14.11,0,0,1-2.58,4.77,12.31,12.31,0,0,1-4.29,3.29,15.22,15.22,0,0,1-11.94,0,12.18,12.18,0,0,1-4.28-3.29,14,14,0,0,1-2.59-4.77,18.7,18.7,0,0,1,0-11.21Zm3.51,9.86a11.55,11.55,0,0,0,1.76,3.77,9.11,9.11,0,0,0,3.08,2.69,10.39,10.39,0,0,0,9,0,9.11,9.11,0,0,0,3.08-2.69,11.77,11.77,0,0,0,1.77-3.77,16.45,16.45,0,0,0,0-8.51,11.77,11.77,0,0,0-1.77-3.77,9,9,0,0,0-3.08-2.69,10.39,10.39,0,0,0-9,0,9,9,0,0,0-3.08,2.69,11.55,11.55,0,0,0-1.76,3.77,16.45,16.45,0,0,0,0,8.51Z"/><path d="M283.5,643.18a8.09,8.09,0,0,0-4.87-1.38,11.59,11.59,0,0,0-2.36.24,6.07,6.07,0,0,0-2.06.8,4.22,4.22,0,0,0-1.45,1.49,4.66,4.66,0,0,0-.54,2.34,2.94,2.94,0,0,0,.78,2.13,5.67,5.67,0,0,0,2.09,1.34A17.68,17.68,0,0,0,278,651c1.1.23,2.21.47,3.35.74s2.25.58,3.34.94a11.11,11.11,0,0,1,2.95,1.45,7.57,7.57,0,0,1,1.84,9.72,8.46,8.46,0,0,1-2.62,2.64A11.55,11.55,0,0,1,283.3,668a17.24,17.24,0,0,1-3.95.46,16.76,16.76,0,0,1-4.54-.6A11.28,11.28,0,0,1,271,666a8.51,8.51,0,0,1-2.56-3.12,9.94,9.94,0,0,1-.94-4.49h3.6a6.42,6.42,0,0,0,.7,3.1,6.35,6.35,0,0,0,1.85,2.13,7.77,7.77,0,0,0,2.66,1.24,12.08,12.08,0,0,0,3.12.4,14.27,14.27,0,0,0,2.59-.24,7.46,7.46,0,0,0,2.34-.82,4.47,4.47,0,0,0,1.68-1.58,4.59,4.59,0,0,0,.65-2.55,3.57,3.57,0,0,0-.79-2.39,5.55,5.55,0,0,0-2.08-1.5,15.15,15.15,0,0,0-2.94-.94l-3.35-.74c-1.13-.25-2.25-.54-3.34-.88a12.22,12.22,0,0,1-3-1.31,6.29,6.29,0,0,1-2.08-2.12,6.21,6.21,0,0,1-.78-3.25,7.48,7.48,0,0,1,.88-3.73,7.8,7.8,0,0,1,2.34-2.6,10.53,10.53,0,0,1,3.33-1.51,14.35,14.35,0,0,1,3.82-.5,15.22,15.22,0,0,1,4.09.52,9.19,9.19,0,0,1,3.3,1.63,8,8,0,0,1,2.25,2.82,9.91,9.91,0,0,1,.9,4h-3.61A5.89,5.89,0,0,0,283.5,643.18Z"/><path class="cls-10" d="M211.72,267.34s26.93,49.7,3.86,83.9C215.58,351.24,251.57,310.57,211.72,267.34Z"/><path class="cls-22" d="M223.83,581.78l-31,33.39-26.67-24.55A21.81,21.81,0,0,1,165,559.8h0a23.85,23.85,0,0,1,33.52-1.33Z"/><path class="cls-22" d="M245.85,589.44a21.83,21.83,0,0,0-2-30.79h0a23.85,23.85,0,0,0-33.47,2.21L187.61,586.7l34.31,29.95,23.93-27.21"/><polyline class="cls-22" points="209.2 630.35 189.33 612.07 207.14 592.85 227.01 611.14 209.2 630.35"/><path class="cls-1" d="M347.59,144s12.38-26.35,23.22-15.25c0,0,2.15,29.29-11.61,50.87,0,0-6.34,8-4.18,15.42s3.46,19.74-6.47,22.51Z"/><path class="cls-1" d="M83.57,157.5s-12-26.36-22.48-15.26c0,0-2.09,29.3,11.24,50.88,0,0,6.14,8,4,15.42S73,228.27,82.64,231.05Z"/></svg>