<svg id="Layer_1" data-name="Layer 1" xmlns="http://www.w3.org/2000/svg" width="392.27" height="669.23" viewBox="0 0 392.27 669.23"><defs><style>.cls-1{fill:#d1bc9f;}.cls-2{fill:#70cbf4;}.cls-3{fill:#ebe7d9;}.cls-4{fill:#2962ff;}.cls-15,.cls-5{fill:#fff9d4;}.cls-6{fill:#d40e14;}.cls-18,.cls-19,.cls-20,.cls-21,.cls-7{fill:#fff;}.cls-8{fill:#ff2;}.cls-9{fill:#092a5e;}.cls-10,.cls-14{fill:none;}.cls-11{fill:#d1b690;}.cls-12{fill:#d1a09f;}.cls-13,.cls-15,.cls-23{opacity:0.3;}.cls-14{stroke:#000;stroke-miterlimit:10;}.cls-16{fill:#d18d9f;opacity:0.2;}.cls-17,.cls-18{opacity:0.1;}.cls-19{opacity:0.5;}.cls-20{opacity:0.6;}.cls-21{opacity:0.7;}.cls-22{fill:#7fd0ff;}.cls-23{fill:#fcc9ff;}</style></defs><rect class="cls-1" x="140.28" y="342.24" width="90.5" height="146.17"/><rect class="cls-1" x="2.05" y="435.35" width="360" height="215.25" rx="91.77"/><rect class="cls-1" x="2.05" y="563.49" width="360" height="106.12"/><path class="cls-2" d="M100.38,500.79c-5.82-3,24.72-73.94,24.72-73.94a11.93,11.93,0,0,1,16.09-5.12l6.18,3.23a12.1,12.1,0,0,1,5.09,16.2l-33.16,38Z"/><path class="cls-2" d="M164.21,504.43h-12c-5.45,0-9.9-64.13-9.9-64.13a9.36,9.36,0,0,1,.21-2,9.93,9.93,0,0,1,9.69-8h12a10,10,0,0,1,9.89,10S169.65,504.43,164.21,504.43Z"/><rect class="cls-2" x="138.3" y="380.28" width="93.48" height="50.06" rx="3.62"/><path class="cls-3" d="M213.08,380.28h15s-9.55,37-22.35,50.06H193.49S213.28,397.3,213.08,380.28Z"/><path class="cls-3" d="M183.48,380.28h15.05s-9.55,37-22.34,50.06h-12.3S183.68,397.3,183.48,380.28Z"/><path class="cls-3" d="M140.35,429.9s-3,0-2-5.27c0,0,11.8-16.32,16.34-44.35h15.05s-7.46,31-20.92,50.06l-6.85-.36Z"/><path class="cls-3" d="M125.1,426.85s2.26,22,15.18,28.25l-7.59,8.69S120,453.51,119.2,440.92Z"/><path class="cls-3" d="M113,456.33s1.24,11.85,12.27,16l-6,6.84s-10.67-7.79-9.76-13.77Z"/><path class="cls-3" d="M105.66,476s1.42,9.73,7.58,10.06l-3.75,4.3a8.76,8.76,0,0,1-6.24-7.18Z"/><path class="cls-3" d="M100.34,493.58s1.35,3.26,3.24,3.55l-3.2,3.66S98.18,498.75,100.34,493.58Z"/><path class="cls-3" d="M142.65,445.32s25.48-.07,31.45-5l-.81,10.28s-28.83,6-29.92,3.41Z"/><path class="cls-3" d="M142.43,442.35s7.4-7.65,30.67-7.16a11,11,0,0,0-8.8-4.85H149.36s-5,0-7.09,4Z"/><path class="cls-3" d="M144.28,463.79s20.46,4,28.12-3.2l-1.13,11.09s-14.82,4.23-25.89,2.47Z"/><path class="cls-3" d="M146.43,482.61s23.14,2.53,23.42.66-1.37,8.8-1.37,8.8-19.83,1.49-21-2.59Z"/><path class="cls-4" d="M5.93,500.79s169.36,45.43,352.25,0c0,0,10.83-26.4,3.87,168.82H2.05S-2.13,519.19,5.93,500.79Z"/><path class="cls-2" d="M5.93,500.79l5.19-13.38s161.74,52.06,341.86,0l5.2,13.38S200.75,549.22,5.93,500.79Z"/><rect class="cls-5" x="221.73" y="560.3" width="82.1" height="34.51" rx="12"/><path class="cls-2" d="M231.24,558.49h63.09a9.5,9.5,0,0,1,9.5,9.5v5.94a0,0,0,0,1,0,0h-82.1a0,0,0,0,1,0,0V568a9.5,9.5,0,0,1,9.5-9.5Z"/><ellipse class="cls-6" cx="228.36" cy="561.84" rx="1.96" ry="1.87"/><ellipse class="cls-6" cx="234.25" cy="562.3" rx="1.96" ry="1.4"/><path class="cls-6" d="M225.41,564.61s4.91,14,11.79,0C237.2,564.61,231.31,572.05,225.41,564.61Z"/><rect class="cls-6" x="226.15" y="577.76" width="16.35" height="11.12" rx="2.42"/><rect class="cls-7" x="231.9" y="577.76" width="2.21" height="11.12"/><rect class="cls-7" x="233.21" y="575.15" width="2.22" height="16.35" transform="translate(817.65 349) rotate(90)"/><rect class="cls-4" x="246.04" y="577.76" width="16.35" height="11.12" rx="2.42"/><rect class="cls-8" x="251.78" y="577.76" width="2.21" height="11.12"/><rect class="cls-8" x="253.1" y="575.15" width="2.22" height="16.35" transform="translate(837.54 329.11) rotate(90)"/><rect class="cls-6" x="265.92" y="577.76" width="16.35" height="11.12" rx="2.42"/><rect class="cls-7" x="271.67" y="577.76" width="2.21" height="11.12"/><rect class="cls-7" x="272.98" y="575.15" width="2.22" height="16.35" transform="translate(857.42 309.23) rotate(90)"/><rect class="cls-9" x="272.11" y="577.76" width="1.33" height="11.12"/><rect class="cls-9" x="273.43" y="575.15" width="1.33" height="16.35" transform="translate(-309.23 857.42) rotate(-90)"/><polygon class="cls-10" points="289.2 586.52 292.33 584.61 292.17 584.61 289.2 586.52"/><polygon class="cls-9" points="285.81 579.07 285.81 582.09 290.37 582.09 285.81 579.07"/><path class="cls-9" d="M300.46,577.9l-.2,0H295v3.35Z"/><polygon class="cls-9" points="285.81 584.61 285.81 586.85 289.47 584.61 285.81 584.61"/><polygon class="cls-9" points="292.49 577.88 287.5 577.88 292.49 581.18 292.49 577.88"/><polygon class="cls-9" points="286.86 588.4 292.49 588.4 292.49 584.96 286.86 588.4"/><polygon class="cls-9" points="301.27 582.09 301.27 579.6 297.19 582.09 301.27 582.09"/><polygon class="cls-9" points="301.27 587 301.27 584.61 297.67 584.61 301.27 587"/><polygon class="cls-9" points="295 588.4 299.9 588.4 295 585.15 295 588.4"/><path class="cls-7" d="M286.43,588.31l-.05,0-.07-.05-.2.12.2.32.55-.33h0A1,1,0,0,1,286.43,588.31Z"/><path class="cls-7" d="M295,582.09h.55l5.67-3.47,0,0a1,1,0,0,0-.78-.75L295,581.23Zm5.8-3.89,0,0a1.15,1.15,0,0,1,0,.26v.25l-4.8,2.94h-.92Z"/><path class="cls-7" d="M292.49,584.61h-.16l-3.13,1.91-2.77,1.79a1,1,0,0,0,.39.09h0l5.63-3.44Z"/><polygon class="cls-7" points="301.27 579.6 301.27 579.15 296.47 582.09 297.19 582.09 301.27 579.6"/><path class="cls-7" d="M289.47,584.61l-3.66,2.24v.53a1,1,0,0,0,.16.55l3-1.81,2.33-1.51Z"/><path class="cls-7" d="M292.49,582.09v-.9l-5-3.31h-.68a1,1,0,0,0-.7.28l5.94,3.93Z"/><path class="cls-7" d="M295.87,584.61,301,588a.94.94,0,0,0,.12-.18l-4.89-3.24Z"/><polygon class="cls-7" points="297.13 584.61 301.27 587.36 301.27 587 297.67 584.61 297.13 584.61"/><path class="cls-7" d="M295,585.15l4.91,3.25h.35a1,1,0,0,0,.36-.07L295,584.61h0Z"/><path class="cls-7" d="M291.19,582.09l-5.32-3.52a.88.88,0,0,0-.06.33v.17l4.56,3Z"/><path class="cls-6" d="M292.06,582.09l-5.94-3.93a1,1,0,0,0-.25.41l5.32,3.52Z"/><path class="cls-6" d="M301.27,587.35l-4.14-2.74h-.87l4.89,3.24a.94.94,0,0,0,.12-.47Z"/><path class="cls-6" d="M289.2,586.52l3-1.91h-.76L289,586.12,286,588a.89.89,0,0,0,.3.28l0,0Z"/><path class="cls-6" d="M286.43,588.31l-.09,0,0,0,.07.05Z"/><path class="cls-6" d="M286.43,588.31l2.77-1.79-2.86,1.75Z"/><polygon class="cls-6" points="291.28 584.61 288.95 586.12 291.41 584.61 291.28 584.61"/><path class="cls-6" d="M300.85,578.73v-.25a1.15,1.15,0,0,0,0-.26l0,0-5.67,3.47h.92Z"/><polygon class="cls-7" points="297.67 584.61 301.27 584.61 301.27 584.19 297.04 584.19 297.67 584.61"/><polygon class="cls-7" points="290.15 584.19 285.81 584.19 285.81 584.61 289.47 584.61 290.15 584.19"/><polygon class="cls-7" points="290.37 582.09 285.81 582.09 285.81 582.51 291 582.51 290.37 582.09"/><polygon class="cls-7" points="296.5 582.51 301.27 582.51 301.27 582.09 297.19 582.09 296.5 582.51"/><polygon class="cls-7" points="296.5 582.51 297.19 582.09 296.47 582.09 295.78 582.51 296.5 582.51"/><polygon class="cls-7" points="295 582.42 295.55 582.09 295 582.09 295 582.42"/><polygon class="cls-7" points="291.5 584.55 292.1 584.19 290.15 584.19 289.47 584.61 291.28 584.61 291.37 584.56 291.5 584.55"/><polygon class="cls-7" points="291.37 584.56 291.28 584.61 291.41 584.61 291.5 584.55 291.37 584.56"/><polygon class="cls-7" points="292.33 584.61 292.49 584.61 292.49 584.51 292.33 584.61"/><polygon class="cls-7" points="292.49 582.09 292.06 582.09 292.49 582.38 292.49 582.09"/><polygon class="cls-7" points="291.19 582.09 290.37 582.09 291 582.51 291.82 582.51 291.19 582.09"/><polygon class="cls-7" points="297.13 584.61 297.67 584.61 297.04 584.19 295.24 584.19 295.87 584.61 296.26 584.61 297.13 584.61"/><polygon class="cls-7" points="295 584.61 295 584.61 295 584.61 295 584.61"/><polygon class="cls-7" points="295 584.19 295 584.61 295 584.61 295.87 584.61 295.24 584.19 295 584.19"/><polygon class="cls-7" points="292.49 582.51 292.49 582.38 292.06 582.09 291.19 582.09 291.82 582.51 292.49 582.51"/><polygon class="cls-7" points="292.49 584.19 292.1 584.19 291.5 584.55 292.29 584.54 292.17 584.61 292.33 584.61 292.49 584.51 292.49 584.19"/><polygon class="cls-7" points="291.5 584.55 291.41 584.61 292.17 584.61 292.29 584.54 291.5 584.55"/><polygon class="cls-7" points="295 582.51 295.78 582.51 296.47 582.09 295.55 582.09 295 582.42 295 582.51"/><polygon class="cls-7" points="292.49 584.96 292.49 588.4 292.91 588.4 292.91 584.7 292.49 584.96"/><polygon class="cls-7" points="294.58 584.88 294.58 588.4 295 588.4 295 585.15 294.58 584.88"/><polygon class="cls-7" points="292.91 581.46 292.91 577.88 292.49 577.88 292.49 581.18 292.91 581.46"/><polygon class="cls-7" points="295 581.23 295 577.88 294.58 577.88 294.58 581.49 295 581.23"/><polygon class="cls-7" points="292.49 584.61 292.49 584.96 292.91 584.7 292.91 584.61 292.49 584.61"/><polygon class="cls-7" points="295 582.09 295 581.23 294.58 581.49 294.58 582.09 295 582.09"/><polygon class="cls-7" points="292.91 581.46 292.49 581.18 292.49 582.09 292.91 582.09 292.91 581.46"/><polygon class="cls-7" points="294.58 584.88 295 585.15 295 584.61 294.58 584.61 294.58 584.88"/><polygon class="cls-7" points="292.91 584.26 292.49 584.51 292.49 584.61 292.91 584.61 292.91 584.26"/><polygon class="cls-7" points="294.58 582.51 294.86 582.51 295 582.42 295 582.09 294.58 582.09 294.58 582.51"/><polygon class="cls-7" points="294.58 584.61 295 584.61 295 584.61 294.58 584.33 294.58 584.61"/><polygon class="cls-7" points="292.69 582.51 292.91 582.51 292.91 582.09 292.49 582.09 292.49 582.38 292.69 582.51"/><polygon class="cls-7" points="294.58 584.33 295 584.61 295 584.19 294.58 584.19 294.58 584.33"/><polygon class="cls-7" points="292.49 582.38 292.49 582.51 292.69 582.51 292.49 582.38"/><polygon class="cls-7" points="292.49 584.19 292.49 584.51 292.91 584.26 292.91 584.19 292.49 584.19"/><polygon class="cls-7" points="295 582.51 295 582.42 294.86 582.51 295 582.51"/><polygon class="cls-6" points="293.73 582.01 294.58 581.49 294.58 577.88 292.91 577.88 292.91 581.46 293.73 582.01"/><polygon class="cls-6" points="294.18 584.61 293.06 584.61 292.91 584.7 292.91 588.4 294.58 588.4 294.58 584.88 294.18 584.61"/><polygon class="cls-6" points="292.91 584.7 293.06 584.61 292.91 584.61 292.91 584.7"/><polygon class="cls-6" points="294.58 582.09 294.58 581.49 293.73 582.01 293.86 582.09 294.58 582.09"/><polygon class="cls-6" points="293.6 582.09 293.73 582.01 292.91 581.46 292.91 582.09 293.6 582.09"/><polygon class="cls-6" points="294.18 584.61 294.58 584.88 294.58 584.61 294.18 584.61"/><polygon class="cls-6" points="293.86 582.09 293.73 582.01 293.6 582.09 293.86 582.09"/><polygon class="cls-6" points="293.06 584.61 294.18 584.61 293.64 584.25 293.06 584.61"/><polygon class="cls-6" points="294.58 582.51 294.58 582.09 293.86 582.09 294.49 582.51 294.58 582.51"/><polygon class="cls-6" points="293.55 584.19 293.02 584.19 292.91 584.26 292.91 584.61 293.06 584.61 293.64 584.25 293.55 584.19"/><polygon class="cls-6" points="294.58 584.33 294.37 584.19 293.75 584.19 293.64 584.25 294.18 584.61 294.58 584.61 294.58 584.33"/><polygon class="cls-6" points="292.91 582.09 292.91 582.51 293.6 582.09 292.91 582.09"/><polygon class="cls-6" points="293.86 582.09 293.6 582.09 292.91 582.51 294.49 582.51 293.86 582.09"/><polygon class="cls-6" points="293.64 584.25 293.75 584.19 293.55 584.19 293.64 584.25"/><polygon class="cls-6" points="294.58 584.33 294.58 584.19 294.37 584.19 294.58 584.33"/><polygon class="cls-6" points="292.91 584.26 293.02 584.19 292.91 584.19 292.91 584.26"/><polygon class="cls-6" points="291.92 583.11 291 582.51 285.81 582.51 285.81 584.19 290.15 584.19 291.92 583.11"/><polygon class="cls-6" points="295.46 583.15 297.04 584.19 301.27 584.19 301.27 582.51 296.5 582.51 295.46 583.15"/><polygon class="cls-6" points="292.49 583.95 292.49 583.49 291.92 583.11 290.15 584.19 292.1 584.19 292.49 583.95"/><polygon class="cls-6" points="295.46 583.15 296.5 582.51 295.78 582.51 295.11 582.92 295.46 583.15"/><polygon class="cls-6" points="291.82 582.51 291 582.51 291.92 583.11 292.35 582.85 291.82 582.51"/><polygon class="cls-6" points="295 583.42 295 584.03 295.24 584.19 297.04 584.19 295.46 583.15 295 583.42"/><polygon class="cls-6" points="295 582.98 295 583.42 295.46 583.15 295.11 582.92 295 582.98"/><polygon class="cls-6" points="292.49 582.95 292.35 582.85 291.92 583.11 292.49 583.49 292.49 582.95"/><polygon class="cls-6" points="292.49 582.51 291.82 582.51 292.35 582.85 292.49 582.76 292.49 582.51"/><polygon class="cls-6" points="295 584.19 295.24 584.19 295 584.03 295 584.19"/><polygon class="cls-6" points="292.35 582.85 292.49 582.95 292.49 582.76 292.35 582.85"/><polygon class="cls-6" points="295.11 582.92 295.78 582.51 295 582.51 295 582.85 295.11 582.92"/><polygon class="cls-6" points="292.1 584.19 292.49 584.19 292.49 583.95 292.1 584.19"/><polygon class="cls-6" points="295.11 582.92 295 582.85 295 582.98 295.11 582.92"/><polygon class="cls-6" points="294.67 582.62 294.86 582.51 294.58 582.51 294.58 582.57 294.67 582.62"/><polygon class="cls-6" points="292.49 583.49 292.49 583.95 292.85 583.73 292.49 583.49"/><polygon class="cls-6" points="294.58 583.76 295 584.03 295 583.42 294.58 583.68 294.58 583.76"/><polygon class="cls-6" points="292.91 582.51 292.69 582.51 292.8 582.58 292.91 582.51"/><polygon class="cls-6" points="292.91 582.65 292.91 582.51 292.8 582.58 292.91 582.65"/><polygon class="cls-6" points="294.58 582.67 294.67 582.62 294.58 582.57 294.58 582.67"/><polygon class="cls-6" points="292.91 583.7 292.91 583.23 292.49 582.95 292.49 583.49 292.85 583.73 292.91 583.7"/><polygon class="cls-6" points="294.58 583.24 294.58 583.68 295 583.42 295 582.98 294.58 583.24"/><polygon class="cls-6" points="294.58 583.76 294.58 584.19 295 584.19 295 584.03 294.58 583.76"/><polygon class="cls-6" points="292.8 582.58 292.69 582.51 292.49 582.51 292.49 582.76 292.8 582.58"/><polygon class="cls-6" points="292.91 582.65 292.8 582.58 292.49 582.76 292.49 582.95 292.91 583.23 292.91 582.65"/><polygon class="cls-6" points="292.91 583.77 292.85 583.73 292.49 583.95 292.49 584.19 292.91 584.19 292.91 583.77"/><polygon class="cls-6" points="294.67 582.62 295 582.85 295 582.51 294.86 582.51 294.67 582.62"/><polygon class="cls-6" points="294.58 583.24 295 582.98 295 582.85 294.67 582.62 294.58 582.67 294.58 583.24"/><polygon class="cls-6" points="292.85 583.73 292.91 583.77 292.91 583.7 292.85 583.73"/><polygon class="cls-6" points="294.58 582.57 294.58 582.51 294.49 582.51 294.58 582.57"/><polygon class="cls-6" points="293.02 584.19 293.55 584.19 293.3 584.02 293.02 584.19"/><polygon class="cls-6" points="294.52 583.72 294.58 583.76 294.58 583.68 294.52 583.72"/><polygon class="cls-6" points="293.75 584.19 294.37 584.19 294.07 583.99 293.75 584.19"/><polygon class="cls-6" points="294.52 583.72 294.58 583.68 294.58 583.24 294.17 583.49 294.52 583.72"/><polygon class="cls-6" points="292.91 583.23 292.91 583.7 293.28 583.47 292.91 583.23"/><polygon class="cls-6" points="293.72 583.76 293.3 584.02 293.55 584.19 293.75 584.19 294.07 583.99 293.72 583.76"/><polygon class="cls-6" points="293.73 583.2 294.58 582.67 294.58 582.57 294.49 582.51 292.91 582.51 292.91 582.65 293.73 583.2"/><polygon class="cls-6" points="294.07 583.99 294.37 584.19 294.58 584.19 294.58 583.76 294.52 583.72 294.07 583.99"/><polygon class="cls-6" points="293.72 583.76 294.07 583.99 294.52 583.72 294.17 583.49 293.72 583.76"/><polygon class="cls-6" points="293.73 583.2 292.91 582.65 292.91 583.23 293.28 583.47 293.73 583.2"/><polygon class="cls-6" points="292.91 583.77 292.91 584.19 293.02 584.19 293.3 584.02 292.91 583.77"/><polygon class="cls-6" points="292.91 583.7 292.91 583.77 293.3 584.02 293.72 583.76 293.28 583.47 292.91 583.7"/><polygon class="cls-6" points="293.73 583.2 294.17 583.49 294.58 583.24 294.58 582.67 293.73 583.2"/><polygon class="cls-6" points="293.73 583.2 293.28 583.47 293.72 583.76 294.17 583.49 293.73 583.2"/><path class="cls-5" d="M130.42,333.86v63.79s-1.33,10.13-12.13,10.74S34.39,446.12,6,328.16c0,0,60.72,53,79.14,26.5s-6-86-6-86Z"/><rect class="cls-1" x="71.82" y="75.99" width="240.25" height="276.32" rx="120.09"/><path class="cls-11" d="M145.87,236c-1.26.19,8-7.78,9.88-28.5L159,191l.38-.39a1.32,1.32,0,0,1,1.87,0l.38.39,4.16,47.29s15.38,8.63,0,18.79a49.88,49.88,0,0,1-12.43,1.53,29.6,29.6,0,0,1-4.29-.38,17.08,17.08,0,0,1-6.56-2.4C147.57,259.16,129.29,250.22,145.87,236Z"/><path class="cls-12" d="M176.83,193.93s24.86-14,54.52,0c0,0-9.36-16.93-29.72-15.86S176.83,193.93,176.83,193.93Z"/><path class="cls-12" d="M94.21,191.59s24.86-14,54.52,0c0,0-9.36-16.93-29.72-15.86S94.21,191.59,94.21,191.59Z"/><ellipse class="cls-13" cx="158.08" cy="256.39" rx="4.48" ry="1.79" transform="translate(-50.69 39.27) rotate(-12.22)"/><ellipse class="cls-13" cx="145.7" cy="255.59" rx="1.64" ry="4.48" transform="translate(-144.55 303.62) rotate(-69.71)"/><path d="M178,161.62v10s18.08-16.34,40.08-13.75,26.68,3.61,26.68,3.61l-20.54-6.34a41.28,41.28,0,0,0-12.84-2C204.93,153.41,197.92,153.61,178,161.62Z"/><path d="M140.86,161.53v9.29s-15.41-15.15-34.16-12.74S84,161.43,84,161.43l17.51-5.89a32.4,32.4,0,0,1,10.94-1.84C117.9,153.89,123.88,154.08,140.86,161.53Z"/><path class="cls-14" d="M220.59,189c5.07,1.74,11.26-3,13.83-10.6"/><path class="cls-14" d="M211.19,187.66c6.14,2.1,13.4-3,16.24-11.41"/><path class="cls-14" d="M203.53,187c6,2.05,13.05-2.77,15.76-10.78"/><path class="cls-14" d="M95.21,190c-7.06,1.35-14.35-5.87-16.31-16.17"/><path class="cls-14" d="M224.11,189.57c5.35,1.84,11.95-3.36,14.74-11.63"/><path class="cls-14" d="M113.63,186.65c-7.06,1.36-14-3.85-15.45-11.65"/><path class="cls-14" d="M108.1,187.45C101,188.81,94,183.06,92.42,174.59"/><path class="cls-14" d="M101.78,188.24c-7.06,1.36-14.22-5.14-16-14.54"/><path class="cls-5" d="M161.9,73.4s-12.75,50.94-97.2,86.27c0,0-31.28,22.76-19.79,61.14,0,0-64.43-232.83,115.07-204.32"/><path class="cls-5" d="M142.26,91.8s77.13,49,148.52,42c0,0,25,142.68-7.42,171.18s-40.69,34.4-59.14,40.72c0,0-3.86,40.1,1,50.69s13.91,18.55,16.69,19.21,66.74,27.65,111.23-4.39,37.54-69.12,37.54-69.12S335.76,390.46,324.63,364,370.52,174,370.52,174,414.31,39.68,309.69,21.7c0,0-37.41-19.66-105.08-13.85,0,0-36.39,2.5-52.38,12.43Z"/><ellipse class="cls-15" cx="151.8" cy="245.62" rx="5.27" ry="2.32"/><ellipse class="cls-16" cx="220.97" cy="233.57" rx="27.6" ry="19.2" transform="translate(-89.7 150.7) rotate(-31.65)"/><ellipse class="cls-16" cx="99.8" cy="235.88" rx="18.07" ry="26.05" transform="translate(-141.38 149.68) rotate(-47.4)"/><path class="cls-17" d="M161.67,191l8.63,51a33.92,33.92,0,0,0-4.47-3.74Z"/><path class="cls-18" d="M151.8,232.83s.58,8.08,3.91,0c0,0,6.62-17.36,4-29.28,0,0-4.85,19-7.24,26.5A28.07,28.07,0,0,0,151.8,232.83Z"/><path d="M148.73,191.59s-13.25-6.81-34.74-4.06c-5.91.75-12.79,1.33-19.78,4.06,0,0-2.66.12-8.43-3.17l13.2-.89s11-2,14.22-2.39a61,61,0,0,1,15,0A67.09,67.09,0,0,1,148.73,191.59Z"/><path d="M175.56,194.68s13.49-8.54,35.36-5.1c6,.95,13,1.68,20.13,5.1,0,0,2.71.15,8.58-4l-13.43-1.13s-11.16-2.55-14.48-3a50.9,50.9,0,0,0-15.28,0A59.51,59.51,0,0,0,175.56,194.68Z"/><path class="cls-19" d="M149.14,87.89S121.85,133,78.41,147.55c0,0-33.58,10.29-34.9,33.31,0,0,3.3-22.7,25.68-37.94,0,0,35.61-9.27,57-36.44Z"/><path class="cls-20" d="M152.13,51.47s-17.12,49-102.69,84.82c0,0,21.42-71.79,64-88.24,0,0-25.19,3.42-31.77,15.35,0,0,9.87-19.88,47.39-25.18,0,0-43.44-9.94-65.82,27.83,0,0,27.29-54.53,92.8-38.43Z"/><path class="cls-19" d="M166,24.65S257.11-9.16,336.75,46.5c0,0-85.14-45-154.13-21.85,0,0,44.39-10.6,61.74,0,0,0-70.77-2.9-78.38,7.82,0,0,131.28-13.27,170.77,28.87S367,162.5,367,162.5,385,32.4,170.3,57.34h-8.4Z"/><path class="cls-21" d="M163.64,42.53s52.08,38.35,117.8,37.1c0,0,50.5-2,59.26,22.53,0,0-11.47-23.43-47.64-31.21,0,0-53.07,3.94-91.39-17.24Z"/><path class="cls-19" d="M155.75,83s39.75,43,135.39,40.36c0,0,21.06.5,17.87,28.44,0,0,9.43-32.77-7.74-38.19,0,0-86.94,3.13-141.58-47.18Z"/><path class="cls-19" d="M347.42,199.62S290,292,275.21,381.28c0,0-1,24.61,14.5,28.13s44.92-6,44.92-6S283.05,369.3,347.42,199.62Z"/><path class="cls-19" d="M118.87,325.25S151.8,425.53,55,397c0,0,46.95,3.2,55.73-78.91Z"/><path class="cls-6" d="M118.45,285.8s28.47-32.37,34.51,0c0,0,12.07-33.38,37,0C190,285.8,157.91,369.78,118.45,285.8Z"/><path class="cls-22" d="M110,292.21s-5.91,1.7-5.07,5.09,4.22,1.7,4.22,1.7,4.22-3.4,5.91-6.79A8.84,8.84,0,0,0,110,292.21Z"/><path class="cls-22" d="M129.42,297.3s-5.1-1.65-5.09,2.58,5.93.82,5.93.82.73-4,2.48-3.71a3.33,3.33,0,0,0-1.63-.54A2.93,2.93,0,0,0,129.42,297.3Z"/><path class="cls-22" d="M104.46,272.52c-2.32,3.37,1.77,5.06,1.77,5.06s6.23,1.13,10.51,0a10.49,10.49,0,0,0-3.91-4.5"/><path class="cls-6" d="M121.53,23l-22,28.74L76.8,34.15A17.56,17.56,0,0,1,73.65,9.72h0A18.72,18.72,0,0,1,99.94,6.29Z"/><path class="cls-6" d="M93.36,29.51l29.13,21.38,16.9-23.34a17.53,17.53,0,0,0-3.78-24.33h0a18.71,18.71,0,0,0-26.19,4.13Z"/><polygon class="cls-6" points="126.1 46.15 113.44 62.69 96.51 49.56 109.17 33.02 126.1 46.15"/><path class="cls-23" d="M119,7.63s13.59,15,3.69,28.47c0,0,11.85.31,16.82-16,0,0,1-6.88-2.93-12.51s-17.58-3-17.58-3l-1.24.55Z"/><path class="cls-6" d="M88.42,70.56l-14,18.27L60,77.63A11.14,11.14,0,0,1,58,62.1h0a11.89,11.89,0,0,1,16.7-2.18Z"/><path class="cls-6" d="M70.52,74.68,89,88.27,99.77,73.44A11.15,11.15,0,0,0,97.37,58h0a11.9,11.9,0,0,0-16.65,2.62Z"/><polygon class="cls-6" points="91.33 85.25 83.28 95.76 72.52 87.42 80.57 76.91 91.33 85.25"/></svg>