<svg id="Layer_1" data-name="Layer 1" xmlns="http://www.w3.org/2000/svg" width="366.49" height="103.83" viewBox="0 0 366.49 103.83"><defs><style>.cls-1{fill:#d10f14;}</style></defs><path class="cls-1" d="M208.2,39.39,167.73,81.24l-32.8-32.71a28.55,28.55,0,0,1-.36-39.81h0a29.81,29.81,0,0,1,42.48-.39Z"/><path class="cls-1" d="M162.16,44.31l42.27,40,31.34-34.15a28.55,28.55,0,0,0-1.39-39.79h0a29.81,29.81,0,0,0-42.46,1.53Z"/><polygon class="cls-1" points="211.08 77.38 187.79 101.46 163.35 77.1 186.64 53.02 211.08 77.38"/><path class="cls-1" d="M82.28,39.18,41.81,81,9,48.32A28.55,28.55,0,0,1,8.65,8.51h0a29.8,29.8,0,0,1,42.48-.39Z"/><path class="cls-1" d="M36.24,44.1l42.27,40,31.34-34.16a28.53,28.53,0,0,0-1.39-39.78h0A29.8,29.8,0,0,0,66,11.66Z"/><polygon class="cls-1" points="85.16 77.17 61.87 101.25 37.43 76.89 60.73 52.8 85.16 77.17"/><path class="cls-1" d="M330.77,42.35,290.3,84.19,257.5,51.48a28.55,28.55,0,0,1-.36-39.81h0a29.81,29.81,0,0,1,42.48-.39Z"/><path class="cls-1" d="M284.73,47.26l42.27,40,31.34-34.15A28.55,28.55,0,0,0,357,13.3h0a29.81,29.81,0,0,0-42.46,1.53Z"/><polygon class="cls-1" points="333.65 80.33 310.36 104.42 285.92 80.05 309.21 55.97 333.65 80.33"/></svg>