<svg id="Layer_1" data-name="Layer 1" xmlns="http://www.w3.org/2000/svg" width="627.91" height="562.5" viewBox="0 0 627.91 562.5"><defs><style>.cls-1{fill:#d1bc9f;}.cls-2{fill:#70cbf4;}.cls-3{fill:#ebe7d9;}.cls-4{fill:#2962ff;}.cls-30,.cls-5{fill:#fff9d4;}.cls-6{fill:#d40e14;}.cls-28,.cls-33,.cls-34,.cls-35,.cls-36,.cls-7{fill:#fff;}.cls-8{fill:#ff2;}.cls-9{fill:#092a5e;}.cls-10,.cls-29{fill:none;}.cls-11,.cls-30{opacity:0.3;}.cls-12{fill:#001600;}.cls-12,.cls-13,.cls-31{opacity:0.2;}.cls-14{fill:#ff2a5a;}.cls-15{fill:#3fffc1;}.cls-16{fill:#dcf400;}.cls-17{fill:#ff00f4;}.cls-18{fill:#e900e6;}.cls-19{fill:blue;}.cls-20{fill:#edff00;}.cls-21{fill:#00d43b;}.cls-22{fill:#0aff94;}.cls-23{fill:#1300e9;}.cls-24{fill:#fff9e9;}.cls-25{fill:#d1b690;}.cls-26{fill:#d1a09f;}.cls-27{fill:#f90606;}.cls-28{stroke:#f4fcff;stroke-width:0.5px;}.cls-28,.cls-29{stroke-miterlimit:10;}.cls-29{stroke:#000;}.cls-31{fill:#d18d9f;}.cls-32,.cls-33{opacity:0.1;}.cls-34{opacity:0.5;}.cls-35{opacity:0.6;}.cls-36{opacity:0.7;}</style></defs><rect class="cls-1" x="408.99" y="273.75" width="78.95" height="126.8"/><rect class="cls-1" x="288.4" y="354.52" width="314.05" height="186.73" rx="91.77"/><rect class="cls-1" x="288.4" y="465.69" width="314.05" height="92.06"/><path class="cls-2" d="M374.18,411.3c-5.08-2.65,21.57-64.15,21.57-64.15a10.42,10.42,0,0,1,14-4.44l5.39,2.8a10.46,10.46,0,0,1,4.44,14.05L390.69,392.5Z"/><path class="cls-2" d="M429.86,414.45h-10.5c-4.75,0-8.63-55.63-8.63-55.63a9,9,0,0,1,.17-1.74,8.66,8.66,0,0,1,8.46-6.9h10.5a8.65,8.65,0,0,1,8.63,8.64S434.61,414.45,429.86,414.45Z"/><rect class="cls-2" x="407.26" y="306.75" width="81.55" height="43.42" rx="3.62"/><path class="cls-3" d="M472.5,306.75h13.13s-8.34,32.14-19.5,43.43H455.41S472.67,321.52,472.5,306.75Z"/><path class="cls-3" d="M446.67,306.75h13.14s-8.34,32.14-19.5,43.43H429.59S446.85,321.52,446.67,306.75Z"/><path class="cls-3" d="M409.05,349.79s-2.66,0-1.79-4.57c0,0,10.3-14.15,14.26-38.47h13.13s-6.51,26.93-18.25,43.43l-6-.31Z"/><path class="cls-3" d="M395.75,347.15s2,19.06,13.24,24.5l-6.62,7.55s-11.07-8.92-11.77-19.84Z"/><path class="cls-3" d="M385.2,372.72s1.08,10.28,10.7,13.85l-5.21,5.93s-9.31-6.75-8.52-11.94Z"/><path class="cls-3" d="M378.79,389.79s1.23,8.44,6.61,8.73l-3.27,3.73a7.62,7.62,0,0,1-5.45-6.23Z"/><path class="cls-3" d="M374.14,405s1.18,2.84,2.83,3.09l-2.79,3.18S372.26,409.52,374.14,405Z"/><path class="cls-3" d="M411.06,363.17s22.22-.06,27.43-4.35l-.7,8.92s-25.15,5.24-26.11,3Z"/><path class="cls-3" d="M410.86,360.6s6.46-6.64,26.76-6.22a9.6,9.6,0,0,0-7.68-4.2h-13s-4.32,0-6.18,3.45Z"/><path class="cls-3" d="M412.48,379.2s17.85,3.48,24.53-2.78L436,386s-12.93,3.67-22.58,2.14Z"/><path class="cls-3" d="M414.36,395.52s20.18,2.19,20.42.57-1.19,7.64-1.19,7.64-17.3,1.29-18.35-2.25Z"/><path class="cls-4" d="M291.79,411.3s147.74,39.4,307.28,0c0,0,9.46-22.91,3.38,146.45H288.4S284.76,427.25,291.79,411.3Z"/><path class="cls-2" d="M291.79,411.3l4.53-11.62s141.09,45.16,298.22,0l4.53,11.62S461.74,453.31,291.79,411.3Z"/><rect class="cls-5" x="480.04" y="462.92" width="71.62" height="29.94" rx="12"/><path class="cls-2" d="M489.55,461.34h52.61a9.5,9.5,0,0,1,9.5,9.5v3.89a0,0,0,0,1,0,0H480a0,0,0,0,1,0,0v-3.89A9.5,9.5,0,0,1,489.55,461.34Z"/><ellipse class="cls-6" cx="485.83" cy="464.25" rx="1.71" ry="1.62"/><ellipse class="cls-6" cx="490.97" cy="464.65" rx="1.71" ry="1.21"/><path class="cls-6" d="M483.26,466.66s4.28,12.11,10.28,0C493.54,466.66,488.4,473.11,483.26,466.66Z"/><rect class="cls-6" x="483.9" y="478.07" width="14.26" height="9.65" rx="2.42"/><rect class="cls-7" x="488.91" y="478.07" width="1.93" height="9.65"/><rect class="cls-7" x="490.07" y="475.76" width="1.93" height="14.26" transform="translate(973.92 -8.14) rotate(90)"/><rect class="cls-4" x="501.25" y="478.07" width="14.26" height="9.65" rx="2.42"/><rect class="cls-8" x="506.26" y="478.07" width="1.93" height="9.65"/><rect class="cls-8" x="507.41" y="475.76" width="1.93" height="14.26" transform="translate(991.27 -25.49) rotate(90)"/><rect class="cls-6" x="518.59" y="478.07" width="14.26" height="9.65" rx="2.42"/><rect class="cls-7" x="523.6" y="478.07" width="1.93" height="9.65"/><rect class="cls-7" x="524.76" y="475.76" width="1.93" height="14.26" transform="translate(1008.61 -42.83) rotate(90)"/><rect class="cls-9" x="523.99" y="478.07" width="1.16" height="9.65"/><rect class="cls-9" x="525.14" y="475.76" width="1.16" height="14.26" transform="translate(42.83 1008.61) rotate(-90)"/><polygon class="cls-10" points="538.9 485.67 541.63 484.01 541.49 484.01 538.9 485.67"/><polygon class="cls-9" points="535.94 479.2 535.94 481.82 539.92 481.82 535.94 479.2"/><path class="cls-9" d="M548.72,478.18H544v2.9Z"/><polygon class="cls-9" points="535.94 484.01 535.94 485.95 539.13 484.01 535.94 484.01"/><polygon class="cls-9" points="541.77 478.17 537.41 478.17 541.77 481.04 541.77 478.17"/><polygon class="cls-9" points="536.86 487.29 541.77 487.29 541.77 484.31 536.86 487.29"/><polygon class="cls-9" points="549.43 481.82 549.43 479.66 545.87 481.82 549.43 481.82"/><polygon class="cls-9" points="549.43 486.07 549.43 484.01 546.29 484.01 549.43 486.07"/><polygon class="cls-9" points="543.96 487.29 548.24 487.29 543.96 484.48 543.96 487.29"/><path class="cls-7" d="M536.48,487.22l0,0-.06,0-.17.1.17.28.48-.29h0A1,1,0,0,1,536.48,487.22Z"/><path class="cls-7" d="M544,481.82h.48l4.95-3v0a.9.9,0,0,0-.68-.65L544,481.07Zm5.06-3.37v0a.78.78,0,0,1,0,.21v.23l-4.2,2.54h-.8Z"/><path class="cls-7" d="M541.77,484h-.14l-2.73,1.66-2.42,1.55a1,1,0,0,0,.34.07h0l4.91-3Z"/><polygon class="cls-7" points="549.43 479.66 549.43 479.27 545.24 481.82 545.87 481.82 549.43 479.66"/><path class="cls-7" d="M539.13,484,535.94,486v.46a.87.87,0,0,0,.14.48l2.6-1.58,2-1.3Z"/><path class="cls-7" d="M541.77,481.82V481l-4.36-2.86h-.59a.86.86,0,0,0-.6.24l5.17,3.41Z"/><path class="cls-7" d="M544.72,484l4.5,3,.1-.15L545.06,484Z"/><polygon class="cls-7" points="545.82 484.01 549.43 486.39 549.43 486.07 546.29 484.01 545.82 484.01"/><path class="cls-7" d="M544,484.48l4.28,2.81h.31a.81.81,0,0,0,.31-.06L544,484h0Z"/><path class="cls-7" d="M540.63,481.82,536,478.76a.93.93,0,0,0,0,.29v.15l4,2.62Z"/><path class="cls-6" d="M541.39,481.82l-5.17-3.41a.89.89,0,0,0-.23.35l4.64,3.06Z"/><path class="cls-6" d="M549.43,486.39,545.81,484h-.75l4.26,2.81a.84.84,0,0,0,.11-.41Z"/><path class="cls-6" d="M538.9,485.67l2.59-1.66h-.66l-2.15,1.3L536.11,487a1,1,0,0,0,.27.24l0,0Z"/><path class="cls-6" d="M536.48,487.22s-.05,0-.08,0l0,0,.06,0Z"/><path class="cls-6" d="M536.48,487.22l2.42-1.55-2.5,1.51S536.46,487.2,536.48,487.22Z"/><polygon class="cls-6" points="540.72 484.01 538.68 485.31 540.83 484.01 540.72 484.01"/><path class="cls-6" d="M549.07,478.91v-.23a.78.78,0,0,0,0-.21v0l-4.95,3h.8Z"/><polygon class="cls-7" points="546.29 484.01 549.43 484.01 549.43 483.64 545.74 483.64 546.29 484.01"/><polygon class="cls-7" points="539.73 483.64 535.94 483.64 535.94 484.01 539.13 484.01 539.73 483.64"/><polygon class="cls-7" points="539.92 481.82 535.94 481.82 535.94 482.18 540.47 482.18 539.92 481.82"/><polygon class="cls-7" points="545.27 482.18 549.43 482.18 549.43 481.82 545.87 481.82 545.27 482.18"/><polygon class="cls-7" points="545.27 482.18 545.87 481.82 545.24 481.82 544.64 482.18 545.27 482.18"/><polygon class="cls-7" points="543.96 482.11 544.43 481.82 543.96 481.82 543.96 482.11"/><polygon class="cls-7" points="540.91 483.96 541.43 483.64 539.73 483.64 539.13 484.01 540.72 484.01 540.79 483.96 540.91 483.96"/><polygon class="cls-7" points="540.79 483.96 540.72 484.01 540.83 484.01 540.91 483.96 540.79 483.96"/><polygon class="cls-7" points="541.63 484.01 541.77 484.01 541.77 483.92 541.63 484.01"/><polygon class="cls-7" points="541.77 481.82 541.39 481.82 541.77 482.07 541.77 481.82"/><polygon class="cls-7" points="540.63 481.82 539.92 481.82 540.47 482.18 541.19 482.18 540.63 481.82"/><polygon class="cls-7" points="545.82 484.01 546.29 484.01 545.74 483.64 544.17 483.64 544.72 484.01 545.06 484.01 545.82 484.01"/><polygon class="cls-7" points="543.96 484.01 543.96 484.01 543.96 484.01 543.96 484.01"/><polygon class="cls-7" points="543.96 483.64 543.96 484.01 543.96 484.01 544.72 484.01 544.17 483.64 543.96 483.64"/><polygon class="cls-7" points="541.77 482.18 541.77 482.07 541.39 481.82 540.63 481.82 541.19 482.18 541.77 482.18"/><polygon class="cls-7" points="541.77 483.64 541.43 483.64 540.91 483.96 541.59 483.94 541.49 484.01 541.63 484.01 541.77 483.92 541.77 483.64"/><polygon class="cls-7" points="540.91 483.96 540.83 484.01 541.49 484.01 541.59 483.94 540.91 483.96"/><polygon class="cls-7" points="543.96 482.18 544.64 482.18 545.24 481.82 544.43 481.82 543.96 482.11 543.96 482.18"/><polygon class="cls-7" points="541.77 484.31 541.77 487.29 542.14 487.29 542.14 484.08 541.77 484.31"/><polygon class="cls-7" points="543.6 484.24 543.6 487.29 543.96 487.29 543.96 484.48 543.6 484.24"/><polygon class="cls-7" points="542.14 481.27 542.14 478.17 541.77 478.17 541.77 481.04 542.14 481.27"/><polygon class="cls-7" points="543.96 481.07 543.96 478.17 543.6 478.17 543.6 481.3 543.96 481.07"/><polygon class="cls-7" points="541.77 484.01 541.77 484.31 542.14 484.08 542.14 484.01 541.77 484.01"/><polygon class="cls-7" points="543.96 481.82 543.96 481.07 543.6 481.3 543.6 481.82 543.96 481.82"/><polygon class="cls-7" points="542.14 481.27 541.77 481.04 541.77 481.82 542.14 481.82 542.14 481.27"/><polygon class="cls-7" points="543.6 484.24 543.96 484.48 543.96 484.01 543.6 484.01 543.6 484.24"/><polygon class="cls-7" points="542.14 483.7 541.77 483.92 541.77 484.01 542.14 484.01 542.14 483.7"/><polygon class="cls-7" points="543.6 482.18 543.83 482.18 543.96 482.11 543.96 481.82 543.6 481.82 543.6 482.18"/><polygon class="cls-7" points="543.6 484.01 543.96 484.01 543.96 484.01 543.6 483.77 543.6 484.01"/><polygon class="cls-7" points="541.95 482.18 542.14 482.18 542.14 481.82 541.77 481.82 541.77 482.07 541.95 482.18"/><polygon class="cls-7" points="543.6 483.77 543.96 484.01 543.96 483.64 543.6 483.64 543.6 483.77"/><polygon class="cls-7" points="541.77 482.07 541.77 482.18 541.95 482.18 541.77 482.07"/><polygon class="cls-7" points="541.77 483.64 541.77 483.92 542.14 483.7 542.14 483.64 541.77 483.64"/><polygon class="cls-7" points="543.96 482.18 543.96 482.11 543.83 482.18 543.96 482.18"/><polygon class="cls-6" points="542.85 481.75 543.6 481.3 543.6 478.17 542.14 478.17 542.14 481.27 542.85 481.75"/><polygon class="cls-6" points="543.25 484.01 542.26 484.01 542.14 484.08 542.14 487.29 543.6 487.29 543.6 484.24 543.25 484.01"/><polygon class="cls-6" points="542.14 484.08 542.26 484.01 542.14 484.01 542.14 484.08"/><polygon class="cls-6" points="543.6 481.82 543.6 481.3 542.85 481.75 542.96 481.82 543.6 481.82"/><polygon class="cls-6" points="542.74 481.82 542.85 481.75 542.14 481.27 542.14 481.82 542.74 481.82"/><polygon class="cls-6" points="543.25 484.01 543.6 484.24 543.6 484.01 543.25 484.01"/><polygon class="cls-6" points="542.96 481.82 542.85 481.75 542.74 481.82 542.96 481.82"/><polygon class="cls-6" points="542.26 484.01 543.25 484.01 542.78 483.7 542.26 484.01"/><polygon class="cls-6" points="543.6 482.18 543.6 481.82 542.96 481.82 543.52 482.18 543.6 482.18"/><polygon class="cls-6" points="542.69 483.64 542.23 483.64 542.14 483.7 542.14 484.01 542.26 484.01 542.78 483.7 542.69 483.64"/><polygon class="cls-6" points="543.6 483.77 543.41 483.64 542.87 483.64 542.78 483.7 543.25 484.01 543.6 484.01 543.6 483.77"/><polygon class="cls-6" points="542.14 481.82 542.14 482.18 542.74 481.82 542.14 481.82"/><polygon class="cls-6" points="542.96 481.82 542.74 481.82 542.14 482.18 543.52 482.18 542.96 481.82"/><polygon class="cls-6" points="542.78 483.7 542.87 483.64 542.69 483.64 542.78 483.7"/><polygon class="cls-6" points="543.6 483.77 543.6 483.64 543.41 483.64 543.6 483.77"/><polygon class="cls-6" points="542.14 483.7 542.23 483.64 542.14 483.64 542.14 483.7"/><polygon class="cls-6" points="541.27 482.71 540.47 482.18 535.94 482.18 535.94 483.64 539.73 483.64 541.27 482.71"/><polygon class="cls-6" points="544.36 482.74 545.74 483.64 549.43 483.64 549.43 482.18 545.27 482.18 544.36 482.74"/><polygon class="cls-6" points="541.77 483.43 541.77 483.04 541.27 482.71 539.73 483.64 541.43 483.64 541.77 483.43"/><polygon class="cls-6" points="544.36 482.74 545.27 482.18 544.64 482.18 544.05 482.54 544.36 482.74"/><polygon class="cls-6" points="541.19 482.18 540.47 482.18 541.27 482.71 541.64 482.48 541.19 482.18"/><polygon class="cls-6" points="543.96 482.98 543.96 483.51 544.17 483.64 545.74 483.64 544.36 482.74 543.96 482.98"/><polygon class="cls-6" points="543.96 482.59 543.96 482.98 544.36 482.74 544.05 482.54 543.96 482.59"/><polygon class="cls-6" points="541.77 482.57 541.64 482.48 541.27 482.71 541.77 483.04 541.77 482.57"/><polygon class="cls-6" points="541.77 482.18 541.19 482.18 541.64 482.48 541.77 482.4 541.77 482.18"/><polygon class="cls-6" points="543.96 483.64 544.17 483.64 543.96 483.51 543.96 483.64"/><polygon class="cls-6" points="541.64 482.48 541.77 482.57 541.77 482.4 541.64 482.48"/><polygon class="cls-6" points="544.05 482.54 544.64 482.18 543.96 482.18 543.96 482.47 544.05 482.54"/><polygon class="cls-6" points="541.43 483.64 541.77 483.64 541.77 483.43 541.43 483.64"/><polygon class="cls-6" points="544.05 482.54 543.96 482.47 543.96 482.59 544.05 482.54"/><polygon class="cls-6" points="543.67 482.28 543.83 482.18 543.6 482.18 543.6 482.24 543.67 482.28"/><polygon class="cls-6" points="541.77 483.04 541.77 483.43 542.09 483.24 541.77 483.04"/><polygon class="cls-6" points="543.6 483.27 543.96 483.51 543.96 482.98 543.6 483.2 543.6 483.27"/><polygon class="cls-6" points="542.14 482.18 541.95 482.18 542.04 482.24 542.14 482.18"/><polygon class="cls-6" points="542.14 482.31 542.14 482.18 542.04 482.24 542.14 482.31"/><polygon class="cls-6" points="543.6 482.33 543.67 482.28 543.6 482.24 543.6 482.33"/><polygon class="cls-6" points="542.14 483.21 542.14 482.81 541.77 482.57 541.77 483.04 542.09 483.24 542.14 483.21"/><polygon class="cls-6" points="543.6 482.81 543.6 483.2 543.96 482.98 543.96 482.59 543.6 482.81"/><polygon class="cls-6" points="543.6 483.27 543.6 483.64 543.96 483.64 543.96 483.51 543.6 483.27"/><polygon class="cls-6" points="542.04 482.24 541.95 482.18 541.77 482.18 541.77 482.4 542.04 482.24"/><polygon class="cls-6" points="542.14 482.31 542.04 482.24 541.77 482.4 541.77 482.57 542.14 482.81 542.14 482.31"/><polygon class="cls-6" points="542.14 483.28 542.09 483.24 541.77 483.43 541.77 483.64 542.14 483.64 542.14 483.28"/><polygon class="cls-6" points="543.67 482.28 543.96 482.47 543.96 482.18 543.83 482.18 543.67 482.28"/><polygon class="cls-6" points="543.6 482.81 543.96 482.59 543.96 482.47 543.67 482.28 543.6 482.33 543.6 482.81"/><polygon class="cls-6" points="542.09 483.24 542.14 483.28 542.14 483.21 542.09 483.24"/><polygon class="cls-6" points="543.6 482.24 543.6 482.18 543.52 482.18 543.6 482.24"/><polygon class="cls-6" points="542.23 483.64 542.69 483.64 542.47 483.5 542.23 483.64"/><polygon class="cls-6" points="543.54 483.23 543.6 483.27 543.6 483.2 543.54 483.23"/><polygon class="cls-6" points="542.87 483.64 543.41 483.64 543.15 483.47 542.87 483.64"/><polygon class="cls-6" points="543.54 483.23 543.6 483.2 543.6 482.81 543.24 483.03 543.54 483.23"/><polygon class="cls-6" points="542.14 482.81 542.14 483.21 542.46 483.02 542.14 482.81"/><polygon class="cls-6" points="542.84 483.27 542.47 483.5 542.69 483.64 542.87 483.64 543.15 483.47 542.84 483.27"/><polygon class="cls-6" points="542.85 482.78 543.6 482.33 543.6 482.24 543.52 482.18 542.14 482.18 542.14 482.31 542.85 482.78"/><polygon class="cls-6" points="543.15 483.47 543.41 483.64 543.6 483.64 543.6 483.27 543.54 483.23 543.15 483.47"/><polygon class="cls-6" points="542.84 483.27 543.15 483.47 543.54 483.23 543.24 483.03 542.84 483.27"/><polygon class="cls-6" points="542.85 482.78 542.14 482.31 542.14 482.81 542.46 483.02 542.85 482.78"/><polygon class="cls-6" points="542.14 483.28 542.14 483.64 542.23 483.64 542.47 483.5 542.14 483.28"/><polygon class="cls-6" points="542.14 483.21 542.14 483.28 542.47 483.5 542.84 483.27 542.46 483.02 542.14 483.21"/><polygon class="cls-6" points="542.85 482.78 543.24 483.03 543.6 482.81 543.6 482.33 542.85 482.78"/><polygon class="cls-6" points="542.85 482.78 542.46 483.02 542.84 483.27 543.24 483.03 542.85 482.78"/><path class="cls-4" d="M195.84,422,274.1,557.73a12.07,12.07,0,0,0,16.45,4.42l21.72-12.56a12.09,12.09,0,0,0,4.41-16.46l-78.26-135.7A12.08,12.08,0,0,0,222,393l-21.72,12.56A12.11,12.11,0,0,0,195.84,422Z"/><ellipse class="cls-1" cx="160.54" cy="354.4" rx="46.66" ry="19.27"/><ellipse class="cls-1" cx="104.12" cy="367.68" rx="24.99" ry="6.32" transform="translate(-61.84 23.46) rotate(-9.93)"/><ellipse class="cls-1" cx="94.53" cy="343.99" rx="6.58" ry="27.19" transform="translate(-258.48 395.53) rotate(-82.94)"/><ellipse class="cls-1" cx="167.15" cy="323.74" rx="10.38" ry="18.47" transform="translate(-101.76 77.9) rotate(-20.26)"/><ellipse class="cls-1" cx="94.19" cy="356.52" rx="24.51" ry="7" transform="translate(-16.54 4.79) rotate(-2.68)"/><path class="cls-1" d="M188,403.83l-19.39-31.69A9.57,9.57,0,0,1,171.72,359L191,347.18a9.56,9.56,0,0,1,13.11,3.15L223.53,382a9.57,9.57,0,0,1-3.15,13.12L201.06,407A9.54,9.54,0,0,1,188,403.83Z"/><ellipse class="cls-1" cx="114.99" cy="335.29" rx="6.09" ry="39.61" transform="translate(-234.77 392.83) rotate(-80.41)"/><path class="cls-7" d="M12.6,285.58,0,318.94s-4.19,7.82,4.19,9.22l229.7,73.21s6.42,2.79,9.49-3.08,13.67-49.45,13.67-49.45l22.81-29.17,15.43-19.73L81.5,253.84s0-.28-2.79,0l-2.79.28"/><polygon class="cls-7" points="296.87 323.59 295.29 299.94 279.86 319.67 296.87 323.59"/><ellipse class="cls-11" cx="90.59" cy="268.18" rx="16.25" ry="5.08"/><ellipse class="cls-11" cx="65.47" cy="281.32" rx="16.25" ry="6.26"/><ellipse class="cls-11" cx="99.48" cy="289.87" rx="17.75" ry="7.56"/><ellipse class="cls-11" cx="137.95" cy="299.14" rx="18.84" ry="8.28"/><ellipse class="cls-11" cx="179.05" cy="309.43" rx="18.84" ry="9.6"/><ellipse class="cls-11" cx="224.23" cy="319.61" rx="20.43" ry="9.6"/><ellipse class="cls-11" cx="242.99" cy="301.77" rx="18.76" ry="8.24"/><ellipse class="cls-11" cx="200.72" cy="292.56" rx="17.44" ry="7.28"/><ellipse class="cls-11" cx="161.55" cy="284.15" rx="17.5" ry="7.15"/><ellipse class="cls-11" cx="125.45" cy="275.68" rx="16.39" ry="5.83"/><path class="cls-12" d="M254.14,351.84,13.24,289.6A2.12,2.12,0,0,1,11.72,287l.38-1.46a2.11,2.11,0,0,1,2.57-1.52l240.9,62.25a2.12,2.12,0,0,1,1.51,2.57l-.38,1.46A2.11,2.11,0,0,1,254.14,351.84Z"/><polygon class="cls-13" points="296.87 323.59 295.29 299.94 279.86 319.67 296.87 323.59"/><ellipse class="cls-14" cx="90.59" cy="248.44" rx="18.63" ry="6.54"/><path d="M72,247.13l2.38,21.05s14.76,12.71,32.5,0l2.38-21.05S91.54,259.6,72,247.13Z"/><path d="M46.84,263.65l2.38,21.05s14.77,12.71,32.5,0l2.39-21.05S66.43,276.12,46.84,263.65Z"/><path d="M80.84,270.8l2.39,21.05s14.76,12.71,32.5,0l2.38-21.05S100.43,283.27,80.84,270.8Z"/><path d="M106.82,254.83l2.38,21s14.77,12.71,32.5,0l2.38-21S126.4,267.3,106.82,254.83Z"/><ellipse class="cls-15" cx="125.45" cy="254.83" rx="18.63" ry="6.39"/><ellipse class="cls-11" cx="92.97" cy="271.53" rx="18.63" ry="6.48"/><ellipse class="cls-16" cx="65.47" cy="263.66" rx="18.63" ry="6.48"/><ellipse class="cls-17" cx="99.48" cy="270.8" rx="18.63" ry="6.48"/><path d="M142.91,264.29l2.39,21s14.76,12.71,32.5,0l2.38-21S162.5,276.76,142.91,264.29Z"/><ellipse class="cls-18" cx="161.55" cy="264.29" rx="18.63" ry="6.39"/><path d="M182.09,272.16l2.38,21s14.77,12.71,32.5,0l2.38-21S201.67,284.63,182.09,272.16Z"/><ellipse class="cls-19" cx="200.72" cy="272.16" rx="18.63" ry="6.39"/><path d="M224.36,282.4l2.38,21.05s14.77,12.71,32.5,0l2.39-21.05S244,294.87,224.36,282.4Z"/><ellipse class="cls-20" cx="242.99" cy="282.4" rx="18.63" ry="6.39"/><path d="M203.06,298.22l2.7,24.45s16.78,14.76,36.94,0l2.7-24.45S225.31,312.7,203.06,298.22Z"/><ellipse class="cls-21" cx="224.23" cy="298.22" rx="21.17" ry="7.42"/><path d="M159,287.34l2.56,24.45s15.85,14.77,34.89,0l2.56-24.45S180.07,301.82,159,287.34Z"/><ellipse class="cls-22" cx="179.05" cy="287.34" rx="20.01" ry="7.42"/><path d="M118,275.79l2.55,24.45s15.86,14.76,34.9,0L158,275.79S139,290.27,118,275.79Z"/><ellipse class="cls-23" cx="137.95" cy="275.79" rx="20.01" ry="7.42"/><path class="cls-5" d="M399.62,284.93v55.81s-1.17,8.87-10.67,9.4-73.82,33-98.79-70.2c0,0,53.42,46.38,69.63,23.19s-5.28-75.21-5.28-75.21Z"/><rect class="cls-1" x="349.52" y="58.76" width="211.38" height="241.76" rx="103"/><ellipse class="cls-24" cx="395.87" cy="167.19" rx="23.47" ry="23.5"/><ellipse cx="395.87" cy="167.19" rx="13.54" ry="13.56"/><ellipse class="cls-7" cx="404.69" cy="158.29" rx="4.89" ry="4.9"/><path class="cls-7" d="M394.07,177l11.73-4.4A14,14,0,0,1,401,177C397.68,178.94,394.07,177,394.07,177Z"/><ellipse class="cls-24" cx="456.23" cy="167.03" rx="22.73" ry="22.75"/><ellipse cx="456.23" cy="167.03" rx="13.11" ry="13.13"/><ellipse class="cls-7" cx="467.96" cy="158.78" rx="4.74" ry="4.74"/><path class="cls-7" d="M456.42,176.85l11.36-4.27a13.61,13.61,0,0,1-4.65,4.27C459.91,178.71,456.42,176.85,456.42,176.85Z"/><path class="cls-25" d="M413.22,199.32c-1.11.17,7-6.8,8.68-24.93l2.9-14.49.34-.34a1.16,1.16,0,0,1,1.64,0l.34.34,3.66,41.38s13.53,7.55,0,16.43a43.49,43.49,0,0,1-10.94,1.34,25.39,25.39,0,0,1-3.78-.33,15.15,15.15,0,0,1-5.77-2.1C414.71,219.57,398.63,211.75,413.22,199.32Z"/><path class="cls-26" d="M436.68,155.29a46.25,46.25,0,0,1,40,0s-6.86-12.34-21.78-11.56S436.68,155.29,436.68,155.29Z"/><path class="cls-26" d="M376.13,153.58a46.3,46.3,0,0,1,40,0s-6.86-12.33-21.78-11.56S376.13,153.58,376.13,153.58Z"/><ellipse class="cls-11" cx="423.96" cy="217.15" rx="3.94" ry="1.56" transform="matrix(0.98, -0.21, 0.21, 0.98, -36.16, 93.94)"/><ellipse class="cls-11" cx="413.07" cy="216.44" rx="1.44" ry="3.94" transform="translate(67.56 529.65) rotate(-69.85)"/><path d="M437.54,131.74v7.31s13.25-11.9,29.37-10,19.56,2.63,19.56,2.63l-15.05-4.62A30.4,30.4,0,0,0,462,125.6C457.28,125.75,452.14,125.9,437.54,131.74Z"/><path d="M410.32,131.67v6.78s-11.29-11-25-9.29-16.67,2.44-16.67,2.44l12.83-4.29a24.08,24.08,0,0,1,8-1.34C393.5,126.11,397.88,126.24,410.32,131.67Z"/><path class="cls-27" d="M389.46,249.76s22.15,15.18,28.61,14.95,3.52,2.65,39.46-11.34c0,0-2.36,17.57-23,27.2S393.27,274.22,389.46,249.76Z"/><path class="cls-27" d="M386.3,225.84s35.42,0,33.12,8.5c0,0-.87-9.62,47.38-11.29,0,0-16.17,17.72-47.14,15.27S386.3,225.84,386.3,225.84Z"/><path class="cls-28" d="M386.77,227.11s5.16,7.31,32.89,8.77,46.27-11,46.27-11l-8.4,30.49s-37.4,23.14-68.07-2.76Z"/><path class="cls-29" d="M466.8,152.39c4.46,1.52,9.9-2.63,12.16-9.28"/><path class="cls-29" d="M461.87,150.72c4.5,1.53,9.82-2.19,11.9-8.32"/><path class="cls-29" d="M456.26,150.2c4.39,1.5,9.56-2,11.54-7.86"/><path class="cls-29" d="M376.87,152.44c-5.18,1-10.52-4.28-12-11.78"/><path class="cls-29" d="M472.21,153.47c4.71,1.61,10.51-2.95,13-10.18"/><path class="cls-29" d="M390.37,150c-5.18,1-10.24-2.81-11.33-8.5"/><path class="cls-29" d="M386.31,150.57c-5.17,1-10.31-3.21-11.49-9.38"/><path class="cls-29" d="M381.68,151.14c-5.17,1-10.42-3.75-11.73-10.59"/><path class="cls-5" d="M427.32,57s-11.22,44.57-85.52,75.48c0,0-27.53,19.92-17.41,53.5,0,0-56.69-203.71,101.24-178.77"/><path class="cls-5" d="M410,73.14S477.9,116,540.72,109.91c0,0,22,124.84-6.53,149.78s-35.8,30.1-52,35.63c0,0-3.4,35.08.88,44.35s12.24,16.22,14.68,16.8,58.72,24.19,97.87-3.84,33-60.47,33-60.47-48.32,42.29-58.11,19.12,40.37-166.19,40.37-166.19S649.4,27.54,557.35,11.81c0,0-32.92-17.2-92.46-12.12,0,0-32,2.19-46.08,10.88Z"/><ellipse class="cls-30" cx="418.43" cy="207.73" rx="4.63" ry="2.03"/><ellipse class="cls-31" cx="490.48" cy="197.88" rx="15.03" ry="10.43" transform="translate(-31.5 283.11) rotate(-31.24)"/><ellipse class="cls-31" cx="363.25" cy="197.99" rx="10.43" ry="15.04" transform="translate(-27.3 334.47) rotate(-47.85)"/><path class="cls-32" d="M427.12,159.9l7.59,44.65a30.36,30.36,0,0,0-3.93-3.27Z"/><path class="cls-33" d="M418.43,196.54s.52,7.07,3.44,0c0,0,5.83-15.19,3.51-25.63,0,0-4.27,16.64-6.37,23.19C418.43,195.93,418.43,197,418.43,196.54Z"/><path d="M416.09,153.58s-9.71-5-25.46-3c-4.33.55-9.38,1-14.5,3,0,0-1.95.09-6.18-2.3l9.68-.66s8-1.49,10.42-1.74a45.34,45.34,0,0,1,11,0A49.3,49.3,0,0,1,416.09,153.58Z"/><path d="M435.76,155.84s9.88-6.23,25.91-3.72c4.41.69,9.54,1.22,14.75,3.72,0,0,2,.11,6.29-2.9l-9.84-.82s-8.18-1.86-10.61-2.18a37.36,37.36,0,0,0-11.2,0A43.75,43.75,0,0,0,435.76,155.84Z"/><path class="cls-34" d="M416.09,69.72s-24,39.45-62.23,52.2c0,0-29.55,9-30.7,29.14,0,0,2.9-19.86,22.59-33.2,0,0,31.33-8.11,50.12-31.88Z"/><path class="cls-35" d="M418.72,37.86s-15.06,42.9-90.34,74.21c0,0,18.84-62.81,56.33-77.21,0,0-22.17,3-28,13.43,0,0,8.69-17.39,41.7-22,0,0-38.22-8.69-57.91,24.35,0,0,24-47.71,81.65-33.62Z"/><path class="cls-34" d="M430.91,14.39s80.18-29.58,150.25,19.12c0,0-74.91-39.41-135.61-19.12,0,0,39.05-9.27,54.32,0,0,0-62.26-2.54-69,6.84,0,0,115.51-11.61,150.25,25.26S607.8,135,607.8,135,623.57,21.17,434.71,43h-7.39Z"/><path class="cls-36" d="M428.85,30S474.67,63.59,532.49,62.5c0,0,44.44-1.78,52.15,19.71,0,0-10.09-20.51-41.92-27.31,0,0-46.7,3.45-80.41-15.09Z"/><path class="cls-34" d="M421.9,65.4S456.88,103,541,100.71c0,0,18.53.44,15.72,24.88,0,0,8.3-28.67-6.81-33.41,0,0-76.49,2.74-124.56-41.28Z"/><path class="cls-34" d="M590.55,167.48s-50.5,80.8-63.53,158.94c0,0-.85,21.53,12.75,24.61s39.52-5.22,39.52-5.22S533.91,315.94,590.55,167.48Z"/><path class="cls-34" d="M389.46,277.39s29,87.74-56.16,62.81c0,0,41.31,2.8,49-69Z"/></svg>