<svg id="Layer_1" data-name="Layer 1" xmlns="http://www.w3.org/2000/svg" xmlns:xlink="http://www.w3.org/1999/xlink" width="262.13" height="293.03" viewBox="0 0 262.13 293.03"><defs><style>.cls-1,.cls-11,.cls-13,.cls-15,.cls-17,.cls-19,.cls-21,.cls-7,.cls-9{opacity:0.6;}.cls-2,.cls-4{opacity:0.3;}.cls-2{fill:url(#linear-gradient);}.cls-3{opacity:0.4;fill:url(#linear-gradient-2);}.cls-4{stroke:#000;stroke-width:5px;fill:url(#linear-gradient-3);}.cls-23,.cls-4{stroke-miterlimit:10;}.cls-5{opacity:0.2;fill:url(#linear-gradient-4);}.cls-6{opacity:0.5;fill:url(#linear-gradient-5);}.cls-7{fill:url(#linear-gradient-6);}.cls-8{fill:url(#linear-gradient-7);}.cls-9{fill:url(#linear-gradient-8);}.cls-10{fill:url(#linear-gradient-9);}.cls-11{fill:url(#linear-gradient-10);}.cls-12{fill:url(#linear-gradient-11);}.cls-13{fill:url(#linear-gradient-12);}.cls-14{fill:url(#linear-gradient-13);}.cls-15{fill:url(#linear-gradient-14);}.cls-16{fill:url(#linear-gradient-15);}.cls-17{fill:url(#linear-gradient-16);}.cls-18{fill:url(#linear-gradient-17);}.cls-19{fill:url(#linear-gradient-18);}.cls-20{fill:url(#linear-gradient-19);}.cls-21{fill:url(#linear-gradient-20);}.cls-22{fill:url(#linear-gradient-21);}.cls-23{fill:#ff00d0;stroke:#ff0;}</style><linearGradient id="linear-gradient" x1="1.68" y1="9.84" x2="261.07" y2="9.84" gradientUnits="userSpaceOnUse"><stop offset="0" stop-color="#fff"/><stop offset="0" stop-color="#f7f7ff"/><stop offset="0" stop-color="#ebe7d9"/><stop offset="1" stop-color="#2962ff"/></linearGradient><linearGradient id="linear-gradient-2" x1="50.38" y1="279.74" x2="212.37" y2="279.74" xlink:href="#linear-gradient"/><linearGradient id="linear-gradient-3" x1="131.37" y1="196.98" x2="131.37" y2="196.98" xlink:href="#linear-gradient"/><linearGradient id="linear-gradient-4" x1="1.07" y1="68.39" x2="260.45" y2="68.39" xlink:href="#linear-gradient"/><linearGradient id="linear-gradient-5" x1="27.68" y1="79.32" x2="235.07" y2="79.32" xlink:href="#linear-gradient"/><linearGradient id="linear-gradient-6" x1="153.66" y1="96.22" x2="165.48" y2="96.22" xlink:href="#linear-gradient"/><linearGradient id="linear-gradient-7" x1="159.57" y1="95.03" x2="165" y2="95.03" xlink:href="#linear-gradient"/><linearGradient id="linear-gradient-8" x1="106.51" y1="83.59" x2="118.33" y2="83.59" xlink:href="#linear-gradient"/><linearGradient id="linear-gradient-9" x1="112.42" y1="82.4" x2="117.84" y2="82.4" xlink:href="#linear-gradient"/><linearGradient id="linear-gradient-10" x1="113.68" y1="58.52" x2="119.59" y2="58.52" xlink:href="#linear-gradient"/><linearGradient id="linear-gradient-11" x1="116.64" y1="57.93" x2="119.35" y2="57.93" xlink:href="#linear-gradient"/><linearGradient id="linear-gradient-12" x1="86.07" y1="61.81" x2="97.89" y2="61.81" xlink:href="#linear-gradient"/><linearGradient id="linear-gradient-13" x1="91.98" y1="60.62" x2="97.41" y2="60.62" xlink:href="#linear-gradient"/><linearGradient id="linear-gradient-14" x1="162.53" y1="69.75" x2="168.44" y2="69.75" xlink:href="#linear-gradient"/><linearGradient id="linear-gradient-15" x1="165.48" y1="69.16" x2="168.2" y2="69.16" xlink:href="#linear-gradient"/><linearGradient id="linear-gradient-16" x1="171.34" y1="66.46" x2="177.25" y2="66.46" xlink:href="#linear-gradient"/><linearGradient id="linear-gradient-17" x1="174.3" y1="65.87" x2="177.01" y2="65.87" xlink:href="#linear-gradient"/><linearGradient id="linear-gradient-18" x1="58.76" y1="40.32" x2="64.67" y2="40.32" xlink:href="#linear-gradient"/><linearGradient id="linear-gradient-19" x1="61.72" y1="39.73" x2="64.43" y2="39.73" xlink:href="#linear-gradient"/><linearGradient id="linear-gradient-20" x1="142.39" y1="34.49" x2="148.3" y2="34.49" xlink:href="#linear-gradient"/><linearGradient id="linear-gradient-21" x1="145.34" y1="33.9" x2="148.06" y2="33.9" xlink:href="#linear-gradient"/></defs><g class="cls-1"><ellipse class="cls-2" cx="131.37" cy="9.84" rx="129.69" ry="9.43"/><ellipse class="cls-3" cx="131.37" cy="279.74" rx="80.99" ry="12.96"/><line class="cls-4" x1="131.37" y1="127.19" x2="131.37" y2="266.77"/><path class="cls-5" d="M260.45,9.59l-123.9,117.6H124.82L1.07,9.59a39.82,39.82,0,0,0,16.76,4.64l16.09,1.63,15.56,1.08,13.33.68,16,.61,22.9.55,29,.24s36.82.21,36.92-.39l25.94-.79,32-1.82,20-2S255.9,13.33,260.45,9.59Z"/></g><path class="cls-6" d="M27.68,32.64s8.69-1.45,10.72,0,30.55,1.13,31.13,0,40.56-2.42,44.18.16,56.93,1.94,58.08.81,7.38-2.84,6.65-2.31,4.79.25,6,1.6,26.28,0,26.28,0,11.3,1.22,14.77,0,9.56,0,9.56,0l-97.9,94.54H125.44Z"/><ellipse class="cls-7" cx="159.57" cy="96.22" rx="5.91" ry="6.58"/><ellipse class="cls-8" cx="162.29" cy="95.03" rx="2.71" ry="3.78"/><ellipse class="cls-9" cx="112.42" cy="83.59" rx="5.91" ry="6.58"/><ellipse class="cls-10" cx="115.13" cy="82.4" rx="2.71" ry="3.78"/><ellipse class="cls-11" cx="116.64" cy="58.52" rx="2.96" ry="3.29"/><ellipse class="cls-12" cx="117.99" cy="57.93" rx="1.36" ry="1.89"/><ellipse class="cls-13" cx="91.98" cy="61.81" rx="5.91" ry="6.58"/><ellipse class="cls-14" cx="94.69" cy="60.62" rx="2.71" ry="3.78"/><ellipse class="cls-15" cx="165.48" cy="69.75" rx="2.96" ry="3.29"/><ellipse class="cls-16" cx="166.84" cy="69.16" rx="1.36" ry="1.89"/><ellipse class="cls-17" cx="174.3" cy="66.46" rx="2.96" ry="3.29"/><ellipse class="cls-18" cx="175.66" cy="65.87" rx="1.36" ry="1.89"/><ellipse class="cls-19" cx="61.72" cy="40.32" rx="2.96" ry="3.29"/><ellipse class="cls-20" cx="63.08" cy="39.73" rx="1.36" ry="1.89"/><ellipse class="cls-21" cx="145.34" cy="34.49" rx="2.96" ry="3.29"/><ellipse class="cls-22" cx="146.7" cy="33.9" rx="1.36" ry="1.89"/><path class="cls-23" d="M80.39,31.17a20.88,20.88,0,0,0,2.83.68,22.85,22.85,0,0,0,2.79.49,25.69,25.69,0,0,0,3.17.19q2.82,0,2.82-2.1a2.33,2.33,0,0,0-.86-1.64A24.83,24.83,0,0,0,89,26.94c-.88-.68-1.82-1.44-2.82-2.26a20,20,0,0,1-2.83-2.84,14.78,14.78,0,0,1-2.18-3.62,11.61,11.61,0,0,1-.86-4.6,12,12,0,0,1,1-5.13A10.38,10.38,0,0,1,84.2,4.78a13,13,0,0,1,4.33-2.25,17.68,17.68,0,0,1,5.32-.77,29.29,29.29,0,0,1,3,.15l2.64.28,2.64.37V14.11L101,14l-1.11-.12c-.41,0-.84-.07-1.29-.07-.25,0-.55,0-.92,0a5.77,5.77,0,0,0-1,.15,2.18,2.18,0,0,0-.86.43,1.1,1.1,0,0,0-.37.87c0,.33.28.74.83,1.23s1.23,1.08,2,1.73,1.68,1.43,2.64,2.29a18.06,18.06,0,0,1,2.65,3,17.55,17.55,0,0,1,2,3.77,12.52,12.52,0,0,1,.83,4.69,14.76,14.76,0,0,1-.86,5.1,10.79,10.79,0,0,1-2.67,4.14A12.87,12.87,0,0,1,98.21,44a19.75,19.75,0,0,1-6.7,1,38.9,38.9,0,0,1-4.33-.22c-1.33-.14-2.51-.32-3.53-.52a33.07,33.07,0,0,1-3.26-.74Zm5.16,7.41a18.75,18.75,0,0,0,1.85.31c.57.08,1.17.16,1.81.22s1.28.09,1.93.09a13.78,13.78,0,0,0,3.35-.4,8.37,8.37,0,0,0,2.92-1.33,6.78,6.78,0,0,0,2.06-2.38,7.54,7.54,0,0,0,.77-3.55,6.93,6.93,0,0,0-.89-3.4,15.75,15.75,0,0,0-2.28-3.09,37.84,37.84,0,0,0-2.95-2.84c-1-.91-2-1.82-2.94-2.75a16.9,16.9,0,0,1-2.28-2.78A5.31,5.31,0,0,1,88,13.8a4.24,4.24,0,0,1,1.41-3.42A6.94,6.94,0,0,1,94,9.17l1,0q.52,0,1,.09a6.46,6.46,0,0,0,1,.07V7.75a7.59,7.59,0,0,1-.92-.06c-.29,0-.6-.07-1-.09s-.71,0-1.08,0a9.3,9.3,0,0,0-5.47,1.52,5.38,5.38,0,0,0-2.15,4.72,6.33,6.33,0,0,0,.89,3.25,16.42,16.42,0,0,0,2.28,3c.92,1,1.9,1.91,3,2.82s2,1.82,3,2.75a14.81,14.81,0,0,1,2.27,2.87,6,6,0,0,1,.89,3.09,5.36,5.36,0,0,1-2,4.51,8.77,8.77,0,0,1-5.5,1.54,22.1,22.1,0,0,1-3.8-.3c-.62-.09-1.21-.19-1.79-.31Z"/><path class="cls-23" d="M141,18.44a16.37,16.37,0,0,1-1.48,7.26,12.92,12.92,0,0,1-4,4.85,17.23,17.23,0,0,1-6,2.72,29.75,29.75,0,0,1-7.35.86V44H109.15V2.74h13.08a29.74,29.74,0,0,1,7.35.87,17.23,17.23,0,0,1,6,2.72,12.84,12.84,0,0,1,4,4.85A16.37,16.37,0,0,1,141,18.44Zm-6,0a11.23,11.23,0,0,0-1-4.82,8.69,8.69,0,0,0-2.67-3.34,12,12,0,0,0-4.09-1.94,19,19,0,0,0-5.13-.65h-6.94V39h1.6V29.19h5.34a19.37,19.37,0,0,0,5.13-.65,12,12,0,0,0,4.09-1.94,8.69,8.69,0,0,0,2.67-3.34A11.23,11.23,0,0,0,135.08,18.44Zm-1.73,0a9.61,9.61,0,0,1-.92,4.45A7.55,7.55,0,0,1,130,25.73a10.25,10.25,0,0,1-3.54,1.51,18.47,18.47,0,0,1-4.21.47h-5.34V9.17h5.34a19.06,19.06,0,0,1,4.21.46A10.46,10.46,0,0,1,130,11.15,7.55,7.55,0,0,1,132.43,14,9.61,9.61,0,0,1,133.35,18.44ZM122.23,23h.56a4.91,4.91,0,0,0,3.71-1.2,4.73,4.73,0,0,0,1.14-3.37,4.73,4.73,0,0,0-1.14-3.37,4.91,4.91,0,0,0-3.71-1.2h-.56Z"/><path class="cls-23" d="M144.11,2.74H158V44H144.11ZM151.85,39V7.69h-1.6V39Z"/><path class="cls-23" d="M162.29,2.74h13.64V33.15h11.31V44h-25ZM183.8,39V37.53H170V7.69h-1.59V39Z"/><path class="cls-23" d="M69.19,49.57H83.08V90.79H69.19Zm7.74,36.27V54.52H75.34V85.84Z"/><path class="cls-23" d="M113.49,63.6a7.49,7.49,0,0,0-2.76-1.51,10.83,10.83,0,0,0-3.26-.53,8.07,8.07,0,0,0-3.26.65A7.79,7.79,0,0,0,101.66,64,8.38,8.38,0,0,0,100,66.75a9.61,9.61,0,0,0-.61,3.46,8.65,8.65,0,0,0,.68,3.46,8.25,8.25,0,0,0,1.84,2.75A8.64,8.64,0,0,0,108,78.86a8.23,8.23,0,0,0,3.81-.89,9.12,9.12,0,0,0,3-2.44H111V66.88h15.79V80.59a22.33,22.33,0,0,1-3.38,4.61,21.42,21.42,0,0,1-4.39,3.55A20.88,20.88,0,0,1,113.8,91a21.61,21.61,0,0,1-14.19-.86,21.45,21.45,0,0,1-13.15-20,22.33,22.33,0,0,1,1.59-8.4,21.61,21.61,0,0,1,4.4-6.89,20.54,20.54,0,0,1,6.63-4.64,20.26,20.26,0,0,1,8.27-1.69,23.25,23.25,0,0,1,6,.67,23,23,0,0,1,4.24,1.55A15.88,15.88,0,0,1,120.93,53Zm.62-8a10.42,10.42,0,0,0-1.79-.62,17.54,17.54,0,0,0-2-.43,17,17,0,0,0-2.58-.19,15.77,15.77,0,0,0-6.09,1.18,15.11,15.11,0,0,0-4.91,3.24,14.82,14.82,0,0,0-3.29,5,16.61,16.61,0,0,0-1.2,6.42,16.34,16.34,0,0,0,1.23,6.43,15,15,0,0,0,3.38,5A15.88,15.88,0,0,0,108,86a14.92,14.92,0,0,0,7.68-2,16.42,16.42,0,0,0,5.59-5.34v-8.1h-6.51v1.49h4.92v6.17a14,14,0,0,1-5,4.52A13.78,13.78,0,0,1,108,84.42a14.7,14.7,0,0,1-5.5-1A13.45,13.45,0,0,1,94.94,76a14.7,14.7,0,0,1-1.11-5.78,15.1,15.1,0,0,1,1.08-5.78,13.55,13.55,0,0,1,2.94-4.51,13.12,13.12,0,0,1,4.4-2.9,14.43,14.43,0,0,1,5.47-1,10.65,10.65,0,0,1,2.08.19c.66.12,1.23.24,1.72.37s1.11.33,1.6.49Z"/><path class="cls-23" d="M130.2,49.57h24.15V60.39H143.29V65h10.87V75.22H143.29V80h11.49V90.79H130.2Zm20,36.27V84.36H137.94V70.83h11.68V69.35H137.94V56h12.29V54.52H136.35V85.84Z"/><path class="cls-23" d="M158.47,49.57h10.75l11.3,15.88V49.57h12.84V90.79H182.55L171.31,75V90.79H158.47Zm7.31,36.27V57.3l20.27,28.54h1.6V54.52h-1.6V83.06L165.78,54.52h-1.6V85.84Z"/></svg>