<svg id="Layer_1" data-name="Layer 1" xmlns="http://www.w3.org/2000/svg" width="1366" height="769.29" viewBox="0 0 1366 769.29"><defs><style>.cls-1,.cls-13{opacity:0.4;}.cls-11,.cls-16,.cls-2,.cls-29{opacity:0.5;}.cls-12,.cls-14,.cls-21,.cls-26,.cls-27,.cls-3{opacity:0.3;}.cls-4{fill:#d9d4cc;}.cls-5{fill:none;stroke-width:6px;}.cls-27,.cls-5{stroke:#000;}.cls-14,.cls-27,.cls-5{stroke-miterlimit:10;}.cls-6{fill:#b2a999;}.cls-7{fill:#2d2828;}.cls-25,.cls-8{opacity:0.8;}.cls-20,.cls-21,.cls-9{fill:#fff;}.cls-10,.cls-24,.cls-30{opacity:0.6;}.cls-12,.cls-13,.cls-14,.cls-15{fill:#4aa5ff;}.cls-14{stroke:#4aa5ff;}.cls-14,.cls-27{stroke-width:5px;}.cls-15,.cls-28{opacity:0.2;}.cls-16{fill:#f6def9;}.cls-17{fill:#15e7ff;}.cls-18{fill:#bff8ff;}.cls-19,.cls-23{fill:#0bd1ff;}.cls-19,.cls-32{opacity:0.9;}.cls-20{opacity:0.45;}.cls-22{fill:gray;}.cls-24{fill:#2afffc;}.cls-25{fill:#e5fdff;}.cls-26{fill:#f915ff;}.cls-29{fill:#550045;}.cls-30{fill:#be00e9;}.cls-31{fill:#d294ff;}.cls-32{fill:#092a5e;}</style></defs><polygon class="cls-1" points="1226 99.18 1226 413.26 1241.9 419.19 1241.9 692.36 1365.5 768.35 1365.5 -0.35 1226 99.18"/><polygon class="cls-2" points="1226 99.18 1365.5 -0.35 0.5 -0.35 108.19 99.18 1226 99.18"/><polygon class="cls-1" points="108.19 677.7 0.5 768.35 0.5 -0.35 108.19 99.18 108.19 677.7"/><polygon class="cls-3" points="1241.9 710.41 582.04 710.41 582.04 677.7 108.19 677.7 0.5 768.35 1365.5 768.35 1241.9 692.36 1241.9 710.41"/><rect x="511.48" y="3.43" width="359.34" height="70.16" rx="12"/><rect class="cls-4" x="108.19" y="99.18" width="1117.8" height="578.51"/><line class="cls-5" x1="582.05" y1="175.01" x2="1241.9" y2="175.01"/><line class="cls-5" x1="582.05" y1="243.77" x2="1241.9" y2="243.77"/><line class="cls-5" x1="582.05" y1="312.53" x2="1241.9" y2="312.53"/><rect class="cls-6" x="582.05" y="419.19" width="659.86" height="291.22"/><ellipse class="cls-7" cx="203.8" cy="508.45" rx="151.28" ry="14.53"/><ellipse class="cls-7" cx="93.79" cy="601.04" rx="75.64" ry="11.22"/><ellipse class="cls-7" cx="342.43" cy="601.04" rx="75.64" ry="11.22"/><ellipse class="cls-7" cx="231.74" cy="567.92" rx="75.64" ry="11.22"/><rect class="cls-7" x="195.15" y="520.62" width="18.71" height="188.32"/><ellipse class="cls-7" cx="203.8" cy="704.57" rx="75.64" ry="11.22"/><rect class="cls-7" x="84.43" y="596.02" width="18.71" height="132.14"/><rect class="cls-7" x="336.36" y="601.04" width="18.71" height="132.14"/><rect class="cls-7" x="222.39" y="567.92" width="18.71" height="132.14"/><ellipse class="cls-7" cx="93.79" cy="733.18" rx="50.24" ry="7.45"/><ellipse class="cls-7" cx="345.72" cy="733.92" rx="50.24" ry="7.45"/><ellipse class="cls-7" cx="231.74" cy="693.35" rx="50.24" ry="7.45"/><g class="cls-8"><rect class="cls-9" x="589.67" y="249.78" width="6.57" height="17.64" rx="1.57"/><rect class="cls-9" x="582.05" y="262.36" width="21.81" height="46.64" rx="10.91"/><rect class="cls-9" x="582.05" y="291.35" width="21.81" height="17.65"/></g><g class="cls-8"><rect class="cls-9" x="621.08" y="181.52" width="6.57" height="17.64" rx="1.57"/><rect class="cls-9" x="613.46" y="194.1" width="21.81" height="46.64" rx="10.91"/><rect class="cls-9" x="613.46" y="223.1" width="21.81" height="17.65"/></g><g class="cls-8"><rect class="cls-9" x="592.95" y="181.52" width="6.57" height="17.64" rx="1.57"/><rect class="cls-9" x="585.33" y="194.1" width="21.81" height="46.64" rx="10.91"/><rect class="cls-9" x="585.33" y="223.1" width="21.81" height="17.65"/></g><g class="cls-8"><rect class="cls-9" x="676.43" y="249.78" width="6.57" height="17.64" rx="1.57"/><rect class="cls-9" x="668.81" y="262.36" width="21.81" height="46.64" rx="10.91"/><rect class="cls-9" x="668.81" y="291.35" width="21.81" height="17.65"/></g><g class="cls-10"><rect class="cls-9" x="644.33" y="262.36" width="5.18" height="13.89" rx="1.57"/><rect class="cls-9" x="638.33" y="272.27" width="17.18" height="36.73" rx="6.36"/><rect class="cls-9" x="638.33" y="295.1" width="17.18" height="13.9"/></g><g class="cls-8"><rect class="cls-9" x="603.86" y="249.78" width="6.57" height="17.64" rx="1.57"/><rect class="cls-9" x="596.24" y="262.36" width="21.81" height="46.64" rx="10.91"/><rect class="cls-9" x="596.24" y="291.35" width="21.81" height="17.65"/></g><g class="cls-8"><rect class="cls-9" x="617.79" y="249.78" width="6.57" height="17.64" rx="1.57"/><rect class="cls-9" x="610.17" y="262.36" width="21.81" height="46.64" rx="10.91"/><rect class="cls-9" x="610.17" y="291.35" width="21.81" height="17.65"/></g><g class="cls-8"><rect class="cls-9" x="666.22" y="262.36" width="5.18" height="13.89" rx="1.57"/><rect class="cls-9" x="660.22" y="272.27" width="17.18" height="36.73" rx="6.36"/><rect class="cls-9" x="660.22" y="295.1" width="17.18" height="13.9"/></g><g class="cls-11"><rect class="cls-9" x="689.85" y="262.36" width="5.18" height="13.89" rx="1.57"/><rect class="cls-9" x="683.85" y="272.27" width="17.18" height="36.73" rx="6.36"/><rect class="cls-9" x="683.85" y="295.1" width="17.18" height="13.9"/></g><g class="cls-8"><rect class="cls-9" x="707.04" y="181.52" width="6.57" height="17.64" rx="1.57"/><rect class="cls-9" x="699.42" y="194.1" width="21.81" height="46.64" rx="10.91"/><rect class="cls-9" x="699.42" y="223.1" width="21.81" height="17.65"/></g><g class="cls-8"><rect class="cls-9" x="678.42" y="181.52" width="6.57" height="17.64" rx="1.57"/><rect class="cls-9" x="670.8" y="194.1" width="21.81" height="46.64" rx="10.91"/><rect class="cls-9" x="670.8" y="223.1" width="21.81" height="17.65"/></g><g class="cls-8"><rect class="cls-9" x="649.65" y="181.52" width="6.57" height="17.64" rx="1.57"/><rect class="cls-9" x="642.03" y="194.1" width="21.81" height="46.64" rx="10.91"/><rect class="cls-9" x="642.03" y="223.1" width="21.81" height="17.65"/></g><g class="cls-8"><rect class="cls-9" x="1200.9" y="181.18" width="6.57" height="17.64" rx="1.57"/><rect class="cls-9" x="1193.28" y="193.76" width="21.81" height="46.64" rx="10.91"/><rect class="cls-9" x="1193.28" y="222.75" width="21.81" height="17.65"/></g><g class="cls-8"><rect class="cls-9" x="734.69" y="181.52" width="6.57" height="17.64" rx="1.57"/><rect class="cls-9" x="727.07" y="197.62" width="21.81" height="43.12" rx="6.97"/><rect class="cls-9" x="727.07" y="223.1" width="21.81" height="17.65"/></g><g class="cls-8"><rect class="cls-9" x="750.68" y="181.52" width="6.57" height="17.64" rx="1.57"/><rect class="cls-9" x="743.06" y="197.62" width="21.81" height="43.12" rx="6.97"/><rect class="cls-9" x="743.06" y="223.1" width="21.81" height="17.65"/></g><g class="cls-10"><ellipse class="cls-12" cx="253.01" cy="436.79" rx="35.97" ry="2.35"/><ellipse class="cls-13" cx="253.01" cy="504.15" rx="22.47" ry="3.24"/><line class="cls-14" x1="253.01" y1="466.08" x2="253.01" y2="500.91"/><path class="cls-15" d="M289,436.79l-34.36,29.35h-3.26L217,436.79a11.87,11.87,0,0,0,4.65,1.16l4.46.4,4.32.27,3.69.17,4.45.16,6.35.13,8,.06s10.22.06,10.24-.09l7.2-.2,8.87-.46,5.56-.51S287.72,437.72,289,436.79Z"/></g><path class="cls-16" d="M224.25,442.48s2.41-.36,3,0,8.48.28,8.64,0,11.25-.6,12.25,0,15.79.48,16.11.2a4.79,4.79,0,0,1,1.85-.57c-.2.13,1.32.06,1.67.39s7.29,0,7.29,0a17.49,17.49,0,0,0,4.09,0,7.28,7.28,0,0,1,2.65,0l-27.15,23.6h-3.26Z"/><g class="cls-11"><circle class="cls-17" cx="236.4" cy="450.31" r="1.64"/><ellipse class="cls-18" cx="236.88" cy="449.89" rx="0.75" ry="0.94"/></g><circle class="cls-17" cx="244.82" cy="454.66" r="1.64"/><ellipse class="cls-18" cx="245.58" cy="454.3" rx="0.75" ry="0.94"/><g class="cls-11"><circle class="cls-17" cx="257.93" cy="443.18" r="1.64"/><ellipse class="cls-18" cx="258.68" cy="442.81" rx="0.75" ry="0.94"/></g><circle class="cls-17" cx="265.11" cy="453.27" r="1.64"/><ellipse class="cls-18" cx="265.86" cy="452.9" rx="0.75" ry="0.94"/><circle class="cls-17" cx="258.75" cy="457.77" r="1.64"/><ellipse class="cls-18" cx="259.5" cy="457.4" rx="0.75" ry="0.94"/><circle class="cls-17" cx="260.83" cy="453.84" r="0.82"/><ellipse class="cls-18" cx="261.21" cy="453.66" rx="0.38" ry="0.47"/><circle class="cls-17" cx="256.29" cy="455.24" r="0.82"/><ellipse class="cls-18" cx="256.67" cy="455.06" rx="0.38" ry="0.47"/><path class="cls-19" d="M252.84,462.78l28.06-38.13s1-2.81,3.52-1.59,16,7.34,16,7.34l-1.11,1.67-15-6.56s-1.33-1.56-1.89.67-28.09,37.42-28.09,37.42Z"/><g class="cls-10"><ellipse class="cls-12" cx="299.38" cy="444.97" rx="35.97" ry="2.35"/><ellipse class="cls-13" cx="299.38" cy="512.33" rx="22.47" ry="3.24"/><line class="cls-14" x1="299.38" y1="474.26" x2="299.38" y2="509.09"/><path class="cls-15" d="M335.36,445,301,474.32h-3.25L263.41,445a11.87,11.87,0,0,0,4.65,1.16l4.46.41,4.32.26,3.7.17,4.44.16,6.35.13,8.05.06s10.22.06,10.25-.09l7.19-.2,8.88-.46,5.55-.51S334.1,445.9,335.36,445Z"/></g><path class="cls-16" d="M270.62,450.66s2.41-.36,3,0,8.48.28,8.64,0,11.25-.6,12.25,0,15.79.49,16.11.2a4.79,4.79,0,0,1,1.85-.57c-.2.13,1.33.06,1.67.4s7.29,0,7.29,0a18.15,18.15,0,0,0,4.1,0,7.06,7.06,0,0,1,2.65,0L301,474.32h-3.25Z"/><g class="cls-11"><circle class="cls-17" cx="282.77" cy="458.5" r="1.64"/><ellipse class="cls-18" cx="283.26" cy="458.07" rx="0.75" ry="0.94"/></g><circle class="cls-17" cx="291.2" cy="462.84" r="1.64"/><ellipse class="cls-18" cx="291.95" cy="462.48" rx="0.75" ry="0.94"/><g class="cls-11"><circle class="cls-17" cx="304.3" cy="451.36" r="1.64"/><ellipse class="cls-18" cx="305.06" cy="450.99" rx="0.75" ry="0.94"/></g><circle class="cls-17" cx="311.48" cy="461.45" r="1.64"/><ellipse class="cls-18" cx="312.23" cy="461.08" rx="0.75" ry="0.94"/><circle class="cls-17" cx="305.12" cy="465.95" r="1.64"/><ellipse class="cls-18" cx="305.88" cy="465.59" rx="0.75" ry="0.94"/><circle class="cls-17" cx="307.21" cy="462.02" r="0.82"/><ellipse class="cls-18" cx="307.58" cy="461.84" rx="0.38" ry="0.47"/><circle class="cls-17" cx="302.66" cy="463.42" r="0.82"/><ellipse class="cls-18" cx="303.04" cy="463.24" rx="0.38" ry="0.47"/><path class="cls-19" d="M299.21,471l28.06-38.13s1-2.81,3.52-1.59,16,7.35,16,7.35l-1.11,1.66-15-6.56s-1.33-1.56-1.88.67-28.1,37.42-28.1,37.42Z"/><g class="cls-10"><ellipse class="cls-20" cx="1208.87" cy="274.89" rx="17.8" ry="1.16"/><ellipse class="cls-21" cx="1208.87" cy="308.22" rx="11.11" ry="1.6"/><path class="cls-21" d="M1226.67,274.89l-17,14.52h-1.61l-17-14.52a5.89,5.89,0,0,0,2.3.58l2.2.2,2.14.13,1.83.09,2.2.07,3.14.07,4,0s5.06,0,5.07-.05l3.56-.1,4.39-.22,2.74-.26A5,5,0,0,0,1226.67,274.89Z"/><rect class="cls-21" x="1208.06" y="289.41" width="1.82" height="17.21"/></g><g class="cls-10"><ellipse class="cls-20" cx="1192.08" cy="274.89" rx="17.8" ry="1.16"/><ellipse class="cls-21" cx="1192.08" cy="308.22" rx="11.11" ry="1.6"/><path class="cls-21" d="M1209.87,274.89l-17,14.52h-1.61l-17-14.52a6,6,0,0,0,2.3.58l2.21.2,2.13.13,1.83.09,2.2.07,3.15.07,4,0s5.05,0,5.06-.05l3.56-.1,4.39-.22,2.75-.26A4.88,4.88,0,0,0,1209.87,274.89Z"/><rect class="cls-21" x="1191.26" y="289.41" width="1.82" height="17.21"/></g><g class="cls-10"><ellipse class="cls-20" cx="1178.39" cy="274.89" rx="17.8" ry="1.16"/><ellipse class="cls-21" cx="1178.39" cy="308.22" rx="11.11" ry="1.6"/><path class="cls-21" d="M1196.19,274.89l-17,14.52h-1.61l-17-14.52a6,6,0,0,0,2.3.58l2.21.2,2.14.13,1.83.09,2.2.07,3.14.07,4,0s5,0,5.07-.05l3.56-.1,4.39-.22,2.74-.26A5,5,0,0,0,1196.19,274.89Z"/><rect class="cls-21" x="1177.57" y="289.41" width="1.82" height="17.21"/></g><g class="cls-10"><ellipse class="cls-20" cx="1209.87" cy="274.89" rx="17.8" ry="1.16"/><ellipse class="cls-21" cx="1209.87" cy="308.22" rx="11.11" ry="1.6"/><path class="cls-21" d="M1227.67,274.89l-17,14.52h-1.61l-17-14.52a5.89,5.89,0,0,0,2.3.58l2.21.2,2.13.13,1.83.09,2.2.07,3.14.07,4,0s5.06,0,5.07-.05l3.56-.1,4.39-.22,2.75-.26A4.91,4.91,0,0,0,1227.67,274.89Z"/><rect class="cls-21" x="1209.06" y="289.41" width="1.82" height="17.21"/></g><g class="cls-10"><ellipse class="cls-20" cx="1018.56" cy="274.15" rx="17.8" ry="1.16"/><ellipse class="cls-21" cx="1018.56" cy="307.47" rx="11.11" ry="1.6"/><path class="cls-21" d="M1036.36,274.15l-17,14.52h-1.61l-17-14.52a5.79,5.79,0,0,0,2.3.57l2.2.2,2.14.14,1.83.08,2.2.08,3.14.07,4,0s5.05,0,5.07,0l3.56-.1,4.39-.23,2.74-.25A5,5,0,0,0,1036.36,274.15Z"/><rect class="cls-21" x="1017.75" y="288.67" width="1.82" height="17.21"/></g><g class="cls-10"><ellipse class="cls-20" cx="1046.01" cy="274.15" rx="17.8" ry="1.16"/><ellipse class="cls-21" cx="1046.01" cy="307.47" rx="11.11" ry="1.6"/><path class="cls-21" d="M1063.8,274.15l-17,14.52h-1.61l-17-14.52a5.86,5.86,0,0,0,2.3.57l2.21.2,2.13.14,1.83.08,2.2.08,3.14.07,4,0s5,0,5.06,0l3.56-.1,4.39-.23,2.75-.25A4.88,4.88,0,0,0,1063.8,274.15Z"/><rect class="cls-21" x="1045.19" y="288.67" width="1.82" height="17.21"/></g><g class="cls-10"><ellipse class="cls-20" cx="1101.73" cy="274.15" rx="17.8" ry="1.16"/><ellipse class="cls-21" cx="1101.73" cy="307.47" rx="11.11" ry="1.6"/><path class="cls-21" d="M1119.53,274.15l-17,14.52h-1.61l-17-14.52a5.79,5.79,0,0,0,2.3.57l2.21.2,2.13.14,1.83.08,2.2.08,3.14.07,4,0s5.06,0,5.07,0l3.56-.1,4.39-.23,2.75-.25A4.88,4.88,0,0,0,1119.53,274.15Z"/><rect class="cls-21" x="1100.92" y="288.67" width="1.82" height="17.21"/></g><g class="cls-10"><ellipse class="cls-20" cx="1135.11" cy="274.15" rx="17.8" ry="1.16"/><ellipse class="cls-21" cx="1135.11" cy="307.47" rx="11.11" ry="1.6"/><path class="cls-21" d="M1152.9,274.15l-17,14.52h-1.61l-17-14.52a5.86,5.86,0,0,0,2.3.57l2.21.2,2.14.14,1.82.08,2.2.08,3.15.07,4,0s5.05,0,5.07,0l3.55-.1,4.39-.23,2.75-.25A4.88,4.88,0,0,0,1152.9,274.15Z"/><rect class="cls-21" x="1134.29" y="288.67" width="1.82" height="17.21"/></g><g class="cls-10"><ellipse class="cls-20" cx="1200.9" cy="350.98" rx="17.8" ry="1.16"/><ellipse class="cls-21" cx="1200.9" cy="317.66" rx="11.11" ry="1.6"/><path class="cls-21" d="M1183.1,351l17-14.51h1.61l17,14.51a6,6,0,0,0-2.3-.57l-2.21-.2-2.13-.13-1.83-.09-2.2-.07-3.14-.07-4,0s-5.06,0-5.07.05l-3.56.1-4.39.22-2.75.25A4.91,4.91,0,0,0,1183.1,351Z"/><rect class="cls-21" x="1199.9" y="319.26" width="1.82" height="17.21" transform="translate(2401.61 655.72) rotate(-180)"/></g><g class="cls-10"><ellipse class="cls-20" cx="1159.78" cy="350.57" rx="17.8" ry="1.16"/><ellipse class="cls-21" cx="1159.78" cy="317.24" rx="11.11" ry="1.6"/><path class="cls-21" d="M1142,350.57l17-14.52h1.61l17,14.52a5.89,5.89,0,0,0-2.3-.58l-2.2-.2-2.14-.13-1.83-.08-2.2-.08-3.14-.07-4,0s-5,0-5.07.05l-3.56.1-4.39.22L1144,350A5,5,0,0,0,1142,350.57Z"/><rect class="cls-21" x="1158.78" y="318.84" width="1.82" height="17.21" transform="translate(2319.37 654.89) rotate(-180)"/></g><g class="cls-10"><ellipse class="cls-20" cx="1159.78" cy="350.57" rx="17.8" ry="1.16"/><ellipse class="cls-21" cx="1159.78" cy="317.24" rx="11.11" ry="1.6"/><path class="cls-21" d="M1142,350.57l17-14.52h1.61l17,14.52a5.89,5.89,0,0,0-2.3-.58l-2.2-.2-2.14-.13-1.83-.08-2.2-.08-3.14-.07-4,0s-5,0-5.07.05l-3.56.1-4.39.22L1144,350A5,5,0,0,0,1142,350.57Z"/><rect class="cls-21" x="1158.78" y="318.84" width="1.82" height="17.21" transform="translate(2319.37 654.89) rotate(-180)"/></g><g class="cls-10"><ellipse class="cls-20" cx="1200.8" cy="350.57" rx="17.8" ry="1.16"/><ellipse class="cls-21" cx="1200.8" cy="317.24" rx="11.11" ry="1.6"/><path class="cls-21" d="M1183,350.57l17-14.52h1.61l17,14.52a6,6,0,0,0-2.3-.58l-2.21-.2-2.13-.13-1.83-.08-2.2-.08-3.14-.07-4,0s-5,0-5.06.05l-3.56.1-4.39.22L1185,350A4.88,4.88,0,0,0,1183,350.57Z"/><rect class="cls-21" x="1199.8" y="318.84" width="1.82" height="17.21" transform="translate(2401.42 654.89) rotate(-180)"/></g><g class="cls-10"><ellipse class="cls-20" cx="1117.58" cy="350.05" rx="17.8" ry="1.16"/><ellipse class="cls-21" cx="1117.58" cy="316.73" rx="11.11" ry="1.6"/><path class="cls-21" d="M1099.79,350.05l17-14.52h1.61l17,14.52a5.86,5.86,0,0,0-2.3-.57l-2.21-.2-2.13-.14-1.83-.08-2.2-.08-3.14-.06-4,0s-5,0-5.06.05L1109,349l-4.39.23-2.75.25A4.88,4.88,0,0,0,1099.79,350.05Z"/><rect class="cls-21" x="1116.58" y="318.32" width="1.82" height="17.21" transform="translate(2234.98 653.86) rotate(-180)"/></g><g class="cls-10"><ellipse class="cls-20" cx="1118.26" cy="350.56" rx="17.8" ry="1.16"/><ellipse class="cls-21" cx="1118.26" cy="317.24" rx="11.11" ry="1.6"/><path class="cls-21" d="M1100.47,350.56l17-14.52h1.61l17,14.52a6,6,0,0,0-2.3-.58l-2.21-.2-2.13-.13-1.83-.08-2.2-.08-3.14-.07-4,0s-5,0-5.06.05l-3.56.1-4.39.22-2.75.26A4.88,4.88,0,0,0,1100.47,350.56Z"/><rect class="cls-21" x="1117.26" y="318.83" width="1.82" height="17.21" transform="translate(2236.34 654.87) rotate(-180)"/></g><g class="cls-8"><rect class="cls-9" x="1196.5" y="99.18" width="8.15" height="21.87" rx="1.57"/><rect class="cls-9" x="1187.05" y="119.15" width="27.05" height="53.46" rx="6.97"/><rect class="cls-9" x="1187.05" y="150.73" width="27.05" height="21.88"/></g><g class="cls-8"><rect class="cls-9" x="1041.12" y="99.18" width="8.15" height="21.87" rx="1.57"/><rect class="cls-9" x="1031.67" y="119.15" width="27.05" height="53.46" rx="6.97"/><rect class="cls-9" x="1031.67" y="150.73" width="27.05" height="21.88"/></g><g class="cls-8"><rect class="cls-9" x="1089.55" y="99.18" width="8.15" height="21.87" rx="1.57"/><rect class="cls-9" x="1080.11" y="119.15" width="27.05" height="53.46" rx="6.97"/><rect class="cls-9" x="1080.11" y="150.73" width="27.05" height="21.88"/></g><g class="cls-8"><rect class="cls-9" x="1144.59" y="99.18" width="8.15" height="21.87" rx="1.57"/><rect class="cls-9" x="1135.14" y="119.15" width="27.05" height="53.46" rx="6.97"/><rect class="cls-9" x="1135.14" y="150.73" width="27.05" height="21.88"/></g><g class="cls-8"><rect class="cls-9" x="832.61" y="99.18" width="8.15" height="21.87" rx="1.57"/><rect class="cls-9" x="823.16" y="119.15" width="27.05" height="53.46" rx="6.97"/><rect class="cls-9" x="823.16" y="150.73" width="27.05" height="21.88"/></g><g class="cls-8"><rect class="cls-9" x="882.71" y="99.18" width="8.15" height="21.87" rx="1.57"/><rect class="cls-9" x="873.26" y="119.15" width="27.05" height="53.46" rx="6.97"/><rect class="cls-9" x="873.26" y="150.73" width="27.05" height="21.88"/></g><g class="cls-8"><rect class="cls-9" x="937.69" y="99.18" width="8.15" height="21.87" rx="1.57"/><rect class="cls-9" x="928.25" y="119.15" width="27.05" height="53.46" rx="6.97"/><rect class="cls-9" x="928.25" y="150.73" width="27.05" height="21.88"/></g><g class="cls-8"><rect class="cls-9" x="989.85" y="99.18" width="8.15" height="21.87" rx="1.57"/><rect class="cls-9" x="980.4" y="119.15" width="27.05" height="53.46" rx="6.97"/><rect class="cls-9" x="980.4" y="150.73" width="27.05" height="21.88"/></g><g class="cls-8"><rect class="cls-9" x="738.98" y="99.18" width="8.15" height="21.87" rx="1.57"/><rect class="cls-9" x="729.53" y="119.15" width="27.05" height="53.46" rx="6.97"/><rect class="cls-9" x="729.53" y="150.73" width="27.05" height="21.88"/></g><g class="cls-8"><rect class="cls-9" x="782.33" y="99.18" width="8.15" height="21.87" rx="1.57"/><rect class="cls-9" x="772.88" y="119.15" width="27.05" height="53.46" rx="6.97"/><rect class="cls-9" x="772.88" y="150.73" width="27.05" height="21.88"/></g><g class="cls-8"><rect class="cls-9" x="606.36" y="99.18" width="8.15" height="21.87" rx="1.57"/><rect class="cls-9" x="596.91" y="119.15" width="27.05" height="53.46" rx="6.97"/><rect class="cls-9" x="596.91" y="150.73" width="27.05" height="21.88"/></g><g class="cls-8"><rect class="cls-9" x="653.78" y="99.18" width="8.15" height="21.87" rx="1.57"/><rect class="cls-9" x="644.33" y="119.15" width="27.05" height="53.46" rx="6.97"/><rect class="cls-9" x="644.33" y="150.73" width="27.05" height="21.88"/></g><g class="cls-8"><rect class="cls-9" x="695.34" y="99.18" width="8.15" height="21.87" rx="1.57"/><rect class="cls-9" x="685.9" y="119.15" width="27.05" height="53.46" rx="6.97"/><rect class="cls-9" x="685.9" y="150.73" width="27.05" height="21.88"/></g><polygon class="cls-22" points="582.04 419.19 603.86 409.2 1241.9 419.19 582.04 419.19"/><polygon points="1215.09 409.2 1241.9 419.19 582.04 419.19 596.24 409.2 1215.09 409.2"/><g class="cls-8"><rect class="cls-9" x="1199.9" y="358.39" width="6.57" height="17.64" rx="1.57"/><rect class="cls-9" x="1192.28" y="370.97" width="21.81" height="46.64" rx="10.91"/><rect class="cls-9" x="1192.28" y="399.97" width="21.81" height="17.65"/></g><g class="cls-8"><rect class="cls-9" x="606.89" y="358.83" width="6.57" height="17.64" rx="1.57"/><rect class="cls-9" x="599.27" y="371.41" width="21.81" height="46.64" rx="10.91"/><rect class="cls-9" x="599.27" y="400.4" width="21.81" height="17.65"/></g><g class="cls-8"><rect class="cls-9" x="637.95" y="339.76" width="8.15" height="21.87" rx="1.57"/><rect class="cls-9" x="628.5" y="359.72" width="27.05" height="53.46" rx="6.97"/><rect class="cls-9" x="628.5" y="391.3" width="27.05" height="21.88"/></g><g class="cls-10"><ellipse class="cls-20" cx="1135.38" cy="274.49" rx="17.8" ry="1.16"/><ellipse class="cls-21" cx="1135.38" cy="307.82" rx="11.11" ry="1.6"/><path class="cls-21" d="M1153.18,274.49l-17,14.52h-1.61l-17-14.52a6,6,0,0,0,2.3.58l2.21.2,2.14.13,1.83.09,2.2.07,3.14.07,4,0s5,0,5.07-.05l3.56-.1,4.39-.22,2.74-.25A4.85,4.85,0,0,0,1153.18,274.49Z"/><rect class="cls-21" x="1134.57" y="289.01" width="1.82" height="17.21"/></g><g class="cls-10"><ellipse class="cls-20" cx="1101.83" cy="274.49" rx="17.8" ry="1.16"/><ellipse class="cls-21" cx="1101.83" cy="307.82" rx="11.11" ry="1.6"/><path class="cls-21" d="M1119.62,274.49l-17,14.52H1101l-17-14.52a6,6,0,0,0,2.3.58l2.21.2,2.13.13,1.83.09,2.2.07,3.15.07,4,0s5.05,0,5.06-.05l3.56-.1,4.39-.22,2.75-.25A4.79,4.79,0,0,0,1119.62,274.49Z"/><rect class="cls-21" x="1101.01" y="289.01" width="1.82" height="17.21"/></g><g class="cls-10"><ellipse class="cls-20" cx="1046.01" cy="274.08" rx="17.8" ry="1.16"/><ellipse class="cls-21" cx="1046.01" cy="307.4" rx="11.11" ry="1.6"/><path class="cls-21" d="M1063.8,274.08l-17,14.52h-1.61l-17-14.52a6.07,6.07,0,0,0,2.3.57l2.21.2,2.13.13,1.83.09,2.2.07,3.14.07,4,0s5,0,5.06-.05l3.56-.09,4.39-.23,2.75-.25A4.88,4.88,0,0,0,1063.8,274.08Z"/><rect class="cls-21" x="1045.19" y="288.6" width="1.82" height="17.21"/></g><g class="cls-10"><ellipse class="cls-20" cx="1046.1" cy="274.08" rx="17.8" ry="1.16"/><ellipse class="cls-21" cx="1046.1" cy="307.4" rx="11.11" ry="1.6"/><path class="cls-21" d="M1063.89,274.08l-17,14.52h-1.61l-17-14.52a6.07,6.07,0,0,0,2.3.57l2.21.2,2.14.13,1.83.09,2.2.07,3.14.07,4,0s5.05,0,5.07-.05l3.55-.09,4.4-.23,2.74-.25A4.88,4.88,0,0,0,1063.89,274.08Z"/><rect class="cls-21" x="1045.28" y="288.6" width="1.82" height="17.21"/></g><g class="cls-10"><ellipse class="cls-20" cx="1117.31" cy="350.17" rx="17.8" ry="1.16"/><ellipse class="cls-21" cx="1117.31" cy="316.85" rx="11.11" ry="1.6"/><path class="cls-21" d="M1099.52,350.17l17-14.52h1.61l17,14.52a5.86,5.86,0,0,0-2.3-.57l-2.21-.21-2.14-.13-1.82-.08-2.2-.08-3.15-.07-4,0s-5,0-5.06.05l-3.56.1-4.39.22-2.75.26A4.88,4.88,0,0,0,1099.52,350.17Z"/><rect class="cls-21" x="1116.31" y="318.44" width="1.82" height="17.21" transform="translate(2234.44 654.09) rotate(-180)"/></g><g class="cls-8"><rect class="cls-9" x="882.71" y="99.18" width="8.15" height="21.87" rx="1.57"/><rect class="cls-9" x="873.26" y="119.15" width="27.05" height="53.46" rx="6.97"/><rect class="cls-9" x="873.26" y="150.73" width="27.05" height="21.88"/></g><g class="cls-8"><rect class="cls-9" x="1041.12" y="99.18" width="8.15" height="21.87" rx="1.57"/><rect class="cls-9" x="1031.67" y="119.15" width="27.05" height="53.46" rx="6.97"/><rect class="cls-9" x="1031.67" y="150.73" width="27.05" height="21.88"/></g><g class="cls-8"><rect class="cls-9" x="1027.99" y="99.18" width="8.15" height="21.87" rx="1.57"/><rect class="cls-9" x="1018.55" y="119.15" width="27.05" height="53.46" rx="6.97"/><rect class="cls-9" x="1018.55" y="150.73" width="27.05" height="21.88"/></g><g class="cls-10"><ellipse class="cls-20" cx="1046.01" cy="274.15" rx="17.8" ry="1.16"/><ellipse class="cls-21" cx="1046.01" cy="307.47" rx="11.11" ry="1.6"/><path class="cls-21" d="M1063.8,274.15l-17,14.52h-1.61l-17-14.52a5.86,5.86,0,0,0,2.3.57l2.21.2,2.13.14,1.83.08,2.2.08,3.14.07,4,0s5,0,5.06,0l3.56-.1,4.39-.23,2.75-.25A4.88,4.88,0,0,0,1063.8,274.15Z"/><rect class="cls-21" x="1045.19" y="288.67" width="1.82" height="17.21"/></g><g class="cls-10"><ellipse class="cls-20" cx="1018.56" cy="274.08" rx="17.8" ry="1.16"/><ellipse class="cls-21" cx="1018.56" cy="307.4" rx="11.11" ry="1.6"/><path class="cls-21" d="M1036.36,274.08l-17,14.52h-1.61l-17-14.52a6,6,0,0,0,2.3.57l2.2.2,2.14.13,1.83.09,2.2.07,3.14.07,4,0s5.05,0,5.07-.05l3.56-.09,4.39-.23,2.74-.25A5,5,0,0,0,1036.36,274.08Z"/><rect class="cls-21" x="1017.75" y="288.6" width="1.82" height="17.21"/></g><g class="cls-10"><ellipse class="cls-20" cx="1117.22" cy="350.17" rx="17.8" ry="1.16"/><ellipse class="cls-21" cx="1117.22" cy="316.85" rx="11.11" ry="1.6"/><path class="cls-21" d="M1099.42,350.17l17-14.52H1118l17,14.52a5.88,5.88,0,0,0-2.31-.57l-2.2-.21-2.14-.13-1.83-.08-2.2-.08-3.14-.07-4,0s-5,0-5.07.05l-3.56.1-4.39.22-2.74.26A5,5,0,0,0,1099.42,350.17Z"/><rect class="cls-21" x="1116.22" y="318.44" width="1.82" height="17.21" transform="translate(2234.25 654.09) rotate(-180)"/></g><g class="cls-10"><ellipse class="cls-20" cx="1159.78" cy="350.57" rx="17.8" ry="1.16"/><ellipse class="cls-21" cx="1159.78" cy="317.24" rx="11.11" ry="1.6"/><path class="cls-21" d="M1142,350.57l17-14.52h1.61l17,14.52a5.89,5.89,0,0,0-2.3-.58l-2.2-.2-2.14-.13-1.83-.08-2.2-.08-3.14-.07-4,0s-5,0-5.07.05l-3.56.1-4.39.22L1144,350A5,5,0,0,0,1142,350.57Z"/><rect class="cls-21" x="1158.78" y="318.84" width="1.82" height="17.21" transform="translate(2319.37 654.89) rotate(-180)"/></g><g class="cls-10"><ellipse class="cls-20" cx="1078.45" cy="350.17" rx="17.8" ry="1.16"/><ellipse class="cls-21" cx="1078.45" cy="316.85" rx="11.11" ry="1.6"/><path class="cls-21" d="M1060.66,350.17l17-14.52h1.61l17,14.52a5.86,5.86,0,0,0-2.3-.57l-2.21-.21-2.14-.13-1.82-.08-2.2-.08-3.15-.07-4,0s-5,0-5.06.05l-3.56.1-4.39.22-2.75.26A4.88,4.88,0,0,0,1060.66,350.17Z"/><rect class="cls-21" x="1077.45" y="318.44" width="1.82" height="17.21" transform="translate(2156.72 654.09) rotate(-180)"/></g><g class="cls-10"><ellipse class="cls-20" cx="1078.45" cy="350.57" rx="17.8" ry="1.16"/><ellipse class="cls-21" cx="1078.45" cy="317.24" rx="11.11" ry="1.6"/><path class="cls-21" d="M1060.66,350.57l17-14.52h1.61l17,14.52a6,6,0,0,0-2.3-.58l-2.21-.2-2.14-.13-1.82-.08-2.2-.08-3.15-.07-4,0s-5,0-5.06.05l-3.56.1-4.39.22-2.75.26A4.88,4.88,0,0,0,1060.66,350.57Z"/><rect class="cls-21" x="1077.45" y="318.84" width="1.82" height="17.21" transform="translate(2156.72 654.89) rotate(-180)"/></g><g class="cls-10"><ellipse class="cls-20" cx="1078.36" cy="350.98" rx="17.8" ry="1.16"/><ellipse class="cls-21" cx="1078.36" cy="317.66" rx="11.11" ry="1.6"/><path class="cls-21" d="M1060.56,351l17-14.51h1.61l17,14.51a6,6,0,0,0-2.3-.57l-2.2-.2-2.14-.13-1.83-.09-2.2-.07-3.14-.07-4,0s-5,0-5.07.05l-3.56.1-4.39.22-2.74.25A5,5,0,0,0,1060.56,351Z"/><rect class="cls-21" x="1077.36" y="319.26" width="1.82" height="17.21" transform="translate(2156.53 655.72) rotate(-180)"/></g><g class="cls-10"><ellipse class="cls-20" cx="1192.28" cy="275.01" rx="17.8" ry="1.16"/><ellipse class="cls-21" cx="1192.28" cy="308.33" rx="11.11" ry="1.6"/><path class="cls-21" d="M1210.08,275l-17,14.52h-1.61l-17-14.52a5.79,5.79,0,0,0,2.3.57l2.21.2,2.13.14,1.83.08,2.2.08,3.14.06,4,0s5.06,0,5.07,0l3.56-.1,4.39-.23,2.75-.25A4.88,4.88,0,0,0,1210.08,275Z"/><rect class="cls-21" x="1191.47" y="289.53" width="1.82" height="17.21"/></g><g class="cls-10"><ellipse class="cls-20" cx="1191.47" cy="274.49" rx="17.8" ry="1.16"/><ellipse class="cls-21" cx="1191.47" cy="307.82" rx="11.11" ry="1.6"/><path class="cls-21" d="M1209.26,274.49l-17,14.52h-1.61l-17-14.52a6,6,0,0,0,2.3.58l2.21.2,2.14.13,1.83.09,2.2.07,3.14.07,4,0s5,0,5.07-.05l3.55-.1,4.4-.22,2.74-.25A4.79,4.79,0,0,0,1209.26,274.49Z"/><rect class="cls-21" x="1190.65" y="289.01" width="1.82" height="17.21"/></g><rect class="cls-23" x="684.96" y="341.84" width="1.77" height="72.98"/><rect class="cls-23" x="682.15" y="340.54" width="1.77" height="72.98"/><rect class="cls-23" x="678.99" y="341.35" width="1.77" height="72.98"/><rect class="cls-23" x="673.87" y="339.76" width="1.77" height="72.98"/><rect class="cls-23" x="686.75" y="341.84" width="1.77" height="72.98" transform="matrix(1, 0.05, -0.05, 1, 19.51, -33.47)"/><rect class="cls-23" x="672.98" y="341.84" width="1.77" height="72.98" transform="translate(-28.59 56.18) rotate(-4.67)"/><rect class="cls-23" x="676.98" y="342.19" width="1.77" height="72.98"/><rect class="cls-23" x="669.35" y="342.19" width="1.77" height="72.98" transform="translate(-42.62 88.07) rotate(-7.29)"/><rect class="cls-23" x="693.61" y="341.35" width="1.77" height="72.98" transform="translate(36.63 -60.69) rotate(5.14)"/><rect class="cls-23" x="689.9" y="341.35" width="1.77" height="72.98" transform="translate(19.49 -33.63) rotate(2.83)"/><rect class="cls-23" x="696.58" y="341.35" width="1.77" height="72.98" transform="translate(51.49 -82.53) rotate(7.03)"/><rect class="cls-23" x="677.9" y="341.5" width="1.77" height="72.98"/><g class="cls-10"><ellipse class="cls-24" cx="683.77" cy="363.55" rx="18.82" ry="2.06"/><ellipse class="cls-24" cx="683.77" cy="414.39" rx="11.75" ry="3.22"/><path class="cls-24" d="M665,363.3s8.72,4.15,37.64,0l-7.07,51.82s-9.91-5.73-23.5,0Z"/></g><path class="cls-25" d="M699.48,363.42,694.18,415H692a146.08,146.08,0,0,1,5.21-51.15Z"/><g class="cls-10"><ellipse class="cls-24" cx="1167.28" cy="204.98" rx="12.86" ry="1.41"/><ellipse class="cls-24" cx="1167.28" cy="239.73" rx="8.03" ry="2.2"/><path class="cls-24" d="M1154.41,204.81s6,2.83,25.73,0l-4.83,35.42s-6.77-3.92-16.07,0Z"/></g><path class="cls-25" d="M1178,204.89l-3.63,35.26h-1.49a100.08,100.08,0,0,1,3.56-35Z"/><g class="cls-10"><ellipse class="cls-24" cx="1136.06" cy="204.75" rx="12.86" ry="1.41"/><ellipse class="cls-24" cx="1136.06" cy="239.5" rx="8.03" ry="2.2"/><path class="cls-24" d="M1123.2,204.58s6,2.83,25.73,0L1144.09,240s-6.77-3.92-16.06,0Z"/></g><path class="cls-25" d="M1146.8,204.65l-3.63,35.27h-1.49a100,100,0,0,1,3.57-35Z"/><g class="cls-10"><ellipse class="cls-24" cx="1107.15" cy="205.32" rx="12.86" ry="1.41"/><ellipse class="cls-24" cx="1107.15" cy="240.07" rx="8.03" ry="2.2"/><path class="cls-24" d="M1094.29,205.15s6,2.84,25.73,0l-4.83,35.42s-6.78-3.92-16.07,0Z"/></g><path class="cls-25" d="M1117.89,205.23l-3.63,35.27h-1.49a100,100,0,0,1,3.57-35Z"/><g class="cls-10"><ellipse class="cls-24" cx="1078.45" cy="206.23" rx="12.86" ry="1.41"/><ellipse class="cls-24" cx="1078.45" cy="240.98" rx="8.03" ry="2.2"/><path class="cls-24" d="M1065.59,206.06s6,2.83,25.73,0l-4.83,35.42s-6.78-3.92-16.07,0Z"/></g><path class="cls-25" d="M1089.19,206.13l-3.63,35.27h-1.48a99.8,99.8,0,0,1,3.56-35Z"/><g class="cls-10"><ellipse class="cls-24" cx="1049.27" cy="206.19" rx="12.86" ry="1.41"/><ellipse class="cls-24" cx="1049.27" cy="240.94" rx="8.03" ry="2.2"/><path class="cls-24" d="M1036.4,206s6,2.83,25.73,0l-4.83,35.42s-6.77-3.92-16.07,0Z"/></g><path class="cls-25" d="M1060,206.1l-3.62,35.26h-1.49a99.8,99.8,0,0,1,3.56-35Z"/><g class="cls-10"><ellipse class="cls-24" cx="1160.59" cy="382.19" rx="12.86" ry="1.41"/><ellipse class="cls-24" cx="1160.59" cy="416.94" rx="8.03" ry="2.2"/><path class="cls-24" d="M1147.73,382s6,2.84,25.73,0l-4.83,35.42s-6.78-3.92-16.07,0Z"/></g><path class="cls-25" d="M1171.33,382.1l-3.62,35.27h-1.49a99.85,99.85,0,0,1,3.56-35Z"/><path class="cls-26" d="M1148.46,387.51s6.29-1.19,9.33,0c0,0,4.79-.89,5.4-.26s8.28-.63,8.66-.27a1,1,0,0,0,.88.23l-4.12,29.73s-.68,2.3-8,2.21-8-1.2-8-1.71S1148.46,387.51,1148.46,387.51Z"/><g class="cls-10"><ellipse class="cls-24" cx="1134.57" cy="377.4" rx="12.86" ry="1.41"/><ellipse class="cls-24" cx="1134.57" cy="412.15" rx="8.03" ry="2.2"/><path class="cls-24" d="M1121.7,377.23s6,2.83,25.73,0l-4.83,35.42s-6.77-3.92-16.07,0Z"/></g><path class="cls-25" d="M1145.3,377.31l-3.62,35.27h-1.49a100.13,100.13,0,0,1,3.56-35Z"/><path class="cls-26" d="M1122.43,382.72s6.3-1.2,9.34,0c0,0,4.78-.89,5.39-.26s8.29-.63,8.67-.27a1,1,0,0,0,.87.23l-4.12,29.73s-.68,2.3-8,2.2-8-1.2-8-1.7S1122.43,382.72,1122.43,382.72Z"/><g class="cls-10"><ellipse class="cls-24" cx="1122.91" cy="382.19" rx="12.86" ry="1.41"/><ellipse class="cls-24" cx="1122.91" cy="416.94" rx="8.03" ry="2.2"/><path class="cls-24" d="M1110,382s6,2.84,25.73,0l-4.83,35.42s-6.77-3.92-16.07,0Z"/></g><path class="cls-25" d="M1133.65,382.1,1130,417.37h-1.49a100.13,100.13,0,0,1,3.56-35Z"/><path class="cls-26" d="M1110.77,387.51s6.3-1.19,9.34,0c0,0,4.79-.89,5.39-.26s8.29-.63,8.67-.27a1,1,0,0,0,.87.23l-4.12,29.73s-.67,2.3-8,2.21-8-1.2-8-1.71S1110.77,387.51,1110.77,387.51Z"/><rect x="0.5" y="-0.35" width="1365" height="12.02"/><rect x="0.5" y="3.43" width="24.5" height="764.93"/><rect x="1341" y="8.38" width="24.5" height="761.26"/><g class="cls-10"><ellipse class="cls-12" cx="784.79" cy="371.64" rx="22.14" ry="1.45"/><ellipse class="cls-13" cx="784.79" cy="413.1" rx="13.83" ry="1.99"/><line class="cls-14" x1="784.79" y1="389.66" x2="784.79" y2="411.11"/><path class="cls-15" d="M806.94,371.64,785.78,389.7h-2l-21.13-18.06a7.38,7.38,0,0,0,2.86.71l2.75.25,2.66.17,2.27.1,2.74.09,3.91.09,4.95,0s6.29,0,6.31-.06l4.43-.13,5.46-.28,3.42-.31A6.14,6.14,0,0,0,806.94,371.64Z"/></g><path class="cls-16" d="M767.09,375.14a5,5,0,0,1,1.83,0,24.23,24.23,0,0,0,5.32,0c.09-.17,6.92-.37,7.54,0s9.72.3,9.91.13a3,3,0,0,1,1.14-.36c-.12.09.82,0,1,.25a32,32,0,0,0,4.49,0,10.82,10.82,0,0,0,2.52,0,4.36,4.36,0,0,1,1.63,0L785.78,389.7h-2Z"/><g class="cls-11"><circle class="cls-17" cx="774.57" cy="379.96" r="1.01"/><ellipse class="cls-18" cx="774.87" cy="379.7" rx="0.46" ry="0.58"/></g><circle class="cls-17" cx="779.75" cy="382.64" r="1.01"/><ellipse class="cls-18" cx="780.22" cy="382.41" rx="0.46" ry="0.58"/><g class="cls-11"><circle class="cls-17" cx="787.82" cy="375.57" r="1.01"/><ellipse class="cls-18" cx="788.29" cy="375.34" rx="0.46" ry="0.58"/></g><circle class="cls-17" cx="792.24" cy="381.78" r="1.01"/><ellipse class="cls-18" cx="792.7" cy="381.55" rx="0.46" ry="0.58"/><circle class="cls-17" cx="788.33" cy="384.55" r="1.01"/><ellipse class="cls-18" cx="788.79" cy="384.33" rx="0.46" ry="0.58"/><circle class="cls-17" cx="789.61" cy="382.13" r="0.5"/><ellipse class="cls-18" cx="789.84" cy="382.02" rx="0.23" ry="0.29"/><circle class="cls-17" cx="786.81" cy="382.99" r="0.5"/><ellipse class="cls-18" cx="787.05" cy="382.88" rx="0.23" ry="0.29"/><path class="cls-19" d="M784.69,387.64,802,364.16a1.55,1.55,0,0,1,2.17-1c1.57.75,9.84,4.52,9.84,4.52l-.68,1-9.23-4s-.82-.95-1.16.42-17.29,23-17.29,23Z"/><g class="cls-10"><ellipse class="cls-3" cx="811.46" cy="374.81" rx="19.93" ry="1.44"/><ellipse class="cls-1" cx="811.46" cy="416.13" rx="12.45" ry="1.98"/><line class="cls-27" x1="811.46" y1="392.77" x2="811.46" y2="414.14"/><path class="cls-28" d="M831.3,374.77l-19,18h-1.8l-19-18a6.13,6.13,0,0,0,2.58.71l2.47.25,2.39.16,2,.11,2.47.09,3.51.09,4.46,0s5.66,0,5.68-.06l4-.12,4.92-.28,3.07-.31A5.09,5.09,0,0,0,831.3,374.77Z"/></g><path class="cls-29" d="M795.52,378.3s1.34-.23,1.65,0a19.58,19.58,0,0,0,4.78,0c.09-.18,6.24-.37,6.79,0s8.75.3,8.93.13a2.54,2.54,0,0,1,1-.36c-.11.08.74,0,.93.25a27.21,27.21,0,0,0,4,0,9.27,9.27,0,0,0,2.27,0,3.56,3.56,0,0,1,1.47,0l-15,14.47h-1.8Z"/><ellipse class="cls-30" cx="815.79" cy="388.03" rx="0.91" ry="1.01"/><ellipse class="cls-31" cx="816.21" cy="387.85" rx="0.42" ry="0.58"/><path class="cls-32" d="M810.67,389.78l15.54-23.4s.54-1.72,2-1,8.86,4.51,8.86,4.51l-.62,1-8.3-4s-.74-1-1.05.41-15.57,23-15.57,23Z"/><ellipse class="cls-30" cx="808.55" cy="386.1" rx="0.91" ry="1.01"/><ellipse class="cls-31" cx="808.96" cy="385.92" rx="0.42" ry="0.58"/><ellipse class="cls-30" cx="809.19" cy="382.26" rx="0.45" ry="0.5"/><ellipse class="cls-31" cx="809.4" cy="382.17" rx="0.21" ry="0.29"/><ellipse class="cls-30" cx="805.4" cy="382.76" rx="0.91" ry="1.01"/><ellipse class="cls-31" cx="805.82" cy="382.58" rx="0.42" ry="0.58"/><ellipse class="cls-30" cx="816.7" cy="383.98" rx="0.45" ry="0.5"/><ellipse class="cls-31" cx="816.91" cy="383.89" rx="0.21" ry="0.29"/><ellipse class="cls-30" cx="818.06" cy="383.48" rx="0.45" ry="0.5"/><ellipse class="cls-31" cx="818.27" cy="383.38" rx="0.21" ry="0.29"/><ellipse class="cls-30" cx="800.75" cy="379.47" rx="0.45" ry="0.5"/><ellipse class="cls-31" cx="800.96" cy="379.38" rx="0.21" ry="0.29"/><ellipse class="cls-30" cx="813.61" cy="378.58" rx="0.45" ry="0.5"/><ellipse class="cls-31" cx="813.81" cy="378.49" rx="0.21" ry="0.29"/></svg>