<svg id="Layer_1" data-name="Layer 1" xmlns="http://www.w3.org/2000/svg" xmlns:xlink="http://www.w3.org/1999/xlink" width="262.13" height="293.03" viewBox="0 0 262.13 293.03"><defs><style>.cls-1,.cls-11,.cls-13,.cls-15,.cls-17,.cls-19,.cls-21,.cls-7,.cls-9{opacity:0.6;}.cls-2,.cls-4{opacity:0.3;}.cls-2{fill:url(#linear-gradient);}.cls-3{opacity:0.4;fill:url(#linear-gradient-2);}.cls-4{stroke:#000;stroke-width:5px;fill:url(#linear-gradient-3);}.cls-23,.cls-4{stroke-miterlimit:10;}.cls-5{opacity:0.2;fill:url(#linear-gradient-4);}.cls-6{opacity:0.5;fill:url(#linear-gradient-5);}.cls-7{fill:url(#linear-gradient-6);}.cls-8{fill:url(#linear-gradient-7);}.cls-9{fill:url(#linear-gradient-8);}.cls-10{fill:url(#linear-gradient-9);}.cls-11{fill:url(#linear-gradient-10);}.cls-12{fill:url(#linear-gradient-11);}.cls-13{fill:url(#linear-gradient-12);}.cls-14{fill:url(#linear-gradient-13);}.cls-15{fill:url(#linear-gradient-14);}.cls-16{fill:url(#linear-gradient-15);}.cls-17{fill:url(#linear-gradient-16);}.cls-18{fill:url(#linear-gradient-17);}.cls-19{fill:url(#linear-gradient-18);}.cls-20{fill:url(#linear-gradient-19);}.cls-21{fill:url(#linear-gradient-20);}.cls-22{fill:url(#linear-gradient-21);}.cls-23{fill:#ff00d0;stroke:#ff0;}</style><linearGradient id="linear-gradient" x1="1.68" y1="10.87" x2="261.07" y2="10.87" gradientUnits="userSpaceOnUse"><stop offset="0" stop-color="#fff"/><stop offset="0" stop-color="#f7f7ff"/><stop offset="0" stop-color="#ebe7d9"/><stop offset="1" stop-color="#2962ff"/></linearGradient><linearGradient id="linear-gradient-2" x1="50.38" y1="278.65" x2="212.37" y2="278.65" xlink:href="#linear-gradient"/><linearGradient id="linear-gradient-3" x1="131.37" y1="196.54" x2="131.37" y2="196.54" xlink:href="#linear-gradient"/><linearGradient id="linear-gradient-4" x1="1.07" y1="68.96" x2="260.45" y2="68.96" xlink:href="#linear-gradient"/><linearGradient id="linear-gradient-5" x1="27.68" y1="79.81" x2="235.07" y2="79.81" xlink:href="#linear-gradient"/><linearGradient id="linear-gradient-6" x1="153.66" y1="96.57" x2="165.48" y2="96.57" xlink:href="#linear-gradient"/><linearGradient id="linear-gradient-7" x1="159.57" y1="95.4" x2="165" y2="95.4" xlink:href="#linear-gradient"/><linearGradient id="linear-gradient-8" x1="106.51" y1="84.04" x2="118.33" y2="84.04" xlink:href="#linear-gradient"/><linearGradient id="linear-gradient-9" x1="112.42" y1="82.86" x2="117.84" y2="82.86" xlink:href="#linear-gradient"/><linearGradient id="linear-gradient-10" x1="113.68" y1="59.17" x2="119.59" y2="59.17" xlink:href="#linear-gradient"/><linearGradient id="linear-gradient-11" x1="116.64" y1="58.58" x2="119.35" y2="58.58" xlink:href="#linear-gradient"/><linearGradient id="linear-gradient-12" x1="86.07" y1="62.43" x2="97.89" y2="62.43" xlink:href="#linear-gradient"/><linearGradient id="linear-gradient-13" x1="91.98" y1="61.26" x2="97.41" y2="61.26" xlink:href="#linear-gradient"/><linearGradient id="linear-gradient-14" x1="162.53" y1="70.31" x2="168.44" y2="70.31" xlink:href="#linear-gradient"/><linearGradient id="linear-gradient-15" x1="165.48" y1="69.73" x2="168.2" y2="69.73" xlink:href="#linear-gradient"/><linearGradient id="linear-gradient-16" x1="171.34" y1="67.05" x2="177.25" y2="67.05" xlink:href="#linear-gradient"/><linearGradient id="linear-gradient-17" x1="174.3" y1="66.46" x2="177.01" y2="66.46" xlink:href="#linear-gradient"/><linearGradient id="linear-gradient-18" x1="58.76" y1="41.11" x2="64.67" y2="41.11" xlink:href="#linear-gradient"/><linearGradient id="linear-gradient-19" x1="61.72" y1="40.52" x2="64.43" y2="40.52" xlink:href="#linear-gradient"/><linearGradient id="linear-gradient-20" x1="142.39" y1="35.33" x2="148.3" y2="35.33" xlink:href="#linear-gradient"/><linearGradient id="linear-gradient-21" x1="145.34" y1="34.74" x2="148.06" y2="34.74" xlink:href="#linear-gradient"/></defs><g class="cls-1"><ellipse class="cls-2" cx="131.37" cy="10.87" rx="129.69" ry="9.35"/><ellipse class="cls-3" cx="131.37" cy="278.65" rx="80.99" ry="12.86"/><line class="cls-4" x1="131.37" y1="127.3" x2="131.37" y2="265.79"/><path class="cls-5" d="M260.45,10.62,136.55,127.3H124.82L1.07,10.62a40.07,40.07,0,0,0,16.76,4.61l16.09,1.61,15.56,1.07,13.33.68,16,.61,22.9.54,29,.24s36.82.21,36.92-.39l25.94-.78,32-1.81,20-2S255.9,14.33,260.45,10.62Z"/></g><path class="cls-6" d="M27.68,33.49s8.69-1.44,10.72,0,30.55,1.12,31.13,0,40.56-2.4,44.18.16,56.93,1.93,58.08.8,7.38-2.82,6.65-2.29,4.79.25,6,1.59,26.28,0,26.28,0,11.3,1.22,14.77,0,9.56,0,9.56,0l-97.9,93.8H125.44Z"/><ellipse class="cls-7" cx="159.57" cy="96.57" rx="5.91" ry="6.53"/><ellipse class="cls-8" cx="162.29" cy="95.4" rx="2.71" ry="3.75"/><ellipse class="cls-9" cx="112.42" cy="84.04" rx="5.91" ry="6.53"/><ellipse class="cls-10" cx="115.13" cy="82.86" rx="2.71" ry="3.75"/><ellipse class="cls-11" cx="116.64" cy="59.17" rx="2.96" ry="3.26"/><ellipse class="cls-12" cx="117.99" cy="58.58" rx="1.36" ry="1.87"/><ellipse class="cls-13" cx="91.98" cy="62.43" rx="5.91" ry="6.53"/><ellipse class="cls-14" cx="94.69" cy="61.26" rx="2.71" ry="3.75"/><ellipse class="cls-15" cx="165.48" cy="70.31" rx="2.96" ry="3.26"/><ellipse class="cls-16" cx="166.84" cy="69.73" rx="1.36" ry="1.87"/><ellipse class="cls-17" cx="174.3" cy="67.05" rx="2.96" ry="3.26"/><ellipse class="cls-18" cx="175.66" cy="66.46" rx="1.36" ry="1.87"/><ellipse class="cls-19" cx="61.72" cy="41.11" rx="2.96" ry="3.26"/><ellipse class="cls-20" cx="63.08" cy="40.52" rx="1.36" ry="1.87"/><ellipse class="cls-21" cx="145.34" cy="35.33" rx="2.96" ry="3.26"/><ellipse class="cls-22" cx="146.7" cy="34.74" rx="1.36" ry="1.87"/><path class="cls-23" d="M83,53.84a21.17,21.17,0,0,0,2.85.68,21,21,0,0,0,2.82.49,25.9,25.9,0,0,0,3.19.19c1.89,0,2.85-.7,2.85-2.11a2.37,2.37,0,0,0-.87-1.64,27.25,27.25,0,0,0-2.2-1.86c-.89-.68-1.84-1.43-2.85-2.26a20.2,20.2,0,0,1-2.85-2.85,14.84,14.84,0,0,1-2.2-3.62,11.52,11.52,0,0,1-.87-4.61,11.82,11.82,0,0,1,1.06-5.15,10.33,10.33,0,0,1,2.91-3.71,13,13,0,0,1,4.37-2.26,17.88,17.88,0,0,1,5.35-.78,27,27,0,0,1,3,.16l2.66.28c.91.12,1.8.24,2.66.37V36.74l-1.11-.12-1.12-.13c-.41,0-.84-.06-1.3-.06l-.93,0a5,5,0,0,0-1,.16,2.09,2.09,0,0,0-.87.43,1.1,1.1,0,0,0-.37.87c0,.33.28.74.84,1.24s1.24,1.07,2,1.73,1.7,1.43,2.67,2.29a18.66,18.66,0,0,1,2.66,3,16.76,16.76,0,0,1,2,3.77,12.66,12.66,0,0,1,.84,4.71,14.78,14.78,0,0,1-.87,5.11,10.79,10.79,0,0,1-2.69,4.15,12.84,12.84,0,0,1-4.68,2.79,20.06,20.06,0,0,1-6.75,1,42.25,42.25,0,0,1-4.37-.21c-1.34-.15-2.53-.32-3.56-.53A30.3,30.3,0,0,1,83,66.23Zm5.2,7.43c.58.12,1.2.23,1.86.31s1.19.16,1.83.22,1.29.09,1.95.09a14,14,0,0,0,3.37-.4,8.51,8.51,0,0,0,3-1.33,7,7,0,0,0,2.07-2.39,7.46,7.46,0,0,0,.78-3.56,6.9,6.9,0,0,0-.9-3.41,16.23,16.23,0,0,0-2.29-3.09,35,35,0,0,0-3-2.85q-1.57-1.36-3-2.76a16.54,16.54,0,0,1-2.29-2.79,5.24,5.24,0,0,1-.9-2.88A4.26,4.26,0,0,1,92.08,33a7.09,7.09,0,0,1,4.59-1.2l1,0q.53,0,1,.09a8.22,8.22,0,0,0,1,.06V30.36a7.75,7.75,0,0,1-.93-.06q-.43-.06-1-.09c-.35,0-.71,0-1.08,0a9.39,9.39,0,0,0-5.51,1.52,5.37,5.37,0,0,0-2.17,4.74,6.25,6.25,0,0,0,.9,3.25,15.73,15.73,0,0,0,2.29,3c.93,1,1.92,1.91,3,2.81s2.05,1.83,3,2.76a15.72,15.72,0,0,1,2.29,2.88,5.91,5.91,0,0,1,.9,3.1,5.36,5.36,0,0,1-2,4.52,8.9,8.9,0,0,1-5.54,1.55A21.48,21.48,0,0,1,90,60c-.62-.08-1.22-.19-1.8-.31Z"/><path class="cls-23" d="M144.12,41.08a16.32,16.32,0,0,1-1.49,7.28,13,13,0,0,1-4.06,4.86,17.14,17.14,0,0,1-6,2.72,30.09,30.09,0,0,1-7.4.87v9.85H112V25.34h13.19a30.09,30.09,0,0,1,7.4.87,17.33,17.33,0,0,1,6,2.73,12.88,12.88,0,0,1,4.06,4.86A16.29,16.29,0,0,1,144.12,41.08Zm-6,0a11.25,11.25,0,0,0-1-4.83,8.72,8.72,0,0,0-2.7-3.35A11.92,11.92,0,0,0,130.33,31a19.32,19.32,0,0,0-5.17-.65h-7V61.7h1.61V51.85h5.39a19.32,19.32,0,0,0,5.17-.65,11.92,11.92,0,0,0,4.12-2,8.69,8.69,0,0,0,2.7-3.34A11.28,11.28,0,0,0,138.11,41.08Zm-1.74,0a9.79,9.79,0,0,1-.92,4.46A7.73,7.73,0,0,1,133,48.39a10.55,10.55,0,0,1-3.56,1.51,18.89,18.89,0,0,1-4.25.47h-5.39V31.79h5.39a18.9,18.9,0,0,1,4.25.46A10.57,10.57,0,0,1,133,33.77a7.58,7.58,0,0,1,2.48,2.85A9.73,9.73,0,0,1,136.37,41.08Zm-11.21,4.58h.56a5,5,0,0,0,3.75-1.21,4.71,4.71,0,0,0,1.14-3.37,4.74,4.74,0,0,0-1.14-3.38,5,5,0,0,0-3.75-1.21h-.56Z"/><path class="cls-23" d="M147.21,25.34h14V66.66h-14ZM155,61.7V30.3h-1.61V61.7Z"/><path class="cls-23" d="M165.55,25.34H179.3V55.82h11.4V66.66H165.55ZM187.23,61.7V60.22H173.35V30.3h-1.61V61.7Z"/></svg>