<svg id="Layer_1" data-name="Layer 1" xmlns="http://www.w3.org/2000/svg" width="1345.53" height="788.14" viewBox="0 0 1345.53 788.14"><defs><style>.cls-1,.cls-13{opacity:0.4;}.cls-11,.cls-16,.cls-2,.cls-29,.cls-50{opacity:0.5;}.cls-12,.cls-14,.cls-21,.cls-26,.cls-27,.cls-3{opacity:0.3;}.cls-4{fill:#d9d4cc;}.cls-41,.cls-45,.cls-5{fill:none;}.cls-27,.cls-45,.cls-5{stroke:#000;}.cls-14,.cls-27,.cls-45,.cls-5{stroke-miterlimit:10;}.cls-5{stroke-width:6px;}.cls-6{fill:#b2a999;}.cls-7{fill:#2d2828;}.cls-25,.cls-8{opacity:0.8;}.cls-20,.cls-21,.cls-47,.cls-49,.cls-50,.cls-51,.cls-52,.cls-9{fill:#fff;}.cls-10,.cls-24,.cls-30{opacity:0.6;}.cls-12,.cls-13,.cls-14,.cls-15{fill:#4aa5ff;}.cls-14{stroke:#4aa5ff;}.cls-14,.cls-27{stroke-width:5px;}.cls-15,.cls-28{opacity:0.2;}.cls-16{fill:#f6def9;}.cls-17{fill:#15e7ff;}.cls-18{fill:#bff8ff;}.cls-19,.cls-23{fill:#0bd1ff;}.cls-19,.cls-32{opacity:0.9;}.cls-20{opacity:0.45;}.cls-22{fill:gray;}.cls-24{fill:#2afffc;}.cls-25{fill:#e5fdff;}.cls-26{fill:#f915ff;}.cls-29{fill:#550045;}.cls-30{fill:#be00e9;}.cls-31{fill:#d294ff;}.cls-32{fill:#092a5e;}.cls-33{fill:#ccbca1;}.cls-34{fill:#85c8ef;}.cls-35{fill:#e9e6d9;}.cls-36{fill:#3861f5;}.cls-37,.cls-46{fill:#fdf8d7;}.cls-38{fill:#c12d24;}.cls-39{fill:#ffff5b;}.cls-40{fill:#13295b;}.cls-42{fill:#ccb694;}.cls-43{fill:#c8a19f;}.cls-44,.cls-46{opacity:0.3;}.cls-47{opacity:0.15;}.cls-48,.cls-49{opacity:0.1;}.cls-51,.cls-53{opacity:0.6;}.cls-52{opacity:0.7;}.cls-54{fill:#e93323;}</style></defs><polygon class="cls-1" points="1217.79 113.33 1217.79 427.12 1233.69 433.04 1233.69 705.96 1357.29 781.88 1357.29 13.88 1217.79 113.33"/><polygon class="cls-2" points="1217.79 113.33 1357.29 13.88 -7.71 13.88 99.99 113.33 1217.79 113.33"/><polygon class="cls-1" points="99.99 691.31 -7.71 781.88 -7.71 13.88 99.99 113.33 99.99 691.31"/><polygon class="cls-3" points="1233.69 724 573.84 724 573.84 691.31 99.99 691.31 -7.71 781.88 1357.29 781.88 1233.69 705.96 1233.69 724"/><rect x="503.28" y="17.66" width="359.34" height="70.09" rx="12"/><rect class="cls-4" x="99.99" y="113.33" width="1117.8" height="577.98"/><line class="cls-5" x1="573.84" y1="189.09" x2="1233.69" y2="189.09"/><line class="cls-5" x1="573.84" y1="257.78" x2="1233.69" y2="257.78"/><line class="cls-5" x1="573.84" y1="326.48" x2="1233.69" y2="326.48"/><rect class="cls-6" x="573.84" y="433.04" width="659.86" height="290.96"/><ellipse class="cls-7" cx="195.59" cy="522.22" rx="151.28" ry="14.51"/><ellipse class="cls-7" cx="85.58" cy="614.73" rx="75.64" ry="11.21"/><ellipse class="cls-7" cx="334.22" cy="614.73" rx="75.64" ry="11.21"/><ellipse class="cls-7" cx="223.53" cy="581.63" rx="75.64" ry="11.21"/><rect class="cls-7" x="186.95" y="534.38" width="18.71" height="188.14"/><ellipse class="cls-7" cx="195.59" cy="718.15" rx="75.64" ry="11.21"/><rect class="cls-7" x="76.22" y="609.71" width="18.71" height="132.02"/><rect class="cls-7" x="328.15" y="614.73" width="18.71" height="132.02"/><rect class="cls-7" x="214.18" y="581.63" width="18.71" height="132.02"/><ellipse class="cls-7" cx="85.58" cy="746.75" rx="50.24" ry="7.44"/><ellipse class="cls-7" cx="337.51" cy="747.48" rx="50.24" ry="7.44"/><ellipse class="cls-7" cx="223.53" cy="706.95" rx="50.24" ry="7.44"/><g class="cls-8"><rect class="cls-9" x="581.46" y="263.79" width="6.57" height="17.63" rx="1.57"/><rect class="cls-9" x="573.84" y="276.36" width="21.81" height="46.6" rx="10.91"/><rect class="cls-9" x="573.84" y="305.32" width="21.81" height="17.63"/></g><g class="cls-8"><rect class="cls-9" x="612.87" y="195.59" width="6.57" height="17.63" rx="1.57"/><rect class="cls-9" x="605.25" y="208.16" width="21.81" height="46.6" rx="10.91"/><rect class="cls-9" x="605.25" y="237.13" width="21.81" height="17.63"/></g><g class="cls-8"><rect class="cls-9" x="584.74" y="195.59" width="6.57" height="17.63" rx="1.57"/><rect class="cls-9" x="577.12" y="208.16" width="21.81" height="46.6" rx="10.91"/><rect class="cls-9" x="577.12" y="237.13" width="21.81" height="17.63"/></g><g class="cls-8"><rect class="cls-9" x="668.22" y="263.79" width="6.57" height="17.63" rx="1.57"/><rect class="cls-9" x="660.6" y="276.36" width="21.81" height="46.6" rx="10.91"/><rect class="cls-9" x="660.6" y="305.32" width="21.81" height="17.63"/></g><g class="cls-10"><rect class="cls-9" x="636.12" y="276.36" width="5.18" height="13.88" rx="1.57"/><rect class="cls-9" x="630.12" y="286.26" width="17.18" height="36.7" rx="6.36"/><rect class="cls-9" x="630.12" y="309.07" width="17.18" height="13.89"/></g><g class="cls-8"><rect class="cls-9" x="595.65" y="263.79" width="6.57" height="17.63" rx="1.57"/><rect class="cls-9" x="588.03" y="276.36" width="21.81" height="46.6" rx="10.91"/><rect class="cls-9" x="588.03" y="305.32" width="21.81" height="17.63"/></g><g class="cls-8"><rect class="cls-9" x="609.58" y="263.79" width="6.57" height="17.63" rx="1.57"/><rect class="cls-9" x="601.96" y="276.36" width="21.81" height="46.6" rx="10.91"/><rect class="cls-9" x="601.96" y="305.32" width="21.81" height="17.63"/></g><g class="cls-8"><rect class="cls-9" x="658.01" y="276.36" width="5.18" height="13.88" rx="1.57"/><rect class="cls-9" x="652.01" y="286.26" width="17.18" height="36.7" rx="6.36"/><rect class="cls-9" x="652.01" y="309.07" width="17.18" height="13.89"/></g><g class="cls-11"><rect class="cls-9" x="681.64" y="276.36" width="5.18" height="13.88" rx="1.57"/><rect class="cls-9" x="675.64" y="286.26" width="17.18" height="36.7" rx="6.36"/><rect class="cls-9" x="675.64" y="309.07" width="17.18" height="13.89"/></g><g class="cls-8"><rect class="cls-9" x="698.83" y="195.59" width="6.57" height="17.63" rx="1.57"/><rect class="cls-9" x="691.21" y="208.16" width="21.81" height="46.6" rx="10.91"/><rect class="cls-9" x="691.21" y="237.13" width="21.81" height="17.63"/></g><g class="cls-8"><rect class="cls-9" x="670.22" y="195.59" width="6.57" height="17.63" rx="1.57"/><rect class="cls-9" x="662.6" y="208.16" width="21.81" height="46.6" rx="10.91"/><rect class="cls-9" x="662.6" y="237.13" width="21.81" height="17.63"/></g><g class="cls-8"><rect class="cls-9" x="641.44" y="195.59" width="6.57" height="17.63" rx="1.57"/><rect class="cls-9" x="633.82" y="208.16" width="21.81" height="46.6" rx="10.91"/><rect class="cls-9" x="633.82" y="237.13" width="21.81" height="17.63"/></g><g class="cls-8"><rect class="cls-9" x="1192.69" y="195.25" width="6.57" height="17.63" rx="1.57"/><rect class="cls-9" x="1185.07" y="207.82" width="21.81" height="46.6" rx="10.91"/><rect class="cls-9" x="1185.07" y="236.79" width="21.81" height="17.63"/></g><g class="cls-8"><rect class="cls-9" x="726.48" y="195.59" width="6.57" height="17.63" rx="1.57"/><rect class="cls-9" x="718.86" y="211.68" width="21.81" height="43.08" rx="6.97"/><rect class="cls-9" x="718.86" y="237.13" width="21.81" height="17.63"/></g><g class="cls-8"><rect class="cls-9" x="742.47" y="195.59" width="6.57" height="17.63" rx="1.57"/><rect class="cls-9" x="734.85" y="211.68" width="21.81" height="43.08" rx="6.97"/><rect class="cls-9" x="734.85" y="237.13" width="21.81" height="17.63"/></g><g class="cls-10"><ellipse class="cls-12" cx="244.8" cy="450.62" rx="35.97" ry="2.35"/><ellipse class="cls-13" cx="244.8" cy="517.92" rx="22.47" ry="3.23"/><line class="cls-14" x1="244.8" y1="479.89" x2="244.8" y2="514.69"/><path class="cls-15" d="M280.78,450.62,246.41,480h-3.25l-34.33-29.33a11.87,11.87,0,0,0,4.65,1.16l4.46.41,4.32.27,3.7.17,4.44.15,6.35.14,8.05.06s10.22,0,10.25-.1l7.19-.2,8.88-.45,5.55-.51S279.51,451.56,280.78,450.62Z"/></g><path class="cls-16" d="M216,456.31s2.41-.36,3,0,8.48.28,8.64,0,11.25-.6,12.25,0,15.79.48,16.11.2a4.79,4.79,0,0,1,1.85-.57c-.2.13,1.33.06,1.67.39s7.29,0,7.29,0a17.49,17.49,0,0,0,4.09,0,7.34,7.34,0,0,1,2.66,0L246.41,480h-3.25Z"/><g class="cls-11"><circle class="cls-17" cx="228.19" cy="464.14" r="1.64"/><ellipse class="cls-18" cx="228.68" cy="463.71" rx="0.75" ry="0.94"/></g><circle class="cls-17" cx="236.61" cy="468.48" r="1.64"/><ellipse class="cls-18" cx="237.37" cy="468.12" rx="0.75" ry="0.94"/><g class="cls-11"><circle class="cls-17" cx="249.72" cy="457.01" r="1.64"/><ellipse class="cls-18" cx="250.48" cy="456.64" rx="0.75" ry="0.94"/></g><circle class="cls-17" cx="256.9" cy="467.09" r="1.64"/><ellipse class="cls-18" cx="257.65" cy="466.72" rx="0.75" ry="0.94"/><circle class="cls-17" cx="250.54" cy="471.59" r="1.64"/><ellipse class="cls-18" cx="251.3" cy="471.22" rx="0.75" ry="0.94"/><circle class="cls-17" cx="252.62" cy="467.66" r="0.82"/><ellipse class="cls-18" cx="253" cy="467.48" rx="0.38" ry="0.47"/><circle class="cls-17" cx="248.08" cy="469.06" r="0.82"/><ellipse class="cls-18" cx="248.46" cy="468.87" rx="0.38" ry="0.47"/><path class="cls-19" d="M244.63,476.59l28.06-38.1s1-2.8,3.52-1.58,16,7.34,16,7.34l-1.11,1.66-15-6.55s-1.33-1.56-1.89.66-28.09,37.39-28.09,37.39Z"/><g class="cls-10"><ellipse class="cls-12" cx="291.18" cy="458.8" rx="35.97" ry="2.35"/><ellipse class="cls-13" cx="291.18" cy="526.1" rx="22.47" ry="3.23"/><line class="cls-14" x1="291.18" y1="488.06" x2="291.18" y2="522.86"/><path class="cls-15" d="M327.15,458.8l-34.37,29.32h-3.25L255.2,458.8a12.08,12.08,0,0,0,4.65,1.16l4.47.4,4.31.27,3.7.17,4.45.15,6.35.14,8.05.06s10.21.05,10.24-.1l7.19-.19,8.88-.46,5.55-.51S325.89,459.73,327.15,458.8Z"/></g><path class="cls-16" d="M262.41,464.48s2.41-.36,3,0,8.47.28,8.63,0,11.25-.6,12.25,0,15.8.49,16.12.21a4.79,4.79,0,0,1,1.84-.58c-.2.13,1.33.06,1.67.4s7.29,0,7.29,0a18.15,18.15,0,0,0,4.1,0,7.06,7.06,0,0,1,2.65,0l-27.16,23.57h-3.25Z"/><g class="cls-11"><circle class="cls-17" cx="274.56" cy="472.31" r="1.64"/><ellipse class="cls-18" cx="275.05" cy="471.88" rx="0.75" ry="0.94"/></g><circle class="cls-17" cx="282.99" cy="476.66" r="1.64"/><ellipse class="cls-18" cx="283.74" cy="476.29" rx="0.75" ry="0.94"/><g class="cls-11"><circle class="cls-17" cx="296.09" cy="465.18" r="1.64"/><ellipse class="cls-18" cx="296.85" cy="464.81" rx="0.75" ry="0.94"/></g><circle class="cls-17" cx="303.27" cy="475.26" r="1.64"/><ellipse class="cls-18" cx="304.03" cy="474.89" rx="0.75" ry="0.94"/><circle class="cls-17" cx="296.91" cy="479.76" r="1.64"/><ellipse class="cls-18" cx="297.67" cy="479.39" rx="0.75" ry="0.94"/><circle class="cls-17" cx="299" cy="475.84" r="0.82"/><ellipse class="cls-18" cx="299.37" cy="475.65" rx="0.38" ry="0.47"/><circle class="cls-17" cx="294.46" cy="477.23" r="0.82"/><ellipse class="cls-18" cx="294.83" cy="477.05" rx="0.38" ry="0.47"/><path class="cls-19" d="M291,484.77l28.06-38.1s1-2.81,3.53-1.58,16,7.33,16,7.33l-1.11,1.67-15-6.56s-1.33-1.56-1.88.67-28.1,37.39-28.1,37.39Z"/><g class="cls-10"><ellipse class="cls-20" cx="1200.66" cy="288.88" rx="17.8" ry="1.16"/><ellipse class="cls-21" cx="1200.66" cy="322.17" rx="11.11" ry="1.6"/><path class="cls-21" d="M1218.46,288.88l-17,14.5h-1.61l-17-14.5a5.79,5.79,0,0,0,2.3.57l2.21.2,2.13.13,1.83.09,2.2.07,3.14.07,4,0s5.06,0,5.07-.05l3.56-.09,4.39-.23,2.75-.25A4.88,4.88,0,0,0,1218.46,288.88Z"/><rect class="cls-21" x="1199.85" y="303.38" width="1.82" height="17.19"/></g><g class="cls-10"><ellipse class="cls-20" cx="1183.87" cy="288.88" rx="17.8" ry="1.16"/><ellipse class="cls-21" cx="1183.87" cy="322.17" rx="11.11" ry="1.6"/><path class="cls-21" d="M1201.66,288.88l-17,14.5h-1.61l-17-14.5a5.86,5.86,0,0,0,2.3.57l2.21.2,2.14.13,1.83.09,2.2.07,3.14.07,4,0s5.05,0,5.07-.05l3.55-.09,4.4-.23,2.74-.25A4.88,4.88,0,0,0,1201.66,288.88Z"/><rect class="cls-21" x="1183.05" y="303.38" width="1.82" height="17.19"/></g><g class="cls-10"><ellipse class="cls-20" cx="1170.18" cy="288.88" rx="17.8" ry="1.16"/><ellipse class="cls-21" cx="1170.18" cy="322.17" rx="11.11" ry="1.6"/><path class="cls-21" d="M1188,288.88l-17,14.5h-1.61l-17-14.5a5.79,5.79,0,0,0,2.3.57l2.2.2,2.14.13,1.83.09,2.2.07,3.14.07,4,0s5,0,5.07-.05l3.56-.09,4.39-.23,2.74-.25A5,5,0,0,0,1188,288.88Z"/><rect class="cls-21" x="1169.37" y="303.38" width="1.82" height="17.19"/></g><g class="cls-10"><ellipse class="cls-20" cx="1201.66" cy="288.88" rx="17.8" ry="1.16"/><ellipse class="cls-21" cx="1201.66" cy="322.17" rx="11.11" ry="1.6"/><path class="cls-21" d="M1219.46,288.88l-17,14.5h-1.61l-17-14.5a5.79,5.79,0,0,0,2.3.57l2.21.2,2.13.13,1.83.09,2.2.07,3.14.07,4,0s5.06,0,5.07-.05l3.56-.09,4.39-.23,2.75-.25A4.88,4.88,0,0,0,1219.46,288.88Z"/><rect class="cls-21" x="1200.85" y="303.38" width="1.82" height="17.19"/></g><g class="cls-10"><ellipse class="cls-20" cx="1010.35" cy="288.14" rx="17.8" ry="1.16"/><ellipse class="cls-21" cx="1010.35" cy="321.43" rx="11.11" ry="1.6"/><path class="cls-21" d="M1028.15,288.14l-17,14.5h-1.61l-17-14.5a6,6,0,0,0,2.3.57l2.21.2,2.13.13,1.83.09,2.2.07,3.14.07,4,0s5.06,0,5.07-.05l3.56-.1,4.39-.22,2.75-.25A4.91,4.91,0,0,0,1028.15,288.14Z"/><rect class="cls-21" x="1009.54" y="302.64" width="1.82" height="17.19"/></g><g class="cls-10"><ellipse class="cls-20" cx="1037.8" cy="288.14" rx="17.8" ry="1.16"/><ellipse class="cls-21" cx="1037.8" cy="321.43" rx="11.11" ry="1.6"/><path class="cls-21" d="M1055.59,288.14l-17,14.5H1037l-17-14.5a6.07,6.07,0,0,0,2.3.57l2.21.2,2.13.13,1.83.09,2.2.07,3.15.07,4,0s5,0,5.06-.05l3.56-.1,4.39-.22,2.75-.25A4.88,4.88,0,0,0,1055.59,288.14Z"/><rect class="cls-21" x="1036.98" y="302.64" width="1.82" height="17.19"/></g><g class="cls-10"><ellipse class="cls-20" cx="1093.53" cy="288.14" rx="17.8" ry="1.16"/><ellipse class="cls-21" cx="1093.53" cy="321.43" rx="11.11" ry="1.6"/><path class="cls-21" d="M1111.32,288.14l-17,14.5h-1.61l-17-14.5a6.07,6.07,0,0,0,2.3.57l2.21.2,2.13.13,1.83.09,2.2.07,3.14.07,4,0s5,0,5.06-.05l3.56-.1,4.39-.22,2.75-.25A4.88,4.88,0,0,0,1111.32,288.14Z"/><rect class="cls-21" x="1092.71" y="302.64" width="1.82" height="17.19"/></g><g class="cls-10"><ellipse class="cls-20" cx="1126.9" cy="288.14" rx="17.8" ry="1.16"/><ellipse class="cls-21" cx="1126.9" cy="321.43" rx="11.11" ry="1.6"/><path class="cls-21" d="M1144.7,288.14l-17,14.5h-1.6l-17-14.5a6.07,6.07,0,0,0,2.3.57l2.21.2,2.14.13,1.83.09,2.2.07,3.14.07,4,0s5,0,5.07-.05l3.56-.1,4.39-.22,2.74-.25A5,5,0,0,0,1144.7,288.14Z"/><rect class="cls-21" x="1126.09" y="302.64" width="1.82" height="17.19"/></g><g class="cls-10"><ellipse class="cls-20" cx="1192.69" cy="364.9" rx="17.8" ry="1.16"/><ellipse class="cls-21" cx="1192.69" cy="331.61" rx="11.11" ry="1.6"/><path class="cls-21" d="M1174.89,364.9l17-14.51h1.61l17,14.51a5.79,5.79,0,0,0-2.3-.57l-2.2-.2-2.14-.14-1.83-.08-2.2-.08-3.14-.06-4,0s-5,0-5.07,0l-3.56.1-4.39.23-2.74.25A5,5,0,0,0,1174.89,364.9Z"/><rect class="cls-21" x="1191.69" y="333.2" width="1.82" height="17.19" transform="translate(2385.19 683.59) rotate(-180)"/></g><g class="cls-10"><ellipse class="cls-20" cx="1151.57" cy="364.48" rx="17.8" ry="1.16"/><ellipse class="cls-21" cx="1151.57" cy="331.19" rx="11.11" ry="1.6"/><path class="cls-21" d="M1133.78,364.48l17-14.5h1.61l17,14.5a5.86,5.86,0,0,0-2.3-.57l-2.21-.2-2.14-.13-1.83-.09-2.2-.07-3.14-.07-4,0s-5,0-5.07.05l-3.55.09-4.4.23-2.74.25A4.88,4.88,0,0,0,1133.78,364.48Z"/><rect class="cls-21" x="1150.57" y="332.78" width="1.82" height="17.19" transform="translate(2302.96 682.76) rotate(-180)"/></g><g class="cls-10"><ellipse class="cls-20" cx="1151.57" cy="364.48" rx="17.8" ry="1.16"/><ellipse class="cls-21" cx="1151.57" cy="331.19" rx="11.11" ry="1.6"/><path class="cls-21" d="M1133.78,364.48l17-14.5h1.61l17,14.5a5.86,5.86,0,0,0-2.3-.57l-2.21-.2-2.14-.13-1.83-.09-2.2-.07-3.14-.07-4,0s-5,0-5.07.05l-3.55.09-4.4.23-2.74.25A4.88,4.88,0,0,0,1133.78,364.48Z"/><rect class="cls-21" x="1150.57" y="332.78" width="1.82" height="17.19" transform="translate(2302.96 682.76) rotate(-180)"/></g><g class="cls-10"><ellipse class="cls-20" cx="1192.6" cy="364.48" rx="17.8" ry="1.16"/><ellipse class="cls-21" cx="1192.6" cy="331.19" rx="11.11" ry="1.6"/><path class="cls-21" d="M1174.8,364.48l17-14.5h1.61l17,14.5a5.79,5.79,0,0,0-2.3-.57l-2.21-.2-2.13-.13-1.83-.09-2.2-.07-3.14-.07-4,0s-5.06,0-5.07.05l-3.56.09-4.39.23-2.75.25A4.88,4.88,0,0,0,1174.8,364.48Z"/><rect class="cls-21" x="1191.6" y="332.78" width="1.82" height="17.19" transform="translate(2385.01 682.76) rotate(-180)"/></g><g class="cls-10"><ellipse class="cls-20" cx="1109.38" cy="363.97" rx="17.8" ry="1.16"/><ellipse class="cls-21" cx="1109.38" cy="330.68" rx="11.11" ry="1.6"/><path class="cls-21" d="M1091.58,364l17-14.51h1.61l17,14.51a5.89,5.89,0,0,0-2.3-.58l-2.21-.2-2.13-.13-1.83-.08-2.2-.08-3.14-.07-4,0s-5.06,0-5.07.05l-3.56.1-4.39.22-2.75.26A4.88,4.88,0,0,0,1091.58,364Z"/><rect class="cls-21" x="1108.38" y="332.27" width="1.82" height="17.19" transform="translate(2218.57 681.73) rotate(-180)"/></g><g class="cls-10"><ellipse class="cls-20" cx="1110.06" cy="364.47" rx="17.8" ry="1.16"/><ellipse class="cls-21" cx="1110.06" cy="331.18" rx="11.11" ry="1.6"/><path class="cls-21" d="M1092.26,364.47l17-14.5h1.61l17,14.5a6,6,0,0,0-2.3-.57l-2.21-.2-2.13-.13-1.83-.09-2.2-.07-3.14-.07-4,0s-5.06,0-5.07.05l-3.56.1-4.39.22-2.75.25A4.91,4.91,0,0,0,1092.26,364.47Z"/><rect class="cls-21" x="1109.06" y="332.77" width="1.82" height="17.19" transform="translate(2219.93 682.74) rotate(-180)"/></g><g class="cls-8"><rect class="cls-9" x="1188.29" y="113.33" width="8.15" height="21.85" rx="1.57"/><rect class="cls-9" x="1178.84" y="133.28" width="27.05" height="53.41" rx="6.97"/><rect class="cls-9" x="1178.84" y="164.83" width="27.05" height="21.86"/></g><g class="cls-8"><rect class="cls-9" x="1032.91" y="113.33" width="8.15" height="21.85" rx="1.57"/><rect class="cls-9" x="1023.46" y="133.28" width="27.05" height="53.41" rx="6.97"/><rect class="cls-9" x="1023.46" y="164.83" width="27.05" height="21.86"/></g><g class="cls-8"><rect class="cls-9" x="1081.35" y="113.33" width="8.15" height="21.85" rx="1.57"/><rect class="cls-9" x="1071.9" y="133.28" width="27.05" height="53.41" rx="6.97"/><rect class="cls-9" x="1071.9" y="164.83" width="27.05" height="21.86"/></g><g class="cls-8"><rect class="cls-9" x="1136.38" y="113.33" width="8.15" height="21.85" rx="1.57"/><rect class="cls-9" x="1126.93" y="133.28" width="27.05" height="53.41" rx="6.97"/><rect class="cls-9" x="1126.93" y="164.83" width="27.05" height="21.86"/></g><g class="cls-8"><rect class="cls-9" x="824.4" y="113.33" width="8.15" height="21.85" rx="1.57"/><rect class="cls-9" x="814.95" y="133.28" width="27.05" height="53.41" rx="6.97"/><rect class="cls-9" x="814.95" y="164.83" width="27.05" height="21.86"/></g><g class="cls-8"><rect class="cls-9" x="874.5" y="113.33" width="8.15" height="21.85" rx="1.57"/><rect class="cls-9" x="865.05" y="133.28" width="27.05" height="53.41" rx="6.97"/><rect class="cls-9" x="865.05" y="164.83" width="27.05" height="21.86"/></g><g class="cls-8"><rect class="cls-9" x="929.49" y="113.33" width="8.15" height="21.85" rx="1.57"/><rect class="cls-9" x="920.04" y="133.28" width="27.05" height="53.41" rx="6.97"/><rect class="cls-9" x="920.04" y="164.83" width="27.05" height="21.86"/></g><g class="cls-8"><rect class="cls-9" x="981.64" y="113.33" width="8.15" height="21.85" rx="1.57"/><rect class="cls-9" x="972.19" y="133.28" width="27.05" height="53.41" rx="6.97"/><rect class="cls-9" x="972.19" y="164.83" width="27.05" height="21.86"/></g><g class="cls-8"><rect class="cls-9" x="730.77" y="113.33" width="8.15" height="21.85" rx="1.57"/><rect class="cls-9" x="721.32" y="133.28" width="27.05" height="53.41" rx="6.97"/><rect class="cls-9" x="721.32" y="164.83" width="27.05" height="21.86"/></g><g class="cls-8"><rect class="cls-9" x="774.12" y="113.33" width="8.15" height="21.85" rx="1.57"/><rect class="cls-9" x="764.67" y="133.28" width="27.05" height="53.41" rx="6.97"/><rect class="cls-9" x="764.67" y="164.83" width="27.05" height="21.86"/></g><g class="cls-8"><rect class="cls-9" x="598.15" y="113.33" width="8.15" height="21.85" rx="1.57"/><rect class="cls-9" x="588.7" y="133.28" width="27.05" height="53.41" rx="6.97"/><rect class="cls-9" x="588.7" y="164.83" width="27.05" height="21.86"/></g><g class="cls-8"><rect class="cls-9" x="645.57" y="113.33" width="8.15" height="21.85" rx="1.57"/><rect class="cls-9" x="636.12" y="133.28" width="27.05" height="53.41" rx="6.97"/><rect class="cls-9" x="636.12" y="164.83" width="27.05" height="21.86"/></g><g class="cls-8"><rect class="cls-9" x="687.14" y="113.33" width="8.15" height="21.85" rx="1.57"/><rect class="cls-9" x="677.69" y="133.28" width="27.05" height="53.41" rx="6.97"/><rect class="cls-9" x="677.69" y="164.83" width="27.05" height="21.86"/></g><polygon class="cls-22" points="573.84 433.04 595.65 423.06 1233.69 433.04 573.84 433.04"/><polygon points="1206.88 423.06 1233.69 433.04 573.84 433.04 588.03 423.06 1206.88 423.06"/><g class="cls-8"><rect class="cls-9" x="1191.7" y="372.3" width="6.57" height="17.63" rx="1.57"/><rect class="cls-9" x="1184.08" y="384.87" width="21.81" height="46.6" rx="10.91"/><rect class="cls-9" x="1184.08" y="413.84" width="21.81" height="17.63"/></g><g class="cls-8"><rect class="cls-9" x="598.68" y="372.74" width="6.57" height="17.63" rx="1.57"/><rect class="cls-9" x="591.06" y="385.31" width="21.81" height="46.6" rx="10.91"/><rect class="cls-9" x="591.06" y="414.27" width="21.81" height="17.63"/></g><g class="cls-8"><rect class="cls-9" x="629.74" y="353.68" width="8.15" height="21.85" rx="1.57"/><rect class="cls-9" x="620.3" y="373.63" width="27.05" height="53.41" rx="6.97"/><rect class="cls-9" x="620.3" y="405.18" width="27.05" height="21.86"/></g><g class="cls-10"><ellipse class="cls-20" cx="1127.17" cy="288.48" rx="17.8" ry="1.16"/><ellipse class="cls-21" cx="1127.17" cy="321.77" rx="11.11" ry="1.6"/><path class="cls-21" d="M1145,288.48,1128,303h-1.61l-17-14.51a5.79,5.79,0,0,0,2.3.57l2.2.2,2.14.14,1.83.08,2.2.08,3.14.06,4,0s5.06,0,5.07-.05l3.56-.09,4.39-.23,2.75-.25A4.91,4.91,0,0,0,1145,288.48Z"/><rect class="cls-21" x="1126.36" y="302.99" width="1.82" height="17.19"/></g><g class="cls-10"><ellipse class="cls-20" cx="1093.62" cy="288.48" rx="17.8" ry="1.16"/><ellipse class="cls-21" cx="1093.62" cy="321.77" rx="11.11" ry="1.6"/><path class="cls-21" d="M1111.41,288.48l-17,14.51h-1.61l-17-14.51a5.86,5.86,0,0,0,2.3.57l2.21.2,2.14.14,1.83.08,2.2.08,3.14.06,4,0s5.05,0,5.07-.05l3.55-.09,4.4-.23,2.74-.25A4.88,4.88,0,0,0,1111.41,288.48Z"/><rect class="cls-21" x="1092.8" y="302.99" width="1.82" height="17.19"/></g><g class="cls-10"><ellipse class="cls-20" cx="1037.8" cy="288.06" rx="17.8" ry="1.16"/><ellipse class="cls-21" cx="1037.8" cy="321.35" rx="11.11" ry="1.6"/><path class="cls-21" d="M1055.59,288.06l-17,14.51H1037l-17-14.51a5.86,5.86,0,0,0,2.3.57l2.21.21,2.13.13,1.83.08,2.2.08,3.15.07,4,0s5,0,5.06-.05l3.56-.1,4.39-.22,2.75-.26A4.88,4.88,0,0,0,1055.59,288.06Z"/><rect class="cls-21" x="1036.98" y="302.57" width="1.82" height="17.19"/></g><g class="cls-10"><ellipse class="cls-20" cx="1037.89" cy="288.06" rx="17.8" ry="1.16"/><ellipse class="cls-21" cx="1037.89" cy="321.35" rx="11.11" ry="1.6"/><path class="cls-21" d="M1055.69,288.06l-17,14.51h-1.61l-17-14.51a5.88,5.88,0,0,0,2.31.57l2.2.21,2.14.13,1.83.08,2.2.08,3.14.07,4,0s5,0,5.07-.05l3.56-.1,4.39-.22,2.74-.26A5,5,0,0,0,1055.69,288.06Z"/><rect class="cls-21" x="1037.08" y="302.57" width="1.82" height="17.19"/></g><g class="cls-10"><ellipse class="cls-20" cx="1109.1" cy="364.08" rx="17.8" ry="1.16"/><ellipse class="cls-21" cx="1109.1" cy="330.79" rx="11.11" ry="1.6"/><path class="cls-21" d="M1091.31,364.08l17-14.5h1.61l17,14.5a6.07,6.07,0,0,0-2.3-.57l-2.21-.2-2.13-.13-1.83-.09-2.2-.07-3.14-.07-4,0s-5,0-5.06.05l-3.56.1-4.39.22-2.75.25A4.88,4.88,0,0,0,1091.31,364.08Z"/><rect class="cls-21" x="1108.1" y="332.38" width="1.82" height="17.19" transform="translate(2218.02 681.96) rotate(-180)"/></g><g class="cls-8"><rect class="cls-9" x="874.5" y="113.33" width="8.15" height="21.85" rx="1.57"/><rect class="cls-9" x="865.05" y="133.28" width="27.05" height="53.41" rx="6.97"/><rect class="cls-9" x="865.05" y="164.83" width="27.05" height="21.86"/></g><g class="cls-8"><rect class="cls-9" x="1032.91" y="113.33" width="8.15" height="21.85" rx="1.57"/><rect class="cls-9" x="1023.46" y="133.28" width="27.05" height="53.41" rx="6.97"/><rect class="cls-9" x="1023.46" y="164.83" width="27.05" height="21.86"/></g><g class="cls-8"><rect class="cls-9" x="1019.79" y="113.33" width="8.15" height="21.85" rx="1.57"/><rect class="cls-9" x="1010.34" y="133.28" width="27.05" height="53.41" rx="6.97"/><rect class="cls-9" x="1010.34" y="164.83" width="27.05" height="21.86"/></g><g class="cls-10"><ellipse class="cls-20" cx="1037.8" cy="288.14" rx="17.8" ry="1.16"/><ellipse class="cls-21" cx="1037.8" cy="321.43" rx="11.11" ry="1.6"/><path class="cls-21" d="M1055.59,288.14l-17,14.5H1037l-17-14.5a6.07,6.07,0,0,0,2.3.57l2.21.2,2.13.13,1.83.09,2.2.07,3.15.07,4,0s5,0,5.06-.05l3.56-.1,4.39-.22,2.75-.25A4.88,4.88,0,0,0,1055.59,288.14Z"/><rect class="cls-21" x="1036.98" y="302.64" width="1.82" height="17.19"/></g><g class="cls-10"><ellipse class="cls-20" cx="1010.35" cy="288.06" rx="17.8" ry="1.16"/><ellipse class="cls-21" cx="1010.35" cy="321.35" rx="11.11" ry="1.6"/><path class="cls-21" d="M1028.15,288.06l-17,14.51h-1.61l-17-14.51a5.79,5.79,0,0,0,2.3.57l2.21.21,2.13.13,1.83.08,2.2.08,3.14.07,4,0s5.06,0,5.07-.05l3.56-.1,4.39-.22,2.75-.26A4.91,4.91,0,0,0,1028.15,288.06Z"/><rect class="cls-21" x="1009.54" y="302.57" width="1.82" height="17.19"/></g><g class="cls-10"><ellipse class="cls-20" cx="1109.01" cy="364.08" rx="17.8" ry="1.16"/><ellipse class="cls-21" cx="1109.01" cy="330.79" rx="11.11" ry="1.6"/><path class="cls-21" d="M1091.22,364.08l17-14.5h1.61l17,14.5a6.07,6.07,0,0,0-2.3-.57l-2.21-.2-2.14-.13-1.83-.09-2.2-.07L1113,363l-4,0s-5,0-5.07.05l-3.55.1-4.4.22-2.74.25A4.88,4.88,0,0,0,1091.22,364.08Z"/><rect class="cls-21" x="1108.01" y="332.38" width="1.82" height="17.19" transform="translate(2217.84 681.96) rotate(-180)"/></g><g class="cls-10"><ellipse class="cls-20" cx="1151.57" cy="364.48" rx="17.8" ry="1.16"/><ellipse class="cls-21" cx="1151.57" cy="331.19" rx="11.11" ry="1.6"/><path class="cls-21" d="M1133.78,364.48l17-14.5h1.61l17,14.5a5.86,5.86,0,0,0-2.3-.57l-2.21-.2-2.14-.13-1.83-.09-2.2-.07-3.14-.07-4,0s-5,0-5.07.05l-3.55.09-4.4.23-2.74.25A4.88,4.88,0,0,0,1133.78,364.48Z"/><rect class="cls-21" x="1150.57" y="332.78" width="1.82" height="17.19" transform="translate(2302.96 682.76) rotate(-180)"/></g><g class="cls-10"><ellipse class="cls-20" cx="1070.24" cy="364.08" rx="17.8" ry="1.16"/><ellipse class="cls-21" cx="1070.24" cy="330.79" rx="11.11" ry="1.6"/><path class="cls-21" d="M1052.45,364.08l17-14.5h1.61l17,14.5a6.07,6.07,0,0,0-2.3-.57l-2.21-.2-2.13-.13-1.83-.09-2.2-.07-3.14-.07-4,0s-5,0-5.06.05l-3.56.1-4.39.22-2.75.25A4.88,4.88,0,0,0,1052.45,364.08Z"/><rect class="cls-21" x="1069.24" y="332.38" width="1.82" height="17.19" transform="translate(2140.3 681.96) rotate(-180)"/></g><g class="cls-10"><ellipse class="cls-20" cx="1070.24" cy="364.48" rx="17.8" ry="1.16"/><ellipse class="cls-21" cx="1070.24" cy="331.19" rx="11.11" ry="1.6"/><path class="cls-21" d="M1052.45,364.48l17-14.5h1.61l17,14.5a5.86,5.86,0,0,0-2.3-.57l-2.21-.2-2.13-.13-1.83-.09-2.2-.07-3.14-.07-4,0s-5,0-5.06.05l-3.56.09-4.39.23-2.75.25A4.88,4.88,0,0,0,1052.45,364.48Z"/><rect class="cls-21" x="1069.24" y="332.78" width="1.82" height="17.19" transform="translate(2140.3 682.76) rotate(-180)"/></g><g class="cls-10"><ellipse class="cls-20" cx="1070.15" cy="364.9" rx="17.8" ry="1.16"/><ellipse class="cls-21" cx="1070.15" cy="331.61" rx="11.11" ry="1.6"/><path class="cls-21" d="M1052.36,364.9l17-14.51H1071l17,14.51a5.86,5.86,0,0,0-2.3-.57l-2.21-.2-2.14-.14-1.83-.08-2.2-.08-3.14-.06-4,0s-5.05,0-5.07,0l-3.55.1-4.4.23-2.74.25A4.88,4.88,0,0,0,1052.36,364.9Z"/><rect class="cls-21" x="1069.15" y="333.2" width="1.82" height="17.19" transform="translate(2140.12 683.59) rotate(-180)"/></g><g class="cls-10"><ellipse class="cls-20" cx="1184.08" cy="288.99" rx="17.8" ry="1.16"/><ellipse class="cls-21" cx="1184.08" cy="322.29" rx="11.11" ry="1.6"/><path class="cls-21" d="M1201.87,289l-17,14.51h-1.61l-17-14.51a6,6,0,0,0,2.3.58l2.21.2,2.13.13,1.83.09,2.2.07,3.14.07,4,0s5.05,0,5.06-.05l3.56-.1,4.39-.22,2.75-.26A4.72,4.72,0,0,0,1201.87,289Z"/><rect class="cls-21" x="1183.26" y="303.5" width="1.82" height="17.19"/></g><g class="cls-10"><ellipse class="cls-20" cx="1183.26" cy="288.48" rx="17.8" ry="1.16"/><ellipse class="cls-21" cx="1183.26" cy="321.77" rx="11.11" ry="1.6"/><path class="cls-21" d="M1201.06,288.48l-17,14.51h-1.61l-17-14.51a5.79,5.79,0,0,0,2.3.57l2.2.2,2.14.14,1.83.08,2.2.08,3.14.06,4,0s5,0,5.07-.05l3.56-.09,4.39-.23L1199,289A5,5,0,0,0,1201.06,288.48Z"/><rect class="cls-21" x="1182.45" y="302.99" width="1.82" height="17.19"/></g><rect class="cls-23" x="676.75" y="355.76" width="1.77" height="72.92"/><rect class="cls-23" x="673.94" y="354.46" width="1.77" height="72.92"/><rect class="cls-23" x="670.78" y="355.27" width="1.77" height="72.92"/><rect class="cls-23" x="665.66" y="353.68" width="1.77" height="72.92"/><rect class="cls-23" x="678.54" y="355.76" width="1.77" height="72.92" transform="translate(20.16 -33.02) rotate(2.83)"/><rect class="cls-23" x="664.78" y="355.76" width="1.77" height="72.92" transform="translate(-29.73 55.5) rotate(-4.67)"/><rect class="cls-23" x="668.78" y="356.11" width="1.77" height="72.92"/><rect class="cls-23" x="661.15" y="356.11" width="1.77" height="72.92" transform="matrix(0.99, -0.13, 0.13, 0.99, -44.41, 87.06)"/><rect class="cls-23" x="685.41" y="355.27" width="1.77" height="72.92" transform="translate(37.81 -59.84) rotate(5.13)"/><rect class="cls-23" x="681.7" y="355.27" width="1.77" height="72.92" transform="translate(20.14 -33.18) rotate(2.83)"/><rect class="cls-23" x="688.38" y="355.27" width="1.77" height="72.92" transform="translate(53.08 -81.35) rotate(7.02)"/><rect class="cls-23" x="669.69" y="355.42" width="1.77" height="72.92"/><g class="cls-10"><ellipse class="cls-24" cx="675.56" cy="377.46" rx="18.82" ry="2.06"/><ellipse class="cls-24" cx="675.56" cy="428.25" rx="11.75" ry="3.22"/><path class="cls-24" d="M656.74,377.21s8.72,4.14,37.64,0L687.32,429s-9.91-5.73-23.51,0Z"/></g><path class="cls-25" d="M691.27,377.32,686,428.87h-2.18A146.13,146.13,0,0,1,689,377.76Z"/><g class="cls-10"><ellipse class="cls-24" cx="1159.07" cy="219.03" rx="12.86" ry="1.41"/><ellipse class="cls-24" cx="1159.07" cy="253.75" rx="8.03" ry="2.2"/><path class="cls-24" d="M1146.2,218.86s6,2.83,25.73,0l-4.83,35.39s-6.77-3.92-16.07,0Z"/></g><path class="cls-25" d="M1169.81,218.94l-3.63,35.23h-1.49a99.91,99.91,0,0,1,3.56-34.93Z"/><g class="cls-10"><ellipse class="cls-24" cx="1127.85" cy="218.8" rx="12.86" ry="1.41"/><ellipse class="cls-24" cx="1127.85" cy="253.52" rx="8.03" ry="2.2"/><path class="cls-24" d="M1115,218.63s6,2.83,25.73,0L1135.89,254s-6.78-3.92-16.07,0Z"/></g><path class="cls-25" d="M1138.59,218.7,1135,253.94h-1.48A99.63,99.63,0,0,1,1137,219Z"/><g class="cls-10"><ellipse class="cls-24" cx="1098.94" cy="219.37" rx="12.86" ry="1.41"/><ellipse class="cls-24" cx="1098.94" cy="254.09" rx="8.03" ry="2.2"/><path class="cls-24" d="M1086.08,219.2s6,2.83,25.73,0L1107,254.59s-6.78-3.92-16.07,0Z"/></g><path class="cls-25" d="M1109.68,219.28l-3.62,35.23h-1.49a99.64,99.64,0,0,1,3.56-34.93Z"/><g class="cls-10"><ellipse class="cls-24" cx="1070.24" cy="220.27" rx="12.86" ry="1.41"/><ellipse class="cls-24" cx="1070.24" cy="254.99" rx="8.03" ry="2.2"/><path class="cls-24" d="M1057.38,220.1s6,2.83,25.73,0l-4.83,35.39s-6.78-3.91-16.07,0Z"/></g><path class="cls-25" d="M1081,220.18l-3.62,35.24h-1.49a99.63,99.63,0,0,1,3.56-34.93Z"/><g class="cls-10"><ellipse class="cls-24" cx="1041.06" cy="220.24" rx="12.86" ry="1.41"/><ellipse class="cls-24" cx="1041.06" cy="254.96" rx="8.03" ry="2.2"/><path class="cls-24" d="M1028.19,220.07s6,2.83,25.73,0l-4.83,35.39s-6.77-3.92-16.07,0Z"/></g><path class="cls-25" d="M1051.8,220.14l-3.63,35.24h-1.49a99.91,99.91,0,0,1,3.56-34.93Z"/><g class="cls-10"><ellipse class="cls-24" cx="1152.39" cy="396.08" rx="12.86" ry="1.41"/><ellipse class="cls-24" cx="1152.39" cy="430.8" rx="8.03" ry="2.2"/><path class="cls-24" d="M1139.52,395.91s6,2.83,25.73,0l-4.83,35.39s-6.77-3.92-16.07,0Z"/></g><path class="cls-25" d="M1163.12,396l-3.62,35.23H1158a99.91,99.91,0,0,1,3.56-34.93Z"/><path class="cls-26" d="M1140.25,401.4s6.3-1.2,9.34,0c0,0,4.78-.9,5.39-.27s8.29-.63,8.67-.27a1,1,0,0,0,.87.24l-4.12,29.7s-.67,2.3-8,2.2-8-1.2-8-1.7S1140.25,401.4,1140.25,401.4Z"/><g class="cls-10"><ellipse class="cls-24" cx="1126.36" cy="391.29" rx="12.86" ry="1.41"/><ellipse class="cls-24" cx="1126.36" cy="426.01" rx="8.03" ry="2.2"/><path class="cls-24" d="M1113.49,391.12s6,2.83,25.73,0l-4.83,35.39s-6.77-3.92-16.07,0Z"/></g><path class="cls-25" d="M1137.1,391.2l-3.63,35.23H1132a99.92,99.92,0,0,1,3.56-34.93Z"/><path class="cls-26" d="M1114.22,396.61s6.3-1.2,9.34,0c0,0,4.79-.9,5.39-.27s8.29-.62,8.67-.26a1,1,0,0,0,.87.23l-4.12,29.7s-.67,2.3-8,2.2-8-1.2-8-1.7S1114.22,396.61,1114.22,396.61Z"/><g class="cls-10"><ellipse class="cls-24" cx="1114.7" cy="396.08" rx="12.86" ry="1.41"/><ellipse class="cls-24" cx="1114.7" cy="430.8" rx="8.03" ry="2.2"/><path class="cls-24" d="M1101.83,395.91s6,2.83,25.73,0l-4.83,35.39s-6.77-3.92-16.07,0Z"/></g><path class="cls-25" d="M1125.44,396l-3.63,35.23h-1.49a99.91,99.91,0,0,1,3.56-34.93Z"/><path class="cls-26" d="M1102.56,401.4s6.3-1.2,9.34,0c0,0,4.79-.9,5.4-.27s8.28-.63,8.66-.27a1,1,0,0,0,.87.24l-4.12,29.7s-.67,2.3-8,2.2-8-1.2-8-1.7S1102.56,401.4,1102.56,401.4Z"/><rect x="-7.71" y="13.88" width="1365" height="12.01"/><rect x="-7.71" y="17.66" width="24.5" height="764.22"/><rect x="1332.79" y="22.62" width="24.5" height="760.56"/><g class="cls-10"><ellipse class="cls-12" cx="776.59" cy="385.53" rx="22.14" ry="1.45"/><ellipse class="cls-13" cx="776.59" cy="426.96" rx="13.83" ry="1.99"/><line class="cls-14" x1="776.59" y1="403.54" x2="776.59" y2="424.97"/><path class="cls-15" d="M798.73,385.53l-21.15,18.05h-2l-21.13-18.05a7.39,7.39,0,0,0,2.87.71l2.74.26,2.66.16,2.28.11,2.73.09,3.91.08,5,0s6.28,0,6.3-.06l4.43-.12,5.46-.28,3.42-.32A6,6,0,0,0,798.73,385.53Z"/></g><path class="cls-16" d="M758.88,389a5,5,0,0,1,1.83,0,23.63,23.63,0,0,0,5.32,0c.1-.17,6.92-.37,7.54,0s9.72.29,9.92.12a2.89,2.89,0,0,1,1.13-.35c-.12.08.82,0,1,.24a32,32,0,0,0,4.49,0,10.84,10.84,0,0,0,2.52,0,4.36,4.36,0,0,1,1.63,0l-16.71,14.51h-2Z"/><g class="cls-11"><circle class="cls-17" cx="766.36" cy="393.85" r="1.01"/><ellipse class="cls-18" cx="766.66" cy="393.59" rx="0.46" ry="0.58"/></g><circle class="cls-17" cx="771.55" cy="396.52" r="1.01"/><ellipse class="cls-18" cx="772.01" cy="396.3" rx="0.46" ry="0.58"/><g class="cls-11"><circle class="cls-17" cx="779.61" cy="389.46" r="1.01"/><ellipse class="cls-18" cx="780.08" cy="389.24" rx="0.46" ry="0.58"/></g><circle class="cls-17" cx="784.03" cy="395.67" r="1.01"/><ellipse class="cls-18" cx="784.5" cy="395.44" rx="0.46" ry="0.58"/><circle class="cls-17" cx="780.12" cy="398.44" r="1.01"/><ellipse class="cls-18" cx="780.58" cy="398.21" rx="0.46" ry="0.58"/><circle class="cls-17" cx="781.4" cy="396.02" r="0.5"/><ellipse class="cls-18" cx="781.63" cy="395.91" rx="0.23" ry="0.29"/><circle class="cls-17" cx="778.61" cy="396.88" r="0.5"/><ellipse class="cls-18" cx="778.84" cy="396.77" rx="0.23" ry="0.29"/><path class="cls-19" d="M776.48,401.52l17.27-23.46a1.55,1.55,0,0,1,2.17-1c1.57.75,9.84,4.52,9.84,4.52l-.68,1-9.23-4s-.82-1-1.16.41-17.29,23-17.29,23Z"/><g class="cls-10"><ellipse class="cls-3" cx="803.25" cy="388.7" rx="19.93" ry="1.44"/><ellipse class="cls-1" cx="803.25" cy="429.98" rx="12.45" ry="1.98"/><line class="cls-27" x1="803.25" y1="406.65" x2="803.25" y2="428"/><path class="cls-28" d="M823.09,388.66l-19,18h-1.81l-19-18a6.13,6.13,0,0,0,2.58.71l2.47.25,2.39.17,2.05.1,2.47.09,3.52.09,4.46,0s5.66,0,5.67-.06l4-.12,4.92-.28,3.07-.31A5.09,5.09,0,0,0,823.09,388.66Z"/></g><path class="cls-29" d="M787.31,392.19s1.34-.23,1.65,0a19.66,19.66,0,0,0,4.79,0c.09-.18,6.23-.37,6.79,0s8.75.3,8.92.13a2.52,2.52,0,0,1,1-.36c-.12.08.73,0,.92.25a27.21,27.21,0,0,0,4,0,9.29,9.29,0,0,0,2.27,0,3.56,3.56,0,0,1,1.47,0l-15.05,14.46h-1.8Z"/><ellipse class="cls-30" cx="807.59" cy="401.91" rx="0.91" ry="1.01"/><ellipse class="cls-31" cx="808" cy="401.73" rx="0.42" ry="0.58"/><path class="cls-32" d="M802.46,403.65,818,380.28s.53-1.72,2-1,8.86,4.5,8.86,4.5l-.62,1-8.3-4s-.74-.95-1,.41-15.57,22.94-15.57,22.94Z"/><ellipse class="cls-30" cx="800.34" cy="399.98" rx="0.91" ry="1.01"/><ellipse class="cls-31" cx="800.75" cy="399.8" rx="0.42" ry="0.58"/><ellipse class="cls-30" cx="800.99" cy="396.15" rx="0.45" ry="0.5"/><ellipse class="cls-31" cx="801.19" cy="396.05" rx="0.21" ry="0.29"/><ellipse class="cls-30" cx="797.2" cy="396.65" rx="0.91" ry="1.01"/><ellipse class="cls-31" cx="797.61" cy="396.47" rx="0.42" ry="0.58"/><ellipse class="cls-30" cx="808.49" cy="397.86" rx="0.45" ry="0.5"/><ellipse class="cls-31" cx="808.7" cy="397.77" rx="0.21" ry="0.29"/><ellipse class="cls-30" cx="809.85" cy="397.36" rx="0.45" ry="0.5"/><ellipse class="cls-31" cx="810.06" cy="397.27" rx="0.21" ry="0.29"/><ellipse class="cls-30" cx="792.54" cy="393.36" rx="0.45" ry="0.5"/><ellipse class="cls-31" cx="792.75" cy="393.27" rx="0.21" ry="0.29"/><ellipse class="cls-30" cx="805.4" cy="392.47" rx="0.45" ry="0.5"/><ellipse class="cls-31" cx="805.61" cy="392.38" rx="0.21" ry="0.29"/><rect class="cls-2" x="0.76" y="-0.93" width="1344.02" height="790"/><rect class="cls-33" x="710.73" y="415.1" width="101.28" height="162.61"/><rect class="cls-33" x="556.03" y="518.67" width="402.89" height="239.46" rx="91.77"/><rect class="cls-33" x="556.03" y="661.24" width="402.89" height="118.06"/><path class="cls-34" d="M666.07,591.49c-6.52-3.39,27.66-82.27,27.66-82.27a13.39,13.39,0,0,1,18-5.69l6.92,3.59a13.41,13.41,0,0,1,5.69,18l-37.1,42.24Z"/><path class="cls-34" d="M737.5,595.52H724c-6.08,0-11.07-71.34-11.07-71.34a10.86,10.86,0,0,1,.23-2.22A11.11,11.11,0,0,1,724,513.11H737.5a11.1,11.1,0,0,1,11.07,11.07S743.59,595.52,737.5,595.52Z"/><rect class="cls-34" x="708.5" y="457.42" width="104.62" height="55.69" rx="3.62"/><path class="cls-35" d="M792.19,457.42H809s-10.69,41.21-25,55.69H770.27S792.41,476.35,792.19,457.42Z"/><path class="cls-35" d="M759.07,457.42h16.85s-10.7,41.21-25,55.69H737.15S759.29,476.35,759.07,457.42Z"/><path class="cls-35" d="M710.8,512.62s-3.41,0-2.3-5.87c0,0,13.21-18.15,18.29-49.33h16.85s-8.35,34.52-23.41,55.69l-7.67-.4Z"/><path class="cls-35" d="M693.73,509.22s2.53,24.45,17,31.43l-8.5,9.67s-14.2-11.44-15.1-25.44Z"/><path class="cls-35" d="M680.21,542s1.38,13.18,13.72,17.75l-6.68,7.61s-11.94-8.66-10.93-15.32Z"/><path class="cls-35" d="M672,563.91s1.58,10.83,8.48,11.2l-4.2,4.78s-6.14-1.55-7-8Z"/><path class="cls-35" d="M666,583.46s1.51,3.63,3.63,3.95l-3.58,4.08S663.6,589.21,666,583.46Z"/><path class="cls-35" d="M713.37,529.77s28.52-.08,35.2-5.59l-.9,11.45s-32.27,6.72-33.49,3.79Z"/><path class="cls-35" d="M713.13,526.47s8.28-8.51,34.33-8c0,0-3.37-5.39-9.86-5.39H720.88s-5.53-.05-7.93,4.43Z"/><path class="cls-35" d="M715.2,550.32s22.9,4.47,31.47-3.56l-1.27,12.33s-16.58,4.71-29,2.75Z"/><path class="cls-35" d="M717.61,571.25s25.89,2.81,26.2.74-1.53,9.79-1.53,9.79-22.19,1.66-23.53-2.88Z"/><path class="cls-36" d="M560.37,591.49s189.53,50.53,394.2,0c0,0,12.14-29.38,4.34,187.8H556S551.35,612,560.37,591.49Z"/><path class="cls-34" d="M560.37,591.49l5.81-14.9s181,57.92,382.58,0l5.81,14.9S778.39,645.36,560.37,591.49Z"/><rect class="cls-37" x="801.88" y="657.69" width="91.88" height="38.39" rx="12"/><path class="cls-34" d="M811.38,655.67h72.87a9.5,9.5,0,0,1,9.5,9.5v7.67a0,0,0,0,1,0,0H801.88a0,0,0,0,1,0,0v-7.67A9.5,9.5,0,0,1,811.38,655.67Z"/><ellipse class="cls-38" cx="809.3" cy="659.39" rx="2.2" ry="2.08"/><ellipse class="cls-38" cx="815.89" cy="659.91" rx="2.2" ry="1.56"/><path class="cls-38" d="M806,662.48s5.49,15.54,13.19,0C819.19,662.48,812.59,670.75,806,662.48Z"/><rect class="cls-38" x="806.82" y="677.11" width="18.3" height="12.37" rx="2.42"/><rect class="cls-9" x="813.25" y="677.11" width="2.47" height="12.37"/><rect class="cls-9" x="814.73" y="674.15" width="2.47" height="18.3" transform="translate(1499.27 -132.67) rotate(90)"/><rect class="cls-36" x="829.08" y="677.11" width="18.3" height="12.37" rx="2.42"/><rect class="cls-39" x="835.51" y="677.11" width="2.47" height="12.37"/><rect class="cls-39" x="836.99" y="674.15" width="2.47" height="18.3" transform="translate(1521.52 -154.93) rotate(90)"/><rect class="cls-38" x="851.33" y="677.11" width="18.3" height="12.37" rx="2.42"/><rect class="cls-9" x="857.76" y="677.11" width="2.47" height="12.37"/><rect class="cls-9" x="859.24" y="674.15" width="2.47" height="18.3" transform="translate(1543.78 -177.18) rotate(90)"/><rect class="cls-40" x="858.25" y="677.11" width="1.48" height="12.37"/><rect class="cls-40" x="859.74" y="674.15" width="1.48" height="18.3" transform="translate(177.18 1543.78) rotate(-90)"/><polygon class="cls-41" points="877.38 686.86 880.89 684.73 880.71 684.73 877.38 686.86"/><polygon class="cls-40" points="873.58 678.56 873.58 681.92 878.69 681.92 873.58 678.56"/><path class="cls-40" d="M890,677.26l-.22,0h-5.89V681Z"/><polygon class="cls-40" points="873.58 684.73 873.58 687.22 877.68 684.73 873.58 684.73"/><polygon class="cls-40" points="881.07 677.24 875.48 677.24 881.07 680.92 881.07 677.24"/><polygon class="cls-40" points="874.76 688.94 881.07 688.94 881.07 685.12 874.76 688.94"/><polygon class="cls-40" points="890.89 681.92 890.89 679.15 886.33 681.92 890.89 681.92"/><polygon class="cls-40" points="890.89 687.38 890.89 684.73 886.86 684.73 890.89 687.38"/><polygon class="cls-40" points="883.88 688.94 889.36 688.94 883.88 685.33 883.88 688.94"/><path class="cls-9" d="M874.28,688.84l0,0-.08-.06-.22.14.22.36.61-.38h0A1.09,1.09,0,0,1,874.28,688.84Z"/><path class="cls-9" d="M883.87,681.92h.61l6.36-3.85v0a1.15,1.15,0,0,0-.87-.83L883.87,681Zm6.5-4.32v0a.86.86,0,0,1,0,.28v.28l-5.37,3.26h-1Z"/><path class="cls-9" d="M881.07,684.73h-.18l-3.51,2.13-3.1,2a1.09,1.09,0,0,0,.44.1h0l6.31-3.83Z"/><polygon class="cls-9" points="890.89 679.15 890.89 678.66 885.51 681.92 886.33 681.92 890.89 679.15"/><path class="cls-9" d="M877.68,684.73l-4.1,2.49v.59a1.11,1.11,0,0,0,.19.62l3.33-2,2.61-1.67Z"/><path class="cls-9" d="M881.07,681.92v-1l-5.59-3.68h-.76a1.14,1.14,0,0,0-.78.31l6.64,4.37Z"/><path class="cls-9" d="M884.85,684.73l5.78,3.8a1.37,1.37,0,0,0,.13-.2l-5.48-3.6Z"/><polygon class="cls-9" points="886.25 684.73 890.89 687.78 890.89 687.38 886.86 684.73 886.25 684.73"/><path class="cls-9" d="M883.87,685.33l5.49,3.61h.4a1.29,1.29,0,0,0,.4-.07l-6.28-4.14h0Z"/><path class="cls-9" d="M879.61,681.92l-6-3.92a1.16,1.16,0,0,0-.07.37v.19l5.11,3.36Z"/><path class="cls-38" d="M880.58,681.92l-6.64-4.37a1.2,1.2,0,0,0-.29.45l6,3.92Z"/><path class="cls-38" d="M890.89,687.78l-4.64-3h-1l5.48,3.6a1.11,1.11,0,0,0,.13-.52Z"/><path class="cls-38" d="M877.38,686.86l3.32-2.13h-.84l-2.76,1.67-3.29,2.11a1.12,1.12,0,0,0,.34.31l0,0Z"/><path class="cls-38" d="M874.28,688.84l-.1,0,0,0,.08.06Z"/><path class="cls-38" d="M874.28,688.84l3.1-2-3.2,1.94Z"/><polygon class="cls-38" points="879.71 684.73 877.1 686.4 879.86 684.73 879.71 684.73"/><path class="cls-38" d="M890.42,678.19v-.28a.86.86,0,0,0,0-.28v0L884,681.45h1Z"/><polygon class="cls-9" points="886.86 684.73 890.89 684.73 890.89 684.26 886.15 684.26 886.86 684.73"/><polygon class="cls-9" points="878.45 684.26 873.58 684.26 873.58 684.73 877.68 684.73 878.45 684.26"/><polygon class="cls-9" points="878.69 681.92 873.58 681.92 873.58 682.39 879.4 682.39 878.69 681.92"/><polygon class="cls-9" points="885.56 682.39 890.89 682.39 890.89 681.92 886.33 681.92 885.56 682.39"/><polygon class="cls-9" points="885.56 682.39 886.33 681.92 885.51 681.92 884.74 682.39 885.56 682.39"/><polygon class="cls-9" points="883.88 682.29 884.48 681.92 883.88 681.92 883.88 682.29"/><polygon class="cls-9" points="879.96 684.67 880.63 684.26 878.45 684.26 877.68 684.73 879.71 684.73 879.81 684.67 879.96 684.67"/><polygon class="cls-9" points="879.81 684.67 879.71 684.73 879.86 684.73 879.96 684.67 879.81 684.67"/><polygon class="cls-9" points="880.89 684.73 881.07 684.73 881.07 684.62 880.89 684.73"/><polygon class="cls-9" points="881.07 681.92 880.58 681.92 881.07 682.24 881.07 681.92"/><polygon class="cls-9" points="879.61 681.92 878.69 681.92 879.4 682.39 880.32 682.39 879.61 681.92"/><polygon class="cls-9" points="886.25 684.73 886.86 684.73 886.15 684.26 884.14 684.26 884.85 684.73 885.28 684.73 886.25 684.73"/><polygon class="cls-9" points="883.88 684.73 883.88 684.73 883.88 684.73 883.88 684.73"/><polygon class="cls-9" points="883.88 684.26 883.88 684.73 883.88 684.73 884.85 684.73 884.14 684.26 883.88 684.26"/><polygon class="cls-9" points="881.07 682.39 881.07 682.24 880.58 681.92 879.61 681.92 880.32 682.39 881.07 682.39"/><polygon class="cls-9" points="881.07 684.26 880.63 684.26 879.96 684.67 880.84 684.65 880.71 684.73 880.89 684.73 881.07 684.62 881.07 684.26"/><polygon class="cls-9" points="879.96 684.67 879.86 684.73 880.71 684.73 880.84 684.65 879.96 684.67"/><polygon class="cls-9" points="883.88 682.39 884.74 682.39 885.51 681.92 884.48 681.92 883.88 682.29 883.88 682.39"/><polygon class="cls-9" points="881.07 685.12 881.07 688.94 881.54 688.94 881.54 684.83 881.07 685.12"/><polygon class="cls-9" points="883.41 685.02 883.41 688.94 883.88 688.94 883.88 685.33 883.41 685.02"/><polygon class="cls-9" points="881.54 681.23 881.54 677.24 881.07 677.24 881.07 680.92 881.54 681.23"/><polygon class="cls-9" points="883.88 680.97 883.88 677.24 883.41 677.24 883.41 681.25 883.88 680.97"/><polygon class="cls-9" points="881.07 684.73 881.07 685.12 881.54 684.83 881.54 684.73 881.07 684.73"/><polygon class="cls-9" points="883.88 681.92 883.88 680.97 883.41 681.25 883.41 681.92 883.88 681.92"/><polygon class="cls-9" points="881.54 681.23 881.07 680.92 881.07 681.92 881.54 681.92 881.54 681.23"/><polygon class="cls-9" points="883.41 685.02 883.88 685.33 883.88 684.73 883.41 684.73 883.41 685.02"/><polygon class="cls-9" points="881.54 684.34 881.07 684.62 881.07 684.73 881.54 684.73 881.54 684.34"/><polygon class="cls-9" points="883.41 682.39 883.71 682.39 883.88 682.29 883.88 681.92 883.41 681.92 883.41 682.39"/><polygon class="cls-9" points="883.41 684.73 883.88 684.73 883.88 684.73 883.41 684.42 883.41 684.73"/><polygon class="cls-9" points="881.29 682.39 881.54 682.39 881.54 681.92 881.07 681.92 881.07 682.24 881.29 682.39"/><polygon class="cls-9" points="883.41 684.42 883.88 684.73 883.88 684.26 883.41 684.26 883.41 684.42"/><polygon class="cls-9" points="881.07 682.24 881.07 682.39 881.29 682.39 881.07 682.24"/><polygon class="cls-9" points="881.07 684.26 881.07 684.62 881.54 684.34 881.54 684.26 881.07 684.26"/><polygon class="cls-9" points="883.88 682.39 883.88 682.29 883.71 682.39 883.88 682.39"/><polygon class="cls-38" points="882.46 681.83 883.41 681.25 883.41 677.24 881.54 677.24 881.54 681.23 882.46 681.83"/><polygon class="cls-38" points="882.96 684.73 881.7 684.73 881.54 684.83 881.54 688.94 883.41 688.94 883.41 685.02 882.96 684.73"/><polygon class="cls-38" points="881.54 684.83 881.7 684.73 881.54 684.73 881.54 684.83"/><polygon class="cls-38" points="883.41 681.92 883.41 681.25 882.46 681.83 882.59 681.92 883.41 681.92"/><polygon class="cls-38" points="882.31 681.92 882.46 681.83 881.54 681.23 881.54 681.92 882.31 681.92"/><polygon class="cls-38" points="882.96 684.73 883.41 685.02 883.41 684.73 882.96 684.73"/><polygon class="cls-38" points="882.59 681.92 882.46 681.83 882.31 681.92 882.59 681.92"/><polygon class="cls-38" points="881.7 684.73 882.96 684.73 882.36 684.33 881.7 684.73"/><polygon class="cls-38" points="883.41 682.39 883.41 681.92 882.59 681.92 883.3 682.39 883.41 682.39"/><polygon class="cls-38" points="882.25 684.26 881.66 684.26 881.54 684.34 881.54 684.73 881.7 684.73 882.36 684.33 882.25 684.26"/><polygon class="cls-38" points="883.41 684.42 883.16 684.26 882.47 684.26 882.36 684.33 882.96 684.73 883.41 684.73 883.41 684.42"/><polygon class="cls-38" points="881.54 681.92 881.54 682.39 882.31 681.92 881.54 681.92"/><polygon class="cls-38" points="882.59 681.92 882.31 681.92 881.54 682.39 883.3 682.39 882.59 681.92"/><polygon class="cls-38" points="882.36 684.33 882.47 684.26 882.25 684.26 882.36 684.33"/><polygon class="cls-38" points="883.41 684.42 883.41 684.26 883.16 684.26 883.41 684.42"/><polygon class="cls-38" points="881.54 684.34 881.66 684.26 881.54 684.26 881.54 684.34"/><polygon class="cls-38" points="880.43 683.06 879.4 682.39 873.58 682.39 873.58 684.26 878.45 684.26 880.43 683.06"/><polygon class="cls-38" points="884.38 683.1 886.15 684.26 890.89 684.26 890.89 682.39 885.56 682.39 884.38 683.1"/><polygon class="cls-38" points="881.07 684 881.07 683.49 880.43 683.06 878.45 684.26 880.63 684.26 881.07 684"/><polygon class="cls-38" points="884.38 683.1 885.56 682.39 884.74 682.39 884 682.84 884.38 683.1"/><polygon class="cls-38" points="880.32 682.39 879.4 682.39 880.43 683.06 880.9 682.77 880.32 682.39"/><polygon class="cls-38" points="883.88 683.41 883.88 684.09 884.14 684.26 886.15 684.26 884.38 683.1 883.88 683.41"/><polygon class="cls-38" points="883.88 682.92 883.88 683.41 884.38 683.1 884 682.84 883.88 682.92"/><polygon class="cls-38" points="881.07 682.88 880.9 682.77 880.43 683.06 881.07 683.49 881.07 682.88"/><polygon class="cls-38" points="881.07 682.39 880.32 682.39 880.9 682.77 881.07 682.67 881.07 682.39"/><polygon class="cls-38" points="883.88 684.26 884.14 684.26 883.88 684.09 883.88 684.26"/><polygon class="cls-38" points="880.9 682.77 881.07 682.88 881.07 682.67 880.9 682.77"/><polygon class="cls-38" points="884 682.84 884.74 682.39 883.88 682.39 883.88 682.76 884 682.84"/><polygon class="cls-38" points="880.63 684.26 881.07 684.26 881.07 684 880.63 684.26"/><polygon class="cls-38" points="884 682.84 883.88 682.76 883.88 682.92 884 682.84"/><polygon class="cls-38" points="883.5 682.52 883.71 682.39 883.41 682.39 883.41 682.46 883.5 682.52"/><polygon class="cls-38" points="881.07 683.49 881.07 684 881.47 683.75 881.07 683.49"/><polygon class="cls-38" points="883.41 683.78 883.88 684.09 883.88 683.41 883.41 683.7 883.41 683.78"/><polygon class="cls-38" points="881.54 682.39 881.29 682.39 881.41 682.47 881.54 682.39"/><polygon class="cls-38" points="881.54 682.55 881.54 682.39 881.41 682.47 881.54 682.55"/><polygon class="cls-38" points="883.41 682.58 883.5 682.52 883.41 682.46 883.41 682.58"/><polygon class="cls-38" points="881.54 683.71 881.54 683.19 881.07 682.88 881.07 683.49 881.47 683.75 881.54 683.71"/><polygon class="cls-38" points="883.41 683.2 883.41 683.7 883.88 683.41 883.88 682.92 883.41 683.2"/><polygon class="cls-38" points="883.41 683.78 883.41 684.26 883.88 684.26 883.88 684.09 883.41 683.78"/><polygon class="cls-38" points="881.41 682.47 881.29 682.39 881.07 682.39 881.07 682.67 881.41 682.47"/><polygon class="cls-38" points="881.54 682.55 881.41 682.47 881.07 682.67 881.07 682.88 881.54 683.19 881.54 682.55"/><polygon class="cls-38" points="881.54 683.79 881.47 683.75 881.07 684 881.07 684.26 881.54 684.26 881.54 683.79"/><polygon class="cls-38" points="883.5 682.52 883.88 682.76 883.88 682.39 883.71 682.39 883.5 682.52"/><polygon class="cls-38" points="883.41 683.2 883.88 682.92 883.88 682.76 883.5 682.52 883.41 682.58 883.41 683.2"/><polygon class="cls-38" points="881.47 683.75 881.54 683.79 881.54 683.71 881.47 683.75"/><polygon class="cls-38" points="883.41 682.46 883.41 682.39 883.3 682.39 883.41 682.46"/><polygon class="cls-38" points="881.66 684.26 882.25 684.26 881.97 684.08 881.66 684.26"/><polygon class="cls-38" points="883.34 683.74 883.41 683.78 883.41 683.7 883.34 683.74"/><polygon class="cls-38" points="882.47 684.26 883.16 684.26 882.83 684.04 882.47 684.26"/><polygon class="cls-38" points="883.34 683.74 883.41 683.7 883.41 683.2 882.95 683.48 883.34 683.74"/><polygon class="cls-38" points="881.54 683.19 881.54 683.71 881.95 683.46 881.54 683.19"/><polygon class="cls-38" points="882.44 683.79 881.97 684.08 882.25 684.26 882.47 684.26 882.83 684.04 882.44 683.79"/><polygon class="cls-38" points="882.45 683.15 883.41 682.58 883.41 682.46 883.3 682.39 881.54 682.39 881.54 682.55 882.45 683.15"/><polygon class="cls-38" points="882.83 684.04 883.16 684.26 883.41 684.26 883.41 683.78 883.34 683.74 882.83 684.04"/><polygon class="cls-38" points="882.44 683.79 882.83 684.04 883.34 683.74 882.95 683.48 882.44 683.79"/><polygon class="cls-38" points="882.45 683.15 881.54 682.55 881.54 683.19 881.95 683.46 882.45 683.15"/><polygon class="cls-38" points="881.54 683.79 881.54 684.26 881.66 684.26 881.97 684.08 881.54 683.79"/><polygon class="cls-38" points="881.54 683.71 881.54 683.79 881.97 684.08 882.44 683.79 881.95 683.46 881.54 683.71"/><polygon class="cls-38" points="882.45 683.15 882.95 683.48 883.41 683.2 883.41 682.58 882.45 683.15"/><polygon class="cls-38" points="882.45 683.15 881.95 683.46 882.44 683.79 882.95 683.48 882.45 683.15"/><path class="cls-37" d="M695.57,410.81v76.68s-1.6,12.18-14.66,12.91S579.46,545.75,545.15,404c0,0,73.41,63.71,95.68,31.85s-7.25-103.32-7.25-103.32Z"/><rect class="cls-33" x="624.72" y="100.85" width="290.5" height="332.13" rx="112.85"/><path class="cls-42" d="M714.26,293.21c-1.52.23,9.65-9.35,11.94-34.25l4-19.92.46-.46a1.61,1.61,0,0,1,2.26,0l.46.46,5,56.85s18.59,10.38,0,22.58a60.59,60.59,0,0,1-15,1.85,37.9,37.9,0,0,1-5.19-.46,20.65,20.65,0,0,1-7.93-2.89C716.31,321,694.21,310.28,714.26,293.21Z"/><path class="cls-43" d="M751.69,242.62s30.06-16.77,65.93,0c0,0-11.32-20.35-35.94-19.07S751.69,242.62,751.69,242.62Z"/><path class="cls-43" d="M651.79,239.81s30.06-16.77,65.93,0c0,0-11.32-20.35-35.94-19.07S651.79,239.81,651.79,239.81Z"/><ellipse class="cls-44" cx="729.02" cy="317.7" rx="5.41" ry="2.15" transform="translate(-50.47 160.21) rotate(-12.12)"/><ellipse class="cls-44" cx="714.06" cy="316.73" rx="1.98" ry="5.41" transform="translate(170.79 878.02) rotate(-69.86)"/><path d="M749,211.63l3.61,11.51s15-25.29,41.3-30.28S826,187.33,826,187.33l-26,.17a50.43,50.43,0,0,0-15.54,2.38C777.17,192.45,769.15,195.23,749,211.63Z"/><path d="M711.75,208.13l-2.2,11s-14.68-21.54-37.47-23.17-27.75-1.47-27.75-1.47l22.14-2.77a39.55,39.55,0,0,1,13.41.44C686.35,193.66,693.39,195.3,711.75,208.13Z"/><path class="cls-45" d="M804.61,236.7c6.13,2.08,13.61-3.62,16.71-12.75"/><path class="cls-45" d="M793.25,235.08c7.41,2.53,16.19-3.6,19.63-13.71"/><path class="cls-45" d="M784,234.23c7.26,2.47,15.78-3.33,19-13"/><path class="cls-45" d="M653,237.92c-8.54,1.64-17.35-7-19.72-19.42"/><path class="cls-45" d="M808.86,237.38c6.48,2.21,14.45-4,17.83-14"/><path class="cls-45" d="M675.28,233.87c-8.54,1.64-16.9-4.63-18.69-14"/><path class="cls-45" d="M668.59,234.83c-8.54,1.63-17-5.28-19-15.46"/><path class="cls-45" d="M660.94,235.78c-8.53,1.64-17.18-6.18-19.34-17.48"/><path class="cls-37" d="M733.64,97.74S718.22,159,616.11,201.43c0,0-37.83,27.37-23.93,73.5,0,0-77.91-279.86,139.14-245.6"/><path class="cls-37" d="M709.9,119.86s93.26,58.84,179.58,50.52c0,0,30.23,171.49-9,205.76s-49.2,41.35-71.52,48.95c0,0-4.66,48.19,1.22,60.93S827,508.31,830.38,509.1s80.7,33.24,134.5-5.27,45.39-83.08,45.39-83.08-66.4,58.1-79.85,26.26,55.48-228.3,55.48-228.3,52.95-161.5-73.56-183.11c0,0-45.23-23.63-127.06-16.65,0,0-44,3-63.33,15Z"/><ellipse class="cls-46" cx="721.42" cy="304.75" rx="6.37" ry="2.79"/><ellipse class="cls-47" cx="805.07" cy="290.26" rx="33.32" ry="23.12" transform="translate(-33.87 459.29) rotate(-31.22)"/><ellipse class="cls-47" cx="658.55" cy="293.05" rx="21.78" ry="31.41" transform="translate(-0.47 585.03) rotate(-47.88)"/><path class="cls-48" d="M733.36,239l10.44,61.35s-4-3.8-5.41-4.5Z"/><path class="cls-49" d="M721.42,289.38s.71,9.71,4.74,0c0,0,8-20.87,4.81-35.2,0,0-5.87,22.85-8.75,31.86C721.42,288.54,721.42,290,721.42,289.38Z"/><path d="M717.72,239.81s-16-8.18-42-4.89c-7.15.91-15.47,1.61-23.92,4.89,0,0-3.22.14-10.19-3.81l16-1.08s13.25-2.45,17.19-2.87a75.19,75.19,0,0,1,18.16,0A81.59,81.59,0,0,1,717.72,239.81Z"/><path d="M750.16,243.53s16.31-10.27,42.75-6.13c7.28,1.13,15.75,2,24.35,6.13,0,0,3.28.18,10.37-4.78l-16.24-1.35s-13.49-3.08-17.5-3.6a61.58,61.58,0,0,0-18.48,0C767.63,235.08,759.34,238.06,750.16,243.53Z"/><path class="cls-50" d="M718.21,115.16s-33,54.19-85.53,71.71c0,0-40.6,12.37-42.19,40,0,0,4-27.29,31-45.61,0,0,43.06-11.14,68.88-43.8Z"/><path class="cls-51" d="M721.82,71.38s-20.69,58.94-124.16,102c0,0,25.9-86.28,77.42-106.06,0,0-30.46,4.11-38.42,18.45,0,0,11.94-23.89,57.3-30.27,0,0-52.52-11.94-79.59,33.46,0,0,33-65.55,112.23-46.2Z"/><path class="cls-50" d="M738.58,39.14S848.77-1.49,945.07,65.41c0,0-103-54.14-186.38-26.27,0,0,53.68-12.73,74.66,0,0,0-85.57-3.48-94.77,9.4,0,0,158.74-15.95,206.49,34.71s36.61,121.59,36.61,121.59S1003.35,48.46,743.8,78.44H733.64Z"/><path class="cls-52" d="M735.75,60.63s63,46.1,142.43,44.61c0,0,61.07-2.45,71.67,27.08,0,0-13.87-28.17-57.62-37.53,0,0-64.17,4.74-110.5-20.72Z"/><path class="cls-50" d="M726.2,109.22s48.07,51.63,163.71,48.52c0,0,25.48.59,21.61,34.18,0,0,11.4-39.39-9.36-45.91,0,0-105.13,3.77-171.19-56.7Z"/><path class="cls-50" d="M958,249.46s-69.41,111-87.32,218.36c0,0-1.16,29.57,17.53,33.81s54.32-7.17,54.32-7.17S880.13,453.42,958,249.46Z"/><path class="cls-50" d="M681.61,418.06S721.42,521,604.43,486.75c0,0,55.35,23.16,66-75.53Z"/><path class="cls-53" d="M685.14,215.57c1.43-2.88,17,9.56,33.1,17.69C718.24,233.26,697.7,231.09,685.14,215.57Z"/><path class="cls-53" d="M781.45,215.22c-1.4-3-16.6,10.08-32.33,18.65C749.12,233.87,769.18,231.59,781.45,215.22Z"/><path class="cls-1" d="M739.16,202.79c-.89.75-3.71,18.38-3.28,28.57C735.88,231.36,741.86,211.13,739.16,202.79Z"/><path class="cls-1" d="M722.43,201.5c1.17.59,1.77,20.15,1.86,30.49C724.29,232,719.54,210.41,722.43,201.5Z"/><path class="cls-28" d="M684.35,257.75c-.39-2.68,18.25-6.63,35.06-13.45C719.41,244.3,702.25,257.69,684.35,257.75Z"/><path class="cls-28" d="M744.88,245.05c-3.08-4.66,18.9,7.81,35.64,13.87C780.52,258.92,769.56,263,744.88,245.05Z"/><path class="cls-9" d="M760,350c-34-16.34-68.22-10.31-69.23-8.44-2.72,5.05-2.95,14.55-2.78,15.63.86,5.41,3,12.07,6.79,20.19a100.69,100.69,0,0,0,24.33,3A103.71,103.71,0,0,0,767.72,368,69.91,69.91,0,0,0,760,350Z"/><path d="M692.92,382.05l4,13c6.84.52,17,3.71,29.6,3.87,3.46,0,6.52.07,9,0,8.26-.26,21-4.7,37.33-12.89-1-3.62-1.9-9.12-3.86-15.45-2.38-7.65-5.64-15.13-6.44-15.46-1.6-.67-69.12-1.17-74.65,1.29l3.18,18.06A63,63,0,0,0,692.92,382.05Z"/><path d="M767.48,335.3s17.2,15.32,20.84,45.27C788.32,380.57,790.22,352.55,767.48,335.3Z"/><path class="cls-54" d="M696.68,394.9c8.69,2.69,18.93,14.2,33.71,16.92,18.78,3.45,38-17.36,42.48-25.77l-35,9.66a13.75,13.75,0,0,1-4.78.45l-36.08-3A.9.9,0,0,0,696.68,394.9Z"/><path class="cls-54" d="M720.74,331.16s-9.32-15.06-30.82,11.49a.4.4,0,0,0,.38.65c4-.72,17.65-2.61,26.6.2a23.84,23.84,0,0,0,8.77,1l6.78-.45a37.28,37.28,0,0,1,13.6,1.63l14.28,4.51S736.31,319.62,720.74,331.16Z"/><rect class="cls-9" x="76.22" y="91.39" width="416.8" height="632.61" rx="54.12"/><polygon class="cls-9" points="486.96 410.36 486.96 336.9 560.37 336.9 523.66 373.63 486.96 410.36"/><path d="M110.59,137.76a99.66,99.66,0,0,1,14.79-1.12c10,0,17.11,2.32,21.83,6.72s7.59,10.64,7.59,19.36-2.72,16-7.75,21-13.35,7.76-23.83,7.76a112.28,112.28,0,0,1-12.63-.64Zm7,47.68a43.89,43.89,0,0,0,7,.4c14.87,0,23-8.32,23-22.88.08-12.72-7.12-20.8-21.83-20.8a39.51,39.51,0,0,0-8.15.72Z"/><path d="M191.73,165.68H170.79v19.44h23.34V191h-30.3V137h29.1v5.84H170.79v17h20.94Z"/><path d="M202.21,182.48A24.6,24.6,0,0,0,214.68,186c7.11,0,11.27-3.76,11.27-9.2,0-5-2.88-7.92-10.15-10.72-8.8-3.12-14.23-7.68-14.23-15.28,0-8.4,7-14.64,17.42-14.64,5.52,0,9.52,1.28,11.91,2.64L229,144.48a21.47,21.47,0,0,0-10.24-2.56c-7.35,0-10.15,4.4-10.15,8.08,0,5,3.28,7.52,10.71,10.4,9.12,3.52,13.75,7.92,13.75,15.84,0,8.32-6.15,15.52-18.86,15.52-5.2,0-10.88-1.52-13.75-3.44Z"/><path d="M254.41,191,236.82,137h7.51l8.4,26.56c2.32,7.28,4.32,13.84,5.75,20.16h.16c1.52-6.24,3.76-13,6.16-20.08L273.91,137h7.44L262.08,191Z"/><path d="M276.31,191,300.93,137h33.74v5.84H311.73l2.07,17.2h20.07v5.76H314.68l2.4,19.28h19.75V191H311.09l-2.4-19H292.14l-8.63,19Zm31.58-24.64-1.76-15.52c-.32-2.56-.8-6-1-8.72h-.32c-1,2.56-2.24,5.6-3.44,8.48l-7,15.76Z"/><path d="M345.46,137.76a72.38,72.38,0,0,1,13.35-1.12c7.44,0,12.23,1.36,15.59,4.4a13.43,13.43,0,0,1,4.24,10.24c0,7.12-4.48,11.84-10.16,13.76v.24c4.16,1.44,6.64,5.28,7.92,10.88,1.76,7.52,3,12.72,4.16,14.8h-7.2c-.88-1.52-2.08-6.16-3.6-12.88-1.6-7.44-4.47-10.24-10.79-10.48h-6.55V191h-7Zm7,24.56h7.11c7.43,0,12.15-4.08,12.15-10.24,0-7-5-10-12.39-10.08a28.47,28.47,0,0,0-6.87.64Z"/><path d="M388.47,137.76a72.38,72.38,0,0,1,13.35-1.12c7.43,0,12.23,1.36,15.59,4.4a13.42,13.42,0,0,1,4.23,10.24c0,7.12-4.47,11.84-10.15,13.76v.24c4.16,1.44,6.64,5.28,7.92,10.88,1.75,7.52,3,12.72,4.15,14.8h-7.19c-.88-1.52-2.08-6.16-3.6-12.88-1.6-7.44-4.48-10.24-10.79-10.48h-6.56V191h-6.95Zm6.95,24.56h7.12c7.43,0,12.15-4.08,12.15-10.24,0-7-5-10-12.39-10.08a28.63,28.63,0,0,0-6.88.64Z"/><path d="M459.38,165.68H438.43v19.44h23.34V191H431.48V137h29.09v5.84H438.43v17h20.95Z"/><path d="M157.81,251.27a21.89,21.89,0,0,1,4.65-.51c3.14,0,5.38,1.06,6.86,3.06s2.39,4.86,2.39,8.84-.86,7.3-2.44,9.56a8.66,8.66,0,0,1-7.49,3.54,24.66,24.66,0,0,1-4-.29ZM160,273a9.46,9.46,0,0,0,2.22.18c4.67,0,7.21-3.79,7.21-10.43,0-5.81-2.24-9.49-6.86-9.49a8.91,8.91,0,0,0-2.57.32Z"/><path d="M184.72,270.72c0,1.83,0,3.43.1,4.82h-2l-.13-2.88h0c-.58,1.42-1.86,3.28-4,3.28-1.91,0-4.2-1.53-4.2-7.74V257.88h2.22v9.78c0,3.35.7,5.62,2.71,5.62,1.48,0,2.51-1.5,2.92-2.92a7,7,0,0,0,.2-1.64V257.88h2.21Z"/><path d="M193.71,262.66c0-1.83,0-3.32-.1-4.78h2l.13,2.92h.05c.6-1.68,2-3.33,4-3.33,1.68,0,4.29,1.46,4.29,7.52v10.55h-2.21V265.36c0-2.85-.73-5.22-2.81-5.22-1.46,0-2.59,1.49-3,3.28a6.61,6.61,0,0,0-.15,1.5v10.62h-2.21Z"/><path d="M214.39,275.54l-.18-2.23h-.07a4.3,4.3,0,0,1-3.72,2.63c-2.47,0-3.72-2.52-3.72-5.07,0-4.27,2.61-6.61,7.31-6.57v-.37c0-1.46-.28-4.08-2.76-4.08a4.79,4.79,0,0,0-3.17,1.31l-.5-2.12a5.88,5.88,0,0,1,4-1.57c3.72,0,4.63,3.69,4.63,7.23v6.61a36,36,0,0,0,.2,4.23Zm-.33-9c-2.41-.08-5.15.54-5.15,4,0,2.08,1,3.07,2.09,3.07,1.58,0,2.58-1.46,2.94-3a5.07,5.07,0,0,0,.12-1Zm-4.75-13.91c0-1.94,1-3.47,2.57-3.47s2.48,1.5,2.48,3.43-1.08,3.36-2.51,3.36S209.31,254.48,209.31,252.62Zm3.82-.07c0-1.1-.5-2-1.3-2s-1.24,1-1.24,2.08c0,.95.51,2,1.24,2S213.13,253.64,213.13,252.55Z"/><path d="M221,267.29c.05,4.35,2,6.13,4.17,6.13a5.88,5.88,0,0,0,3.36-.91l.38,2.3a7.29,7.29,0,0,1-4,1.1c-3.75,0-6-3.58-6-8.91s2.17-9.53,5.71-9.53c4,0,5,5.08,5,8.33,0,.65-.05,1.16-.07,1.49Zm6.48-2.3c0-2-.58-5.22-3.07-5.22-2.23,0-3.21,3-3.39,5.22Z"/><path d="M242.86,249.63V271c0,1.57,0,3.36.1,4.56h-2l-.1-3.07h-.05c-.68,2-2.16,3.47-4.15,3.47-2.94,0-5.2-3.61-5.2-9,0-5.87,2.49-9.49,5.45-9.49a4,4,0,0,1,3.67,2.7h0V249.63Zm-2.22,15.44a7.6,7.6,0,0,0-.1-1.35c-.32-2.05-1.53-3.73-3.19-3.73-2.29,0-3.64,2.92-3.64,6.83,0,3.57,1.2,6.53,3.59,6.53,1.48,0,2.84-1.42,3.24-3.83a7.64,7.64,0,0,0,.1-1.39Z"/><path d="M247.75,267.29c.05,4.35,2,6.13,4.18,6.13a5.91,5.91,0,0,0,3.36-.91l.38,2.3a7.3,7.3,0,0,1-4,1.1c-3.74,0-6-3.58-6-8.91s2.16-9.53,5.71-9.53c4,0,5,5.08,5,8.33,0,.65-.05,1.16-.07,1.49Zm6.49-2.3c0-2-.58-5.22-3.07-5.22-2.24,0-3.22,3-3.39,5.22Z"/><path d="M266.9,252.91c0,1.1-.53,2-1.41,2s-1.33-.87-1.33-2,.58-2,1.38-2S266.9,251.78,266.9,252.91Zm-2.47,22.63V257.88h2.22v17.66Z"/><path d="M272.5,266h.05c.3-.62.73-1.39,1.08-2l3.57-6.09h2.66l-4.7,7.26,5.36,10.4h-2.69l-4.2-8.47-1.13,1.83v6.64h-2.19V249.63h2.19Z"/><path d="M284.71,266h.05c.3-.62.73-1.39,1.08-2l3.57-6.09h2.66l-4.7,7.26,5.36,10.4H290l-4.2-8.47-1.13,1.83v6.64h-2.19V249.63h2.19Z"/><path d="M295.54,267.29c0,4.35,2,6.13,4.17,6.13a5.94,5.94,0,0,0,3.37-.91l.37,2.3a7.26,7.26,0,0,1-4,1.1c-3.75,0-6-3.58-6-8.91s2.16-9.53,5.7-9.53c4,0,5,5.08,5,8.33,0,.65-.05,1.16-.08,1.49ZM302,265c0-2-.58-5.22-3.06-5.22-2.24,0-3.22,3-3.4,5.22Z"/><path d="M319,275.54l-.18-2.23h-.08a4.28,4.28,0,0,1-3.72,2.63c-2.46,0-3.71-2.52-3.71-5.07,0-4.27,2.61-6.61,7.31-6.57v-.37c0-1.46-.28-4.08-2.77-4.08a4.77,4.77,0,0,0-3.16,1.31l-.51-2.12a5.93,5.93,0,0,1,4-1.57c3.72,0,4.62,3.69,4.62,7.23v6.61a35.89,35.89,0,0,0,.21,4.23Zm-.33-9c-2.41-.08-5.15.54-5.15,4,0,2.08.95,3.07,2.08,3.07,1.59,0,2.59-1.46,2.94-3a4.46,4.46,0,0,0,.13-1Z"/><path d="M326.89,252.8v5.08h3.17v2.44h-3.17v9.53c0,2.19.43,3.43,1.66,3.43a3.43,3.43,0,0,0,1.28-.22l.1,2.41a3.94,3.94,0,0,1-2,.44,2.66,2.66,0,0,1-2.38-1.35,8.77,8.77,0,0,1-.86-4.6v-9.64h-1.88v-2.44h1.88v-4.24Z"/><path d="M338.1,275.54V260.32h-1.71v-2.44h1.71V257c0-2.49.37-4.75,1.41-6.17a3.61,3.61,0,0,1,3-1.65,3.75,3.75,0,0,1,1.89.52l-.31,2.48a2.43,2.43,0,0,0-1.4-.4c-1.89,0-2.37,2.41-2.37,5.11v.95h2.94v2.44h-2.94v15.22Z"/><path d="M351.94,275.54l-.17-2.23h-.08a4.29,4.29,0,0,1-3.72,2.63c-2.46,0-3.72-2.52-3.72-5.07,0-4.27,2.62-6.61,7.32-6.57v-.37c0-1.46-.28-4.08-2.77-4.08a4.77,4.77,0,0,0-3.16,1.31l-.51-2.12a5.93,5.93,0,0,1,4-1.57c3.72,0,4.62,3.69,4.62,7.23v6.61a36,36,0,0,0,.2,4.23Zm-.32-9c-2.42-.08-5.16.54-5.16,4,0,2.08,1,3.07,2.09,3.07,1.58,0,2.59-1.46,2.94-3a4.46,4.46,0,0,0,.13-1Zm-4.75-13.91c0-1.94,1-3.47,2.56-3.47s2.49,1.5,2.49,3.43-1.08,3.36-2.52,3.36S346.87,254.48,346.87,252.62Zm3.82-.07c0-1.1-.51-2-1.31-2s-1.23,1-1.23,2.08c0,.95.5,2,1.23,2S350.69,253.64,350.69,252.55Z"/><path d="M362.64,262.66c0-1.83,0-3.32-.1-4.78h2l.13,2.92h.05c.6-1.68,2-3.33,4-3.33,1.69,0,4.3,1.46,4.3,7.52v10.55h-2.21V265.36c0-2.85-.73-5.22-2.82-5.22-1.46,0-2.59,1.49-3,3.28a6.61,6.61,0,0,0-.15,1.5v10.62h-2.22Z"/><path d="M387.6,266.56c0,6.54-3.12,9.38-6.06,9.38-3.29,0-5.83-3.5-5.83-9.09,0-5.91,2.66-9.38,6-9.38S387.6,261.16,387.6,266.56Zm-9.66.18c0,3.87,1.54,6.79,3.7,6.79s3.69-2.88,3.69-6.86c0-3-1-6.79-3.64-6.79S377.94,263.39,377.94,266.74Z"/><path d="M392.57,266h.05c.3-.62.73-1.39,1.08-2l3.57-6.09h2.66l-4.7,7.26,5.36,10.4H397.9l-4.2-8.47-1.13,1.83v6.64h-2.19V249.63h2.19Z"/><path d="M175,311.09c.05,4.35,2,6.13,4.17,6.13a5.92,5.92,0,0,0,3.37-.91l.38,2.3a7.3,7.3,0,0,1-4.05,1.1c-3.74,0-6-3.58-6-8.91s2.16-9.53,5.71-9.53c4,0,5,5.08,5,8.33,0,.65,0,1.16-.07,1.49Zm6.49-2.3c0-2-.58-5.22-3.07-5.22-2.24,0-3.22,3-3.39,5.22Z"/><path d="M186.4,306.46c0-1.83,0-3.32-.1-4.78h2l.12,2.92h.05c.61-1.68,2-3.33,4-3.33,1.68,0,4.29,1.46,4.29,7.52v10.55h-2.21V309.16c0-2.85-.73-5.22-2.81-5.22-1.46,0-2.59,1.49-3,3.28a6.61,6.61,0,0,0-.15,1.5v10.62H186.4Z"/><path d="M201.57,311.09c.05,4.35,2,6.13,4.18,6.13a5.91,5.91,0,0,0,3.36-.91l.38,2.3a7.3,7.3,0,0,1-4.05,1.1c-3.74,0-6-3.58-6-8.91s2.16-9.53,5.71-9.53c4,0,5,5.08,5,8.33,0,.65-.05,1.16-.07,1.49Zm6.49-2.3c0-2-.58-5.22-3.07-5.22-2.23,0-3.22,3-3.39,5.22Z"/><path d="M212.93,307.19c0-2.08,0-3.87-.1-5.51h1.93l.08,3.46h.1c.55-2.37,1.88-3.87,3.37-3.87a1.81,1.81,0,0,1,.63.11v3a2.49,2.49,0,0,0-.76-.11c-1.56,0-2.66,1.72-3,4.13a13.12,13.12,0,0,0-.1,1.49v9.42h-2.19Z"/><path d="M231.42,301.68c0,1.27-.1,2.7-.1,4.85v10.26c0,4-.55,6.53-1.73,8.06a5.28,5.28,0,0,1-4.42,2.12,6,6,0,0,1-4-1.46l.55-2.45a5.38,5.38,0,0,0,3.57,1.39c2.26,0,3.92-1.71,3.92-6.17v-2h0a4.27,4.27,0,0,1-3.87,3c-3,0-5.18-3.72-5.18-8.62,0-6,2.69-9.38,5.48-9.38a4.13,4.13,0,0,1,3.8,3.07h0l.1-2.66Zm-2.28,7a6.5,6.5,0,0,0-.13-1.46c-.4-1.86-1.48-3.4-3.09-3.4-2.11,0-3.62,2.59-3.62,6.68,0,3.47,1.21,6.35,3.59,6.35,1.36,0,2.59-1.24,3.07-3.28a7.73,7.73,0,0,0,.18-1.72Z"/><path d="M237.3,296.71c0,1.1-.53,2-1.41,2s-1.33-.87-1.33-2,.58-2,1.38-2S237.3,295.58,237.3,296.71Zm-2.46,22.63V301.68h2.21v17.66Z"/><path d="M248.71,296.6v5.08h3.16v2.44h-3.16v9.53c0,2.19.43,3.43,1.66,3.43a3.52,3.52,0,0,0,1.28-.22l.1,2.41a4,4,0,0,1-2,.44,2.69,2.69,0,0,1-2.39-1.35c-.63-.95-.85-2.52-.85-4.6v-9.64h-1.89v-2.44h1.89v-4.24Z"/><path d="M256.82,296.71c0,1.1-.53,2-1.41,2s-1.33-.87-1.33-2,.58-2,1.39-2S256.82,295.58,256.82,296.71Zm-2.46,22.63V301.68h2.21v17.66Z"/><path d="M260.24,293.43h2.21v25.91h-2.21Z"/><path d="M274,296.71c0,1.1-.53,2-1.41,2s-1.33-.87-1.33-2,.58-2,1.38-2S274,295.58,274,296.71Zm-2.47,22.63V301.68h2.22v17.66Z"/><path d="M282.7,306.46c0-1.83,0-3.32-.1-4.78h1.93l.1,2.84h.08c.68-1.68,1.81-3.25,3.82-3.25,1.66,0,2.91,1.46,3.44,3.54h0a7.39,7.39,0,0,1,1.36-2.3,3.4,3.4,0,0,1,2.69-1.24c1.61,0,4,1.54,4,7.67v10.4H297.9v-10c0-3.39-.85-5.44-2.64-5.44-1.25,0-2.23,1.35-2.61,2.92a7.53,7.53,0,0,0-.18,1.61v10.91h-2.16V308.76c0-2.81-.85-4.86-2.53-4.86-1.39,0-2.39,1.61-2.74,3.21a6.14,6.14,0,0,0-.18,1.57v10.66H282.7Z"/><path d="M314.66,310.36c0,6.54-3.12,9.38-6.06,9.38-3.29,0-5.83-3.5-5.83-9.09,0-5.91,2.67-9.38,6-9.38S314.66,305,314.66,310.36Zm-9.65.18c0,3.87,1.53,6.79,3.69,6.79s3.7-2.88,3.7-6.86c0-3-1-6.79-3.64-6.79S305,307.19,305,310.54Z"/><path d="M317.45,307.19c0-2.08,0-3.87-.1-5.51h1.93l.08,3.46h.1c.55-2.37,1.88-3.87,3.36-3.87a1.73,1.73,0,0,1,.63.11v3a2.37,2.37,0,0,0-.75-.11c-1.56,0-2.67,1.72-3,4.13a13.12,13.12,0,0,0-.1,1.49v9.42h-2.18Z"/><path d="M335.94,301.68c-.05,1.27-.1,2.7-.1,4.85v10.26c0,4-.55,6.53-1.73,8.06a5.29,5.29,0,0,1-4.43,2.12,6,6,0,0,1-4-1.46l.55-2.45a5.36,5.36,0,0,0,3.57,1.39c2.26,0,3.92-1.71,3.92-6.17v-2h-.05a4.28,4.28,0,0,1-3.87,3c-3,0-5.18-3.72-5.18-8.62,0-6,2.69-9.38,5.48-9.38a4.11,4.11,0,0,1,3.79,3.07h0l.11-2.66Zm-2.29,7a6.53,6.53,0,0,0-.12-1.46c-.4-1.86-1.48-3.4-3.09-3.4-2.11,0-3.62,2.59-3.62,6.68,0,3.47,1.2,6.35,3.59,6.35,1.36,0,2.59-1.24,3.07-3.28a8.36,8.36,0,0,0,.17-1.72Z"/><path d="M340.74,311.09c.05,4.35,2,6.13,4.17,6.13a5.94,5.94,0,0,0,3.37-.91l.37,2.3a7.29,7.29,0,0,1-4,1.1c-3.75,0-6-3.58-6-8.91s2.16-9.53,5.7-9.53c4,0,5,5.08,5,8.33,0,.65-.05,1.16-.08,1.49Zm6.48-2.3c0-2-.58-5.22-3.07-5.22-2.23,0-3.21,3-3.39,5.22Z"/><path d="M352.09,306.46c0-1.83,0-3.32-.1-4.78h2l.13,2.92h.05c.6-1.68,2-3.33,4-3.33,1.68,0,4.3,1.46,4.3,7.52v10.55h-2.21V309.16c0-2.85-.73-5.22-2.82-5.22-1.46,0-2.59,1.49-3,3.28a6,6,0,0,0-.16,1.5v10.62h-2.21Z"/><path d="M370.83,304.6c0-1.36.63-2.3,1.51-2.3s1.46.94,1.49,2.3-.58,2.26-1.51,2.26S370.83,305.87,370.83,304.6Zm0,12.88c0-1.35.63-2.3,1.51-2.3s1.46.95,1.49,2.3-.58,2.26-1.51,2.26S370.83,318.76,370.83,317.48Z"/><path d="M381.69,308.28v2.37h-6.21v-2.37Z"/><path d="M389.08,294c-1.84,3.58-3.17,8.32-3.17,14.93a32.61,32.61,0,0,0,3.17,14.82h-1.74a31.08,31.08,0,0,1-3.29-14.82A31.87,31.87,0,0,1,387.34,294Z"/><path d="M137.27,382.67a21.89,21.89,0,0,1,4.65-.51c3.14,0,5.38,1.06,6.86,3.06s2.39,4.86,2.39,8.84-.86,7.3-2.44,9.56a8.66,8.66,0,0,1-7.49,3.54,24.66,24.66,0,0,1-4-.29Zm2.18,21.75a9.4,9.4,0,0,0,2.22.19c4.67,0,7.21-3.8,7.21-10.44,0-5.81-2.24-9.49-6.86-9.49a8.51,8.51,0,0,0-2.57.33Z"/><path d="M155.26,398.69c.05,4.35,2,6.13,4.17,6.13a5.94,5.94,0,0,0,3.37-.91l.37,2.3a7.29,7.29,0,0,1-4,1.1c-3.75,0-6-3.58-6-8.91s2.16-9.53,5.7-9.53c4,0,5,5.08,5,8.33,0,.65,0,1.16-.08,1.49Zm6.48-2.3c0-2-.58-5.22-3.07-5.22-2.23,0-3.21,3-3.39,5.22Z"/><path d="M169.28,384.2v5.08h3.16v2.44h-3.16v9.53c0,2.19.42,3.43,1.65,3.43a3.53,3.53,0,0,0,1.29-.22l.1,2.41a4,4,0,0,1-2,.44A2.69,2.69,0,0,1,168,406a8.77,8.77,0,0,1-.86-4.6v-9.64h-1.88v-2.44h1.88V385Z"/><path d="M180.26,381h2.21v11h.05a5.34,5.34,0,0,1,1.58-2.26,3.55,3.55,0,0,1,2.26-.92c1.64,0,4.25,1.46,4.25,7.56v10.51H188.4V396.8c0-2.85-.73-5.26-2.82-5.26-1.43,0-2.56,1.46-3,3.21a5.35,5.35,0,0,0-.15,1.53v10.66h-2.21Z"/><path d="M200.93,406.94l-.17-2.22h-.08a4.29,4.29,0,0,1-3.72,2.62c-2.46,0-3.72-2.52-3.72-5.07,0-4.27,2.62-6.61,7.32-6.57v-.36c0-1.46-.28-4.09-2.77-4.09a4.77,4.77,0,0,0-3.16,1.31l-.51-2.12a6,6,0,0,1,4-1.57c3.72,0,4.62,3.69,4.62,7.23v6.61a36,36,0,0,0,.2,4.23Zm-.32-9c-2.42-.08-5.15.54-5.15,4,0,2.09.95,3.07,2.08,3.07,1.59,0,2.59-1.46,2.94-3a4.39,4.39,0,0,0,.13-1Z"/><path d="M207,389.28l2.39,9.92c.4,1.61.73,3.07,1,4.53h.07c.28-1.46.63-2.92,1-4.53l2.37-9.92h2.31l-4.78,17.66h-2.11l-4.62-17.66Z"/><path d="M228.45,381v21.35c0,1.57,0,3.36.1,4.56h-2l-.1-3.06h-.05c-.68,2-2.16,3.46-4.15,3.46-2.94,0-5.2-3.61-5.2-9,0-5.87,2.49-9.49,5.45-9.49a4,4,0,0,1,3.67,2.71h0V381Zm-2.22,15.44a7.6,7.6,0,0,0-.1-1.35c-.32-2.05-1.53-3.73-3.19-3.73-2.28,0-3.64,2.92-3.64,6.83,0,3.58,1.21,6.53,3.59,6.53,1.49,0,2.84-1.42,3.24-3.83a7.64,7.64,0,0,0,.1-1.39Z"/><path d="M233.34,398.69c0,4.35,2,6.13,4.17,6.13a5.92,5.92,0,0,0,3.37-.91l.38,2.3a7.3,7.3,0,0,1-4,1.1c-3.74,0-6-3.58-6-8.91s2.16-9.53,5.71-9.53c4,0,5,5.08,5,8.33,0,.65-.05,1.16-.07,1.49Zm6.49-2.3c0-2-.58-5.22-3.07-5.22-2.24,0-3.22,3-3.39,5.22Z"/><path d="M249.72,403.66a4.65,4.65,0,0,0,2.92,1.27,2.31,2.31,0,0,0,2.36-2.62c0-1.54-.63-2.38-2.26-3.25a5.41,5.41,0,0,1-3.22-5c0-2.85,1.58-5.19,4.2-5.19a4.72,4.72,0,0,1,3,1.1l-.55,2.34a3.77,3.77,0,0,0-2.49-1,2.14,2.14,0,0,0-2,2.41c0,1.46.73,2.12,2.31,3a5.48,5.48,0,0,1,3.2,5.32c0,3.11-1.66,5.3-4.55,5.3a5.32,5.32,0,0,1-3.42-1.21Z"/><path d="M261.21,398.69c.05,4.35,2,6.13,4.17,6.13a5.88,5.88,0,0,0,3.36-.91l.38,2.3a7.29,7.29,0,0,1-4,1.1c-3.75,0-6-3.58-6-8.91s2.17-9.53,5.71-9.53c4,0,5,5.08,5,8.33,0,.65-.05,1.16-.07,1.49Zm6.48-2.3c0-2-.58-5.22-3.07-5.22-2.23,0-3.21,3-3.39,5.22Z"/><path d="M272.56,381h2.21v25.91h-2.21Z"/><path d="M279.35,389.28l2.38,9.92c.4,1.61.73,3.07,1,4.53h.08c.27-1.46.63-2.92,1-4.53l2.36-9.92h2.31l-4.77,17.66h-2.11L277,389.28Z"/><path d="M295.9,394.06c0-1.83,0-3.32-.1-4.78h1.94l.1,2.84h.07c.68-1.68,1.81-3.25,3.82-3.25,1.66,0,2.92,1.46,3.45,3.55h0a7.16,7.16,0,0,1,1.36-2.3,3.39,3.39,0,0,1,2.69-1.25c1.61,0,4,1.54,4,7.67v10.4h-2.16v-10c0-3.39-.86-5.44-2.64-5.44-1.26,0-2.24,1.35-2.62,2.92a7.57,7.57,0,0,0-.17,1.61v10.91h-2.16V396.36c0-2.81-.86-4.86-2.54-4.86-1.38,0-2.39,1.61-2.74,3.21a6.14,6.14,0,0,0-.18,1.57v10.66H295.9Z"/><path d="M319.32,384.31c0,1.1-.53,2-1.41,2s-1.33-.87-1.33-2,.58-2,1.38-2S319.32,383.18,319.32,384.31Zm-2.46,22.63V389.28h2.21v17.66Z"/><path d="M322.73,394.06c0-1.83,0-3.32-.1-4.78h2l.13,2.92h0c.6-1.68,2-3.33,4-3.33,1.68,0,4.3,1.46,4.3,7.52v10.55h-2.21V396.76c0-2.85-.73-5.22-2.82-5.22-1.46,0-2.59,1.5-3,3.28a6.67,6.67,0,0,0-.15,1.5v10.62h-2.22Z"/><path d="M342,394.06c0-1.83,0-3.32-.1-4.78h1.94l.1,2.84H344c.68-1.68,1.81-3.25,3.82-3.25,1.66,0,2.92,1.46,3.45,3.55h.05a7,7,0,0,1,1.35-2.3,3.39,3.39,0,0,1,2.69-1.25c1.61,0,4,1.54,4,7.67v10.4h-2.16v-10c0-3.39-.86-5.44-2.64-5.44-1.26,0-2.24,1.35-2.61,2.92a6.94,6.94,0,0,0-.18,1.61v10.91h-2.16V396.36c0-2.81-.86-4.86-2.54-4.86-1.38,0-2.39,1.61-2.74,3.21a6.63,6.63,0,0,0-.17,1.57v10.66H342Z"/><path d="M374,398c0,6.54-3.12,9.38-6.06,9.38-3.29,0-5.83-3.5-5.83-9.08,0-5.92,2.66-9.39,6-9.39S374,392.56,374,398Zm-9.66.19c0,3.86,1.54,6.78,3.7,6.78s3.69-2.88,3.69-6.86c0-3-1-6.79-3.64-6.79S364.31,394.79,364.31,398.15Z"/><path d="M376.75,394.79c0-2.08,0-3.87-.1-5.51h1.94l.07,3.46h.1c.55-2.37,1.89-3.87,3.37-3.87a1.77,1.77,0,0,1,.63.11v3a2.44,2.44,0,0,0-.76-.11c-1.55,0-2.66,1.72-3,4.13a13.12,13.12,0,0,0-.1,1.49v9.42h-2.19Z"/><path d="M385.07,394.06c0-1.83,0-3.32-.1-4.78h1.93l.1,2.84h.08c.68-1.68,1.81-3.25,3.82-3.25,1.66,0,2.91,1.46,3.44,3.55h.05a7.16,7.16,0,0,1,1.36-2.3,3.37,3.37,0,0,1,2.69-1.25c1.61,0,4,1.54,4,7.67v10.4h-2.16v-10c0-3.39-.85-5.44-2.64-5.44-1.25,0-2.23,1.35-2.61,2.92a7.53,7.53,0,0,0-.18,1.61v10.91h-2.16V396.36c0-2.81-.85-4.86-2.54-4.86-1.38,0-2.38,1.61-2.74,3.21a6.63,6.63,0,0,0-.17,1.57v10.66h-2.16Z"/><path d="M417,398c0,6.54-3.12,9.38-6.06,9.38-3.29,0-5.83-3.5-5.83-9.08,0-5.92,2.67-9.39,6-9.39S417,392.56,417,398Zm-9.65.19c0,3.86,1.53,6.78,3.69,6.78s3.7-2.88,3.7-6.86c0-3-1-6.79-3.65-6.79S407.38,394.79,407.38,398.15Z"/><path d="M419.81,394.79c0-2.08,0-3.87-.1-5.51h1.94l.07,3.46h.1c.56-2.37,1.89-3.87,3.37-3.87a1.77,1.77,0,0,1,.63.11v3a2.37,2.37,0,0,0-.75-.11c-1.56,0-2.67,1.72-3,4.13a13.12,13.12,0,0,0-.1,1.49v9.42h-2.19Z"/><path d="M191.59,441.18h0c.3-.62.73-1.39,1.08-2l3.57-6.09H199l-4.7,7.26,5.35,10.4h-2.69l-4.19-8.47-1.13,1.83v6.64H189.4V424.83h2.19Z"/><path d="M211.46,445.92c0,1.83,0,3.43.1,4.82h-2l-.12-2.88h0c-.58,1.42-1.86,3.28-4,3.28-1.91,0-4.2-1.53-4.2-7.73V433.08h2.21v9.78c0,3.36.7,5.62,2.71,5.62,1.49,0,2.52-1.5,2.92-2.92a6.46,6.46,0,0,0,.2-1.64V433.08h2.21Z"/><path d="M215.13,437.86c0-1.83,0-3.32-.1-4.78h2l.12,2.92h0c.61-1.68,2-3.32,4-3.32,1.69,0,4.3,1.45,4.3,7.51v10.55h-2.21V440.56c0-2.85-.73-5.22-2.81-5.22-1.46,0-2.59,1.5-3,3.28a6.67,6.67,0,0,0-.15,1.5v10.62h-2.21Z"/><path d="M229.07,437.86c0-1.83,0-3.32-.1-4.78h2l.13,2.92h.05c.6-1.68,2-3.32,4-3.32,1.68,0,4.3,1.45,4.3,7.51v10.55h-2.22V440.56c0-2.85-.73-5.22-2.81-5.22-1.46,0-2.59,1.5-3,3.28a6.67,6.67,0,0,0-.15,1.5v10.62h-2.21Z"/><path d="M244.25,442.49c.05,4.35,2,6.14,4.17,6.14a5.94,5.94,0,0,0,3.37-.92l.37,2.3a7.29,7.29,0,0,1-4,1.1c-3.75,0-6-3.58-6-8.91s2.16-9.52,5.7-9.52c4,0,5,5.07,5,8.32,0,.65-.05,1.16-.08,1.49Zm6.48-2.3c0-2-.58-5.22-3.07-5.22-2.23,0-3.21,3-3.39,5.22Z"/><path d="M271.41,433.08c-.05,1.27-.1,2.7-.1,4.85v10.26c0,4.05-.55,6.53-1.74,8.06a5.28,5.28,0,0,1-4.42,2.12,6,6,0,0,1-4-1.46l.56-2.44a5.41,5.41,0,0,0,3.57,1.38c2.26,0,3.92-1.71,3.92-6.17v-2h0a4.28,4.28,0,0,1-3.87,3c-3,0-5.18-3.72-5.18-8.62,0-6,2.69-9.37,5.48-9.37a4.11,4.11,0,0,1,3.79,3.06h.05l.1-2.66Zm-2.29,7a6.59,6.59,0,0,0-.12-1.46c-.41-1.86-1.49-3.4-3.1-3.4-2.11,0-3.61,2.59-3.61,6.68,0,3.47,1.2,6.35,3.59,6.35,1.36,0,2.59-1.24,3.07-3.28a8.36,8.36,0,0,0,.17-1.72Z"/><path d="M283.17,434l1.05-2.19,1,1L284.15,435a11.65,11.65,0,0,1,1.83,6.75c0,6.5-3.09,9.38-5.93,9.38a4.47,4.47,0,0,1-3.12-1.24l-1.08,2.23-.93-1.1,1.06-2.19a11.46,11.46,0,0,1-1.89-6.82c0-5.88,2.67-9.34,6-9.34A4.54,4.54,0,0,1,283.17,434Zm-1,2.19a2.74,2.74,0,0,0-2.14-1.06c-2.71,0-3.79,3.65-3.79,6.87a10.25,10.25,0,0,0,.91,4.41l0,0Zm-4.22,11.57a2.49,2.49,0,0,0,2,1c2.32,0,3.85-2.88,3.85-6.86a10.71,10.71,0,0,0-.85-4.3h-.05Z"/><path d="M288.77,438.59c0-2.08,0-3.87-.1-5.51h1.93l.08,3.46h.1c.55-2.37,1.88-3.86,3.36-3.86a1.74,1.74,0,0,1,.63.1v3a2.37,2.37,0,0,0-.75-.11c-1.56,0-2.67,1.72-3,4.13a13.14,13.14,0,0,0-.1,1.5v9.41h-2.18Z"/><path d="M298,442.49c.05,4.35,2,6.14,4.17,6.14a5.91,5.91,0,0,0,3.37-.92l.38,2.3a7.3,7.3,0,0,1-4.05,1.1c-3.74,0-6-3.58-6-8.91s2.16-9.52,5.71-9.52c4,0,5,5.07,5,8.32,0,.65-.05,1.16-.07,1.49Zm6.49-2.3c0-2-.58-5.22-3.07-5.22-2.24,0-3.22,3-3.39,5.22Z"/><path d="M314.54,450.74c0-1.2.1-3,.1-4.56V424.83h2.19v11.09h.05c.78-2,2.19-3.24,4.15-3.24,3,0,5.15,3.64,5.12,9,0,6.31-2.73,9.45-5.45,9.45-1.76,0-3.17-1-4.07-3.32h-.08l-.1,2.92Zm2.29-7.08a8.78,8.78,0,0,0,.1,1.17c.43,2.23,1.71,3.76,3.32,3.76,2.31,0,3.69-2.74,3.69-6.79,0-3.54-1.25-6.57-3.62-6.57-1.5,0-2.91,1.5-3.36,3.94a9,9,0,0,0-.13,1.32Z"/><path d="M330.17,442.49c.05,4.35,2,6.14,4.17,6.14a5.91,5.91,0,0,0,3.37-.92l.38,2.3a7.3,7.3,0,0,1-4,1.1c-3.74,0-6-3.58-6-8.91s2.16-9.52,5.7-9.52c4,0,5,5.07,5,8.32,0,.65-.05,1.16-.07,1.49Zm6.48-2.3c0-2-.57-5.22-3.06-5.22-2.24,0-3.22,3-3.39,5.22Z"/><path d="M352,424.83v21.35c0,1.57,0,3.36.1,4.56h-2l-.1-3.06H350c-.68,2-2.16,3.46-4.15,3.46-2.94,0-5.2-3.61-5.2-9,0-5.87,2.49-9.48,5.45-9.48a4,4,0,0,1,3.67,2.7h.05V424.83Zm-2.21,15.44a7.67,7.67,0,0,0-.1-1.35c-.33-2.05-1.53-3.73-3.19-3.73-2.29,0-3.65,2.92-3.65,6.83,0,3.58,1.21,6.53,3.6,6.53,1.48,0,2.84-1.42,3.24-3.83a7.64,7.64,0,0,0,.1-1.39Z"/><path d="M355.7,438.59c0-2.08,0-3.87-.1-5.51h1.93l.08,3.46h.1c.55-2.37,1.88-3.86,3.37-3.86a1.72,1.72,0,0,1,.62.1v3a2.37,2.37,0,0,0-.75-.11c-1.56,0-2.66,1.72-3,4.13a13.14,13.14,0,0,0-.1,1.5v9.41H355.7Z"/><path d="M364.89,442.49c.05,4.35,2,6.14,4.18,6.14a5.9,5.9,0,0,0,3.36-.92l.38,2.3a7.3,7.3,0,0,1-4.05,1.1c-3.74,0-6-3.58-6-8.91s2.16-9.52,5.71-9.52c4,0,5,5.07,5,8.32,0,.65-.05,1.16-.07,1.49Zm6.49-2.3c0-2-.58-5.22-3.07-5.22-2.24,0-3.22,3-3.39,5.22Z"/><path d="M375.42,448.84c0-1.35.63-2.3,1.51-2.3s1.48.95,1.48,2.3-.58,2.3-1.51,2.3S375.42,450.16,375.42,448.84Z"/><path d="M155.77,578.27a6.08,6.08,0,0,0,3.92,1.61c2.24,0,3.55-1.72,3.55-4.2,0-2.3-.91-3.61-3.2-4.89-2.76-1.42-4.47-3.5-4.47-7,0-3.83,2.19-6.68,5.48-6.68a5.78,5.78,0,0,1,3.74,1.21l-.6,2.59a5.2,5.2,0,0,0-3.22-1.17c-2.31,0-3.19,2-3.19,3.69,0,2.29,1,3.43,3.37,4.74,2.86,1.61,4.32,3.61,4.32,7.23,0,3.79-1.93,7.08-5.93,7.08a6.78,6.78,0,0,1-4.32-1.57Z"/><path d="M170.57,572.58h.05c.3-.62.73-1.39,1.08-2l3.57-6.09h2.66l-4.7,7.26,5.36,10.4H175.9l-4.2-8.46-1.13,1.82v6.64h-2.18V556.23h2.18Z"/><path d="M187.35,582.14l-.17-2.22h-.08a4.29,4.29,0,0,1-3.72,2.62c-2.46,0-3.72-2.51-3.72-5.07,0-4.27,2.62-6.61,7.32-6.57v-.36c0-1.46-.28-4.09-2.77-4.09a4.77,4.77,0,0,0-3.16,1.31l-.51-2.11a5.93,5.93,0,0,1,4-1.57c3.72,0,4.62,3.68,4.62,7.22v6.61a36,36,0,0,0,.2,4.23Zm-.32-9c-2.42-.08-5.15.55-5.15,4,0,2.08,1,3.06,2.08,3.06,1.59,0,2.59-1.46,2.94-2.95a4.54,4.54,0,0,0,.13-1Z"/><path d="M192.73,556.23h2.21v25.91h-2.21Z"/><path d="M204.84,564.48l2.39,9.93c.4,1.6.73,3.06,1,4.52h.07c.28-1.46.63-2.92,1-4.52l2.37-9.93H214l-4.78,17.66H207.1l-4.62-17.66Z"/><path d="M218.53,559.51c0,1.1-.53,2-1.41,2s-1.33-.87-1.33-2,.58-2,1.39-2S218.53,558.38,218.53,559.51Zm-2.46,22.63V564.48h2.21v17.66Z"/><path d="M227.27,570.24c0-2.26-.05-4.08-.1-5.76h2l.1,3h.05c.91-2.16,2.34-3.43,4.32-3.43,2.94,0,5.15,3.61,5.15,9,0,6.36-2.66,9.49-5.52,9.49a4.11,4.11,0,0,1-3.75-2.77h0v9.6h-2.19Zm2.19,4.71a10.59,10.59,0,0,0,.1,1.32c.4,2.22,1.74,3.76,3.32,3.76,2.34,0,3.69-2.78,3.69-6.83,0-3.54-1.28-6.57-3.62-6.57-1.5,0-2.91,1.57-3.34,4a8,8,0,0,0-.15,1.31Z"/><path d="M241.57,570c0-2.08,0-3.87-.1-5.51h1.93l.08,3.46h.1c.55-2.37,1.89-3.86,3.37-3.86a1.57,1.57,0,0,1,.63.11v3a2.5,2.5,0,0,0-.76-.1c-1.56,0-2.66,1.71-3,4.12a13.14,13.14,0,0,0-.1,1.5v9.41h-2.19Z"/><path d="M257.73,565.35l1-2.19,1,1-1.05,2.26a11.65,11.65,0,0,1,1.83,6.75c0,6.5-3.09,9.38-5.93,9.38a4.47,4.47,0,0,1-3.12-1.24l-1.08,2.23-.93-1.1,1.06-2.19a11.46,11.46,0,0,1-1.89-6.82c0-5.88,2.67-9.34,6-9.34A4.54,4.54,0,0,1,257.73,565.35Zm-1,2.19a2.73,2.73,0,0,0-2.13-1.06c-2.72,0-3.8,3.65-3.8,6.87a10.22,10.22,0,0,0,.91,4.41l.05,0Zm-4.22,11.57a2.51,2.51,0,0,0,2,1c2.31,0,3.84-2.89,3.84-6.87a10.71,10.71,0,0,0-.85-4.3h0Z"/><path d="M264,564.48l2.38,9.93c.41,1.6.73,3.06,1,4.52h.08c.28-1.46.63-2.92,1-4.52l2.36-9.93h2.31l-4.77,17.66h-2.11l-4.63-17.66Z"/><path d="M276.22,573.89c0,4.35,2,6.14,4.17,6.14a5.94,5.94,0,0,0,3.37-.92l.37,2.3a7.29,7.29,0,0,1-4,1.1c-3.75,0-6-3.58-6-8.91s2.16-9.52,5.7-9.52c4,0,5,5.07,5,8.32,0,.65,0,1.17-.08,1.49Zm6.48-2.3c0-2-.58-5.21-3.06-5.21-2.24,0-3.22,3-3.4,5.21Z"/><path d="M294.13,573.89c.05,4.35,2,6.14,4.17,6.14a5.91,5.91,0,0,0,3.37-.92l.38,2.3a7.3,7.3,0,0,1-4.05,1.1c-3.74,0-6-3.58-6-8.91s2.16-9.52,5.7-9.52c4,0,5,5.07,5,8.32,0,.65-.05,1.17-.07,1.49Zm6.48-2.3c0-2-.57-5.21-3.06-5.21-2.24,0-3.22,3-3.39,5.21Z"/><path d="M305.49,569.26c0-1.83,0-3.32-.1-4.78h2l.12,2.92h0c.61-1.68,2-3.32,4-3.32,1.69,0,4.3,1.46,4.3,7.51v10.55h-2.21V572c0-2.85-.73-5.22-2.82-5.22-1.45,0-2.58,1.5-3,3.29a6.52,6.52,0,0,0-.15,1.49v10.62h-2.21Z"/><path d="M335.24,564.48c-.05,1.27-.1,2.7-.1,4.85v10.26c0,4-.56,6.53-1.74,8.06a5.28,5.28,0,0,1-4.42,2.12,6,6,0,0,1-4.05-1.46l.56-2.44a5.35,5.35,0,0,0,3.56,1.38c2.27,0,3.92-1.71,3.92-6.17v-2h-.05a4.24,4.24,0,0,1-3.87,3c-3,0-5.17-3.72-5.17-8.61,0-6,2.69-9.38,5.48-9.38a4.11,4.11,0,0,1,3.79,3.06h.05l.1-2.66Zm-2.29,7a6.55,6.55,0,0,0-.13-1.46c-.4-1.86-1.48-3.4-3.09-3.4-2.11,0-3.62,2.6-3.62,6.68,0,3.47,1.21,6.35,3.6,6.35,1.35,0,2.59-1.24,3.06-3.28a7.73,7.73,0,0,0,.18-1.72Z"/><path d="M345.54,582.14l-.18-2.22h-.08a4.28,4.28,0,0,1-3.72,2.62c-2.46,0-3.71-2.51-3.71-5.07,0-4.27,2.61-6.61,7.31-6.57v-.36c0-1.46-.28-4.09-2.77-4.09a4.77,4.77,0,0,0-3.16,1.31l-.51-2.11a5.93,5.93,0,0,1,4-1.57c3.72,0,4.63,3.68,4.63,7.22v6.61a36,36,0,0,0,.2,4.23Zm-.33-9c-2.41-.08-5.15.55-5.15,4,0,2.08.95,3.06,2.08,3.06,1.59,0,2.59-1.46,2.94-2.95a4.54,4.54,0,0,0,.13-1Z"/><path d="M350.91,569.26c0-1.83,0-3.32-.1-4.78h2l.13,2.92H353c.6-1.68,2-3.32,4-3.32,1.68,0,4.29,1.46,4.29,7.51v10.55h-2.21V572c0-2.85-.73-5.22-2.81-5.22-1.46,0-2.59,1.5-3,3.29a6.52,6.52,0,0,0-.15,1.49v10.62h-2.21Z"/><path d="M375.33,564.48c-.05,1.27-.1,2.7-.1,4.85v10.26c0,4-.55,6.53-1.73,8.06a5.28,5.28,0,0,1-4.42,2.12,6,6,0,0,1-4.05-1.46l.55-2.44a5.38,5.38,0,0,0,3.57,1.38c2.26,0,3.92-1.71,3.92-6.17v-2H373a4.25,4.25,0,0,1-3.87,3c-3,0-5.18-3.72-5.18-8.61,0-6,2.69-9.38,5.48-9.38a4.12,4.12,0,0,1,3.8,3.06h.05l.1-2.66Zm-2.28,7a6.55,6.55,0,0,0-.13-1.46c-.4-1.86-1.48-3.4-3.09-3.4-2.11,0-3.62,2.6-3.62,6.68,0,3.47,1.21,6.35,3.6,6.35,1.35,0,2.58-1.24,3.06-3.28a7.73,7.73,0,0,0,.18-1.72Z"/><path d="M386.89,559.4v5.08h3.17v2.44h-3.17v9.53c0,2.19.43,3.43,1.66,3.43a3.47,3.47,0,0,0,1.28-.22l.1,2.41a3.89,3.89,0,0,1-2,.44,2.69,2.69,0,0,1-2.39-1.35c-.63-.95-.85-2.52-.85-4.6v-9.64h-1.89v-2.44h1.89v-4.24Z"/><path d="M395,559.51c0,1.1-.52,2-1.4,2s-1.34-.87-1.34-2,.58-2,1.39-2S395,558.38,395,559.51Zm-2.46,22.63V564.48h2.21v17.66Z"/><path d="M398.42,556.23h2.21v25.91h-2.21Z"/><path d="M406.06,575.17l-.05-.95a10.91,10.91,0,0,1,1.56-6.31c1.13-1.94,1.76-3.36,1.76-5,0-1.86-.81-3.1-2.39-3.14a3.6,3.6,0,0,0-2.54,1.13l-.6-2.3a5.17,5.17,0,0,1,3.59-1.46c2.89,0,4.2,2.59,4.2,5.37,0,2.48-1,4.27-2.16,6.35a9.29,9.29,0,0,0-1.44,5.36l0,.95Zm-.55,5.11c0-1.35.62-2.3,1.5-2.3s1.49.95,1.49,2.3-.58,2.26-1.51,2.26S405.51,581.56,405.51,580.28Z"/></svg>