<svg id="Layer_1" data-name="Layer 1" xmlns="http://www.w3.org/2000/svg" xmlns:xlink="http://www.w3.org/1999/xlink" width="221.32" height="599.38" viewBox="0 0 221.32 599.38"><defs><style>.cls-1{fill:#e6ffff;}.cls-2{fill:#e9ffff;}.cls-3,.cls-4{opacity:0.5;}.cls-3{fill:url(#linear-gradient);}.cls-4{fill:url(#linear-gradient-2);}.cls-11,.cls-13,.cls-15,.cls-17,.cls-19,.cls-21,.cls-23,.cls-25,.cls-27,.cls-5,.cls-7,.cls-9{opacity:0.6;}.cls-5{fill:url(#linear-gradient-3);}.cls-6{fill:url(#linear-gradient-4);}.cls-7{fill:url(#linear-gradient-5);}.cls-8{fill:url(#linear-gradient-6);}.cls-9{fill:url(#linear-gradient-7);}.cls-10{fill:url(#linear-gradient-8);}.cls-11{fill:url(#linear-gradient-9);}.cls-12{fill:url(#linear-gradient-10);}.cls-13{fill:url(#linear-gradient-11);}.cls-14{fill:url(#linear-gradient-12);}.cls-15{fill:url(#linear-gradient-13);}.cls-16{fill:url(#linear-gradient-14);}.cls-17{fill:url(#linear-gradient-15);}.cls-18{fill:url(#linear-gradient-16);}.cls-19{fill:url(#linear-gradient-17);}.cls-20{fill:url(#linear-gradient-18);}.cls-21{fill:url(#linear-gradient-19);}.cls-22{fill:url(#linear-gradient-20);}.cls-23{fill:url(#linear-gradient-21);}.cls-24{fill:url(#linear-gradient-22);}.cls-25{fill:url(#linear-gradient-23);}.cls-26{fill:url(#linear-gradient-24);}.cls-27{fill:url(#linear-gradient-25);}.cls-28{fill:url(#linear-gradient-26);}</style><linearGradient id="linear-gradient" x1="77.51" y1="103.3" x2="144" y2="103.3" gradientUnits="userSpaceOnUse"><stop offset="0" stop-color="#fff"/><stop offset="0" stop-color="#f7f7ff"/><stop offset="0" stop-color="#ebe7d9"/><stop offset="1" stop-color="#2962ff"/></linearGradient><linearGradient id="linear-gradient-2" x1="0.97" y1="380.79" x2="220.66" y2="380.79" xlink:href="#linear-gradient"/><linearGradient id="linear-gradient-3" x1="52.1" y1="249.39" x2="57.97" y2="249.39" xlink:href="#linear-gradient"/><linearGradient id="linear-gradient-4" x1="55.04" y1="248.8" x2="57.73" y2="248.8" xlink:href="#linear-gradient"/><linearGradient id="linear-gradient-5" x1="95.84" y1="305.45" x2="101.71" y2="305.45" xlink:href="#linear-gradient"/><linearGradient id="linear-gradient-6" x1="98.77" y1="304.86" x2="101.47" y2="304.86" xlink:href="#linear-gradient"/><linearGradient id="linear-gradient-7" x1="173.98" y1="526.14" x2="185.73" y2="526.14" xlink:href="#linear-gradient"/><linearGradient id="linear-gradient-8" x1="179.86" y1="524.96" x2="185.25" y2="524.96" xlink:href="#linear-gradient"/><linearGradient id="linear-gradient-9" x1="44.87" y1="524.54" x2="70.62" y2="524.54" xlink:href="#linear-gradient"/><linearGradient id="linear-gradient-10" x1="57.75" y1="521.96" x2="69.58" y2="521.96" xlink:href="#linear-gradient"/><linearGradient id="linear-gradient-11" x1="29.05" y1="568.36" x2="40.8" y2="568.36" xlink:href="#linear-gradient"/><linearGradient id="linear-gradient-12" x1="34.93" y1="567.18" x2="40.32" y2="567.18" xlink:href="#linear-gradient"/><linearGradient id="linear-gradient-13" x1="148.09" y1="376.98" x2="173.84" y2="376.98" xlink:href="#linear-gradient"/><linearGradient id="linear-gradient-14" x1="160.97" y1="374.4" x2="172.79" y2="374.4" xlink:href="#linear-gradient"/><linearGradient id="linear-gradient-15" x1="27.81" y1="285.88" x2="53.56" y2="285.88" xlink:href="#linear-gradient"/><linearGradient id="linear-gradient-16" x1="40.69" y1="283.3" x2="52.51" y2="283.3" xlink:href="#linear-gradient"/><linearGradient id="linear-gradient-17" x1="40.86" y1="352.36" x2="53.66" y2="352.36" xlink:href="#linear-gradient"/><linearGradient id="linear-gradient-18" x1="47.26" y1="351.08" x2="53.14" y2="351.08" xlink:href="#linear-gradient"/><linearGradient id="linear-gradient-19" x1="55.73" y1="368.57" x2="68.52" y2="368.57" xlink:href="#linear-gradient"/><linearGradient id="linear-gradient-20" x1="62.13" y1="367.29" x2="68" y2="367.29" xlink:href="#linear-gradient"/><linearGradient id="linear-gradient-21" x1="139.38" y1="180.53" x2="152.17" y2="180.53" xlink:href="#linear-gradient"/><linearGradient id="linear-gradient-22" x1="145.78" y1="179.25" x2="151.65" y2="179.25" xlink:href="#linear-gradient"/><linearGradient id="linear-gradient-23" x1="83.83" y1="81.86" x2="96.63" y2="81.86" xlink:href="#linear-gradient"/><linearGradient id="linear-gradient-24" x1="90.23" y1="80.58" x2="96.11" y2="80.58" xlink:href="#linear-gradient"/><linearGradient id="linear-gradient-25" x1="103.59" y1="113.21" x2="111.51" y2="113.21" xlink:href="#linear-gradient"/><linearGradient id="linear-gradient-26" x1="107.55" y1="112.42" x2="111.19" y2="112.42" xlink:href="#linear-gradient"/></defs><rect class="cls-1" x="77.33" y="-0.31" width="66.13" height="178.74" rx="1.57"/><path class="cls-2" d="M68.38,162.82h82.5a69.24,69.24,0,0,1,69.24,69.24V592.72a7,7,0,0,1-7,7H7.63a7,7,0,0,1-7-7V230.54a67.72,67.72,0,0,1,67.72-67.72Z"/><path class="cls-3" d="M77.51,47.45s9.92-3.71,11.93-2.16,25.27.13,25.85-1.07,26.84,0,27.83,2.15c2,4.28,0,116.49,0,116.49H77.51Z"/><path class="cls-4" d="M77.51,162.86h65.61c.64,0,20.63-3.57,38.77,7,13,7.56,26,18,31.81,32,3,7.17,6,21.76,6,29,0,122.12,0,338.35,1,363.37.05,1.34-3.88,5-3.88,5H6.94a10,10,0,0,1-4-2,7.61,7.61,0,0,1-2-4c1-23,0-241.54,0-362.37a85.29,85.29,0,0,1,3-20,53.58,53.58,0,0,1,7-15c1.59-2.36,3.35-6.06,7-10,6-6.58,14.89-13.77,19.88-16C57.06,161.2,76.16,162.86,77.51,162.86Z"/><ellipse class="cls-5" cx="55.04" cy="249.39" rx="2.94" ry="3.27"/><ellipse class="cls-6" cx="56.39" cy="248.8" rx="1.35" ry="1.88"/><ellipse class="cls-7" cx="98.77" cy="305.45" rx="2.94" ry="3.27"/><ellipse class="cls-8" cx="100.12" cy="304.86" rx="1.35" ry="1.88"/><ellipse class="cls-9" cx="179.86" cy="526.14" rx="5.88" ry="6.53"/><ellipse class="cls-10" cx="182.55" cy="524.96" rx="2.7" ry="3.75"/><ellipse class="cls-11" cx="57.75" cy="524.54" rx="12.87" ry="14.32"/><ellipse class="cls-12" cx="63.66" cy="521.96" rx="5.91" ry="8.22"/><ellipse class="cls-13" cx="34.93" cy="568.36" rx="5.88" ry="6.53"/><ellipse class="cls-14" cx="37.63" cy="567.18" rx="2.7" ry="3.75"/><ellipse class="cls-15" cx="160.97" cy="376.98" rx="12.87" ry="14.32"/><ellipse class="cls-16" cx="166.88" cy="374.4" rx="5.91" ry="8.22"/><ellipse class="cls-17" cx="40.69" cy="285.88" rx="12.87" ry="14.32"/><ellipse class="cls-18" cx="46.6" cy="283.3" rx="5.91" ry="8.22"/><ellipse class="cls-19" cx="47.26" cy="352.36" rx="6.4" ry="7.11"/><ellipse class="cls-20" cx="50.2" cy="351.08" rx="2.94" ry="4.08"/><ellipse class="cls-21" cx="62.13" cy="368.57" rx="6.4" ry="7.11"/><ellipse class="cls-22" cx="65.07" cy="367.29" rx="2.94" ry="4.08"/><ellipse class="cls-23" cx="145.78" cy="180.53" rx="6.4" ry="7.11"/><ellipse class="cls-24" cx="148.71" cy="179.25" rx="2.94" ry="4.08"/><ellipse class="cls-25" cx="90.23" cy="81.86" rx="6.4" ry="7.11"/><ellipse class="cls-26" cx="93.17" cy="80.58" rx="2.94" ry="4.08"/><ellipse class="cls-27" cx="107.55" cy="113.21" rx="3.96" ry="4.41"/><ellipse class="cls-28" cx="109.37" cy="112.42" rx="1.82" ry="2.53"/></svg>