<svg id="Layer_1" data-name="Layer 1" xmlns="http://www.w3.org/2000/svg" xmlns:xlink="http://www.w3.org/1999/xlink" width="221.32" height="599.38" viewBox="0 0 221.32 599.38"><defs><style>.cls-1{fill:#e6ffff;}.cls-2{fill:#e9ffff;}.cls-3{opacity:0.5;fill:url(#linear-gradient);}.cls-10,.cls-12,.cls-14,.cls-4,.cls-6,.cls-8{opacity:0.6;}.cls-4{fill:url(#linear-gradient-2);}.cls-5{fill:url(#linear-gradient-3);}.cls-6{fill:url(#linear-gradient-4);}.cls-7{fill:url(#linear-gradient-5);}.cls-8{fill:url(#linear-gradient-6);}.cls-9{fill:url(#linear-gradient-7);}.cls-10{fill:url(#linear-gradient-8);}.cls-11{fill:url(#linear-gradient-9);}.cls-12{fill:url(#linear-gradient-10);}.cls-13{fill:url(#linear-gradient-11);}.cls-14{fill:url(#linear-gradient-12);}.cls-15{fill:url(#linear-gradient-13);}</style><linearGradient id="linear-gradient" x1="0.97" y1="462.79" x2="220.66" y2="462.79" gradientUnits="userSpaceOnUse"><stop offset="0" stop-color="#fff"/><stop offset="0" stop-color="#f7f7ff"/><stop offset="0" stop-color="#ebe7d9"/><stop offset="1" stop-color="#2962ff"/></linearGradient><linearGradient id="linear-gradient-2" x1="173.98" y1="526.14" x2="185.73" y2="526.14" xlink:href="#linear-gradient"/><linearGradient id="linear-gradient-3" x1="179.86" y1="524.96" x2="185.25" y2="524.96" xlink:href="#linear-gradient"/><linearGradient id="linear-gradient-4" x1="44.87" y1="524.54" x2="70.62" y2="524.54" xlink:href="#linear-gradient"/><linearGradient id="linear-gradient-5" x1="57.75" y1="521.96" x2="69.58" y2="521.96" xlink:href="#linear-gradient"/><linearGradient id="linear-gradient-6" x1="29.05" y1="568.36" x2="40.8" y2="568.36" xlink:href="#linear-gradient"/><linearGradient id="linear-gradient-7" x1="34.93" y1="567.18" x2="40.32" y2="567.18" xlink:href="#linear-gradient"/><linearGradient id="linear-gradient-8" x1="148.09" y1="376.98" x2="173.84" y2="376.98" xlink:href="#linear-gradient"/><linearGradient id="linear-gradient-9" x1="160.97" y1="374.4" x2="172.79" y2="374.4" xlink:href="#linear-gradient"/><linearGradient id="linear-gradient-10" x1="40.86" y1="352.36" x2="53.66" y2="352.36" xlink:href="#linear-gradient"/><linearGradient id="linear-gradient-11" x1="47.26" y1="351.08" x2="53.14" y2="351.08" xlink:href="#linear-gradient"/><linearGradient id="linear-gradient-12" x1="55.73" y1="368.57" x2="68.52" y2="368.57" xlink:href="#linear-gradient"/><linearGradient id="linear-gradient-13" x1="62.13" y1="367.29" x2="68" y2="367.29" xlink:href="#linear-gradient"/></defs><rect class="cls-1" x="77.33" y="-0.31" width="66.13" height="178.74" rx="1.57"/><path class="cls-2" d="M.66,230.61C.66,193.33,31,162.82,68,162.82h83.31c37.85,0,68.83,31.19,68.83,69.32V592.72a7,7,0,0,1-6.93,7H7.58a7,7,0,0,1-6.92-7"/><path class="cls-3" d="M1,328.51c0-3.54,32.61,8.07,34.59,2.74,1.7-4.59,54.66,1.65,59.64,0C114.51,324.88,127,329,169.76,329c.64,0,49.9-5.87,49.9-.53,0,89.78,0,248.72,1,267.12.05,1-3.88,3.68-3.88,3.68H6.94a11.79,11.79,0,0,1-4-1.47"/><ellipse class="cls-4" cx="179.86" cy="526.14" rx="5.88" ry="6.53"/><ellipse class="cls-5" cx="182.55" cy="524.96" rx="2.7" ry="3.75"/><ellipse class="cls-6" cx="57.75" cy="524.54" rx="12.87" ry="14.32"/><ellipse class="cls-7" cx="63.66" cy="521.96" rx="5.91" ry="8.22"/><ellipse class="cls-8" cx="34.93" cy="568.36" rx="5.88" ry="6.53"/><ellipse class="cls-9" cx="37.63" cy="567.18" rx="2.7" ry="3.75"/><ellipse class="cls-10" cx="160.97" cy="376.98" rx="12.87" ry="14.32"/><ellipse class="cls-11" cx="166.88" cy="374.4" rx="5.91" ry="8.22"/><ellipse class="cls-12" cx="47.26" cy="352.36" rx="6.4" ry="7.11"/><ellipse class="cls-13" cx="50.2" cy="351.08" rx="2.94" ry="4.08"/><ellipse class="cls-14" cx="62.13" cy="368.57" rx="6.4" ry="7.11"/><ellipse class="cls-15" cx="65.07" cy="367.29" rx="2.94" ry="4.08"/></svg>