<svg id="Layer_1" data-name="Layer 1" xmlns="http://www.w3.org/2000/svg" xmlns:xlink="http://www.w3.org/1999/xlink" width="221.32" height="599.38" viewBox="0 0 221.32 599.38"><defs><style>.cls-1{fill:#e6ffff;}.cls-2{fill:#e9ffff;}.cls-3{opacity:0.5;fill:url(#linear-gradient);}.cls-4,.cls-6,.cls-8{opacity:0.6;}.cls-4{fill:url(#linear-gradient-2);}.cls-5{fill:url(#linear-gradient-3);}.cls-6{fill:url(#linear-gradient-4);}.cls-7{fill:url(#linear-gradient-5);}.cls-8{fill:url(#linear-gradient-6);}.cls-9{fill:url(#linear-gradient-7);}</style><linearGradient id="linear-gradient" x1="0.97" y1="545.03" x2="220.66" y2="545.03" gradientUnits="userSpaceOnUse"><stop offset="0" stop-color="#fff"/><stop offset="0" stop-color="#f7f7ff"/><stop offset="0" stop-color="#ebe7d9"/><stop offset="1" stop-color="#2962ff"/></linearGradient><linearGradient id="linear-gradient-2" x1="173.98" y1="526.14" x2="185.73" y2="526.14" xlink:href="#linear-gradient"/><linearGradient id="linear-gradient-3" x1="179.86" y1="524.96" x2="185.25" y2="524.96" xlink:href="#linear-gradient"/><linearGradient id="linear-gradient-4" x1="44.87" y1="524.54" x2="70.62" y2="524.54" xlink:href="#linear-gradient"/><linearGradient id="linear-gradient-5" x1="57.75" y1="521.96" x2="69.58" y2="521.96" xlink:href="#linear-gradient"/><linearGradient id="linear-gradient-6" x1="29.05" y1="568.36" x2="40.8" y2="568.36" xlink:href="#linear-gradient"/><linearGradient id="linear-gradient-7" x1="34.93" y1="567.18" x2="40.32" y2="567.18" xlink:href="#linear-gradient"/></defs><rect class="cls-1" x="77.33" y="-0.31" width="66.13" height="178.74" rx="1.57"/><path class="cls-2" d="M.66,230.61C.66,193.33,31,162.82,68,162.82h83.31c37.85,0,68.83,31.19,68.83,69.32V592.72a7,7,0,0,1-6.93,7H7.58a7,7,0,0,1-6.92-7"/><path class="cls-3" d="M1,491.64c0-1.41,32.61,3.21,34.59,1.09,1.7-1.83,54.66.65,59.64,0,19.31-2.54,31.81-.88,74.56-.88.64,0,49.9-2.34,49.9-.21,0,35.69,0,98.89,1,106.21.05.39-3.88,1.46-3.88,1.46H6.94a25.14,25.14,0,0,1-4-.59"/><ellipse class="cls-4" cx="179.86" cy="526.14" rx="5.88" ry="6.53"/><ellipse class="cls-5" cx="182.55" cy="524.96" rx="2.7" ry="3.75"/><ellipse class="cls-6" cx="57.75" cy="524.54" rx="12.87" ry="14.32"/><ellipse class="cls-7" cx="63.66" cy="521.96" rx="5.91" ry="8.22"/><ellipse class="cls-8" cx="34.93" cy="568.36" rx="5.88" ry="6.53"/><ellipse class="cls-9" cx="37.63" cy="567.18" rx="2.7" ry="3.75"/></svg>