<svg id="Layer_1" data-name="Layer 1" xmlns="http://www.w3.org/2000/svg" xmlns:xlink="http://www.w3.org/1999/xlink" width="221.32" height="599.38" viewBox="0 0 221.32 599.38"><defs><style>.cls-1{fill:#e6ffff;}.cls-2{fill:#e9ffff;}.cls-3{opacity:0.5;fill:url(#linear-gradient);}</style><linearGradient id="linear-gradient" x1="0.97" y1="598.08" x2="220.66" y2="598.08" gradientUnits="userSpaceOnUse"><stop offset="0" stop-color="#fff"/><stop offset="0" stop-color="#f7f7ff"/><stop offset="0" stop-color="#ebe7d9"/><stop offset="1" stop-color="#2962ff"/></linearGradient></defs><rect class="cls-1" x="77.33" y="-0.31" width="66.13" height="178.74" rx="1.57"/><path class="cls-2" d="M.66,230.61C.66,193.33,31,162.82,68,162.82h83.31c37.85,0,68.83,31.19,68.83,69.32V592.72a7,7,0,0,1-6.93,7H7.58a7,7,0,0,1-6.92-7"/><path class="cls-3" d="M1,596.87s32.61.07,34.59,0c1.7,0,54.66,0,59.64,0,19.31,0,31.81,0,74.56,0,.64,0,49.9,0,49.9,0,0,.81,0,2.24,1,2.41l-3.88,0H3"/></svg>