<svg id="Layer_1" data-name="Layer 1" xmlns="http://www.w3.org/2000/svg" xmlns:xlink="http://www.w3.org/1999/xlink" width="1345.53" height="788.14" viewBox="0 0 1345.53 788.14"><defs><style>.cls-1,.cls-13,.cls-60{opacity:0.4;}.cls-11,.cls-16,.cls-2,.cls-29,.cls-51,.cls-63{opacity:0.5;}.cls-12,.cls-14,.cls-21,.cls-26,.cls-27,.cls-3{opacity:0.3;}.cls-4{fill:#d9d4cc;}.cls-41,.cls-46,.cls-5{fill:none;}.cls-27,.cls-46,.cls-5{stroke:#000;}.cls-14,.cls-27,.cls-46,.cls-5,.cls-61{stroke-miterlimit:10;}.cls-5{stroke-width:6px;}.cls-6{fill:#b2a999;}.cls-7{fill:#2d2828;}.cls-25,.cls-8{opacity:0.8;}.cls-20,.cls-21,.cls-50,.cls-51,.cls-52,.cls-53,.cls-9{fill:#fff;}.cls-10,.cls-24,.cls-30{opacity:0.6;}.cls-12,.cls-13,.cls-14,.cls-15{fill:#4aa5ff;}.cls-14{stroke:#4aa5ff;}.cls-14,.cls-27,.cls-61{stroke-width:5px;}.cls-15,.cls-28,.cls-48,.cls-62{opacity:0.2;}.cls-16{fill:#f6def9;}.cls-17{fill:#15e7ff;}.cls-18{fill:#bff8ff;}.cls-19,.cls-23{fill:#0bd1ff;}.cls-19,.cls-32,.cls-66{opacity:0.9;}.cls-20{opacity:0.45;}.cls-22{fill:gray;}.cls-24{fill:#2afffc;}.cls-25{fill:#e5fdff;}.cls-26{fill:#f915ff;}.cls-29{fill:#550045;}.cls-30{fill:#be00e9;}.cls-31{fill:#d294ff;}.cls-32{fill:#092a5e;}.cls-33{fill:#ccbca1;}.cls-34{fill:#85c8ef;}.cls-35{fill:#e9e6d9;}.cls-36{fill:#3861f5;}.cls-37,.cls-47{fill:#fdf8d7;}.cls-38{fill:#c12d24;}.cls-39{fill:#ffff5b;}.cls-40{fill:#13295b;}.cls-42{fill:#fdf8ea;}.cls-43{fill:#ccb694;}.cls-44{fill:#c8a19f;}.cls-45,.cls-47,.cls-57,.cls-59,.cls-61{opacity:0.3;}.cls-48{fill:#c68f9e;}.cls-49,.cls-50{opacity:0.1;}.cls-52,.cls-58{opacity:0.6;}.cls-53{opacity:0.7;}.cls-54{fill:#510b20;}.cls-55{fill:#e33324;}.cls-56{fill:#cb526b;}.cls-57{fill:url(#linear-gradient);}.cls-59,.cls-60,.cls-61,.cls-62{fill:#4aa3f7;}.cls-61{stroke:#4aa3f7;}.cls-63{fill:#f4dcf7;}.cls-64{fill:#6be6fb;}.cls-65{fill:#bdf6fc;}.cls-66{fill:#60d0f9;}</style><linearGradient id="linear-gradient" x1="864.61" y1="382.12" x2="867.52" y2="367.72" gradientTransform="translate(156.53 -247.32) rotate(17.84)" gradientUnits="userSpaceOnUse"><stop offset="0" stop-color="#cb526b"/><stop offset="0.11" stop-color="#cb526b"/><stop offset="0.24" stop-color="#cb526b"/><stop offset="0.89" stop-color="#fff"/></linearGradient></defs><polygon class="cls-1" points="1219.11 113.33 1219.11 427.12 1235.05 433.04 1235.05 705.96 1358.94 781.88 1358.94 13.88 1219.11 113.33"/><polygon class="cls-2" points="1219.11 113.33 1358.94 13.88 -9.28 13.88 98.67 113.33 1219.11 113.33"/><polygon class="cls-1" points="98.67 691.31 -9.28 781.88 -9.28 13.88 98.67 113.33 98.67 691.31"/><polygon class="cls-3" points="1235.05 724 573.64 724 573.64 691.31 98.67 691.31 -9.28 781.88 1358.94 781.88 1235.05 705.96 1235.05 724"/><rect x="502.91" y="17.66" width="360.19" height="70.09" rx="12"/><rect class="cls-4" x="98.67" y="113.33" width="1120.44" height="577.98"/><line class="cls-5" x1="573.64" y1="189.09" x2="1235.05" y2="189.09"/><line class="cls-5" x1="573.64" y1="257.78" x2="1235.05" y2="257.78"/><line class="cls-5" x1="573.64" y1="326.48" x2="1235.05" y2="326.48"/><rect class="cls-6" x="573.64" y="433.04" width="661.41" height="290.96"/><ellipse class="cls-7" cx="194.5" cy="522.22" rx="151.63" ry="14.51"/><ellipse class="cls-7" cx="84.23" cy="614.73" rx="75.82" ry="11.21"/><ellipse class="cls-7" cx="333.46" cy="614.73" rx="75.82" ry="11.21"/><ellipse class="cls-7" cx="222.51" cy="581.63" rx="75.82" ry="11.21"/><rect class="cls-7" x="185.84" y="534.38" width="18.76" height="188.14"/><ellipse class="cls-7" cx="194.5" cy="718.15" rx="75.82" ry="11.21"/><rect class="cls-7" x="74.85" y="609.71" width="18.76" height="132.02"/><rect class="cls-7" x="327.38" y="614.73" width="18.76" height="132.02"/><rect class="cls-7" x="213.13" y="581.63" width="18.76" height="132.02"/><ellipse class="cls-7" cx="84.23" cy="746.75" rx="50.36" ry="7.44"/><ellipse class="cls-7" cx="336.75" cy="747.48" rx="50.36" ry="7.44"/><ellipse class="cls-7" cx="222.51" cy="706.95" rx="50.36" ry="7.44"/><g class="cls-8"><rect class="cls-9" x="581.28" y="263.79" width="6.59" height="17.63" rx="1.57"/><rect class="cls-9" x="573.64" y="276.36" width="21.86" height="46.6" rx="10.91"/><rect class="cls-9" x="573.64" y="305.32" width="21.86" height="17.63"/></g><g class="cls-8"><rect class="cls-9" x="612.77" y="195.59" width="6.59" height="17.63" rx="1.57"/><rect class="cls-9" x="605.13" y="208.16" width="21.86" height="46.6" rx="10.91"/><rect class="cls-9" x="605.13" y="237.13" width="21.86" height="17.63"/></g><g class="cls-8"><rect class="cls-9" x="584.57" y="195.59" width="6.59" height="17.63" rx="1.57"/><rect class="cls-9" x="576.93" y="208.16" width="21.86" height="46.6" rx="10.91"/><rect class="cls-9" x="576.93" y="237.13" width="21.86" height="17.63"/></g><g class="cls-8"><rect class="cls-9" x="668.25" y="263.79" width="6.59" height="17.63" rx="1.57"/><rect class="cls-9" x="660.61" y="276.36" width="21.86" height="46.6" rx="10.91"/><rect class="cls-9" x="660.61" y="305.32" width="21.86" height="17.63"/></g><g class="cls-10"><rect class="cls-9" x="636.07" y="276.36" width="5.19" height="13.88" rx="1.57"/><rect class="cls-9" x="630.05" y="286.26" width="17.22" height="36.7" rx="6.36"/><rect class="cls-9" x="630.05" y="309.07" width="17.22" height="13.89"/></g><g class="cls-8"><rect class="cls-9" x="595.51" y="263.79" width="6.59" height="17.63" rx="1.57"/><rect class="cls-9" x="587.87" y="276.36" width="21.86" height="46.6" rx="10.91"/><rect class="cls-9" x="587.87" y="305.32" width="21.86" height="17.63"/></g><g class="cls-8"><rect class="cls-9" x="609.47" y="263.79" width="6.59" height="17.63" rx="1.57"/><rect class="cls-9" x="601.83" y="276.36" width="21.86" height="46.6" rx="10.91"/><rect class="cls-9" x="601.83" y="305.32" width="21.86" height="17.63"/></g><g class="cls-8"><rect class="cls-9" x="658.01" y="276.36" width="5.19" height="13.88" rx="1.57"/><rect class="cls-9" x="652" y="286.26" width="17.22" height="36.7" rx="6.36"/><rect class="cls-9" x="652" y="309.07" width="17.22" height="13.89"/></g><g class="cls-11"><rect class="cls-9" x="681.7" y="276.36" width="5.19" height="13.88" rx="1.57"/><rect class="cls-9" x="675.69" y="286.26" width="17.22" height="36.7" rx="6.36"/><rect class="cls-9" x="675.69" y="309.07" width="17.22" height="13.89"/></g><g class="cls-8"><rect class="cls-9" x="698.93" y="195.59" width="6.59" height="17.63" rx="1.57"/><rect class="cls-9" x="691.29" y="208.16" width="21.86" height="46.6" rx="10.91"/><rect class="cls-9" x="691.29" y="237.13" width="21.86" height="17.63"/></g><g class="cls-8"><rect class="cls-9" x="670.25" y="195.59" width="6.59" height="17.63" rx="1.57"/><rect class="cls-9" x="662.61" y="208.16" width="21.86" height="46.6" rx="10.91"/><rect class="cls-9" x="662.61" y="237.13" width="21.86" height="17.63"/></g><g class="cls-8"><rect class="cls-9" x="641.4" y="195.59" width="6.59" height="17.63" rx="1.57"/><rect class="cls-9" x="633.76" y="208.16" width="21.86" height="46.6" rx="10.91"/><rect class="cls-9" x="633.76" y="237.13" width="21.86" height="17.63"/></g><g class="cls-8"><rect class="cls-9" x="1193.95" y="195.25" width="6.59" height="17.63" rx="1.57"/><rect class="cls-9" x="1186.31" y="207.82" width="21.86" height="46.6" rx="10.91"/><rect class="cls-9" x="1186.31" y="236.79" width="21.86" height="17.63"/></g><g class="cls-8"><rect class="cls-9" x="726.65" y="195.59" width="6.59" height="17.63" rx="1.57"/><rect class="cls-9" x="719.01" y="211.68" width="21.86" height="43.08" rx="6.97"/><rect class="cls-9" x="719.01" y="237.13" width="21.86" height="17.63"/></g><g class="cls-8"><rect class="cls-9" x="742.67" y="195.59" width="6.59" height="17.63" rx="1.57"/><rect class="cls-9" x="735.03" y="211.68" width="21.86" height="43.08" rx="6.97"/><rect class="cls-9" x="735.03" y="237.13" width="21.86" height="17.63"/></g><g class="cls-10"><ellipse class="cls-12" cx="243.83" cy="450.62" rx="36.06" ry="2.35"/><ellipse class="cls-13" cx="243.83" cy="517.92" rx="22.52" ry="3.23"/><line class="cls-14" x1="243.83" y1="479.89" x2="243.83" y2="514.69"/><path class="cls-15" d="M279.89,450.62,245.44,480h-3.26l-34.41-29.33a12,12,0,0,0,4.66,1.16l4.48.41,4.32.27,3.71.17,4.46.15,6.36.14,8.07.06s10.24,0,10.27-.1l7.21-.2,8.9-.45,5.56-.51S278.62,451.56,279.89,450.62Z"/></g><path class="cls-16" d="M215,456.31s2.42-.36,3,0,8.5.28,8.66,0,11.27-.6,12.28,0,15.83.48,16.15.2a4.79,4.79,0,0,1,1.85-.57c-.2.13,1.33.06,1.67.39s7.31,0,7.31,0a17.58,17.58,0,0,0,4.1,0,7.34,7.34,0,0,1,2.66,0L245.44,480h-3.26Z"/><g class="cls-11"><circle class="cls-17" cx="227.18" cy="464.14" r="1.64"/><ellipse class="cls-18" cx="227.67" cy="463.71" rx="0.75" ry="0.94"/></g><circle class="cls-17" cx="235.62" cy="468.48" r="1.64"/><ellipse class="cls-18" cx="236.38" cy="468.12" rx="0.75" ry="0.94"/><g class="cls-11"><circle class="cls-17" cx="248.76" cy="457.01" r="1.64"/><ellipse class="cls-18" cx="249.52" cy="456.64" rx="0.75" ry="0.94"/></g><circle class="cls-17" cx="255.96" cy="467.09" r="1.64"/><ellipse class="cls-18" cx="256.71" cy="466.72" rx="0.75" ry="0.94"/><circle class="cls-17" cx="249.58" cy="471.59" r="1.64"/><ellipse class="cls-18" cx="250.34" cy="471.22" rx="0.75" ry="0.94"/><circle class="cls-17" cx="251.67" cy="467.66" r="0.82"/><ellipse class="cls-18" cx="252.05" cy="467.48" rx="0.38" ry="0.47"/><circle class="cls-17" cx="247.12" cy="469.06" r="0.82"/><ellipse class="cls-18" cx="247.5" cy="468.87" rx="0.38" ry="0.47"/><path class="cls-19" d="M243.66,476.59l28.12-38.1s1-2.8,3.54-1.58,16,7.34,16,7.34l-1.11,1.66-15-6.55s-1.33-1.56-1.89.66-28.16,37.39-28.16,37.39Z"/><g class="cls-10"><ellipse class="cls-12" cx="290.31" cy="458.8" rx="36.06" ry="2.35"/><ellipse class="cls-13" cx="290.31" cy="526.1" rx="22.52" ry="3.23"/><line class="cls-14" x1="290.31" y1="488.06" x2="290.31" y2="522.86"/><path class="cls-15" d="M326.37,458.8l-34.45,29.32h-3.26L254.25,458.8a12.19,12.19,0,0,0,4.67,1.16l4.47.4,4.32.27,3.71.17,4.46.15,6.36.14,8.07.06s10.24.05,10.27-.1l7.21-.19,8.9-.46,5.56-.51S325.11,459.73,326.37,458.8Z"/></g><path class="cls-16" d="M261.48,464.48s2.42-.36,3,0,8.5.28,8.66,0,11.27-.6,12.28,0,15.83.49,16.15.21a4.87,4.87,0,0,1,1.85-.58c-.2.13,1.33.06,1.67.4s7.31,0,7.31,0a18.24,18.24,0,0,0,4.11,0,7.06,7.06,0,0,1,2.65,0l-27.22,23.57h-3.26Z"/><g class="cls-11"><circle class="cls-17" cx="273.66" cy="472.31" r="1.64"/><ellipse class="cls-18" cx="274.15" cy="471.88" rx="0.75" ry="0.94"/></g><circle class="cls-17" cx="282.1" cy="476.66" r="1.64"/><ellipse class="cls-18" cx="282.86" cy="476.29" rx="0.75" ry="0.94"/><g class="cls-11"><circle class="cls-17" cx="295.24" cy="465.18" r="1.64"/><ellipse class="cls-18" cx="296" cy="464.81" rx="0.75" ry="0.94"/></g><circle class="cls-17" cx="302.44" cy="475.26" r="1.64"/><ellipse class="cls-18" cx="303.19" cy="474.89" rx="0.75" ry="0.94"/><circle class="cls-17" cx="296.06" cy="479.76" r="1.64"/><ellipse class="cls-18" cx="296.82" cy="479.39" rx="0.75" ry="0.94"/><circle class="cls-17" cx="298.15" cy="475.84" r="0.82"/><ellipse class="cls-18" cx="298.53" cy="475.65" rx="0.38" ry="0.47"/><circle class="cls-17" cx="293.6" cy="477.23" r="0.82"/><ellipse class="cls-18" cx="293.98" cy="477.05" rx="0.38" ry="0.47"/><path class="cls-19" d="M290.14,484.77l28.12-38.1s1-2.81,3.54-1.58,16,7.33,16,7.33l-1.11,1.67-15-6.56s-1.34-1.56-1.9.67-28.16,37.39-28.16,37.39Z"/><g class="cls-10"><ellipse class="cls-20" cx="1201.95" cy="288.88" rx="17.84" ry="1.16"/><ellipse class="cls-21" cx="1201.95" cy="322.17" rx="11.14" ry="1.6"/><path class="cls-21" d="M1219.78,288.88l-17,14.5h-1.61l-17-14.5a5.86,5.86,0,0,0,2.3.57l2.22.2,2.14.13,1.83.09,2.21.07,3.15.07,4,0s5.06,0,5.08-.05l3.56-.09,4.4-.23,2.76-.25A4.88,4.88,0,0,0,1219.78,288.88Z"/><rect class="cls-21" x="1201.13" y="303.38" width="1.82" height="17.19"/></g><g class="cls-10"><ellipse class="cls-20" cx="1185.11" cy="288.88" rx="17.84" ry="1.16"/><ellipse class="cls-21" cx="1185.11" cy="322.17" rx="11.14" ry="1.6"/><path class="cls-21" d="M1203,288.88l-17,14.5h-1.61l-17-14.5a5.88,5.88,0,0,0,2.31.57l2.21.2,2.14.13,1.84.09,2.2.07,3.15.07,4,0s5.07,0,5.08-.05l3.57-.09,4.4-.23,2.75-.25A5,5,0,0,0,1203,288.88Z"/><rect class="cls-21" x="1184.3" y="303.38" width="1.82" height="17.19"/></g><g class="cls-10"><ellipse class="cls-20" cx="1171.39" cy="288.88" rx="17.84" ry="1.16"/><ellipse class="cls-21" cx="1171.39" cy="322.17" rx="11.14" ry="1.6"/><path class="cls-21" d="M1189.23,288.88l-17,14.5h-1.61l-17-14.5a5.88,5.88,0,0,0,2.31.57l2.21.2,2.14.13,1.84.09,2.2.07,3.15.07,4,0s5.07,0,5.08-.05l3.57-.09,4.4-.23,2.75-.25A5,5,0,0,0,1189.23,288.88Z"/><rect class="cls-21" x="1170.58" y="303.38" width="1.82" height="17.19"/></g><g class="cls-10"><ellipse class="cls-20" cx="1202.95" cy="288.88" rx="17.84" ry="1.16"/><ellipse class="cls-21" cx="1202.95" cy="322.17" rx="11.14" ry="1.6"/><path class="cls-21" d="M1220.79,288.88l-17,14.5h-1.62l-17-14.5a5.88,5.88,0,0,0,2.31.57l2.21.2,2.14.13,1.83.09,2.21.07,3.15.07,4,0s5.07,0,5.08-.05l3.57-.09,4.4-.23,2.75-.25A5,5,0,0,0,1220.79,288.88Z"/><rect class="cls-21" x="1202.13" y="303.38" width="1.82" height="17.19"/></g><g class="cls-10"><ellipse class="cls-20" cx="1011.19" cy="288.14" rx="17.84" ry="1.16"/><ellipse class="cls-21" cx="1011.19" cy="321.43" rx="11.14" ry="1.6"/><path class="cls-21" d="M1029,288.14l-17,14.5h-1.61l-17-14.5a6.09,6.09,0,0,0,2.31.57l2.21.2,2.14.13,1.83.09,2.21.07,3.15.07,4,0s5.06,0,5.08-.05l3.56-.1,4.4-.22,2.76-.25A4.88,4.88,0,0,0,1029,288.14Z"/><rect class="cls-21" x="1010.37" y="302.64" width="1.82" height="17.19"/></g><g class="cls-10"><ellipse class="cls-20" cx="1038.7" cy="288.14" rx="17.84" ry="1.16"/><ellipse class="cls-21" cx="1038.7" cy="321.43" rx="11.14" ry="1.6"/><path class="cls-21" d="M1056.53,288.14l-17,14.5h-1.61l-17-14.5a6.07,6.07,0,0,0,2.3.57l2.22.2,2.14.13,1.83.09,2.21.07,3.14.07,4,0s5.06,0,5.07-.05l3.57-.1,4.4-.22,2.76-.25A4.88,4.88,0,0,0,1056.53,288.14Z"/><rect class="cls-21" x="1037.88" y="302.64" width="1.82" height="17.19"/></g><g class="cls-10"><ellipse class="cls-20" cx="1094.56" cy="288.14" rx="17.84" ry="1.16"/><ellipse class="cls-21" cx="1094.56" cy="321.43" rx="11.14" ry="1.6"/><path class="cls-21" d="M1112.39,288.14l-17,14.5h-1.61l-17-14.5a6.07,6.07,0,0,0,2.3.57l2.22.2,2.14.13,1.83.09,2.21.07,3.14.07,4,0s5.06,0,5.07-.05l3.57-.1,4.4-.22,2.76-.25A4.88,4.88,0,0,0,1112.39,288.14Z"/><rect class="cls-21" x="1093.74" y="302.64" width="1.82" height="17.19"/></g><g class="cls-10"><ellipse class="cls-20" cx="1128.01" cy="288.14" rx="17.84" ry="1.16"/><ellipse class="cls-21" cx="1128.01" cy="321.43" rx="11.14" ry="1.6"/><path class="cls-21" d="M1145.85,288.14l-17,14.5h-1.62l-17-14.5a6.09,6.09,0,0,0,2.31.57l2.21.2,2.14.13,1.83.09,2.21.07,3.15.07,4,0s5.06,0,5.08-.05l3.56-.1,4.41-.22,2.75-.25A5,5,0,0,0,1145.85,288.14Z"/><rect class="cls-21" x="1127.19" y="302.64" width="1.82" height="17.19"/></g><g class="cls-10"><ellipse class="cls-20" cx="1193.95" cy="364.9" rx="17.84" ry="1.16"/><ellipse class="cls-21" cx="1193.95" cy="331.61" rx="11.14" ry="1.6"/><path class="cls-21" d="M1176.12,364.9l17-14.51h1.61l17,14.51a5.86,5.86,0,0,0-2.3-.57l-2.22-.2-2.14-.14-1.83-.08-2.21-.08-3.15-.06-4,0s-5.06,0-5.08,0l-3.56.1-4.4.23-2.76.25A4.88,4.88,0,0,0,1176.12,364.9Z"/><rect class="cls-21" x="1192.95" y="333.2" width="1.82" height="17.19" transform="translate(2387.72 683.59) rotate(-180)"/></g><g class="cls-10"><ellipse class="cls-20" cx="1152.74" cy="364.48" rx="17.84" ry="1.16"/><ellipse class="cls-21" cx="1152.74" cy="331.19" rx="11.14" ry="1.6"/><path class="cls-21" d="M1134.9,364.48l17-14.5h1.61l17,14.5a5.88,5.88,0,0,0-2.31-.57l-2.21-.2-2.14-.13-1.84-.09-2.2-.07-3.15-.07-4,0s-5.07,0-5.08.05l-3.57.09-4.4.23-2.75.25A5,5,0,0,0,1134.9,364.48Z"/><rect class="cls-21" x="1151.73" y="332.78" width="1.82" height="17.19" transform="translate(2305.29 682.76) rotate(-180)"/></g><g class="cls-10"><ellipse class="cls-20" cx="1152.74" cy="364.48" rx="17.84" ry="1.16"/><ellipse class="cls-21" cx="1152.74" cy="331.19" rx="11.14" ry="1.6"/><path class="cls-21" d="M1134.9,364.48l17-14.5h1.61l17,14.5a5.88,5.88,0,0,0-2.31-.57l-2.21-.2-2.14-.13-1.84-.09-2.2-.07-3.15-.07-4,0s-5.07,0-5.08.05l-3.57.09-4.4.23-2.75.25A5,5,0,0,0,1134.9,364.48Z"/><rect class="cls-21" x="1151.73" y="332.78" width="1.82" height="17.19" transform="translate(2305.29 682.76) rotate(-180)"/></g><g class="cls-10"><ellipse class="cls-20" cx="1193.86" cy="364.48" rx="17.84" ry="1.16"/><ellipse class="cls-21" cx="1193.86" cy="331.19" rx="11.14" ry="1.6"/><path class="cls-21" d="M1176,364.48l17-14.5h1.62l17,14.5a5.88,5.88,0,0,0-2.31-.57l-2.21-.2-2.14-.13-1.83-.09-2.21-.07-3.15-.07-4,0s-5.07,0-5.08.05l-3.57.09-4.4.23-2.75.25A5,5,0,0,0,1176,364.48Z"/><rect class="cls-21" x="1192.86" y="332.78" width="1.82" height="17.19" transform="translate(2387.53 682.76) rotate(-180)"/></g><g class="cls-10"><ellipse class="cls-20" cx="1110.44" cy="363.97" rx="17.84" ry="1.16"/><ellipse class="cls-21" cx="1110.44" cy="330.68" rx="11.14" ry="1.6"/><path class="cls-21" d="M1092.61,364l17-14.51h1.61l17,14.51a6,6,0,0,0-2.3-.58l-2.22-.2-2.14-.13-1.83-.08-2.21-.08-3.15-.07-4,0s-5.06,0-5.08.05l-3.56.1-4.4.22-2.76.26A4.88,4.88,0,0,0,1092.61,364Z"/><rect class="cls-21" x="1109.44" y="332.27" width="1.82" height="17.19" transform="translate(2220.7 681.73) rotate(-180)"/></g><g class="cls-10"><ellipse class="cls-20" cx="1111.13" cy="364.47" rx="17.84" ry="1.16"/><ellipse class="cls-21" cx="1111.13" cy="331.18" rx="11.14" ry="1.6"/><path class="cls-21" d="M1093.29,364.47l17-14.5h1.61l17,14.5a6,6,0,0,0-2.3-.57l-2.22-.2-2.14-.13-1.83-.09-2.2-.07-3.15-.07-4,0s-5.07,0-5.08.05l-3.57.1-4.4.22-2.75.25A4.91,4.91,0,0,0,1093.29,364.47Z"/><rect class="cls-21" x="1110.12" y="332.77" width="1.82" height="17.19" transform="translate(2222.07 682.74) rotate(-180)"/></g><g class="cls-8"><rect class="cls-9" x="1189.55" y="113.33" width="8.17" height="21.85" rx="1.57"/><rect class="cls-9" x="1180.07" y="133.28" width="27.11" height="53.41" rx="6.97"/><rect class="cls-9" x="1180.07" y="164.83" width="27.11" height="21.86"/></g><g class="cls-8"><rect class="cls-9" x="1033.8" y="113.33" width="8.17" height="21.85" rx="1.57"/><rect class="cls-9" x="1024.32" y="133.28" width="27.11" height="53.41" rx="6.97"/><rect class="cls-9" x="1024.32" y="164.83" width="27.11" height="21.86"/></g><g class="cls-8"><rect class="cls-9" x="1082.35" y="113.33" width="8.17" height="21.85" rx="1.57"/><rect class="cls-9" x="1072.88" y="133.28" width="27.11" height="53.41" rx="6.97"/><rect class="cls-9" x="1072.88" y="164.83" width="27.11" height="21.86"/></g><g class="cls-8"><rect class="cls-9" x="1137.51" y="113.33" width="8.17" height="21.85" rx="1.57"/><rect class="cls-9" x="1128.04" y="133.28" width="27.11" height="53.41" rx="6.97"/><rect class="cls-9" x="1128.04" y="164.83" width="27.11" height="21.86"/></g><g class="cls-8"><rect class="cls-9" x="824.79" y="113.33" width="8.17" height="21.85" rx="1.57"/><rect class="cls-9" x="815.32" y="133.28" width="27.11" height="53.41" rx="6.97"/><rect class="cls-9" x="815.32" y="164.83" width="27.11" height="21.86"/></g><g class="cls-8"><rect class="cls-9" x="875.01" y="113.33" width="8.17" height="21.85" rx="1.57"/><rect class="cls-9" x="865.54" y="133.28" width="27.11" height="53.41" rx="6.97"/><rect class="cls-9" x="865.54" y="164.83" width="27.11" height="21.86"/></g><g class="cls-8"><rect class="cls-9" x="930.13" y="113.33" width="8.17" height="21.85" rx="1.57"/><rect class="cls-9" x="920.66" y="133.28" width="27.11" height="53.41" rx="6.97"/><rect class="cls-9" x="920.66" y="164.83" width="27.11" height="21.86"/></g><g class="cls-8"><rect class="cls-9" x="982.41" y="113.33" width="8.17" height="21.85" rx="1.57"/><rect class="cls-9" x="972.94" y="133.28" width="27.11" height="53.41" rx="6.97"/><rect class="cls-9" x="972.94" y="164.83" width="27.11" height="21.86"/></g><g class="cls-8"><rect class="cls-9" x="730.95" y="113.33" width="8.17" height="21.85" rx="1.57"/><rect class="cls-9" x="721.48" y="133.28" width="27.11" height="53.41" rx="6.97"/><rect class="cls-9" x="721.48" y="164.83" width="27.11" height="21.86"/></g><g class="cls-8"><rect class="cls-9" x="774.4" y="113.33" width="8.17" height="21.85" rx="1.57"/><rect class="cls-9" x="764.93" y="133.28" width="27.11" height="53.41" rx="6.97"/><rect class="cls-9" x="764.93" y="164.83" width="27.11" height="21.86"/></g><g class="cls-8"><rect class="cls-9" x="598.01" y="113.33" width="8.17" height="21.85" rx="1.57"/><rect class="cls-9" x="588.54" y="133.28" width="27.11" height="53.41" rx="6.97"/><rect class="cls-9" x="588.54" y="164.83" width="27.11" height="21.86"/></g><g class="cls-8"><rect class="cls-9" x="645.54" y="113.33" width="8.17" height="21.85" rx="1.57"/><rect class="cls-9" x="636.07" y="133.28" width="27.11" height="53.41" rx="6.97"/><rect class="cls-9" x="636.07" y="164.83" width="27.11" height="21.86"/></g><g class="cls-8"><rect class="cls-9" x="687.21" y="113.33" width="8.17" height="21.85" rx="1.57"/><rect class="cls-9" x="677.74" y="133.28" width="27.11" height="53.41" rx="6.97"/><rect class="cls-9" x="677.74" y="164.83" width="27.11" height="21.86"/></g><polygon class="cls-22" points="573.64 433.04 595.51 423.06 1235.05 433.04 573.64 433.04"/><polygon points="1208.18 423.06 1235.05 433.04 573.64 433.04 587.87 423.06 1208.18 423.06"/><g class="cls-8"><rect class="cls-9" x="1192.96" y="372.3" width="6.59" height="17.63" rx="1.57"/><rect class="cls-9" x="1185.32" y="384.87" width="21.86" height="46.6" rx="10.91"/><rect class="cls-9" x="1185.32" y="413.84" width="21.86" height="17.63"/></g><g class="cls-8"><rect class="cls-9" x="598.54" y="372.74" width="6.59" height="17.63" rx="1.57"/><rect class="cls-9" x="590.9" y="385.31" width="21.86" height="46.6" rx="10.91"/><rect class="cls-9" x="590.9" y="414.27" width="21.86" height="17.63"/></g><g class="cls-8"><rect class="cls-9" x="629.68" y="353.68" width="8.17" height="21.85" rx="1.57"/><rect class="cls-9" x="620.21" y="373.63" width="27.11" height="53.41" rx="6.97"/><rect class="cls-9" x="620.21" y="405.18" width="27.11" height="21.86"/></g><g class="cls-10"><ellipse class="cls-20" cx="1128.28" cy="288.48" rx="17.84" ry="1.16"/><ellipse class="cls-21" cx="1128.28" cy="321.77" rx="11.14" ry="1.6"/><path class="cls-21" d="M1146.12,288.48l-17,14.51h-1.62l-17-14.51a5.88,5.88,0,0,0,2.31.57l2.21.2,2.14.14,1.84.08,2.2.08,3.15.06,4,0s5.07,0,5.08-.05l3.57-.09,4.4-.23,2.75-.25A5,5,0,0,0,1146.12,288.48Z"/><rect class="cls-21" x="1127.46" y="302.99" width="1.82" height="17.19"/></g><g class="cls-10"><ellipse class="cls-20" cx="1094.65" cy="288.48" rx="17.84" ry="1.16"/><ellipse class="cls-21" cx="1094.65" cy="321.77" rx="11.14" ry="1.6"/><path class="cls-21" d="M1112.49,288.48l-17,14.51h-1.62l-17-14.51a5.88,5.88,0,0,0,2.31.57l2.21.2,2.14.14,1.83.08,2.21.08,3.15.06,4,0s5.06,0,5.08-.05l3.57-.09,4.4-.23,2.75-.25A5,5,0,0,0,1112.49,288.48Z"/><rect class="cls-21" x="1093.83" y="302.99" width="1.82" height="17.19"/></g><g class="cls-10"><ellipse class="cls-20" cx="1038.7" cy="288.06" rx="17.84" ry="1.16"/><ellipse class="cls-21" cx="1038.7" cy="321.35" rx="11.14" ry="1.6"/><path class="cls-21" d="M1056.53,288.06l-17,14.51h-1.61l-17-14.51a5.86,5.86,0,0,0,2.3.57l2.22.21,2.14.13,1.83.08,2.21.08,3.14.07,4,0s5.06,0,5.07-.05l3.57-.1,4.4-.22,2.76-.26A4.88,4.88,0,0,0,1056.53,288.06Z"/><rect class="cls-21" x="1037.88" y="302.57" width="1.82" height="17.19"/></g><g class="cls-10"><ellipse class="cls-20" cx="1038.79" cy="288.06" rx="17.84" ry="1.16"/><ellipse class="cls-21" cx="1038.79" cy="321.35" rx="11.14" ry="1.6"/><path class="cls-21" d="M1056.63,288.06l-17,14.51H1038l-17-14.51a5.88,5.88,0,0,0,2.31.57l2.21.21,2.14.13,1.83.08,2.21.08,3.15.07,4,0s5.06,0,5.08-.05l3.57-.1,4.4-.22,2.75-.26A5,5,0,0,0,1056.63,288.06Z"/><rect class="cls-21" x="1037.97" y="302.57" width="1.82" height="17.19"/></g><g class="cls-10"><ellipse class="cls-20" cx="1110.17" cy="364.08" rx="17.84" ry="1.16"/><ellipse class="cls-21" cx="1110.17" cy="330.79" rx="11.14" ry="1.6"/><path class="cls-21" d="M1092.33,364.08l17-14.5H1111l17,14.5a6.09,6.09,0,0,0-2.31-.57l-2.21-.2-2.14-.13-1.83-.09-2.21-.07-3.15-.07-4,0s-5.06,0-5.08.05l-3.56.1-4.41.22-2.75.25A5,5,0,0,0,1092.33,364.08Z"/><rect class="cls-21" x="1109.17" y="332.38" width="1.82" height="17.19" transform="translate(2220.16 681.96) rotate(-180)"/></g><g class="cls-8"><rect class="cls-9" x="875.01" y="113.33" width="8.17" height="21.85" rx="1.57"/><rect class="cls-9" x="865.54" y="133.28" width="27.11" height="53.41" rx="6.97"/><rect class="cls-9" x="865.54" y="164.83" width="27.11" height="21.86"/></g><g class="cls-8"><rect class="cls-9" x="1033.8" y="113.33" width="8.17" height="21.85" rx="1.57"/><rect class="cls-9" x="1024.32" y="133.28" width="27.11" height="53.41" rx="6.97"/><rect class="cls-9" x="1024.32" y="164.83" width="27.11" height="21.86"/></g><g class="cls-8"><rect class="cls-9" x="1020.64" y="113.33" width="8.17" height="21.85" rx="1.57"/><rect class="cls-9" x="1011.17" y="133.28" width="27.11" height="53.41" rx="6.97"/><rect class="cls-9" x="1011.17" y="164.83" width="27.11" height="21.86"/></g><g class="cls-10"><ellipse class="cls-20" cx="1038.7" cy="288.14" rx="17.84" ry="1.16"/><ellipse class="cls-21" cx="1038.7" cy="321.43" rx="11.14" ry="1.6"/><path class="cls-21" d="M1056.53,288.14l-17,14.5h-1.61l-17-14.5a6.07,6.07,0,0,0,2.3.57l2.22.2,2.14.13,1.83.09,2.21.07,3.14.07,4,0s5.06,0,5.07-.05l3.57-.1,4.4-.22,2.76-.25A4.88,4.88,0,0,0,1056.53,288.14Z"/><rect class="cls-21" x="1037.88" y="302.64" width="1.82" height="17.19"/></g><g class="cls-10"><ellipse class="cls-20" cx="1011.19" cy="288.06" rx="17.84" ry="1.16"/><ellipse class="cls-21" cx="1011.19" cy="321.35" rx="11.14" ry="1.6"/><path class="cls-21" d="M1029,288.06l-17,14.51h-1.61l-17-14.51a5.88,5.88,0,0,0,2.31.57l2.21.21,2.14.13,1.83.08,2.21.08,3.15.07,4,0s5.06,0,5.08-.05l3.56-.1,4.4-.22,2.76-.26A4.88,4.88,0,0,0,1029,288.06Z"/><rect class="cls-21" x="1010.37" y="302.57" width="1.82" height="17.19"/></g><g class="cls-10"><ellipse class="cls-20" cx="1110.08" cy="364.08" rx="17.84" ry="1.16"/><ellipse class="cls-21" cx="1110.08" cy="330.79" rx="11.14" ry="1.6"/><path class="cls-21" d="M1092.24,364.08l17-14.5h1.61l17,14.5a6.09,6.09,0,0,0-2.31-.57l-2.21-.2-2.14-.13-1.84-.09-2.2-.07-3.15-.07-4,0s-5.07,0-5.08.05l-3.57.1-4.4.22-2.75.25A5,5,0,0,0,1092.24,364.08Z"/><rect class="cls-21" x="1109.07" y="332.38" width="1.82" height="17.19" transform="translate(2219.97 681.96) rotate(-180)"/></g><g class="cls-10"><ellipse class="cls-20" cx="1152.74" cy="364.48" rx="17.84" ry="1.16"/><ellipse class="cls-21" cx="1152.74" cy="331.19" rx="11.14" ry="1.6"/><path class="cls-21" d="M1134.9,364.48l17-14.5h1.61l17,14.5a5.88,5.88,0,0,0-2.31-.57l-2.21-.2-2.14-.13-1.84-.09-2.2-.07-3.15-.07-4,0s-5.07,0-5.08.05l-3.57.09-4.4.23-2.75.25A5,5,0,0,0,1134.9,364.48Z"/><rect class="cls-21" x="1151.73" y="332.78" width="1.82" height="17.19" transform="translate(2305.29 682.76) rotate(-180)"/></g><g class="cls-10"><ellipse class="cls-20" cx="1071.22" cy="364.08" rx="17.84" ry="1.16"/><ellipse class="cls-21" cx="1071.22" cy="330.79" rx="11.14" ry="1.6"/><path class="cls-21" d="M1053.38,364.08l17-14.5H1072l17,14.5a6.09,6.09,0,0,0-2.31-.57l-2.21-.2-2.14-.13-1.84-.09-2.2-.07-3.15-.07-4,0s-5.07,0-5.08.05l-3.57.1-4.4.22-2.75.25A5,5,0,0,0,1053.38,364.08Z"/><rect class="cls-21" x="1070.22" y="332.38" width="1.82" height="17.19" transform="translate(2142.25 681.96) rotate(-180)"/></g><g class="cls-10"><ellipse class="cls-20" cx="1071.22" cy="364.48" rx="17.84" ry="1.16"/><ellipse class="cls-21" cx="1071.22" cy="331.19" rx="11.14" ry="1.6"/><path class="cls-21" d="M1053.38,364.48l17-14.5H1072l17,14.5a5.88,5.88,0,0,0-2.31-.57l-2.21-.2-2.14-.13-1.84-.09-2.2-.07-3.15-.07-4,0s-5.07,0-5.08.05l-3.57.09-4.4.23-2.75.25A5,5,0,0,0,1053.38,364.48Z"/><rect class="cls-21" x="1070.22" y="332.78" width="1.82" height="17.19" transform="translate(2142.25 682.76) rotate(-180)"/></g><g class="cls-10"><ellipse class="cls-20" cx="1071.13" cy="364.9" rx="17.84" ry="1.16"/><ellipse class="cls-21" cx="1071.13" cy="331.61" rx="11.14" ry="1.6"/><path class="cls-21" d="M1053.29,364.9l17-14.51h1.61l17,14.51a5.79,5.79,0,0,0-2.3-.57l-2.21-.2-2.14-.14-1.84-.08-2.2-.08-3.15-.06-4,0s-5.07,0-5.08,0l-3.57.1-4.4.23-2.75.25A4.91,4.91,0,0,0,1053.29,364.9Z"/><rect class="cls-21" x="1070.12" y="333.2" width="1.82" height="17.19" transform="translate(2142.07 683.59) rotate(-180)"/></g><g class="cls-10"><ellipse class="cls-20" cx="1185.32" cy="288.99" rx="17.84" ry="1.16"/><ellipse class="cls-21" cx="1185.32" cy="322.29" rx="11.14" ry="1.6"/><path class="cls-21" d="M1203.16,289l-17,14.51h-1.62l-17-14.51a6,6,0,0,0,2.31.58l2.21.2,2.14.13,1.83.09,2.21.07,3.15.07,4,0s5.06,0,5.08-.05l3.57-.1,4.4-.22,2.75-.26A4.79,4.79,0,0,0,1203.16,289Z"/><rect class="cls-21" x="1184.5" y="303.5" width="1.82" height="17.19"/></g><g class="cls-10"><ellipse class="cls-20" cx="1184.5" cy="288.48" rx="17.84" ry="1.16"/><ellipse class="cls-21" cx="1184.5" cy="321.77" rx="11.14" ry="1.6"/><path class="cls-21" d="M1202.34,288.48l-17,14.51h-1.61l-17-14.51a5.79,5.79,0,0,0,2.3.57l2.21.2,2.14.14,1.84.08,2.2.08,3.15.06,4,0s5.07,0,5.08-.05l3.57-.09,4.4-.23,2.75-.25A5,5,0,0,0,1202.34,288.48Z"/><rect class="cls-21" x="1183.69" y="302.99" width="1.82" height="17.19"/></g><rect class="cls-23" x="676.79" y="355.76" width="1.77" height="72.92"/><rect class="cls-23" x="673.98" y="354.46" width="1.77" height="72.92"/><rect class="cls-23" x="670.81" y="355.27" width="1.77" height="72.92"/><rect class="cls-23" x="665.68" y="353.68" width="1.77" height="72.92"/><rect class="cls-23" x="678.59" y="355.76" width="1.77" height="72.92" transform="translate(20.11 -32.95) rotate(2.82)"/><rect class="cls-23" x="664.79" y="355.76" width="1.77" height="72.92" transform="translate(-29.66 55.37) rotate(-4.66)"/><rect class="cls-23" x="668.8" y="356.11" width="1.77" height="72.92"/><rect class="cls-23" x="661.16" y="356.11" width="1.77" height="72.92" transform="matrix(0.99, -0.13, 0.13, 0.99, -44.32, 86.85)"/><rect class="cls-23" x="685.47" y="355.27" width="1.77" height="72.92" transform="translate(37.71 -59.71) rotate(5.12)"/><rect class="cls-23" x="681.75" y="355.27" width="1.77" height="72.92" transform="translate(20.09 -33.1) rotate(2.82)"/><rect class="cls-23" x="688.45" y="355.27" width="1.77" height="72.92" transform="translate(52.94 -81.18) rotate(7.01)"/><rect class="cls-23" x="669.72" y="355.42" width="1.77" height="72.92"/><g class="cls-10"><ellipse class="cls-24" cx="675.61" cy="377.46" rx="18.86" ry="2.06"/><ellipse class="cls-24" cx="675.61" cy="428.25" rx="11.78" ry="3.22"/><path class="cls-24" d="M656.74,377.21s8.74,4.14,37.73,0L687.39,429s-9.94-5.73-23.56,0Z"/></g><path class="cls-25" d="M691.35,377.32,686,428.87h-2.19a145.6,145.6,0,0,1,5.23-51.11Z"/><g class="cls-10"><ellipse class="cls-24" cx="1160.25" cy="219.03" rx="12.9" ry="1.41"/><ellipse class="cls-24" cx="1160.25" cy="253.75" rx="8.05" ry="2.2"/><path class="cls-24" d="M1147.36,218.86s6,2.83,25.79,0l-4.84,35.39s-6.79-3.92-16.11,0Z"/></g><path class="cls-25" d="M1171,218.94l-3.64,35.23h-1.49a99.5,99.5,0,0,1,3.57-34.93Z"/><g class="cls-10"><ellipse class="cls-24" cx="1128.96" cy="218.8" rx="12.9" ry="1.41"/><ellipse class="cls-24" cx="1128.96" cy="253.52" rx="8.05" ry="2.2"/><path class="cls-24" d="M1116.07,218.63s6,2.83,25.79,0L1137,254s-6.79-3.92-16.11,0Z"/></g><path class="cls-25" d="M1139.73,218.7l-3.64,35.24h-1.49a99.5,99.5,0,0,1,3.57-34.93Z"/><g class="cls-10"><ellipse class="cls-24" cx="1099.99" cy="219.37" rx="12.9" ry="1.41"/><ellipse class="cls-24" cx="1099.99" cy="254.09" rx="8.05" ry="2.2"/><path class="cls-24" d="M1087.09,219.2s6,2.83,25.79,0L1108,254.59s-6.79-3.92-16.11,0Z"/></g><path class="cls-25" d="M1110.75,219.28l-3.63,35.23h-1.5a99.51,99.51,0,0,1,3.57-34.93Z"/><g class="cls-10"><ellipse class="cls-24" cx="1071.22" cy="220.27" rx="12.9" ry="1.41"/><ellipse class="cls-24" cx="1071.22" cy="254.99" rx="8.05" ry="2.2"/><path class="cls-24" d="M1058.32,220.1s6,2.83,25.79,0l-4.84,35.39s-6.79-3.91-16.1,0Z"/></g><path class="cls-25" d="M1082,220.18l-3.63,35.24h-1.49a99.5,99.5,0,0,1,3.57-34.93Z"/><g class="cls-10"><ellipse class="cls-24" cx="1041.96" cy="220.24" rx="12.9" ry="1.41"/><ellipse class="cls-24" cx="1041.96" cy="254.96" rx="8.05" ry="2.2"/><path class="cls-24" d="M1029.07,220.07s6,2.83,25.79,0L1050,255.46s-6.79-3.92-16.11,0Z"/></g><path class="cls-25" d="M1052.73,220.14l-3.64,35.24h-1.49a99.5,99.5,0,0,1,3.57-34.93Z"/><g class="cls-10"><ellipse class="cls-24" cx="1153.55" cy="396.08" rx="12.9" ry="1.41"/><ellipse class="cls-24" cx="1153.55" cy="430.8" rx="8.05" ry="2.2"/><path class="cls-24" d="M1140.66,395.91s6,2.83,25.79,0l-4.84,35.39s-6.79-3.92-16.11,0Z"/></g><path class="cls-25" d="M1164.32,396l-3.64,35.23h-1.49a99.5,99.5,0,0,1,3.57-34.93Z"/><path class="cls-26" d="M1141.39,401.4s6.31-1.2,9.36,0c0,0,4.8-.9,5.41-.27s8.3-.63,8.68-.27a1,1,0,0,0,.88.24l-4.13,29.7s-.68,2.3-8.06,2.2-8-1.2-8-1.7S1141.39,401.4,1141.39,401.4Z"/><g class="cls-10"><ellipse class="cls-24" cx="1127.46" cy="391.29" rx="12.9" ry="1.41"/><ellipse class="cls-24" cx="1127.46" cy="426.01" rx="8.05" ry="2.2"/><path class="cls-24" d="M1114.57,391.12s6,2.83,25.79,0l-4.84,35.39s-6.79-3.92-16.11,0Z"/></g><path class="cls-25" d="M1138.23,391.2l-3.64,35.23h-1.49a99.51,99.51,0,0,1,3.57-34.93Z"/><path class="cls-26" d="M1115.3,396.61s6.31-1.2,9.36,0c0,0,4.8-.9,5.41-.27s8.3-.62,8.68-.26a1,1,0,0,0,.88.23L1135.5,426s-.68,2.3-8.06,2.2-8-1.2-8-1.7S1115.3,396.61,1115.3,396.61Z"/><g class="cls-10"><ellipse class="cls-24" cx="1115.78" cy="396.08" rx="12.9" ry="1.41"/><ellipse class="cls-24" cx="1115.78" cy="430.8" rx="8.05" ry="2.2"/><path class="cls-24" d="M1102.88,395.91s6,2.83,25.79,0l-4.84,35.39s-6.79-3.92-16.1,0Z"/></g><path class="cls-25" d="M1126.54,396l-3.63,35.23h-1.5a99.65,99.65,0,0,1,3.58-34.93Z"/><path class="cls-26" d="M1103.61,401.4s6.32-1.2,9.36,0c0,0,4.8-.9,5.41-.27s8.31-.63,8.69-.27a1,1,0,0,0,.87.24l-4.13,29.7s-.67,2.3-8,2.2-8-1.2-8-1.7S1103.61,401.4,1103.61,401.4Z"/><rect x="-9.28" y="13.88" width="1368.22" height="12.01"/><rect x="-9.28" y="17.66" width="24.56" height="764.22"/><rect x="1334.39" y="22.62" width="24.56" height="760.56"/><g class="cls-10"><ellipse class="cls-12" cx="776.87" cy="385.53" rx="22.2" ry="1.45"/><ellipse class="cls-13" cx="776.87" cy="426.96" rx="13.86" ry="1.99"/><line class="cls-14" x1="776.87" y1="403.54" x2="776.87" y2="424.97"/><path class="cls-15" d="M799.06,385.53l-21.2,18.05h-2l-21.18-18.05a7.39,7.39,0,0,0,2.87.71l2.76.26,2.66.16,2.28.11,2.74.09,3.92.08,5,0s6.3,0,6.32-.06l4.44-.12,5.47-.28,3.43-.32A6,6,0,0,0,799.06,385.53Z"/></g><path class="cls-16" d="M759.12,389a5.07,5.07,0,0,1,1.84,0,23.72,23.72,0,0,0,5.33,0c.09-.17,6.94-.37,7.55,0s9.75.29,9.95.12a2.89,2.89,0,0,1,1.13-.35c-.12.08.82,0,1,.24a32.14,32.14,0,0,0,4.5,0,10.91,10.91,0,0,0,2.53,0,4.42,4.42,0,0,1,1.64,0l-16.76,14.51h-2Z"/><g class="cls-11"><circle class="cls-17" cx="766.62" cy="393.85" r="1.01"/><ellipse class="cls-18" cx="766.92" cy="393.59" rx="0.46" ry="0.58"/></g><circle class="cls-17" cx="771.82" cy="396.52" r="1.01"/><ellipse class="cls-18" cx="772.28" cy="396.3" rx="0.46" ry="0.58"/><g class="cls-11"><circle class="cls-17" cx="779.9" cy="389.46" r="1.01"/><ellipse class="cls-18" cx="780.37" cy="389.24" rx="0.46" ry="0.58"/></g><circle class="cls-17" cx="784.33" cy="395.67" r="1.01"/><ellipse class="cls-18" cx="784.8" cy="395.44" rx="0.46" ry="0.58"/><circle class="cls-17" cx="780.41" cy="398.44" r="1.01"/><ellipse class="cls-18" cx="780.87" cy="398.21" rx="0.46" ry="0.58"/><circle class="cls-17" cx="781.69" cy="396.02" r="0.51"/><ellipse class="cls-18" cx="781.93" cy="395.91" rx="0.23" ry="0.29"/><circle class="cls-17" cx="778.89" cy="396.88" r="0.51"/><ellipse class="cls-18" cx="779.12" cy="396.77" rx="0.23" ry="0.29"/><path class="cls-19" d="M776.76,401.52l17.31-23.46a1.56,1.56,0,0,1,2.18-1c1.57.75,9.86,4.52,9.86,4.52l-.68,1-9.25-4s-.82-1-1.16.41-17.34,23-17.34,23Z"/><g class="cls-10"><ellipse class="cls-3" cx="803.6" cy="388.7" rx="19.98" ry="1.44"/><ellipse class="cls-1" cx="803.6" cy="429.98" rx="12.48" ry="1.98"/><line class="cls-27" x1="803.6" y1="406.65" x2="803.6" y2="428"/><path class="cls-28" d="M823.48,388.66l-19.09,18h-1.8l-19.07-18a6.13,6.13,0,0,0,2.58.71l2.48.25,2.4.17,2,.1,2.47.09,3.53.09,4.47,0s5.68,0,5.69-.06l4-.12,4.93-.28,3.08-.31A5.09,5.09,0,0,0,823.48,388.66Z"/></g><path class="cls-29" d="M787.62,392.19s1.34-.23,1.65,0a19.74,19.74,0,0,0,4.8,0c.09-.18,6.25-.37,6.8,0s8.78.3,9,.13a2.52,2.52,0,0,1,1-.36c-.11.08.74,0,.92.25a27.34,27.34,0,0,0,4.05,0,9.36,9.36,0,0,0,2.28,0,3.54,3.54,0,0,1,1.47,0l-15.08,14.46h-1.81Z"/><ellipse class="cls-30" cx="807.94" cy="401.91" rx="0.91" ry="1.01"/><ellipse class="cls-31" cx="808.36" cy="401.73" rx="0.42" ry="0.58"/><path class="cls-32" d="M802.8,403.65l15.59-23.37s.54-1.72,2-1,8.89,4.5,8.89,4.5l-.62,1-8.33-4s-.74-.95-1,.41-15.6,22.94-15.6,22.94Z"/><ellipse class="cls-30" cx="800.68" cy="399.98" rx="0.91" ry="1.01"/><ellipse class="cls-31" cx="801.09" cy="399.8" rx="0.42" ry="0.58"/><ellipse class="cls-30" cx="801.33" cy="396.15" rx="0.46" ry="0.5"/><ellipse class="cls-31" cx="801.53" cy="396.05" rx="0.21" ry="0.29"/><ellipse class="cls-30" cx="797.53" cy="396.65" rx="0.91" ry="1.01"/><ellipse class="cls-31" cx="797.94" cy="396.47" rx="0.42" ry="0.58"/><ellipse class="cls-30" cx="808.85" cy="397.86" rx="0.46" ry="0.5"/><ellipse class="cls-31" cx="809.06" cy="397.77" rx="0.21" ry="0.29"/><ellipse class="cls-30" cx="810.21" cy="397.36" rx="0.46" ry="0.5"/><ellipse class="cls-31" cx="810.42" cy="397.27" rx="0.21" ry="0.29"/><ellipse class="cls-30" cx="792.86" cy="393.36" rx="0.46" ry="0.5"/><ellipse class="cls-31" cx="793.07" cy="393.27" rx="0.21" ry="0.29"/><ellipse class="cls-30" cx="805.75" cy="392.47" rx="0.46" ry="0.5"/><ellipse class="cls-31" cx="805.96" cy="392.38" rx="0.21" ry="0.29"/><rect class="cls-2" x="-0.79" y="-0.93" width="1347.19" height="790"/><rect class="cls-9" x="92.68" y="101.38" width="417.79" height="632.61" rx="54.12"/><polygon class="cls-9" points="502.7 435.17 502.7 361.7 576.28 361.7 539.49 398.44 502.7 435.17"/><rect class="cls-33" x="838.98" y="398.64" width="105.99" height="169.77"/><rect class="cls-33" x="677.08" y="506.79" width="421.63" height="250.01" rx="91.77"/><rect class="cls-33" x="677.08" y="655.63" width="421.63" height="123.26"/><path class="cls-34" d="M792.24,582.8c-6.82-3.53,29-85.88,29-85.88A14,14,0,0,1,840,491l7.24,3.75a14,14,0,0,1,6,18.82l-38.83,44.1Z"/><path class="cls-34" d="M867,587h-14.1c-6.37,0-11.58-74.48-11.58-74.48a12,12,0,0,1,.23-2.33A11.64,11.64,0,0,1,852.89,501H867a11.61,11.61,0,0,1,11.59,11.57S873.37,587,867,587Z"/><rect class="cls-34" x="836.65" y="442.83" width="109.48" height="58.14" rx="3.62"/><path class="cls-35" d="M924.23,442.83h17.63s-11.19,43-26.17,58.14h-14.4S924.47,462.6,924.23,442.83Z"/><path class="cls-35" d="M889.57,442.83H907.2S896,485.85,881,501h-14.4S889.8,462.6,889.57,442.83Z"/><path class="cls-35" d="M839.06,500.46s-3.58,0-2.41-6.12c0,0,13.83-18.95,19.14-51.51h17.63s-8.74,36.05-24.5,58.14l-8-.41Z"/><path class="cls-35" d="M821.19,496.92s2.65,25.52,17.79,32.81l-8.89,10.1s-14.87-12-15.8-26.56Z"/><path class="cls-35" d="M807,531.16s1.44,13.76,14.36,18.53l-7,7.95s-12.49-9-11.43-16Z"/><path class="cls-35" d="M798.43,554s1.66,11.31,8.87,11.69l-4.39,5s-6.43-1.61-7.31-8.34Z"/><path class="cls-35" d="M792.19,574.42s1.58,3.8,3.8,4.13l-3.75,4.25S789.66,580.43,792.19,574.42Z"/><path class="cls-35" d="M841.75,518.37s29.84-.08,36.83-5.83l-.94,11.94s-33.77,7-35,4Z"/><path class="cls-35" d="M841.49,514.93s8.67-8.89,35.92-8.32c0,0-3.52-5.64-10.31-5.64H849.61s-5.8-.05-8.3,4.63Z"/><path class="cls-35" d="M843.66,539.83s24,4.66,32.93-3.72L875.26,549s-17.35,4.92-30.31,2.88Z"/><path class="cls-35" d="M846.18,561.68s27.1,2.94,27.42.77-1.6,10.23-1.6,10.23-23.23,1.72-24.63-3Z"/><path class="cls-36" d="M681.62,582.8s198.36,52.77,412.55,0c0,0,12.69-30.66,4.54,196.09H677.08S672.19,604.17,681.62,582.8Z"/><path class="cls-34" d="M681.62,582.8l6.09-15.55s189.42,60.47,400.38,0l6.08,15.55S909.79,639.06,681.62,582.8Z"/><rect class="cls-37" x="934.37" y="651.92" width="96.15" height="40.09" rx="12"/><path class="cls-34" d="M943.87,649.81H1021a9.5,9.5,0,0,1,9.5,9.5v8.43a0,0,0,0,1,0,0H934.37a0,0,0,0,1,0,0v-8.43A9.5,9.5,0,0,1,943.87,649.81Z"/><ellipse class="cls-38" cx="942.13" cy="653.7" rx="2.3" ry="2.17"/><ellipse class="cls-38" cx="949.03" cy="654.24" rx="2.3" ry="1.62"/><path class="cls-38" d="M938.68,656.93s5.75,16.22,13.8,0C952.48,656.93,945.58,665.57,938.68,656.93Z"/><rect class="cls-38" x="939.54" y="672.2" width="19.15" height="12.92" rx="2.42"/><rect class="cls-9" x="946.27" y="672.2" width="2.59" height="12.92"/><rect class="cls-9" x="947.83" y="669.09" width="2.58" height="19.15" transform="translate(1627.78 -270.46) rotate(90)"/><rect class="cls-36" x="962.83" y="672.2" width="19.15" height="12.92" rx="2.42"/><rect class="cls-39" x="969.56" y="672.2" width="2.59" height="12.92"/><rect class="cls-39" x="971.12" y="669.09" width="2.58" height="19.15" transform="translate(1651.07 -293.74) rotate(90)"/><rect class="cls-38" x="986.12" y="672.2" width="19.15" height="12.92" rx="2.42"/><rect class="cls-9" x="992.85" y="672.2" width="2.59" height="12.92"/><rect class="cls-9" x="994.4" y="669.09" width="2.58" height="19.15" transform="translate(1674.36 -317.03) rotate(90)"/><rect class="cls-40" x="993.37" y="672.2" width="1.55" height="12.92"/><rect class="cls-40" x="994.92" y="669.09" width="1.55" height="19.15" transform="translate(317.03 1674.36) rotate(-90)"/><polygon class="cls-41" points="1013.39 682.38 1017.05 680.16 1016.86 680.16 1013.39 682.38"/><polygon class="cls-40" points="1009.41 673.72 1009.41 677.23 1014.75 677.23 1009.41 673.72"/><path class="cls-40" d="M1026.57,672.36l-.23,0h-6.16v3.89Z"/><polygon class="cls-40" points="1009.41 680.16 1009.41 682.75 1013.7 680.16 1009.41 680.16"/><polygon class="cls-40" points="1017.24 672.34 1011.39 672.34 1017.24 676.18 1017.24 672.34"/><polygon class="cls-40" points="1010.64 684.56 1017.24 684.56 1017.24 680.56 1010.64 684.56"/><polygon class="cls-40" points="1027.52 677.23 1027.52 674.33 1022.75 677.23 1027.52 677.23"/><polygon class="cls-40" points="1027.52 682.92 1027.52 680.16 1023.31 680.16 1027.52 682.92"/><polygon class="cls-40" points="1020.18 684.56 1025.92 684.56 1020.18 680.79 1020.18 684.56"/><path class="cls-9" d="M1010.14,684.45l0,0-.09-.06-.23.14.23.38.64-.39h0A1.15,1.15,0,0,1,1010.14,684.45Z"/><path class="cls-9" d="M1020.18,677.23h.64l6.64-4,0,0a1.17,1.17,0,0,0-.91-.87l-6.39,3.87Zm6.8-4.52v0a.92.92,0,0,1,0,.29v.3l-5.62,3.41h-1.08Z"/><path class="cls-9" d="M1017.24,680.16h-.19l-3.66,2.22-3.25,2.07a1.15,1.15,0,0,0,.45.11h0l6.6-4Z"/><polygon class="cls-9" points="1027.52 674.33 1027.52 673.82 1021.9 677.23 1022.75 677.23 1027.52 674.33"/><path class="cls-9" d="M1013.7,680.16l-4.29,2.6v.61a1.21,1.21,0,0,0,.19.65l3.49-2.12,2.74-1.74Z"/><path class="cls-9" d="M1017.24,677.23v-1.05l-5.85-3.84h-.8a1.2,1.2,0,0,0-.81.32l7,4.57Z"/><path class="cls-9" d="M1021.2,680.16l6,4a2.39,2.39,0,0,0,.13-.21l-5.73-3.76Z"/><polygon class="cls-9" points="1022.67 680.16 1027.52 683.34 1027.52 682.92 1023.31 680.16 1022.67 680.16"/><path class="cls-9" d="M1020.18,680.79l5.74,3.77h.42a1.16,1.16,0,0,0,.42-.08l-6.58-4.32h0Z"/><path class="cls-9" d="M1015.71,677.23l-6.23-4.1a1.28,1.28,0,0,0-.07.39v.2l5.34,3.51Z"/><path class="cls-38" d="M1016.73,677.23l-7-4.57a1.22,1.22,0,0,0-.3.47l6.23,4.1Z"/><path class="cls-38" d="M1027.52,683.34l-4.85-3.18h-1l5.73,3.76a1.12,1.12,0,0,0,.14-.55Z"/><path class="cls-38" d="M1013.39,682.38l3.47-2.22H1016l-2.89,1.74-3.44,2.21a1.2,1.2,0,0,0,.35.32l0,0Z"/><path class="cls-38" d="M1010.14,684.45l-.1,0,0,0,.09.06Z"/><path class="cls-38" d="M1010.14,684.45l3.25-2.07-3.35,2Z"/><polygon class="cls-38" points="1015.83 680.16 1013.09 681.9 1015.98 680.16 1015.83 680.16"/><path class="cls-38" d="M1027,673.33V673a.92.92,0,0,0,0-.29v0l-6.65,4h1.08Z"/><polygon class="cls-9" points="1023.31 680.16 1027.52 680.16 1027.52 679.67 1022.56 679.67 1023.31 680.16"/><polygon class="cls-9" points="1014.5 679.67 1009.41 679.67 1009.41 680.16 1013.7 680.16 1014.5 679.67"/><polygon class="cls-9" points="1014.75 677.23 1009.41 677.23 1009.41 677.71 1015.5 677.71 1014.75 677.23"/><polygon class="cls-9" points="1021.94 677.71 1027.52 677.71 1027.52 677.23 1022.75 677.23 1021.94 677.71"/><polygon class="cls-9" points="1021.94 677.71 1022.75 677.23 1021.9 677.23 1021.09 677.71 1021.94 677.71"/><polygon class="cls-9" points="1020.18 677.61 1020.82 677.23 1020.18 677.23 1020.18 677.61"/><polygon class="cls-9" points="1016.09 680.09 1016.78 679.67 1014.5 679.67 1013.7 680.16 1015.83 680.16 1015.92 680.1 1016.09 680.09"/><polygon class="cls-9" points="1015.92 680.1 1015.83 680.16 1015.98 680.16 1016.09 680.09 1015.92 680.1"/><polygon class="cls-9" points="1017.05 680.16 1017.24 680.16 1017.24 680.04 1017.05 680.16"/><polygon class="cls-9" points="1017.24 677.23 1016.73 677.23 1017.24 677.56 1017.24 677.23"/><polygon class="cls-9" points="1015.71 677.23 1014.75 677.23 1015.5 677.71 1016.46 677.71 1015.71 677.23"/><polygon class="cls-9" points="1022.67 680.16 1023.31 680.16 1022.56 679.67 1020.46 679.67 1021.2 680.16 1021.65 680.16 1022.67 680.16"/><polygon class="cls-9" points="1020.18 680.16 1020.18 680.16 1020.18 680.16 1020.18 680.16"/><polygon class="cls-9" points="1020.18 679.67 1020.18 680.16 1020.18 680.16 1021.2 680.16 1020.46 679.67 1020.18 679.67"/><polygon class="cls-9" points="1017.24 677.71 1017.24 677.56 1016.73 677.23 1015.71 677.23 1016.46 677.71 1017.24 677.71"/><polygon class="cls-9" points="1017.24 679.67 1016.78 679.67 1016.09 680.09 1017 680.07 1016.86 680.16 1017.05 680.16 1017.24 680.04 1017.24 679.67"/><polygon class="cls-9" points="1016.09 680.09 1015.98 680.16 1016.86 680.16 1017 680.07 1016.09 680.09"/><polygon class="cls-9" points="1020.18 677.71 1021.09 677.71 1021.9 677.23 1020.82 677.23 1020.18 677.61 1020.18 677.71"/><polygon class="cls-9" points="1017.24 680.56 1017.24 684.56 1017.73 684.56 1017.73 680.26 1017.24 680.56"/><polygon class="cls-9" points="1019.69 680.47 1019.69 684.56 1020.18 684.56 1020.18 680.79 1019.69 680.47"/><polygon class="cls-9" points="1017.73 676.5 1017.73 672.34 1017.24 672.34 1017.24 676.18 1017.73 676.5"/><polygon class="cls-9" points="1020.18 676.23 1020.18 672.34 1019.69 672.34 1019.69 676.53 1020.18 676.23"/><polygon class="cls-9" points="1017.24 680.16 1017.24 680.56 1017.73 680.26 1017.73 680.16 1017.24 680.16"/><polygon class="cls-9" points="1020.18 677.23 1020.18 676.23 1019.69 676.53 1019.69 677.23 1020.18 677.23"/><polygon class="cls-9" points="1017.73 676.5 1017.24 676.18 1017.24 677.23 1017.73 677.23 1017.73 676.5"/><polygon class="cls-9" points="1019.69 680.47 1020.18 680.79 1020.18 680.16 1019.69 680.16 1019.69 680.47"/><polygon class="cls-9" points="1017.73 679.75 1017.24 680.04 1017.24 680.16 1017.73 680.16 1017.73 679.75"/><polygon class="cls-9" points="1019.69 677.71 1020.01 677.71 1020.18 677.61 1020.18 677.23 1019.69 677.23 1019.69 677.71"/><polygon class="cls-9" points="1019.69 680.16 1020.18 680.16 1020.18 680.16 1019.69 679.84 1019.69 680.16"/><polygon class="cls-9" points="1017.48 677.71 1017.73 677.71 1017.73 677.23 1017.24 677.23 1017.24 677.56 1017.48 677.71"/><polygon class="cls-9" points="1019.69 679.84 1020.18 680.16 1020.18 679.67 1019.69 679.67 1019.69 679.84"/><polygon class="cls-9" points="1017.24 677.56 1017.24 677.71 1017.48 677.71 1017.24 677.56"/><polygon class="cls-9" points="1017.24 679.67 1017.24 680.04 1017.73 679.75 1017.73 679.67 1017.24 679.67"/><polygon class="cls-9" points="1020.18 677.71 1020.18 677.61 1020.01 677.71 1020.18 677.71"/><polygon class="cls-38" points="1018.7 677.13 1019.69 676.53 1019.69 672.34 1017.73 672.34 1017.73 676.5 1018.7 677.13"/><polygon class="cls-38" points="1019.22 680.16 1017.9 680.16 1017.73 680.26 1017.73 684.56 1019.69 684.56 1019.69 680.47 1019.22 680.16"/><polygon class="cls-38" points="1017.73 680.26 1017.9 680.16 1017.73 680.16 1017.73 680.26"/><polygon class="cls-38" points="1019.69 677.23 1019.69 676.53 1018.7 677.13 1018.84 677.23 1019.69 677.23"/><polygon class="cls-38" points="1018.54 677.23 1018.7 677.13 1017.73 676.5 1017.73 677.23 1018.54 677.23"/><polygon class="cls-38" points="1019.22 680.16 1019.69 680.47 1019.69 680.16 1019.22 680.16"/><polygon class="cls-38" points="1018.84 677.23 1018.7 677.13 1018.54 677.23 1018.84 677.23"/><polygon class="cls-38" points="1017.9 680.16 1019.22 680.16 1018.59 679.74 1017.9 680.16"/><polygon class="cls-38" points="1019.69 677.71 1019.69 677.23 1018.84 677.23 1019.58 677.71 1019.69 677.71"/><polygon class="cls-38" points="1018.48 679.67 1017.86 679.67 1017.73 679.75 1017.73 680.16 1017.9 680.16 1018.59 679.74 1018.48 679.67"/><polygon class="cls-38" points="1019.69 679.84 1019.44 679.67 1018.71 679.67 1018.59 679.74 1019.22 680.16 1019.69 680.16 1019.69 679.84"/><polygon class="cls-38" points="1017.73 677.23 1017.73 677.71 1018.54 677.23 1017.73 677.23"/><polygon class="cls-38" points="1018.84 677.23 1018.54 677.23 1017.73 677.71 1019.58 677.71 1018.84 677.23"/><polygon class="cls-38" points="1018.59 679.74 1018.71 679.67 1018.48 679.67 1018.59 679.74"/><polygon class="cls-38" points="1019.69 679.84 1019.69 679.67 1019.44 679.67 1019.69 679.84"/><polygon class="cls-38" points="1017.73 679.75 1017.86 679.67 1017.73 679.67 1017.73 679.75"/><polygon class="cls-38" points="1016.57 678.42 1015.5 677.71 1009.41 677.71 1009.41 679.67 1014.5 679.67 1016.57 678.42"/><polygon class="cls-38" points="1020.71 678.46 1022.56 679.67 1027.52 679.67 1027.52 677.71 1021.94 677.71 1020.71 678.46"/><polygon class="cls-38" points="1017.24 679.39 1017.24 678.86 1016.57 678.42 1014.5 679.67 1016.78 679.67 1017.24 679.39"/><polygon class="cls-38" points="1020.71 678.46 1021.94 677.71 1021.09 677.71 1020.31 678.19 1020.71 678.46"/><polygon class="cls-38" points="1016.46 677.71 1015.5 677.71 1016.57 678.42 1017.07 678.12 1016.46 677.71"/><polygon class="cls-38" points="1020.18 678.78 1020.18 679.49 1020.46 679.67 1022.56 679.67 1020.71 678.46 1020.18 678.78"/><polygon class="cls-38" points="1020.18 678.26 1020.18 678.78 1020.71 678.46 1020.31 678.19 1020.18 678.26"/><polygon class="cls-38" points="1017.24 678.23 1017.07 678.12 1016.57 678.42 1017.24 678.86 1017.24 678.23"/><polygon class="cls-38" points="1017.24 677.71 1016.46 677.71 1017.07 678.12 1017.24 678.01 1017.24 677.71"/><polygon class="cls-38" points="1020.18 679.67 1020.46 679.67 1020.18 679.49 1020.18 679.67"/><polygon class="cls-38" points="1017.07 678.12 1017.24 678.23 1017.24 678.01 1017.07 678.12"/><polygon class="cls-38" points="1020.31 678.19 1021.09 677.71 1020.18 677.71 1020.18 678.11 1020.31 678.19"/><polygon class="cls-38" points="1016.78 679.67 1017.24 679.67 1017.24 679.39 1016.78 679.67"/><polygon class="cls-38" points="1020.31 678.19 1020.18 678.11 1020.18 678.26 1020.31 678.19"/><polygon class="cls-38" points="1019.79 677.85 1020.01 677.71 1019.69 677.71 1019.69 677.78 1019.79 677.85"/><polygon class="cls-38" points="1017.24 678.86 1017.24 679.39 1017.66 679.14 1017.24 678.86"/><polygon class="cls-38" points="1019.69 679.17 1020.18 679.49 1020.18 678.78 1019.69 679.08 1019.69 679.17"/><polygon class="cls-38" points="1017.73 677.71 1017.48 677.71 1017.6 677.79 1017.73 677.71"/><polygon class="cls-38" points="1017.73 677.88 1017.73 677.71 1017.6 677.79 1017.73 677.88"/><polygon class="cls-38" points="1019.69 677.91 1019.79 677.85 1019.69 677.78 1019.69 677.91"/><polygon class="cls-38" points="1017.73 679.09 1017.73 678.55 1017.24 678.23 1017.24 678.86 1017.66 679.14 1017.73 679.09"/><polygon class="cls-38" points="1019.69 678.56 1019.69 679.08 1020.18 678.78 1020.18 678.26 1019.69 678.56"/><polygon class="cls-38" points="1019.69 679.17 1019.69 679.67 1020.18 679.67 1020.18 679.49 1019.69 679.17"/><polygon class="cls-38" points="1017.6 677.79 1017.48 677.71 1017.24 677.71 1017.24 678.01 1017.6 677.79"/><polygon class="cls-38" points="1017.73 677.88 1017.6 677.79 1017.24 678.01 1017.24 678.23 1017.73 678.55 1017.73 677.88"/><polygon class="cls-38" points="1017.73 679.18 1017.66 679.14 1017.24 679.39 1017.24 679.67 1017.73 679.67 1017.73 679.18"/><polygon class="cls-38" points="1019.79 677.85 1020.18 678.11 1020.18 677.71 1020.01 677.71 1019.79 677.85"/><polygon class="cls-38" points="1019.69 678.56 1020.18 678.26 1020.18 678.11 1019.79 677.85 1019.69 677.91 1019.69 678.56"/><polygon class="cls-38" points="1017.66 679.14 1017.73 679.18 1017.73 679.09 1017.66 679.14"/><polygon class="cls-38" points="1019.69 677.78 1019.69 677.71 1019.58 677.71 1019.69 677.78"/><polygon class="cls-38" points="1017.86 679.67 1018.48 679.67 1018.18 679.48 1017.86 679.67"/><polygon class="cls-38" points="1019.62 679.12 1019.69 679.17 1019.69 679.08 1019.62 679.12"/><polygon class="cls-38" points="1018.71 679.67 1019.44 679.67 1019.09 679.44 1018.71 679.67"/><polygon class="cls-38" points="1019.62 679.12 1019.69 679.08 1019.69 678.56 1019.21 678.85 1019.62 679.12"/><polygon class="cls-38" points="1017.73 678.55 1017.73 679.09 1018.16 678.83 1017.73 678.55"/><polygon class="cls-38" points="1018.68 679.17 1018.18 679.48 1018.48 679.67 1018.71 679.67 1019.09 679.44 1018.68 679.17"/><polygon class="cls-38" points="1018.69 678.51 1019.69 677.91 1019.69 677.78 1019.58 677.71 1017.73 677.71 1017.73 677.88 1018.69 678.51"/><polygon class="cls-38" points="1019.09 679.44 1019.44 679.67 1019.69 679.67 1019.69 679.17 1019.62 679.12 1019.09 679.44"/><polygon class="cls-38" points="1018.68 679.17 1019.09 679.44 1019.62 679.12 1019.21 678.85 1018.68 679.17"/><polygon class="cls-38" points="1018.69 678.51 1017.73 677.88 1017.73 678.55 1018.16 678.83 1018.69 678.51"/><polygon class="cls-38" points="1017.73 679.18 1017.73 679.67 1017.86 679.67 1018.18 679.48 1017.73 679.18"/><polygon class="cls-38" points="1017.73 679.09 1017.73 679.18 1018.18 679.48 1018.68 679.17 1018.16 678.83 1017.73 679.09"/><polygon class="cls-38" points="1018.69 678.51 1019.21 678.85 1019.69 678.56 1019.69 677.91 1018.69 678.51"/><polygon class="cls-38" points="1018.69 678.51 1018.16 678.83 1018.68 679.17 1019.21 678.85 1018.69 678.51"/><path class="cls-36" d="M550.74,593.6,660,782.46a12.07,12.07,0,0,0,16.42,4.39l36.35-21a12,12,0,0,0,4.4-16.39L607.9,560.65a12.07,12.07,0,0,0-16.42-4.39l-36.34,21A12,12,0,0,0,550.74,593.6Z"/><path class="cls-33" d="M543.94,575.61l-29.46-48a9.52,9.52,0,0,1,3.15-13.07l31.53-19.28a9.56,9.56,0,0,1,13.08,3.14l29.46,48a9.52,9.52,0,0,1-3.15,13.06L557,578.75A9.55,9.55,0,0,1,543.94,575.61Z"/><path class="cls-37" d="M829.63,417v74.73s-1.57,11.87-14.32,12.58-99.11,44.2-132.63-94c0,0,71.72,62.09,93.47,31s-7.08-100.69-7.08-100.69Z"/><rect class="cls-33" x="762.37" y="114.18" width="283.79" height="323.7" rx="103"/><ellipse class="cls-42" cx="824.6" cy="259.36" rx="31.51" ry="31.46"/><ellipse cx="815.24" cy="256.4" rx="18.18" ry="18.15"/><ellipse class="cls-9" cx="836.43" cy="247.44" rx="6.57" ry="6.56"/><path class="cls-9" d="M812.75,271.18l15.76-5.9a18.92,18.92,0,0,1-6.45,5.9C817.6,273.75,812.75,271.18,812.75,271.18Z"/><ellipse class="cls-42" cx="905.63" cy="259.14" rx="30.51" ry="30.46"/><ellipse cx="912.37" cy="249.73" rx="17.6" ry="17.58"/><ellipse class="cls-9" cx="921.39" cy="244.07" rx="6.36" ry="6.35"/><path class="cls-9" d="M909.93,262.88l15.25-5.71a18.27,18.27,0,0,1-6.24,5.71C914.62,265.37,909.93,262.88,909.93,262.88Z"/><path class="cls-43" d="M847.89,302.38c-1.49.23,9.42-9.11,11.66-33.38l3.89-19.4.45-.46a1.57,1.57,0,0,1,2.2,0l.46.46,4.91,55.4s18.16,10.11,0,22a59,59,0,0,1-14.68,1.79,34.47,34.47,0,0,1-5.07-.44,20.33,20.33,0,0,1-7.75-2.82C849.89,329.5,828.3,319,847.89,302.38Z"/><path class="cls-44" d="M879.39,243.42s24.46-13.61,53.65,0c0,0-9.21-16.51-29.24-15.47S879.39,243.42,879.39,243.42Z"/><path class="cls-44" d="M789.27,258.57s36.31-12.61,67.36,0a34.31,34.31,0,0,0-6.74-18.82c-6.55-8.79-20.2-13-31-12.11C797.67,229.48,789.27,258.57,789.27,258.57Z"/><ellipse class="cls-45" cx="862.31" cy="326.25" rx="5.29" ry="2.09" transform="translate(-49.2 187.79) rotate(-12.09)"/><ellipse class="cls-45" cx="847.69" cy="325.31" rx="1.93" ry="5.29" transform="matrix(0.34, -0.94, 0.94, 0.34, 251.02, 1009.7)"/><path d="M880.54,209.58v12.11S900,202,923.6,205.1s28.66,4.35,28.66,4.35l-22.06-7.64a40.06,40.06,0,0,0-13.8-2.39C909.48,199.67,901.94,199.91,880.54,209.58Z"/><path d="M848.54,218.81l-1.67,10.41s-13-19.49-32.52-19.84-23.78.05-23.78.05l18.9-3.75A31,31,0,0,1,821,205.4C826.52,206.51,832.58,207.69,848.54,218.81Z"/><path class="cls-46" d="M919.82,239.54c6,2,13.29-3.52,16.33-12.42"/><path class="cls-46" d="M913.21,237.31c6,2.05,13.18-2.93,16-11.14"/><path class="cls-46" d="M905.67,236.61c5.9,2,12.83-2.7,15.5-10.52"/><path class="cls-46" d="M796.39,255.75c-6.95,1.33-14.12-5.73-16-15.77"/><path class="cls-46" d="M927.08,241c6.33,2.15,14.12-4,17.42-13.62"/><path class="cls-46" d="M815.86,252.46c-6.94,1.33-13.74-3.76-15.2-11.37"/><path class="cls-46" d="M810.42,254.58c-6.95,1.33-13.85-4.28-15.43-12.55"/><path class="cls-46" d="M804.2,254c-7,1.32-14-5-15.74-14.2"/><path class="cls-37" d="M866.82,111.88S851.76,171.55,752,212.94c0,0-37,26.67-23.37,71.63,0,0-76.12-272.75,135.92-239.36"/><path class="cls-37" d="M843.62,133.44s91.11,57.35,175.44,49.23c0,0,29.52,167.14-8.77,200.53s-48.06,40.31-69.86,47.71c0,0-4.56,47,1.19,59.38S958,512,961.33,512.79s78.83,32.39,131.38-5.14,44.35-81,44.35-81-64.87,56.63-78,25.6,54.2-222.5,54.2-222.5S1165,72.38,1041.39,51.32c0,0-44.19-23-124.12-16.22,0,0-43,2.92-61.87,14.56Z"/><ellipse class="cls-47" cx="854.88" cy="313.64" rx="6.22" ry="2.72"/><ellipse class="cls-48" cx="940.81" cy="299.77" rx="29.06" ry="20.14" transform="translate(-19.83 528.16) rotate(-31.05)"/><ellipse class="cls-48" cx="788.04" cy="301.53" rx="18.14" ry="26.16" transform="translate(37.17 686.39) rotate(-48.08)"/><path class="cls-49" d="M866.55,249.6l10.19,59.78s-3.86-3.7-5.28-4.38Z"/><path class="cls-50" d="M854.88,298.65s.7,9.47,4.63,0c0,0,7.81-20.33,4.7-34.31,0,0-5.73,22.28-8.55,31.05C854.88,297.83,854.88,299.28,854.88,298.65Z"/><path d="M878.15,244.16s13.27-8.33,34.79-5c5.92.93,12.81,1.64,19.8,5,0,0,2.67.15,8.45-3.88L928,239.18s-11-2.49-14.24-2.92a50.3,50.3,0,0,0-15,0A59,59,0,0,0,878.15,244.16Z"/><path class="cls-51" d="M851.75,128.86s-32.24,52.81-83.56,69.89c0,0-39.67,12.05-41.21,39,0,0,3.89-26.6,30.33-44.45,0,0,42.06-10.86,67.29-42.69Z"/><path class="cls-52" d="M855.27,86.2S835.06,143.64,734,185.55c0,0,25.3-84.09,75.63-103.37,0,0-29.76,4-37.53,18,0,0,11.66-23.29,56-29.5,0,0-51.32-11.64-77.75,32.6,0,0,32.24-63.88,109.63-45Z"/><path class="cls-51" d="M871.64,54.77s107.65-39.6,201.72,25.6c0,0-100.57-52.76-182.07-25.6,0,0,52.44-12.41,72.94,0,0,0-83.6-3.4-92.59,9.16,0,0,155.07-15.55,201.72,33.83s35.76,118.5,35.76,118.5S1130.3,63.86,876.74,93.07h-9.92Z"/><path class="cls-53" d="M868.88,75.72s61.51,44.93,139.14,43.47c0,0,59.66-2.38,70,26.39,0,0-13.55-27.46-56.28-36.57,0,0-62.69,4.62-108-20.19Z"/><path class="cls-51" d="M859.55,123.07s47,50.32,159.93,47.28c0,0,24.88.58,21.11,33.32,0,0,11.13-38.39-9.15-44.75,0,0-102.69,3.68-167.23-55.26Z"/><path class="cls-51" d="M1086,259.75s-67.8,108.19-85.29,212.8c0,0-1.14,28.83,17.12,33s53.06-7,53.06-7S1009.93,458.52,1086,259.75Z"/><path class="cls-51" d="M816,406.91s38.89,117.48-75.4,84.1c0,0,45.66,16.52,56-79.67Z"/><polygon class="cls-54" points="822.37 362.35 845.18 389.15 880.87 387.68 901.08 363.47 890.3 358.09 832.38 358.09 812.17 355.4 809.48 355.4 822.37 362.35"/><path class="cls-55" d="M813.52,354.06c2.05-.87,41.36-16,40-6a.12.12,0,0,0,.21.1c1.94-2.44,13-12.37,52.59,13.89a.12.12,0,0,1,0,.21c-1.57.74-13.57,5.65-51.58,2.6-37.82-3-46.32-11.27-46.57-12.11C808.11,352.65,813.44,354.09,813.52,354.06Z"/><path class="cls-55" d="M808.13,354.06s30.39,13.75,39.07,13.45S862,389,904.69,361.3c0,0-6.31,18.31-30.85,36.42S813.24,386.81,808.13,354.06Z"/><path d="M856.63,258.57s-16-6.59-42.09-3.93c-7.16.73-15.49,1.29-23.95,3.93,0,0-3.23.12-10.22-3.06l16-.87s13.28-2,17.23-2.31a92.35,92.35,0,0,1,18.18,0A96.85,96.85,0,0,1,856.63,258.57Z"/><path class="cls-46" d="M903.65,363c5.65-.4,16.8-4.13,17.63-7.58"/><path class="cls-46" d="M916.57,349.35c0,4.46,6,8.07,13.47,8.07"/><path class="cls-56" d="M856.72,372.64a4.07,4.07,0,0,1,2.66-4.6c2.18-.94,5.69-2.88,10.86-1.61a4.19,4.19,0,0,1,1.59.91c.21.17.63.17,1.48-.51,0,0,12.62-4.23,13.94,5.28a38.78,38.78,0,0,0,8.09,23s21.32,29.95-24.11,6a10.73,10.73,0,0,1-3-2.33C865.59,395.78,860.33,388.27,856.72,372.64Z"/><ellipse class="cls-57" cx="866.06" cy="374.92" rx="7.03" ry="7.44" transform="matrix(0.95, -0.31, 0.31, 0.95, -73.22, 283.39)"/><path class="cls-54" d="M871.83,367.34s.5,15.6,14.87,31.42c0,0-15.81-23.52-14.19-31.42Z"/><path class="cls-33" d="M558.07,495.86s-12.69-5.74-19-19-18-24.14-27-31.27a266,266,0,0,0-48.17-10.29l-13.67,2.38-9.92,4.48s-4.56,5.21-4.95,19.46c0,0-.34,3.4,4.65,4.82,0,0-2.82,6.81-1.58,12s4.08,6.12,4.08,6.12-5.91,5.35-.64,17.6c0,0-5.85,2.82-6.52,7.63a7,7,0,0,0,0,8.71s.7,7.35,12.52,0a7,7,0,0,0,3.09-5.41s15.51,5,14.22-10.84a16.88,16.88,0,0,0-5.36-7.7s16-7.29-4.88-26.22l-.47-14.24h4.74s2.59,16.21,34.62,32.13c0,0,8.09,25.22,36.62,37.39l27.61,6.09-27.61-6.09c-25.58-9.38-36.62-37.39-36.62-37.39-32.52-15.15-34.62-32.13-34.62-32.13h-4.74l.47,14.24c20.68,19.53,4.88,26.22,4.88,26.22,4.17,3.45,8.26,11.76,3.25,16.62S451,513.05,451,513.05c.52,1.71-1.85,4.34-1.85,4.34l15.61,1.34c6.38,13.53,61.16,29.76,69.68,28s21.49,1,21.49,1"/><path class="cls-55" d="M477.59,451.26a31.57,31.57,0,0,0-9.23-12.7s-4,1.8-4.77,9.84c0,0,4.88,7.73,10.6,10.9C474.19,459.3,478,455.07,477.59,451.26Z"/><path class="cls-55" d="M442.39,454.3s-2.56-13.32-6.05-1.9c0,0-1.76,4.93-1,9.22C435.37,461.62,439.55,462.44,442.39,454.3Z"/><path class="cls-55" d="M458.43,482s-17.93-13.56-13.17,4c0,0,.61,1.82,7.9,7.48A23.88,23.88,0,0,0,458.43,482Z"/><path class="cls-55" d="M461.34,501.92l-6.68-6.05s-2,.77-4.8-1.73c0,0-7,3.19-3.9,7.78,0,0,1.67,4.46,9.32,10.56C455.28,512.48,460.43,507.82,461.34,501.92Z"/><path class="cls-55" d="M440.59,511s-.47-6.67-5.1-1.85c0,0-4,5.06-.13,9.35C435.36,518.46,432.74,510.84,440.59,511Z"/><path class="cls-28" d="M498.25,461.44a45.12,45.12,0,0,1,8.65-13.14Z"/><polygon class="cls-45" points="487.09 455.22 493.7 446.48 487.87 455.74 487.09 455.22"/><path class="cls-2" d="M518.84,467.3s-18.1-1.54-28.44-9.42l-13.48-8.21S502,466,518.84,467.3Z"/><path class="cls-45" d="M530.46,523.57s-22.56-8.66-36.62-37.39c0,0-30.6-16.3-34.62-32.13,0,0-.43-7.06,1-7.57,0,0-13.25,13.6,32.37,41.34C492.62,487.82,510.5,518.53,530.46,523.57Z"/><path class="cls-45" d="M493.54,489.27s-3.88,18.3-14.69,33.4Z"/><path class="cls-28" d="M495.93,494.14s2.26,10.65.26,21Z"/><path class="cls-2" d="M435.37,461.62s2.36,13.88,19.18-5.37C454.55,456.25,440,475.79,435.37,461.62Z"/><path class="cls-2" d="M442.52,484.52s9.24,21.32,21.6,6.31C464.12,490.83,453.52,504.91,442.52,484.52Z"/><path d="M463.46,498.58S471.62,516,451,513.05l-9.09-10.93,9.56,10.36S469.52,517.18,463.46,498.58Z"/><path d="M450,516.22s-9.84,8.7-14.14,3.69C435.87,519.91,438.6,526.61,450,516.22Z"/><g class="cls-58"><ellipse class="cls-59" cx="445.98" cy="339.46" rx="104.7" ry="7.56" transform="translate(-38.5 57.66) rotate(-7.09)"/><ellipse class="cls-60" cx="472.78" cy="554.12" rx="65.39" ry="10.39" transform="translate(-64.79 62.6) rotate(-7.09)"/><line class="cls-61" x1="457.63" y1="432.79" x2="471.49" y2="543.81"/><path class="cls-62" d="M549.89,326.53,462.3,432.41l-9.4,1.17-110.82-81.2a32.2,32.2,0,0,0,13.89,2l13-.3,12.58-.7,10.75-.78,12.9-1.12,18.4-1.84L446.92,347s29.53-3.5,29.55-4l20.7-3.22,25.45-4.64,15.83-3.62S546.61,330,549.89,326.53Z"/></g><path class="cls-63" d="M488.89,356.75c1.11.95,21.55-2.69,21.55-2.69s9.46-1.37,12.12-2.69a6.65,6.65,0,0,1,5.39,0l-65.65,81-9.4,1.17-97.37-71.45s20.83-4.73,22.9,0c.8,1.84,19.85-.39,20.2-1.35s32.32-3,35.48-1.3,44.54-.37,45.35-1.39"/><g class="cls-11"><ellipse class="cls-64" cx="403.38" cy="388.53" rx="4.77" ry="5.27" transform="translate(-45.62 53.76) rotate(-7.22)"/><ellipse class="cls-65" cx="404.61" cy="386.99" rx="2.19" ry="3.03" transform="translate(-44.96 53.29) rotate(-7.14)"/></g><ellipse class="cls-64" cx="429.44" cy="399.36" rx="4.77" ry="5.27" transform="translate(-46.77 57.12) rotate(-7.22)"/><ellipse class="cls-65" cx="431.47" cy="397.92" rx="2.19" ry="3.03" transform="translate(-46.11 56.71) rotate(-7.14)"/><g class="cls-11"><ellipse class="cls-64" cx="462.73" cy="358.05" rx="4.77" ry="5.27" transform="translate(-41.32 60.98) rotate(-7.22)"/><ellipse class="cls-65" cx="464.76" cy="356.61" rx="2.19" ry="3.03" transform="translate(-40.72 60.53) rotate(-7.14)"/></g><ellipse class="cls-64" cx="487.48" cy="387.62" rx="4.77" ry="5.27" transform="matrix(0.99, -0.13, 0.13, 0.99, -44.84, 64.32)"/><ellipse class="cls-65" cx="489.51" cy="386.18" rx="2.19" ry="3.03" transform="translate(-44.2 63.84) rotate(-7.14)"/><ellipse class="cls-64" cx="470.91" cy="404.26" rx="4.77" ry="5.27" transform="translate(-47.06 62.37) rotate(-7.22)"/><ellipse class="cls-65" cx="472.94" cy="402.82" rx="2.19" ry="3.03" transform="translate(-46.4 61.9) rotate(-7.14)"/><ellipse class="cls-64" cx="475.36" cy="390.99" rx="2.39" ry="2.64" transform="translate(-45.36 62.82) rotate(-7.22)"/><ellipse class="cls-65" cx="476.37" cy="390.27" rx="1.1" ry="1.51" transform="translate(-44.81 62.23) rotate(-7.14)"/><ellipse class="cls-64" cx="462.8" cy="397.07" rx="2.39" ry="2.64" transform="matrix(0.99, -0.13, 0.13, 0.99, -46.22, 61.29)"/><ellipse class="cls-65" cx="463.81" cy="396.35" rx="1.1" ry="1.51" transform="translate(-45.67 60.72) rotate(-7.14)"/><path class="cls-66" d="M455.83,422.35,521.7,290.74s1.69-9.29,9.55-6.31,49.1,17.65,49.1,17.65l-2.54,5.71L531.9,292.27s-4.47-4.49-5.19,2.8-66.25,129.36-66.25,129.36Z"/><path d="M169.44,160.26H153v-5.92h40v5.92H176.49v48h-7.05Z"/><path d="M206,154.34v53.92h-7V154.34Z"/><path d="M218.16,154.34h7v48.08h23.08v5.84H218.16Z"/><path d="M256,154.34h7v48.08H286v5.84H256Z"/><path d="M299.09,208.26V185.38l-17.07-31H290l7.61,14.88c2.09,4.08,3.69,7.36,5.37,11.12h.16c1.53-3.52,3.37-7,5.45-11.12l7.77-14.88h7.94l-18.11,31v23Z"/><path d="M329.86,154.34h7v26h.24c1.44-2.08,2.88-4,4.25-5.76l16.5-20.24h8.65l-19.55,22.88,21.08,31h-8.26L342,181.78l-5.13,5.92v20.56h-7Z"/><path d="M373.29,154.34h7v26h.24c1.44-2.08,2.88-4,4.25-5.76l16.5-20.24h8.65l-19.55,22.88,21.08,31h-8.26l-17.78-26.48-5.13,5.92v20.56h-7Z"/><path d="M444.68,183h-21v19.44h23.39v5.84H416.72V154.34h29.16v5.84H423.69v17h21Z"/><path d="M203.65,271.46a22,22,0,0,1,4.66-.51c3.14,0,5.38,1.06,6.87,3.07s2.39,4.85,2.39,8.83-.86,7.3-2.44,9.56a8.68,8.68,0,0,1-7.5,3.54,24.7,24.7,0,0,1-4-.29Zm2.19,21.75a9.31,9.31,0,0,0,2.21.19c4.69,0,7.23-3.8,7.23-10.44,0-5.81-2.24-9.49-6.87-9.49a8.46,8.46,0,0,0-2.57.33Z"/><path d="M230.62,290.91c0,1.83,0,3.44.1,4.82h-2l-.12-2.88h0c-.58,1.42-1.87,3.28-4,3.28-1.92,0-4.21-1.53-4.21-7.73V278.07h2.22v9.78c0,3.36.7,5.62,2.72,5.62,1.48,0,2.52-1.5,2.92-2.92a6.88,6.88,0,0,0,.2-1.64V278.07h2.22Z"/><path d="M239.63,269.82h2.22v11h.05a5.42,5.42,0,0,1,1.59-2.26,3.53,3.53,0,0,1,2.26-.91c1.64,0,4.26,1.46,4.26,7.55v10.51h-2.22V285.59c0-2.85-.73-5.26-2.82-5.26-1.43,0-2.57,1.46-3,3.21a5.74,5.74,0,0,0-.15,1.53v10.66h-2.22Z"/><path d="M260.36,295.73l-.18-2.22h-.07a4.31,4.31,0,0,1-3.73,2.62c-2.47,0-3.73-2.51-3.73-5.07,0-4.27,2.62-6.61,7.33-6.57v-.36c0-1.46-.28-4.09-2.77-4.09a4.81,4.81,0,0,0-3.17,1.31l-.5-2.11a5.89,5.89,0,0,1,4-1.57c3.72,0,4.63,3.68,4.63,7.22v6.61a36,36,0,0,0,.2,4.23Zm-.33-9c-2.42-.08-5.16.54-5.16,4,0,2.08,1,3.06,2.09,3.06,1.59,0,2.59-1.46,3-2.95a5.17,5.17,0,0,0,.12-1Z"/><path d="M265.75,283.58c0-2.08,0-3.87-.1-5.51h1.94l.07,3.46h.1c.56-2.37,1.89-3.86,3.38-3.86a1.57,1.57,0,0,1,.63.11v3a2.49,2.49,0,0,0-.76-.11c-1.56,0-2.67,1.72-3,4.13a13.14,13.14,0,0,0-.1,1.5v9.41h-2.19Z"/><path d="M279.32,282.85c0-1.83,0-3.32-.1-4.78h2l.12,2.92h.05c.61-1.68,2-3.32,4-3.32,1.69,0,4.31,1.46,4.31,7.51v10.55h-2.22V285.55c0-2.85-.73-5.22-2.82-5.22-1.46,0-2.59,1.5-3,3.28a6.67,6.67,0,0,0-.15,1.5v10.62h-2.22Z"/><path d="M303.5,290.91c0,1.83,0,3.44.1,4.82h-2l-.12-2.88h-.05c-.58,1.42-1.87,3.28-4,3.28-1.91,0-4.21-1.53-4.21-7.73V278.07h2.22v9.78c0,3.36.71,5.62,2.72,5.62,1.48,0,2.52-1.5,2.92-2.92a6.41,6.41,0,0,0,.2-1.64V278.07h2.22Z"/><path d="M312.74,295.73V280.51H311v-2.44h1.71v-.84c0-2.48.38-4.75,1.41-6.17a3.61,3.61,0,0,1,3-1.64,3.76,3.76,0,0,1,1.89.51l-.3,2.48a2.46,2.46,0,0,0-1.41-.4c-1.89,0-2.37,2.41-2.37,5.11v.95h2.95v2.44h-2.95v15.22Z"/><path d="M326.62,295.73l-.18-2.22h-.08a4.29,4.29,0,0,1-3.72,2.62c-2.47,0-3.73-2.51-3.73-5.07,0-4.27,2.62-6.61,7.33-6.57v-.36c0-1.46-.28-4.09-2.77-4.09a4.79,4.79,0,0,0-3.17,1.31l-.51-2.11a5.93,5.93,0,0,1,4-1.57c3.72,0,4.63,3.68,4.63,7.22v6.61a36,36,0,0,0,.2,4.23Zm-.33-9c-2.42-.08-5.16.54-5.16,4,0,2.08.95,3.06,2.09,3.06,1.58,0,2.59-1.46,2.94-2.95a4.54,4.54,0,0,0,.13-1Zm-4.76-13.91c0-1.93,1-3.47,2.57-3.47s2.49,1.5,2.49,3.43-1.08,3.36-2.52,3.36S321.53,274.67,321.53,272.81Zm3.83-.07c0-1.1-.51-2-1.31-2s-1.24.95-1.24,2.08c0,.95.51,2,1.24,2S325.36,273.83,325.36,272.74Z"/><path d="M333.24,287.48c.05,4.35,2,6.14,4.18,6.14a5.91,5.91,0,0,0,3.37-.92l.38,2.3a7.3,7.3,0,0,1-4.05,1.1c-3.75,0-6-3.58-6-8.91s2.16-9.52,5.71-9.52c4,0,5,5.07,5,8.32,0,.65-.05,1.17-.08,1.49Zm6.5-2.3c0-2-.58-5.21-3.08-5.21-2.24,0-3.22,3-3.39,5.21Z"/><path d="M347.29,273v5.08h3.18v2.44h-3.18V290c0,2.19.43,3.43,1.66,3.43a3.53,3.53,0,0,0,1.29-.22l.1,2.41a3.89,3.89,0,0,1-2,.44,2.7,2.7,0,0,1-2.4-1.35c-.63-.95-.85-2.52-.85-4.6v-9.64h-1.89v-2.44h1.89v-4.24Z"/><path d="M358.3,282.85c0-1.83,0-3.32-.1-4.78h2l.13,2.92h0a4.54,4.54,0,0,1,4-3.32c1.68,0,4.3,1.46,4.3,7.51v10.55h-2.21V285.55c0-2.85-.73-5.22-2.82-5.22-1.46,0-2.6,1.5-3,3.28a6.1,6.1,0,0,0-.16,1.5v10.62H358.3Z"/><path d="M383.3,286.75c0,6.54-3.12,9.38-6.07,9.38-3.29,0-5.84-3.5-5.84-9.08,0-5.92,2.67-9.38,6.05-9.38S383.3,281.35,383.3,286.75Zm-9.67.19c0,3.87,1.54,6.79,3.71,6.79s3.7-2.89,3.7-6.87c0-3-1-6.79-3.65-6.79S373.63,283.58,373.63,286.94Z"/><path d="M388.29,286.17h0c.3-.62.73-1.39,1.08-2l3.58-6.09h2.67L391,285.33l5.36,10.4h-2.69l-4.21-8.47-1.13,1.83v6.64H386.1V269.82h2.19Z"/><path d="M122.59,331.28c0,4.35,2,6.14,4.18,6.14a6,6,0,0,0,3.38-.92l.37,2.3a7.3,7.3,0,0,1-4.05,1.1c-3.75,0-6-3.58-6-8.91s2.16-9.52,5.71-9.52c4,0,5,5.07,5,8.32,0,.65,0,1.17-.08,1.49Zm6.5-2.3c0-2-.58-5.21-3.07-5.21-2.24,0-3.22,3-3.4,5.21Z"/><path d="M134,326.65c0-1.83,0-3.32-.1-4.78h2l.13,2.92H136c.6-1.68,2-3.32,4-3.32,1.69,0,4.31,1.46,4.31,7.51v10.55h-2.22V329.35c0-2.85-.73-5.22-2.82-5.22-1.46,0-2.59,1.5-3,3.29a6.52,6.52,0,0,0-.15,1.49v10.62H134Z"/><path d="M149.19,331.28c.05,4.35,2,6.14,4.18,6.14a5.94,5.94,0,0,0,3.37-.92l.38,2.3a7.34,7.34,0,0,1-4.06,1.1c-3.75,0-6-3.58-6-8.91s2.17-9.52,5.72-9.52c4,0,5,5.07,5,8.32,0,.65,0,1.17-.07,1.49Zm6.49-2.3c0-2-.58-5.21-3.07-5.21-2.24,0-3.22,3-3.4,5.21Z"/><path d="M160.57,327.38c0-2.08,0-3.87-.1-5.51h1.94l.07,3.46h.1c.56-2.37,1.89-3.86,3.38-3.86a1.57,1.57,0,0,1,.63.11v3a2.5,2.5,0,0,0-.76-.1c-1.56,0-2.67,1.71-3,4.12a13.14,13.14,0,0,0-.1,1.5v9.41h-2.19Z"/><path d="M179.1,321.87c0,1.27-.1,2.7-.1,4.85V337c0,4-.55,6.53-1.73,8.06a5.32,5.32,0,0,1-4.44,2.12,6,6,0,0,1-4.05-1.46l.55-2.44a5.41,5.41,0,0,0,3.58,1.38c2.27,0,3.93-1.71,3.93-6.17v-2h-.05a4.26,4.26,0,0,1-3.88,3c-3,0-5.19-3.72-5.19-8.61,0-6,2.7-9.38,5.49-9.38a4.11,4.11,0,0,1,3.8,3.06h.05l.1-2.66Zm-2.29,7a6.59,6.59,0,0,0-.12-1.46c-.41-1.86-1.49-3.4-3.1-3.4-2.12,0-3.63,2.6-3.63,6.68,0,3.47,1.21,6.35,3.6,6.35,1.36,0,2.6-1.24,3.08-3.28a8.36,8.36,0,0,0,.17-1.72Z"/><path d="M185,316.9c0,1.1-.53,2-1.41,2s-1.34-.87-1.34-2,.58-2,1.39-2S185,315.77,185,316.9Zm-2.47,22.63V321.87h2.22v17.66Z"/><path d="M196.43,316.79v5.08h3.17v2.44h-3.17v9.53c0,2.19.43,3.43,1.66,3.43a3.53,3.53,0,0,0,1.29-.22l.1,2.41a3.91,3.91,0,0,1-2,.44,2.69,2.69,0,0,1-2.39-1.35c-.63-.95-.85-2.52-.85-4.6v-9.64h-1.89v-2.44h1.89v-4.24Z"/><path d="M204.57,316.9c0,1.1-.53,2-1.41,2s-1.34-.87-1.34-2,.58-2,1.39-2S204.57,315.77,204.57,316.9Zm-2.47,22.63V321.87h2.21v17.66Z"/><path d="M208,313.62h2.22v25.91H208Z"/><path d="M221.74,316.9c0,1.1-.53,2-1.41,2s-1.33-.87-1.33-2,.58-2,1.38-2S221.74,315.77,221.74,316.9Zm-2.47,22.63V321.87h2.22v17.66Z"/><path d="M241,313.62V335c0,1.57,0,3.36.1,4.56h-2l-.1-3.06h0c-.68,2-2.17,3.46-4.15,3.46-3,0-5.22-3.61-5.22-9,0-5.88,2.5-9.49,5.47-9.49a4,4,0,0,1,3.67,2.7h.05V313.62Zm-2.22,15.44a7.67,7.67,0,0,0-.1-1.35c-.32-2-1.53-3.73-3.19-3.73-2.3,0-3.66,2.92-3.66,6.83,0,3.58,1.21,6.53,3.6,6.53,1.49,0,2.85-1.42,3.25-3.83a7.64,7.64,0,0,0,.1-1.39Z"/><path d="M251.46,339.53l-.18-2.22h-.08a4.29,4.29,0,0,1-3.72,2.62c-2.47,0-3.73-2.51-3.73-5.07,0-4.27,2.62-6.61,7.33-6.57v-.36c0-1.46-.28-4.09-2.77-4.09a4.79,4.79,0,0,0-3.17,1.31l-.51-2.11a5.93,5.93,0,0,1,4-1.57c3.72,0,4.63,3.68,4.63,7.22v6.61a36,36,0,0,0,.2,4.23Zm-.33-9c-2.42-.08-5.16.55-5.16,4,0,2.08.95,3.06,2.09,3.06,1.58,0,2.59-1.46,2.94-2.95a4.54,4.54,0,0,0,.13-1Z"/><path d="M267.35,321.87c-.06,1.27-.11,2.7-.11,4.85V337c0,4-.55,6.53-1.73,8.06a5.31,5.31,0,0,1-4.43,2.12A6.07,6.07,0,0,1,257,345.7l.56-2.44a5.36,5.36,0,0,0,3.57,1.38c2.27,0,3.93-1.71,3.93-6.17v-2H265a4.26,4.26,0,0,1-3.88,3c-3,0-5.18-3.72-5.18-8.61,0-6,2.69-9.38,5.48-9.38a4.12,4.12,0,0,1,3.81,3.06h.05l.1-2.66Zm-2.3,7a6.59,6.59,0,0,0-.12-1.46c-.4-1.86-1.49-3.4-3.1-3.4-2.11,0-3.62,2.6-3.62,6.68,0,3.47,1.2,6.35,3.6,6.35,1.36,0,2.59-1.24,3.07-3.28a8.36,8.36,0,0,0,.17-1.72Z"/><path d="M272.16,331.28c0,4.35,2,6.14,4.18,6.14a5.94,5.94,0,0,0,3.37-.92l.38,2.3a7.33,7.33,0,0,1-4,1.1c-3.76,0-6-3.58-6-8.91s2.17-9.52,5.72-9.52c4,0,5,5.07,5,8.32,0,.65-.05,1.17-.07,1.49Zm6.49-2.3c0-2-.58-5.21-3.07-5.21-2.24,0-3.22,3-3.4,5.21Z"/><path d="M283.54,326.65c0-1.83,0-3.32-.1-4.78h2l.13,2.92h.05c.61-1.68,2-3.32,4-3.32,1.69,0,4.3,1.46,4.3,7.51v10.55H291.7V329.35c0-2.85-.73-5.22-2.82-5.22-1.46,0-2.59,1.5-3,3.29a6.52,6.52,0,0,0-.15,1.49v10.62h-2.22Z"/><path d="M297.22,336.25a4.64,4.64,0,0,0,2.92,1.28,2.32,2.32,0,0,0,2.36-2.63c0-1.54-.63-2.37-2.26-3.25a5.41,5.41,0,0,1-3.23-5c0-2.85,1.59-5.18,4.21-5.18a4.75,4.75,0,0,1,3,1.09l-.56,2.34a3.77,3.77,0,0,0-2.49-1,2.14,2.14,0,0,0-2,2.41c0,1.46.73,2.12,2.32,3a5.49,5.49,0,0,1,3.19,5.33c0,3.1-1.66,5.29-4.55,5.29a5.35,5.35,0,0,1-3.43-1.21Z"/><path d="M312.53,336.25a4.64,4.64,0,0,0,2.92,1.28,2.32,2.32,0,0,0,2.36-2.63c0-1.54-.62-2.37-2.26-3.25a5.4,5.4,0,0,1-3.22-5c0-2.85,1.58-5.18,4.2-5.18a4.75,4.75,0,0,1,3,1.09L319,324.9a3.77,3.77,0,0,0-2.49-1,2.14,2.14,0,0,0-2,2.41c0,1.46.73,2.12,2.32,3a5.49,5.49,0,0,1,3.19,5.33c0,3.1-1.66,5.29-4.55,5.29a5.35,5.35,0,0,1-3.43-1.21Z"/><path d="M324,331.28c0,4.35,2,6.14,4.18,6.14a5.94,5.94,0,0,0,3.37-.92l.38,2.3a7.34,7.34,0,0,1-4.06,1.1c-3.75,0-6-3.58-6-8.91s2.17-9.52,5.72-9.52c4,0,5,5.07,5,8.32,0,.65-.05,1.17-.07,1.49Zm6.49-2.3c0-2-.58-5.21-3.07-5.21-2.24,0-3.22,3-3.4,5.21Z"/><path d="M335.42,327.38c0-2.08,0-3.87-.1-5.51h1.94l.07,3.46h.1c.56-2.37,1.89-3.86,3.38-3.86a1.61,1.61,0,0,1,.63.11v3a2.5,2.5,0,0,0-.76-.1c-1.56,0-2.67,1.71-3,4.12a13.14,13.14,0,0,0-.1,1.5v9.41h-2.19Z"/><path d="M345.14,321.87l2.39,9.93c.4,1.6.73,3.06,1,4.52h.08c.28-1.46.63-2.92,1-4.52l2.37-9.93h2.31l-4.78,17.66h-2.11l-4.64-17.66Z"/><path d="M358.86,316.9c0,1.1-.52,2-1.41,2s-1.33-.87-1.33-2,.58-2,1.38-2S358.86,315.77,358.86,316.9Zm-2.46,22.63V321.87h2.21v17.66Z"/><path d="M371,338.88a6.2,6.2,0,0,1-3.5,1c-3.68,0-6.07-3.62-6.07-9S364,321.5,368,321.5a5.66,5.66,0,0,1,3.08.91l-.51,2.49a3.92,3.92,0,0,0-2.57-.84c-2.79,0-4.3,3-4.3,6.68,0,4.08,1.81,6.6,4.23,6.6a4.78,4.78,0,0,0,2.72-.87Z"/><path d="M374.65,331.28c.06,4.35,2,6.14,4.18,6.14a6,6,0,0,0,3.38-.92l.38,2.3a7.37,7.37,0,0,1-4.06,1.1c-3.75,0-6-3.58-6-8.91s2.17-9.52,5.71-9.52c4,0,5,5.07,5,8.32,0,.65-.05,1.17-.08,1.49Zm6.5-2.3c0-2-.58-5.21-3.07-5.21-2.24,0-3.22,3-3.4,5.21Z"/><path d="M391.38,326.65c0-1.83,0-3.32-.1-4.78h1.93l.1,2.84h.08c.68-1.67,1.81-3.24,3.83-3.24,1.66,0,2.92,1.46,3.45,3.54h.05a6.82,6.82,0,0,1,1.36-2.3,3.37,3.37,0,0,1,2.69-1.24c1.61,0,4,1.53,4,7.66v10.4h-2.16v-10c0-3.39-.86-5.44-2.65-5.44-1.25,0-2.24,1.35-2.61,2.92a7.61,7.61,0,0,0-.18,1.61v10.91H399V329c0-2.81-.85-4.86-2.54-4.86-1.38,0-2.39,1.61-2.74,3.22a6,6,0,0,0-.18,1.57v10.65h-2.16Z"/><path d="M423.41,330.55c0,6.54-3.12,9.38-6.07,9.38-3.3,0-5.84-3.5-5.84-9.08,0-5.92,2.67-9.38,6-9.38S423.41,325.15,423.41,330.55Zm-9.67.19c0,3.87,1.54,6.79,3.7,6.79s3.7-2.89,3.7-6.87c0-3-1-6.79-3.65-6.79S413.74,327.38,413.74,330.74Z"/><path d="M426.21,327.38c0-2.08,0-3.87-.11-5.51H428l.08,3.46h.1c.55-2.37,1.89-3.86,3.37-3.86a1.54,1.54,0,0,1,.63.11v3a2.39,2.39,0,0,0-.75-.1c-1.56,0-2.67,1.71-3,4.12a13.14,13.14,0,0,0-.1,1.5v9.41h-2.19Z"/><path d="M444.74,321.87c-.05,1.27-.1,2.7-.1,4.85V337c0,4-.56,6.53-1.74,8.06a5.3,5.3,0,0,1-4.43,2.12,6,6,0,0,1-4.05-1.46l.55-2.44a5.36,5.36,0,0,0,3.57,1.38c2.27,0,3.93-1.71,3.93-6.17v-2h-.05a4.26,4.26,0,0,1-3.88,3c-3,0-5.18-3.72-5.18-8.61,0-6,2.69-9.38,5.49-9.38a4.12,4.12,0,0,1,3.8,3.06h.05l.1-2.66Zm-2.29,7a6.55,6.55,0,0,0-.13-1.46c-.4-1.86-1.48-3.4-3.1-3.4-2.11,0-3.62,2.6-3.62,6.68,0,3.47,1.21,6.35,3.6,6.35,1.36,0,2.59-1.24,3.07-3.28a7.73,7.73,0,0,0,.18-1.72Z"/><path d="M449.55,331.28c.05,4.35,2,6.14,4.18,6.14a5.91,5.91,0,0,0,3.37-.92l.38,2.3a7.3,7.3,0,0,1-4.05,1.1c-3.75,0-6-3.58-6-8.91s2.16-9.52,5.71-9.52c4,0,5,5.07,5,8.32,0,.65-.05,1.17-.08,1.49Zm6.5-2.3c0-2-.58-5.21-3.08-5.21-2.24,0-3.22,3-3.39,5.21Z"/><path d="M460.93,326.65c0-1.83,0-3.32-.1-4.78h2l.12,2.92H463c.61-1.68,2-3.32,4-3.32,1.69,0,4.31,1.46,4.31,7.51v10.55h-2.22V329.35c0-2.85-.73-5.22-2.82-5.22-1.46,0-2.59,1.5-3,3.29a6.52,6.52,0,0,0-.15,1.49v10.62h-2.22Z"/><path d="M474.38,337.63c0-1.35.63-2.29,1.51-2.29s1.49.94,1.49,2.29-.58,2.3-1.51,2.3S474.38,339,474.38,337.63Z"/><path d="M260.87,426a11.61,11.61,0,0,1-5.21,1.35,7.33,7.33,0,0,1-6.34-3.25c-1.46-2-2.37-5.33-2.37-9.16,0-7.34,3.5-12.7,9.19-12.7a7.79,7.79,0,0,1,4.23,1.13l-.53,2.59a6.58,6.58,0,0,0-3.75-1.06c-4.13,0-6.82,3.72-6.82,9.89s2.59,9.93,6.54,9.93a5.14,5.14,0,0,0,2.92-.66v-7.33h-3.45v-2.56h5.59Z"/><path d="M275.3,418.15c0,6.54-3.12,9.38-6.06,9.38-3.3,0-5.84-3.5-5.84-9.08,0-5.92,2.66-9.38,6-9.38S275.3,412.75,275.3,418.15Zm-9.66.19c0,3.87,1.53,6.79,3.7,6.79s3.7-2.89,3.7-6.87c0-3-1-6.78-3.65-6.78S265.64,415,265.64,418.34Z"/><path d="M288.63,401.22v21.35c0,1.57,0,3.36.1,4.56h-2l-.1-3.06h-.05c-.68,2-2.17,3.46-4.16,3.46-2.94,0-5.21-3.61-5.21-9,0-5.88,2.49-9.49,5.46-9.49a4,4,0,0,1,3.68,2.7h.05V401.22Zm-2.22,15.44a7.67,7.67,0,0,0-.1-1.35c-.33-2.05-1.54-3.73-3.2-3.73-2.29,0-3.65,2.92-3.65,6.83,0,3.58,1.21,6.53,3.6,6.53,1.49,0,2.85-1.42,3.25-3.83a7.57,7.57,0,0,0,.1-1.39Z"/><path d="M295,404.39v5.08h3.18v2.44H295v9.53c0,2.19.43,3.43,1.67,3.43a3.47,3.47,0,0,0,1.28-.22l.1,2.41a3.89,3.89,0,0,1-2,.44,2.67,2.67,0,0,1-2.39-1.35,8.77,8.77,0,0,1-.86-4.6v-9.64h-1.89v-2.44h1.89v-4.24Z"/><path d="M316.48,409.47c-.05,1.28-.1,2.7-.1,4.85v10.26c0,4.05-.56,6.53-1.74,8.06a5.29,5.29,0,0,1-4.43,2.12,6,6,0,0,1-4-1.46l.55-2.44a5.39,5.39,0,0,0,3.58,1.38c2.26,0,3.92-1.71,3.92-6.17v-2h0a4.26,4.26,0,0,1-3.87,3c-3,0-5.19-3.72-5.19-8.61,0-6,2.69-9.38,5.49-9.38a4.12,4.12,0,0,1,3.8,3.06h.05l.1-2.66Zm-2.29,7a6.55,6.55,0,0,0-.13-1.46c-.4-1.86-1.48-3.4-3.1-3.4-2.11,0-3.62,2.6-3.62,6.68,0,3.47,1.21,6.35,3.6,6.35,1.36,0,2.59-1.24,3.07-3.28a7.73,7.73,0,0,0,.18-1.72Z"/><path d="M326.81,427.13l-.18-2.22h-.08a4.31,4.31,0,0,1-3.72,2.62c-2.47,0-3.73-2.51-3.73-5.07,0-4.27,2.62-6.6,7.33-6.57v-.36c0-1.46-.28-4.09-2.77-4.09a4.77,4.77,0,0,0-3.17,1.31l-.51-2.11a5.93,5.93,0,0,1,4-1.57c3.72,0,4.63,3.68,4.63,7.22v6.61a36,36,0,0,0,.2,4.23Zm-.33-9c-2.42-.07-5.16.55-5.16,4,0,2.08.95,3.06,2.09,3.06,1.58,0,2.59-1.46,2.94-3a4.54,4.54,0,0,0,.13-1Zm-4.76-13.91c0-1.93,1-3.47,2.57-3.47s2.49,1.5,2.49,3.44-1.08,3.35-2.52,3.35S321.72,406.07,321.72,404.21Zm3.83-.07c0-1.1-.51-2-1.31-2s-1.24.95-1.24,2.08c0,1,.51,2,1.24,2S325.55,405.23,325.55,404.14Z"/><path d="M333.43,418.88c.05,4.35,2,6.14,4.18,6.14a5.94,5.94,0,0,0,3.37-.92l.38,2.3a7.3,7.3,0,0,1-4.05,1.1c-3.75,0-6-3.58-6-8.91s2.17-9.52,5.72-9.52c4,0,5,5.07,5,8.32,0,.66-.06,1.17-.08,1.49Zm6.5-2.29c0-2-.58-5.22-3.08-5.22-2.24,0-3.22,3-3.4,5.22Z"/><path d="M347.48,404.39v5.08h3.17v2.44h-3.17v9.53c0,2.19.43,3.43,1.66,3.43a3.53,3.53,0,0,0,1.29-.22l.1,2.41a3.91,3.91,0,0,1-2,.44,2.69,2.69,0,0,1-2.39-1.35c-.63-.95-.85-2.52-.85-4.6v-9.64h-1.89v-2.44h1.89v-4.24Z"/><path d="M352.72,425.27c0-1.31.63-2.26,1.49-2.26s1.48.95,1.48,2.26-.58,2.26-1.48,2.26S352.72,426.55,352.72,425.27Zm.63-5.22L353,402.53h2.41l-.35,17.52Z"/><path d="M176.27,554.67a6.15,6.15,0,0,0,3.93,1.6c2.24,0,3.55-1.71,3.55-4.2,0-2.3-.91-3.61-3.2-4.89-2.77-1.42-4.48-3.5-4.48-7,0-3.83,2.19-6.68,5.49-6.68a5.84,5.84,0,0,1,3.75,1.21l-.6,2.59a5.26,5.26,0,0,0-3.23-1.17c-2.31,0-3.19,2-3.19,3.69,0,2.3,1,3.43,3.37,4.74,2.87,1.61,4.33,3.62,4.33,7.23,0,3.79-1.94,7.08-5.94,7.08a6.75,6.75,0,0,1-4.33-1.57Z"/><path d="M191.11,549h0c.3-.62.73-1.39,1.08-2l3.57-6.09h2.67l-4.71,7.26,5.37,10.4h-2.7l-4.2-8.46-1.13,1.82v6.64h-2.19V532.62h2.19Z"/><path d="M207.93,558.53l-.18-2.22h-.08a4.29,4.29,0,0,1-3.72,2.63c-2.47,0-3.73-2.52-3.73-5.08,0-4.27,2.62-6.6,7.33-6.57v-.36c0-1.46-.28-4.09-2.77-4.09a4.79,4.79,0,0,0-3.17,1.31L201.1,542a5.93,5.93,0,0,1,4-1.57c3.72,0,4.63,3.68,4.63,7.22v6.61a36,36,0,0,0,.2,4.23Zm-.33-9c-2.42-.07-5.16.55-5.16,4,0,2.08,1,3.06,2.09,3.06,1.58,0,2.59-1.46,2.94-2.95a4.53,4.53,0,0,0,.13-1Z"/><path d="M213.32,532.62h2.21v25.91h-2.21Z"/><path d="M225.46,540.87l2.39,9.93c.4,1.6.73,3.06,1,4.52h.07c.28-1.46.63-2.92,1-4.52l2.36-9.93h2.32l-4.78,17.66h-2.12l-4.63-17.66Z"/><path d="M239.18,535.9c0,1.1-.53,2-1.41,2s-1.33-.88-1.33-2,.57-2,1.38-2S239.18,534.77,239.18,535.9Zm-2.47,22.63V540.87h2.22v17.66Z"/><path d="M247.94,546.64c0-2.27-.05-4.09-.1-5.77h2l.1,3h0c.91-2.16,2.35-3.43,4.33-3.43,2.95,0,5.17,3.61,5.17,9,0,6.35-2.67,9.49-5.54,9.49a4.12,4.12,0,0,1-3.75-2.78h-.06v9.6h-2.19Zm2.19,4.7a10.35,10.35,0,0,0,.11,1.32c.4,2.22,1.73,3.76,3.32,3.76,2.34,0,3.7-2.78,3.7-6.83,0-3.54-1.28-6.57-3.63-6.57-1.51,0-2.92,1.57-3.34,4a7,7,0,0,0-.16,1.31Z"/><path d="M262.27,546.38c0-2.08,0-3.87-.1-5.51h1.94l.08,3.47h.1c.55-2.38,1.89-3.87,3.37-3.87a1.57,1.57,0,0,1,.63.11v3a2.15,2.15,0,0,0-.75-.11c-1.57,0-2.67,1.71-3,4.12a13.14,13.14,0,0,0-.1,1.5v9.41h-2.19Z"/><path d="M278.46,541.74l1.06-2.19,1,1-1.05,2.26a11.68,11.68,0,0,1,1.83,6.76c0,6.49-3.09,9.38-5.94,9.38a4.48,4.48,0,0,1-3.12-1.25l-1.08,2.23-.93-1.09,1.05-2.19a11.52,11.52,0,0,1-1.88-6.83c0-5.88,2.66-9.34,6-9.34A4.55,4.55,0,0,1,278.46,541.74Zm-1,2.19a2.75,2.75,0,0,0-2.14-1c-2.72,0-3.8,3.65-3.8,6.86a10.21,10.21,0,0,0,.9,4.41l.05,0Zm-4.23,11.58a2.5,2.5,0,0,0,2,1c2.31,0,3.85-2.89,3.85-6.86a10.61,10.61,0,0,0-.86-4.31h-.05Z"/><path d="M284.76,540.87l2.39,9.93c.41,1.6.73,3.06,1,4.52h.07c.28-1.46.63-2.92,1-4.52l2.37-9.93h2.32l-4.79,17.66H287l-4.63-17.66Z"/><path d="M297,550.29c.05,4.34,2,6.13,4.18,6.13a5.92,5.92,0,0,0,3.37-.91l.38,2.29a7.22,7.22,0,0,1-4.05,1.1c-3.75,0-6-3.58-6-8.91s2.16-9.52,5.71-9.52c4,0,5,5.07,5,8.32,0,.66-.05,1.17-.08,1.5Zm6.5-2.3c0-2-.58-5.22-3.07-5.22-2.24,0-3.23,3-3.4,5.22Z"/><path d="M315,550.29c.05,4.34,2,6.13,4.18,6.13a5.94,5.94,0,0,0,3.37-.91l.38,2.29a7.26,7.26,0,0,1-4.06,1.1c-3.75,0-6-3.58-6-8.91s2.17-9.52,5.72-9.52c4,0,5,5.07,5,8.32,0,.66,0,1.17-.07,1.5Zm6.49-2.3c0-2-.58-5.22-3.07-5.22-2.24,0-3.22,3-3.4,5.22Z"/><path d="M326.34,545.65c0-1.82,0-3.32-.1-4.78h2l.13,2.92h.05a4.54,4.54,0,0,1,4-3.32c1.68,0,4.3,1.46,4.3,7.52v10.54H334.5V548.35c0-2.85-.73-5.22-2.82-5.22-1.46,0-2.6,1.5-3,3.29a6.58,6.58,0,0,0-.15,1.49v10.62h-2.22Z"/><path d="M356.16,540.87c-.06,1.28-.11,2.7-.11,4.85V556c0,4-.55,6.53-1.73,8.07a5.33,5.33,0,0,1-4.43,2.11,6.07,6.07,0,0,1-4.06-1.46l.56-2.44a5.36,5.36,0,0,0,3.57,1.38c2.27,0,3.93-1.71,3.93-6.16v-2h-.05a4.27,4.27,0,0,1-3.88,3c-3,0-5.19-3.72-5.19-8.61,0-6,2.7-9.38,5.49-9.38a4.12,4.12,0,0,1,3.81,3.06h.05l.1-2.66Zm-2.3,7a6.59,6.59,0,0,0-.12-1.46c-.4-1.86-1.49-3.39-3.1-3.39-2.11,0-3.62,2.59-3.62,6.68,0,3.46,1.2,6.35,3.6,6.35,1.36,0,2.59-1.24,3.07-3.29a8.33,8.33,0,0,0,.17-1.71Z"/><path d="M366.48,558.53l-.18-2.22h-.07a4.32,4.32,0,0,1-3.73,2.63c-2.46,0-3.72-2.52-3.72-5.08,0-4.27,2.62-6.6,7.32-6.57v-.36c0-1.46-.27-4.09-2.77-4.09a4.81,4.81,0,0,0-3.17,1.31l-.5-2.11a5.93,5.93,0,0,1,4-1.57c3.73,0,4.63,3.68,4.63,7.22v6.61a33.86,33.86,0,0,0,.21,4.23Zm-.33-9c-2.41-.07-5.16.55-5.16,4,0,2.08,1,3.06,2.09,3.06,1.59,0,2.6-1.46,2.95-2.95a5.16,5.16,0,0,0,.12-1Z"/><path d="M371.87,545.65c0-1.82,0-3.32-.1-4.78h2l.12,2.92h.05c.61-1.68,2-3.32,4-3.32,1.69,0,4.31,1.46,4.31,7.52v10.54H380V548.35c0-2.85-.73-5.22-2.82-5.22-1.46,0-2.59,1.5-3,3.29a6.58,6.58,0,0,0-.15,1.49v10.62h-2.22Z"/><path d="M396.35,540.87c-.05,1.28-.1,2.7-.1,4.85V556c0,4-.56,6.53-1.74,8.07a5.32,5.32,0,0,1-4.43,2.11A6,6,0,0,1,386,564.7l.55-2.44a5.36,5.36,0,0,0,3.57,1.38c2.27,0,3.93-1.71,3.93-6.16v-2H394a4.27,4.27,0,0,1-3.88,3c-3,0-5.18-3.72-5.18-8.61,0-6,2.69-9.38,5.49-9.38a4.12,4.12,0,0,1,3.8,3.06h.05l.1-2.66Zm-2.29,7a6.55,6.55,0,0,0-.13-1.46c-.4-1.86-1.48-3.39-3.1-3.39-2.11,0-3.62,2.59-3.62,6.68,0,3.46,1.21,6.35,3.6,6.35,1.36,0,2.59-1.24,3.07-3.29a7.71,7.71,0,0,0,.18-1.71Z"/><path d="M407.93,535.8v5.07h3.18v2.44h-3.18v9.53c0,2.19.43,3.43,1.67,3.43a3.52,3.52,0,0,0,1.28-.22l.1,2.41a3.89,3.89,0,0,1-2,.44,2.7,2.7,0,0,1-2.4-1.35,8.88,8.88,0,0,1-.85-4.6v-9.64h-1.89v-2.44h1.89v-4.24Z"/><path d="M416.07,535.9c0,1.1-.53,2-1.41,2s-1.34-.88-1.34-2,.58-2,1.39-2S416.07,534.77,416.07,535.9Zm-2.47,22.63V540.87h2.22v17.66Z"/><path d="M419.49,532.62h2.22v25.91h-2.22Z"/><path d="M427.15,551.56l0-.95a10.91,10.91,0,0,1,1.56-6.31,9.76,9.76,0,0,0,1.76-5c0-1.86-.8-3.1-2.39-3.14a3.6,3.6,0,0,0-2.54,1.13l-.61-2.3a5.24,5.24,0,0,1,3.6-1.46c2.9,0,4.21,2.59,4.21,5.37,0,2.48-1,4.27-2.17,6.35a9.27,9.27,0,0,0-1.43,5.36l0,.95Zm-.55,5.11c0-1.35.62-2.3,1.51-2.3s1.48,1,1.48,2.3-.58,2.27-1.51,2.27S426.6,558,426.6,556.67Z"/></svg>